  0
SECTION
  2
HEADER
  9
$ACADVER
  1
AC1014
  9
$ACADMAINTVER
 70
     0
  9
$DWGCODEPAGE
  3
ANSI_1252
  9
$INSBASE
 10
0.0
 20
0.0
 30
0.0
  9
$EXTMIN
 10
0.0
 20
0.0
 30
0.0
  9
$EXTMAX
 10
144.0
 20
96.0
 30
0.0
  9
$LIMMIN
 10
0.0
 20
0.0
  9
$LIMMAX
 10
12.0
 20
9.0
  9
$ORTHOMODE
 70
     0
  9
$REGENMODE
 70
     1
  9
$FILLMODE
 70
     0
  9
$QTEXTMODE
 70
     0
  9
$MIRRTEXT
 70
     1
  9
$DRAGMODE
 70
     2
  9
$LTSCALE
 40
1.0
  9
$OSMODE
 70
    37
  9
$ATTMODE
 70
     1
  9
$TEXTSIZE
 40
0.2
  9
$TRACEWID
 40
0.05
  9
$TEXTSTYLE
  7
STANDARD
  9
$CLAYER
  8
0
  9
$CELTYPE
  6
BYLAYER
  9
$CECOLOR
 62
   256
  9
$CELTSCALE
 40
1.0
  9
$DELOBJ
 70
     1
  9
$DISPSILH
 70
     0
  9
$DIMSCALE
 40
1.0
  9
$DIMASZ
 40
0.18
  9
$DIMEXO
 40
0.0625
  9
$DIMDLI
 40
0.38
  9
$DIMRND
 40
0.0
  9
$DIMDLE
 40
0.0
  9
$DIMEXE
 40
0.18
  9
$DIMTP
 40
0.0
  9
$DIMTM
 40
0.0
  9
$DIMTXT
 40
0.18
  9
$DIMCEN
 40
0.09
  9
$DIMTSZ
 40
0.0
  9
$DIMTOL
 70
     0
  9
$DIMLIM
 70
     0
  9
$DIMTIH
 70
     0
  9
$DIMTOH
 70
     0
  9
$DIMSE1
 70
     0
  9
$DIMSE2
 70
     0
  9
$DIMTAD
 70
     1
  9
$DIMZIN
 70
     0
  9
$DIMBLK
  1

  9
$DIMASO
 70
     1
  9
$DIMSHO
 70
     1
  9
$DIMPOST
  1

  9
$DIMAPOST
  1

  9
$DIMALT
 70
     0
  9
$DIMALTD
 70
     2
  9
$DIMALTF
 40
25.4
  9
$DIMLFAC
 40
1.0
  9
$DIMTOFL
 70
     0
  9
$DIMTVP
 40
0.0
  9
$DIMTIX
 70
     0
  9
$DIMSOXD
 70
     0
  9
$DIMSAH
 70
     0
  9
$DIMBLK1
  1

  9
$DIMBLK2
  1

  9
$DIMSTYLE
  2
STANDARD
  9
$DIMCLRD
 70
     0
  9
$DIMCLRE
 70
     0
  9
$DIMCLRT
 70
     0
  9
$DIMTFAC
 40
1.0
  9
$DIMGAP
 40
0.09
  9
$DIMJUST
 70
     0
  9
$DIMSD1
 70
     0
  9
$DIMSD2
 70
     0
  9
$DIMTOLJ
 70
     1
  9
$DIMTZIN
 70
     0
  9
$DIMALTZ
 70
     0
  9
$DIMALTTZ
 70
     0
  9
$DIMFIT
 70
     5
  9
$DIMUPT
 70
     0
  9
$DIMUNIT
 70
     2
  9
$DIMDEC
 70
     2
  9
$DIMTDEC
 70
     4
  9
$DIMALTU
 70
     2
  9
$DIMALTTD
 70
     2
  9
$DIMTXSTY
  7
STANDARD
  9
$DIMAUNIT
 70
     0
  9
$LUNITS
 70
     2
  9
$LUPREC
 70
     4
  9
$SKETCHINC
 40
0.1
  9
$FILLETRAD
 40
0.5
  9
$AUNITS
 70
     0
  9
$AUPREC
 70
     0
  9
$MENU
  1
.
  9
$ELEVATION
 40
0.0
  9
$PELEVATION
 40
0.0
  9
$THICKNESS
 40
0.0
  9
$LIMCHECK
 70
     0
  9
$BLIPMODE
 70
     0
  9
$CHAMFERA
 40
0.5
  9
$CHAMFERB
 40
0.5
  9
$CHAMFERC
 40
1.0
  9
$CHAMFERD
 40
0.0
  9
$SKPOLY
 70
     0
  9
$TDCREATE
 40
2450772.666465926
  9
$TDUPDATE
 40
2458690.506226852
  9
$TDINDWG
 40
0.0011680787
  9
$TDUSRTIMER
 40
0.0011565046
  9
$USRTIMER
 70
     1
  9
$ANGBASE
 50
0.0
  9
$ANGDIR
 70
     0
  9
$PDMODE
 70
     0
  9
$PDSIZE
 40
0.0
  9
$PLINEWID
 40
0.0
  9
$COORDS
 70
     1
  9
$SPLFRAME
 70
     0
  9
$SPLINETYPE
 70
     6
  9
$SPLINESEGS
 70
     8
  9
$ATTDIA
 70
     0
  9
$ATTREQ
 70
     1
  9
$HANDLING
 70
     1
  9
$HANDSEED
  5
2EB
  9
$SURFTAB1
 70
     6
  9
$SURFTAB2
 70
     6
  9
$SURFTYPE
 70
     6
  9
$SURFU
 70
     6
  9
$SURFV
 70
     6
  9
$UCSNAME
  2

  9
$UCSORG
 10
0.0
 20
0.0
 30
0.0
  9
$UCSXDIR
 10
1.0
 20
0.0
 30
0.0
  9
$UCSYDIR
 10
0.0
 20
1.0
 30
0.0
  9
$PUCSNAME
  2

  9
$PUCSORG
 10
0.0
 20
0.0
 30
0.0
  9
$PUCSXDIR
 10
1.0
 20
0.0
 30
0.0
  9
$PUCSYDIR
 10
0.0
 20
1.0
 30
0.0
  9
$USERI1
 70
     0
  9
$USERI2
 70
     0
  9
$USERI3
 70
     0
  9
$USERI4
 70
     0
  9
$USERI5
 70
     0
  9
$USERR1
 40
0.0
  9
$USERR2
 40
0.0
  9
$USERR3
 40
0.0
  9
$USERR4
 40
0.0
  9
$USERR5
 40
0.0
  9
$WORLDVIEW
 70
     1
  9
$SHADEDGE
 70
     3
  9
$SHADEDIF
 70
    70
  9
$TILEMODE
 70
     1
  9
$MAXACTVP
 70
    48
  9
$PINSBASE
 10
0.0
 20
0.0
 30
0.0
  9
$PLIMCHECK
 70
     0
  9
$PEXTMIN
 10
0.0
 20
0.0
 30
0.0
  9
$PEXTMAX
 10
0.0
 20
0.0
 30
0.0
  9
$PLIMMIN
 10
0.0
 20
0.0
  9
$PLIMMAX
 10
12.0
 20
9.0
  9
$UNITMODE
 70
     0
  9
$VISRETAIN
 70
     1
  9
$PLINEGEN
 70
     0
  9
$PSLTSCALE
 70
     1
  9
$TREEDEPTH
 70
  3020
  9
$PICKSTYLE
 70
     1
  9
$CMLSTYLE
  2
STANDARD
  9
$CMLJUST
 70
     0
  9
$CMLSCALE
 40
1.0
  9
$PROXYGRAPHICS
 70
     1
  9
$MEASUREMENT
 70
     0
  0
ENDSEC
  0
SECTION
  2
CLASSES
  0
CLASS
  1
LWPOLYLINE
  2
AcDbPolyline
  3
AutoCAD 2000
 90
       20
280
     0
281
     1
  0
CLASS
  1
IMAGE
  2
AcDbRasterImage
  3
ISM
 90
       21
280
     0
281
     1
  0
CLASS
  1
OLE2FRAME
  2
AcDbOle2Frame
  3
AutoCAD 2000
 90
       21
280
     0
281
     1
  0
CLASS
  1
HATCH
  2
AcDbHatch
  3
AutoCAD 2000
 90
       20
280
     0
281
     1
  0
CLASS
  1
DICTIONARYVAR
  2
AcDbDictionaryVar
  3
ObjectDBX Classes
 90
       20
280
     0
281
     0
  0
CLASS
  1
RASTERVARIABLES
  2
AcDbRasterVariables
  3
ISM
 90
       21
280
     0
281
     0
  0
CLASS
  1
IMAGEDEF
  2
AcDbRasterImageDef
  3
ISM
 90
       21
280
     0
281
     0
  0
CLASS
  1
IMAGEDEF_REACTOR
  2
AcDbRasterImageDefReactor
  3
ISM
 90
       21
280
     0
281
     0
  0
CLASS
  1
IDBUFFER
  2
AcDbIdBuffer
  3
ObjectDBX Classes
 90
       20
280
     0
281
     0
  0
CLASS
  1
SPATIAL_FILTER
  2
AcDbSpatialFilter
  3
ObjectDBX Classes
 90
       20
280
     0
281
     0
  0
CLASS
  1
XRECORD
  2
AcDbXrecord
  3
AutoCAD 2000
 90
       21
280
     0
281
     0
  0
CLASS
  1
SORTENTSTABLE
  2
AcDbSortentsTable
  3
"AutoCAD"
 90
        0
280
     0
281
     0
  0
CLASS
  1
LAYER_INDEX
  2
AcDbLayerIndex
  3
"Acad"
 90
        0
280
     0
281
     0
  0
CLASS
  1
SPATIAL_INDEX
  2
AcDbSpatialIndex
  3
"Acad"
 90
        0
280
     0
281
     0
  0
CLASS
  1
OBJECT_PTR
  2
CAseDLPNTableRecord
  3
"ASE-LPNTableRecord"
 90
        1
280
     0
281
     0
  0
CLASS
  1
LAYOUT
  2
AcDbLayout
  3
"AutoCAD 2000"
 90
        1
280
     0
281
     0
  0
CLASS
  1
PLOTSETTINGS
  2
AcDbPlotsettings
  3
"AutoCAD 2000"
 90
        1
280
     0
281
     0
  0
CLASS
  1
ACDBDICTIONARYWDFLT
  2
AcDbDictionaryWithDefault
  3
"AutoCAD 2000"
 90
        1
280
     0
281
     0
  0
CLASS
  1
ACDBPLACEHOLDER
  2
AcDbPlaceholder
  3
"AutoCAD 2000"
 90
        1
280
     0
281
     0
  0
CLASS
  1
VBA_PROJECT
  2
AcDbVbaProject
  3
"AutoCAD 2000"
 90
        1
280
     0
281
     0
  0
CLASS
  1
WIPEOUT
  2
AcDbWipeout
  3
"AutoCAD 2000"
 90
        1
280
     0
281
     1
  0
CLASS
  1
WIPEOUTVARIABLES
  2
AcDbWipeoutVariables
  3
"AutoCAD 2000"
 90
        1
280
     0
281
     0
  0
CLASS
  1
RTEXT
  2
RText
  3
RText|AutoCAD Express Tool|expresstools@autodesk.com
 90
        1
280
     0
281
     1
  0
CLASS
  1
ARCALIGNEDTEXT
  2
AcDbArcAlignedText
  3
RText|AutoCAD Express Tool|expresstools@autodesk.com
 90
        1
280
     0
281
     1
  0
ENDSEC
  0
SECTION
  2
TABLES
  0
TABLE
  2
VPORT
  5
8
100
AcDbSymbolTable
 70
     1
  0
VPORT
  5
25
100
AcDbSymbolTableRecord
100
AcDbViewportTableRecord
  2
*ACTIVE
 70
     0
 10
0.0
 20
0.0
 11
1.0
 21
1.0
 12
72.0
 22
48.0
 13
0.0
 23
0.0
 14
0.5
 24
0.5
 15
0.5
 25
0.5
 16
0.0
 26
0.0
 36
1.0
 17
0.0
 27
0.0
 37
0.0
 40
96.0
 41
1.5
 42
50.0
 43
0.0
 44
0.0
 50
0.0
 51
0.0
 71
     0
 72
   100
 73
     1
 74
     1
 75
     0
 76
     0
 77
     0
 78
     0
  0
ENDTAB
  0
TABLE
  2
LTYPE
  5
5
100
AcDbSymbolTable
 70
     3
  0
LTYPE
  5
12
100
AcDbSymbolTableRecord
100
AcDbLinetypeTableRecord
  2
BYBLOCK
 70
     0
  3

 72
    65
 73
     0
 40
0.0
  0
LTYPE
  5
13
100
AcDbSymbolTableRecord
100
AcDbLinetypeTableRecord
  2
BYLAYER
 70
     0
  3

 72
    65
 73
     0
 40
0.0
  0
LTYPE
  5
14
100
AcDbSymbolTableRecord
100
AcDbLinetypeTableRecord
  2
CONTINUOUS
 70
     0
  3
Solid line
 72
    65
 73
     0
 40
0.0
  0
ENDTAB
  0
TABLE
  2
LAYER
  5
2
100
AcDbSymbolTable
 70
     2
  0
LAYER
  5
E
100
AcDbSymbolTableRecord
100
AcDbLayerTableRecord
  2
0
 70
     0
 62
     7
  6
CONTINUOUS
  0
LAYER
  5
32
100
AcDbSymbolTableRecord
100
AcDbLayerTableRecord
  2
BUILDING_ENVELOPE
 70
     0
 62
     7
  6
CONTINUOUS
  0
ENDTAB
  0
TABLE
  2
STYLE
  5
3
100
AcDbSymbolTable
 70
     1
  0
STYLE
  5
F
100
AcDbSymbolTableRecord
100
AcDbTextStyleTableRecord
  2
STANDARD
 70
     0
 40
0.0
 41
1.0
 50
0.0
 71
     0
 42
0.2
  3
txt.shx
  4

  0
ENDTAB
  0
TABLE
  2
VIEW
  5
6
100
AcDbSymbolTable
 70
     0
  0
ENDTAB
  0
TABLE
  2
UCS
  5
7
100
AcDbSymbolTable
 70
     0
  0
ENDTAB
  0
TABLE
  2
APPID
  5
9
100
AcDbSymbolTable
 70
     1
  0
APPID
  5
10
100
AcDbSymbolTableRecord
100
AcDbRegAppTableRecord
  2
ACAD
 70
     0
  0
ENDTAB
  0
TABLE
  2
DIMSTYLE
  5
A
100
AcDbSymbolTable
 70
     1
  0
DIMSTYLE
105
1D
100
AcDbSymbolTableRecord
100
AcDbDimStyleTableRecord
  2
STANDARD
 70
     0
  3

  4

  5

  6

  7

 40
1.0
 41
0.18
 42
0.0625
 43
0.38
 44
0.18
 45
0.0
 46
0.0
 47
0.0
 48
0.0
 71
     0
 72
     0
 73
     1
 74
     1
 75
     0
 76
     0
 77
     0
 78
     0
140
0.18
141
0.09
142
0.0
143
25.4
144
1.0
145
0.0
146
1.0
147
0.09
170
     0
171
     2
172
     0
173
     0
174
     0
175
     0
176
     0
177
     0
178
     0
270
     2
271
     4
272
     4
273
     2
274
     2
275
     0
280
     0
281
     0
282
     0
283
     1
284
     0
285
     0
286
     0
287
     3
288
     0
340
F
  0
ENDTAB
  0
TABLE
  2
BLOCK_RECORD
  5
1
100
AcDbSymbolTable
 70
     7
  0
BLOCK_RECORD
  5
18
100
AcDbSymbolTableRecord
100
AcDbBlockTableRecord
  2
*MODEL_SPACE
  0
BLOCK_RECORD
  5
15
100
AcDbSymbolTableRecord
100
AcDbBlockTableRecord
  2
*PAPER_SPACE
  0
BLOCK_RECORD
  5
1FB
100
AcDbSymbolTableRecord
100
AcDbBlockTableRecord
  2
ROOM
  0
BLOCK_RECORD
  5
213
100
AcDbSymbolTableRecord
100
AcDbBlockTableRecord
  2
DOOR
  0
BLOCK_RECORD
  5
242
100
AcDbSymbolTableRecord
100
AcDbBlockTableRecord
  2
WALL
  0
BLOCK_RECORD
  5
256
100
AcDbSymbolTableRecord
100
AcDbBlockTableRecord
  2
_T__ROOM
  0
BLOCK_RECORD
  5
27E
100
AcDbSymbolTableRecord
100
AcDbBlockTableRecord
  2
WINDOW
  0
BLOCK_RECORD
  5
2A6
100
AcDbSymbolTableRecord
100
AcDbBlockTableRecord
  2
EXTERIOR_WALL
  0
BLOCK_RECORD
  5
2BA
100
AcDbSymbolTableRecord
100
AcDbBlockTableRecord
  2
DOUBLE
  0
ENDTAB
  0
ENDSEC
  0
SECTION
  2
BLOCKS
  0
BLOCK
  5
19
100
AcDbEntity
  8
0
100
AcDbBlockBegin
  2
*MODEL_SPACE
 70
     0
 10
0.0
 20
0.0
 30
0.0
  3
*MODEL_SPACE
  1

  0
ENDBLK
  5
1A
100
AcDbEntity
  8
0
100
AcDbBlockEnd
  0
BLOCK
  5
16
100
AcDbEntity
 67
     1
  8
0
100
AcDbBlockBegin
  2
*PAPER_SPACE
 70
     0
 10
0.0
 20
0.0
 30
0.0
  3
*PAPER_SPACE
  1

  0
ENDBLK
  5
17
100
AcDbEntity
 67
     1
  8
0
100
AcDbBlockEnd
  0
BLOCK
  5
1FC
100
AcDbEntity
  8
0
100
AcDbBlockBegin
  2
ROOM
 70
     2
 10
0.0
 20
0.0
 30
0.0
  3
ROOM
  1

  0
ATTDEF
  5
1FD
100
AcDbEntity
  8
0
100
AcDbText
 10
6.0
 20
6.0
 30
0.0
 40
0.2
  1
120
100
AcDbAttributeDefinition
  3
Width
  2
WIDTH
 70
     0
  0
ATTDEF
  5
1FE
100
AcDbEntity
  8
0
100
AcDbText
 10
6.0
 20
6.0
 30
0.0
 40
0.2
  1
96
100
AcDbAttributeDefinition
  3
Length
  2
LENGTH
 70
     0
  0
ATTDEF
  5
1FF
100
AcDbEntity
  8
0
100
AcDbText
 10
6.0
 20
6.0
 30
0.0
 40
0.2
  1
Building Component
100
AcDbAttributeDefinition
  3
Shape class
  2
SHAPECLASS
 70
     0
  0
ATTDEF
  5
200
100
AcDbEntity
  8
0
100
AcDbText
 10
6.0
 20
6.0
 30
0.0
 40
0.2
  1
Room
100
AcDbAttributeDefinition
  3
Shape type
  2
SHAPETYPE
 70
     0
  0
ATTDEF
  5
201
100
AcDbEntity
  8
0
100
AcDbText
 10
6.0
 20
6.0
 30
0.0
 40
0.2
  1

100
AcDbAttributeDefinition
  3
Subshape type
  2
SUBSHAPETYPE
 70
     0
  0
LWPOLYLINE
  5
202
102
{ACAD_REACTORS
330
203
102
}
100
AcDbEntity
  8
BUILDING_ENVELOPE
  6
CONTINUOUS
 62
     7
100
AcDbPolyline
 90
        4
 70
     1
 10
0.666667
 20
10.333333
 10
11.333333
 20
10.333333
 10
11.0
 20
10.0
 10
1.0
 20
10.0
  0
HATCH
  5
203
100
AcDbEntity
  8
BUILDING_ENVELOPE
 62
   253
100
AcDbHatch
 10
0.0
 20
0.0
 30
0.0
210
0.0
220
0.0
230
1.0
  2
SOLID
 70
     1
 71
     1
 91
        1
 92
        3
 72
     0
 73
     1
 93
        4
 10
0.6666666666666676
 20
10.333333333333332
 10
11.333333333333332
 20
10.333333333333332
 10
11.0
 20
10.0
 10
1.0
 20
10.0
 97
       64
330
1AC
330
1AD
330
1AE
330
1AF
330
1B0
330
1B1
330
1B2
330
1B3
330
1B4
330
1B5
330
1B6
330
1B7
330
1B8
330
1BD
330
1BE
330
1BF
330
1C0
330
1C1
330
1C2
330
1C3
330
1C4
330
1C5
330
1C6
330
1C7
330
1C8
330
1C9
330
1CE
330
1CF
330
1D0
330
1D1
330
1D2
330
1D3
330
1D4
330
1D5
330
1D6
330
1D7
330
1D8
330
1D9
330
1DA
330
1DB
330
1DC
330
1DD
330
1DE
330
1E2
330
1E4
330
1E5
330
1E6
330
1E7
330
1E8
330
1E9
330
1EA
330
1EB
330
1EC
330
1ED
330
1EE
330
1EF
330
1F0
330
1F1
330
1F2
330
1F3
330
1F4
330
1F9
330
1FA
330
202
 75
     0
 76
     1
 98
        0
  0
LINE
  5
204
100
AcDbEntity
  8
BUILDING_ENVELOPE
  6
CONTINUOUS
 62
     7
100
AcDbLine
 10
0.666667
 20
10.333333
 30
0.0
 11
11.333333
 21
10.333333
 31
0.0
  0
LINE
  5
205
100
AcDbEntity
  8
BUILDING_ENVELOPE
  6
CONTINUOUS
 62
     7
100
AcDbLine
 10
1.0
 20
10.0
 30
0.0
 11
11.0
 21
10.0
 31
0.0
  0
LWPOLYLINE
  5
206
102
{ACAD_REACTORS
330
207
102
}
100
AcDbEntity
  8
BUILDING_ENVELOPE
  6
CONTINUOUS
 62
     7
100
AcDbPolyline
 90
        4
 70
     1
 10
11.333333
 20
10.333333
 10
11.333333
 20
1.666667
 10
11.0
 20
2.0
 10
11.0
 20
10.0
  0
HATCH
  5
207
100
AcDbEntity
  8
BUILDING_ENVELOPE
 62
   253
100
AcDbHatch
 10
0.0
 20
0.0
 30
0.0
210
0.0
220
0.0
230
1.0
  2
SOLID
 70
     1
 71
     1
 91
        1
 92
        3
 72
     0
 73
     1
 93
        4
 10
11.333333333333332
 20
10.333333333333332
 10
11.333333333333332
 20
1.6666666666666665
 10
11.0
 20
2.0
 10
11.0
 20
10.0
 97
        1
330
206
 75
     0
 76
     1
 98
        0
  0
LINE
  5
208
100
AcDbEntity
  8
BUILDING_ENVELOPE
  6
CONTINUOUS
 62
     7
100
AcDbLine
 10
11.333333
 20
10.333333
 30
0.0
 11
11.333333
 21
1.666667
 31
0.0
  0
LINE
  5
209
100
AcDbEntity
  8
BUILDING_ENVELOPE
  6
CONTINUOUS
 62
     7
100
AcDbLine
 10
11.0
 20
10.0
 30
0.0
 11
11.0
 21
2.0
 31
0.0
  0
LWPOLYLINE
  5
20A
102
{ACAD_REACTORS
330
20B
102
}
100
AcDbEntity
  8
BUILDING_ENVELOPE
  6
CONTINUOUS
 62
     7
100
AcDbPolyline
 90
        4
 70
     1
 10
11.333333
 20
1.666667
 10
0.666667
 20
1.666667
 10
1.0
 20
2.0
 10
11.0
 20
2.0
  0
HATCH
  5
20B
100
AcDbEntity
  8
BUILDING_ENVELOPE
 62
   253
100
AcDbHatch
 10
0.0
 20
0.0
 30
0.0
210
0.0
220
0.0
230
1.0
  2
SOLID
 70
     1
 71
     1
 91
        1
 92
        3
 72
     0
 73
     1
 93
        4
 10
11.333333333333311
 20
1.6666666666667045
 10
0.6666666666666382
 20
1.6666666666667045
 10
0.9999999999999716
 20
2.0000000000000377
 10
10.999999999999972
 20
2.0000000000000377
 97
        1
330
20A
 75
     0
 76
     1
 98
        0
  0
LINE
  5
20C
100
AcDbEntity
  8
BUILDING_ENVELOPE
  6
CONTINUOUS
 62
     7
100
AcDbLine
 10
11.333333
 20
1.666667
 30
0.0
 11
0.666667
 21
1.666667
 31
0.0
  0
LINE
  5
20D
100
AcDbEntity
  8
BUILDING_ENVELOPE
  6
CONTINUOUS
 62
     7
100
AcDbLine
 10
11.0
 20
2.0
 30
0.0
 11
1.0
 21
2.0
 31
0.0
  0
LWPOLYLINE
  5
20E
102
{ACAD_REACTORS
330
20F
102
}
100
AcDbEntity
  8
BUILDING_ENVELOPE
  6
CONTINUOUS
 62
     7
100
AcDbPolyline
 90
        4
 70
     1
 10
0.666667
 20
1.666667
 10
0.666667
 20
10.333333
 10
1.0
 20
10.0
 10
1.0
 20
2.0
  0
HATCH
  5
20F
100
AcDbEntity
  8
BUILDING_ENVELOPE
 62
   253
100
AcDbHatch
 10
0.0
 20
0.0
 30
0.0
210
0.0
220
0.0
230
1.0
  2
SOLID
 70
     1
 71
     1
 91
        1
 92
        3
 72
     0
 73
     1
 93
        4
 10
0.6666666666666501
 20
1.6666666666667438
 10
0.6666666666666501
 20
10.333333333333327
 10
0.9999999999999834
 20
10.0
 10
0.9999999999999834
 20
2.0000000000000755
 97
        1
330
20E
 75
     0
 76
     1
 98
        0
  0
LINE
  5
210
100
AcDbEntity
  8
BUILDING_ENVELOPE
  6
CONTINUOUS
 62
     7
100
AcDbLine
 10
0.666667
 20
1.666667
 30
0.0
 11
0.666667
 21
10.333333
 31
0.0
  0
LINE
  5
211
100
AcDbEntity
  8
BUILDING_ENVELOPE
  6
CONTINUOUS
 62
     7
100
AcDbLine
 10
1.0
 20
2.0
 30
0.0
 11
1.0
 21
10.0
 31
0.0
  0
ENDBLK
  5
212
100
AcDbEntity
  8
0
100
AcDbBlockEnd
  0
BLOCK
  5
214
100
AcDbEntity
  8
0
100
AcDbBlockBegin
  2
DOOR
 70
     2
 10
0.0
 20
0.0
 30
0.0
  3
DOOR
  1

  0
ATTDEF
  5
215
100
AcDbEntity
  8
0
100
AcDbText
 10
5.0
 20
5.0
 30
0.0
 40
0.2
  1
80
100
AcDbAttributeDefinition
  3
Door height
  2
VISDOORHEIGHT
 70
     0
  0
ATTDEF
  5
216
100
AcDbEntity
  8
0
100
AcDbText
 10
5.0
 20
5.0
 30
0.0
 40
0.2
  1
0
100
AcDbAttributeDefinition
  3
Reference Line Offset
  2
REFLN
 70
     0
  0
ATTDEF
  5
217
100
AcDbEntity
  8
0
100
AcDbText
 10
5.0
 20
5.0
 30
0.0
 40
0.2
  1
30
100
AcDbAttributeDefinition
  3
Door width
  2
SUBTYPE
 70
     0
  0
ATTDEF
  5
218
100
AcDbEntity
  8
0
100
AcDbText
 10
5.0
 20
5.0
 30
0.0
 40
0.2
  1
2
100
AcDbAttributeDefinition
  3
Door frame width
  2
SUBVISDOORFRAMEWIDTH
 70
     0
  0
ATTDEF
  5
219
100
AcDbEntity
  8
0
100
AcDbText
 10
5.0
 20
5.0
 30
0.0
 40
0.2
  1
4
100
AcDbAttributeDefinition
  3
Door frame depth
  2
SUBVISDOORFRAMEDEPTH
 70
     0
  0
ATTDEF
  5
21A
100
AcDbEntity
  8
0
100
AcDbText
 10
5.0
 20
5.0
 30
0.0
 40
0.2
  1
0.5
100
AcDbAttributeDefinition
  3
Door stop width
  2
SUBVISDOORSTOPWIDTH
 70
     0
  0
ATTDEF
  5
21B
100
AcDbEntity
  8
0
100
AcDbText
 10
5.0
 20
5.0
 30
0.0
 40
0.2
  1
1.5
100
AcDbAttributeDefinition
  3
Door stop depth
  2
SUBVISDOORSTOPDEPTH
 70
     0
  0
ATTDEF
  5
21C
100
AcDbEntity
  8
0
100
AcDbText
 10
5.0
 20
5.0
 30
0.0
 40
0.2
  1
2
100
AcDbAttributeDefinition
  3
Door threshold depth inside
  2
SUBVISDOORTHRESDEPTHIN
 70
     0
  0
ATTDEF
  5
21D
100
AcDbEntity
  8
0
100
AcDbText
 10
5.0
 20
5.0
 30
0.0
 40
0.2
  1
2
100
AcDbAttributeDefinition
  3
Door threshold width inside
  2
SUBVISDOORTHRESWIDTHIN
 70
     0
  0
ATTDEF
  5
21E
100
AcDbEntity
  8
0
100
AcDbText
 10
5.0
 20
5.0
 30
0.0
 40
0.2
  1
2
100
AcDbAttributeDefinition
  3
Door threshold depth outside
  2
SUBVISDOORTHRESDEPTHOUT
 70
     0
  0
ATTDEF
  5
21F
100
AcDbEntity
  8
0
100
AcDbText
 10
5.0
 20
5.0
 30
0.0
 40
0.2
  1
2
100
AcDbAttributeDefinition
  3
Door threshold width outside
  2
SUBVISDOORTHRESWIDTHOUT
 70
     0
  0
ATTDEF
  5
220
100
AcDbEntity
  8
0
100
AcDbText
 10
5.0
 20
5.0
 30
0.0
 40
0.2
  1
2
100
AcDbAttributeDefinition
  3
Door panel thickness
  2
SUBVISDOORPANELTHICKNESS
 70
     0
  0
ATTDEF
  5
221
100
AcDbEntity
  8
0
100
AcDbText
 10
5.0
 20
5.0
 30
0.0
 40
0.2
  1
15
100
AcDbAttributeDefinition
  3
Door leaf width
  2
VISDOORLEAF
 70
     0
  0
ATTDEF
  5
222
100
AcDbEntity
  8
0
100
AcDbText
 10
5.0
 20
5.0
 30
0.0
 40
0.2
  1
12
100
AcDbAttributeDefinition
  3
Door spring height
  2
VISDOORSPRING
 70
     0
  0
ATTDEF
  5
223
100
AcDbEntity
  8
0
100
AcDbText
 10
5.0
 20
5.0
 30
0.0
 40
0.2
  1
6
100
AcDbAttributeDefinition
  3
Door along wall offset
  2
VISDOORALONGWALLOFFSET
 70
     0
  0
ATTDEF
  5
224
100
AcDbEntity
  8
0
100
AcDbText
 10
5.0
 20
5.0
 30
0.0
 40
0.2
  1
Single
100
AcDbAttributeDefinition
  3
Door type
  2
SUBSHAPETYPE
 70
     0
  0
ATTDEF
  5
225
100
AcDbEntity
  8
0
100
AcDbText
 10
5.0
 20
5.0
 30
0.0
 40
0.2
  1
Center
100
AcDbAttributeDefinition
  3
Door within wall offset
  2
VISJUSTIFICATION
 70
     0
  0
ATTDEF
  5
226
100
AcDbEntity
  8
0
100
AcDbText
 10
5.0
 20
5.0
 30
0.0
 40
0.2
  1
50
100
AcDbAttributeDefinition
  3
Door open percentage
  2
VISDOOROPENPERCENT
 70
     0
  0
ATTDEF
  5
227
100
AcDbEntity
  8
0
100
AcDbText
 10
5.0
 20
5.0
 30
0.0
 40
0.2
  1
Building Component
100
AcDbAttributeDefinition
  3
Shape class
  2
SHAPECLASS
 70
     0
  0
ATTDEF
  5
228
100
AcDbEntity
  8
0
100
AcDbText
 10
5.0
 20
5.0
 30
0.0
 40
0.2
  1
Door
100
AcDbAttributeDefinition
  3
Shape type
  2
SHAPETYPE
 70
     0
  0
ATTDEF
  5
229
100
AcDbEntity
  8
0
100
AcDbText
 10
5.0
 20
5.0
 30
0.0
 40
0.2
  1
0
100
AcDbAttributeDefinition
  3
Fire rating
  2
FIRERATING
 70
     0
  0
ATTDEF
  5
22A
100
AcDbEntity
  8
0
100
AcDbText
 10
5.0
 20
5.0
 30
0.0
 40
0.2
  1
0
100
AcDbAttributeDefinition
  3
Door number
  2
DOORNUMBER
 70
     0
  0
ATTDEF
  5
22B
100
AcDbEntity
  8
0
100
AcDbText
 10
5.0
 20
5.0
 30
0.0
 40
0.2
  1
0
100
AcDbAttributeDefinition
  3
Base elevation
  2
BASEELEVATION
 70
     0
  0
LWPOLYLINE
  5
22C
102
{ACAD_REACTORS
330
252
102
}
100
AcDbEntity
  8
BUILDING_ENVELOPE
  6
CONTINUOUS
 62
     7
100
AcDbPolyline
 90
        4
 70
     1
 10
3.583333
 20
4.734
 10
6.416667
 20
4.734
 10
6.416667
 20
5.266
 10
3.583333
 20
5.266
  0
LINE
  5
22D
102
{ACAD_REACTORS
330
252
102
}
100
AcDbEntity
  8
BUILDING_ENVELOPE
  6
CONTINUOUS
 62
     7
100
AcDbLine
 10
6.416667
 20
4.75
 30
0.0
 11
6.416667
 21
5.25
 31
0.0
  0
LINE
  5
22E
102
{ACAD_REACTORS
330
252
102
}
100
AcDbEntity
  8
BUILDING_ENVELOPE
  6
CONTINUOUS
 62
     7
100
AcDbLine
 10
6.416667
 20
5.25
 30
0.0
 11
6.25
 21
5.25
 31
0.0
  0
LINE
  5
22F
102
{ACAD_REACTORS
330
252
102
}
100
AcDbEntity
  8
BUILDING_ENVELOPE
  6
CONTINUOUS
 62
     7
100
AcDbLine
 10
6.25
 20
5.25
 30
0.0
 11
6.25
 21
5.083333
 31
0.0
  0
LINE
  5
230
102
{ACAD_REACTORS
330
252
102
}
100
AcDbEntity
  8
BUILDING_ENVELOPE
  6
CONTINUOUS
 62
     7
100
AcDbLine
 10
6.25
 20
4.958333
 30
0.0
 11
6.25
 21
4.75
 31
0.0
  0
LINE
  5
231
102
{ACAD_REACTORS
330
252
102
}
100
AcDbEntity
  8
BUILDING_ENVELOPE
  6
CONTINUOUS
 62
     7
100
AcDbLine
 10
6.25
 20
4.75
 30
0.0
 11
6.416667
 21
4.75
 31
0.0
  0
LINE
  5
232
102
{ACAD_REACTORS
330
252
102
}
100
AcDbEntity
  8
BUILDING_ENVELOPE
  6
CONTINUOUS
 62
     7
100
AcDbLine
 10
3.583333
 20
4.75
 30
0.0
 11
3.583333
 21
5.25
 31
0.0
  0
LINE
  5
233
102
{ACAD_REACTORS
330
252
102
}
100
AcDbEntity
  8
BUILDING_ENVELOPE
  6
CONTINUOUS
 62
     7
100
AcDbLine
 10
3.583333
 20
5.25
 30
0.0
 11
3.75
 21
5.25
 31
0.0
  0
LINE
  5
234
102
{ACAD_REACTORS
330
252
102
}
100
AcDbEntity
  8
BUILDING_ENVELOPE
  6
CONTINUOUS
 62
     7
100
AcDbLine
 10
3.75
 20
5.25
 30
0.0
 11
3.75
 21
5.083333
 31
0.0
  0
LINE
  5
235
102
{ACAD_REACTORS
330
252
102
}
100
AcDbEntity
  8
BUILDING_ENVELOPE
  6
CONTINUOUS
 62
     7
100
AcDbLine
 10
3.75
 20
4.958333
 30
0.0
 11
3.75
 21
4.75
 31
0.0
  0
LINE
  5
236
102
{ACAD_REACTORS
330
252
102
}
100
AcDbEntity
  8
BUILDING_ENVELOPE
  6
CONTINUOUS
 62
     7
100
AcDbLine
 10
3.75
 20
4.75
 30
0.0
 11
3.583333
 21
4.75
 31
0.0
  0
LINE
  5
237
102
{ACAD_REACTORS
330
252
102
}
100
AcDbEntity
  8
BUILDING_ENVELOPE
  6
CONTINUOUS
 62
     7
100
AcDbLine
 10
6.25
 20
5.083333
 30
0.0
 11
6.208333
 21
5.083333
 31
0.0
  0
LINE
  5
238
102
{ACAD_REACTORS
330
252
102
}
100
AcDbEntity
  8
BUILDING_ENVELOPE
  6
CONTINUOUS
 62
     7
100
AcDbLine
 10
6.208333
 20
5.083333
 30
0.0
 11
6.208333
 21
4.958333
 31
0.0
  0
LINE
  5
239
102
{ACAD_REACTORS
330
252
102
}
100
AcDbEntity
  8
BUILDING_ENVELOPE
  6
CONTINUOUS
 62
     7
100
AcDbLine
 10
6.208333
 20
4.958333
 30
0.0
 11
6.25
 21
4.958333
 31
0.0
  0
LINE
  5
23A
102
{ACAD_REACTORS
330
252
102
}
100
AcDbEntity
  8
BUILDING_ENVELOPE
  6
CONTINUOUS
 62
     7
100
AcDbLine
 10
3.75
 20
5.083333
 30
0.0
 11
3.791667
 21
5.083333
 31
0.0
  0
LINE
  5
23B
102
{ACAD_REACTORS
330
252
102
}
100
AcDbEntity
  8
BUILDING_ENVELOPE
  6
CONTINUOUS
 62
     7
100
AcDbLine
 10
3.791667
 20
5.083333
 30
0.0
 11
3.791667
 21
4.958333
 31
0.0
  0
LINE
  5
23C
102
{ACAD_REACTORS
330
252
102
}
100
AcDbEntity
  8
BUILDING_ENVELOPE
  6
CONTINUOUS
 62
     7
100
AcDbLine
 10
3.791667
 20
4.958333
 30
0.0
 11
3.75
 21
4.958333
 31
0.0
  0
LINE
  5
23D
100
AcDbEntity
  8
BUILDING_ENVELOPE
  6
CONTINUOUS
 62
     7
100
AcDbLine
 10
6.416667
 20
4.75
 30
0.0
 11
6.416667
 21
5.25
 31
0.0
  0
LINE
  5
23E
100
AcDbEntity
  8
BUILDING_ENVELOPE
  6
CONTINUOUS
 62
     7
100
AcDbLine
 10
3.583333
 20
4.75
 30
0.0
 11
3.583333
 21
5.25
 31
0.0
  0
ARC
  5
23F
100
AcDbEntity
  8
BUILDING_ENVELOPE
  6
CONTINUOUS
 62
     7
100
AcDbCircle
 10
6.25
 20
5.25
 30
0.0
 40
2.5
100
AcDbArc
 50
90.0
 51
180.0
  0
LWPOLYLINE
  5
240
102
{ACAD_REACTORS
330
252
102
}
100
AcDbEntity
  8
BUILDING_ENVELOPE
  6
CONTINUOUS
 62
     7
100
AcDbPolyline
 90
        4
 70
     1
 10
6.083333
 20
7.75
 10
6.083333
 20
5.25
 10
6.25
 20
5.25
 10
6.25
 20
7.75
  0
ENDBLK
  5
241
100
AcDbEntity
  8
0
100
AcDbBlockEnd
  0
BLOCK
  5
243
100
AcDbEntity
  8
0
100
AcDbBlockBegin
  2
WALL
 70
     2
 10
0.0
 20
0.0
 30
0.0
  3
WALL
  1

  0
ATTDEF
  5
244
100
AcDbEntity
  8
0
100
AcDbText
 10
5.0
 20
5.0
 30
0.0
 40
0.2
  1
4 in.
100
AcDbAttributeDefinition
  3
Wall thickness
  2
T
 70
     0
  0
ATTDEF
  5
245
100
AcDbEntity
  8
0
100
AcDbText
 10
5.0
 20
5.0
 30
0.0
 40
0.2
  1
0 in.
100
AcDbAttributeDefinition
  3
Reference Line Offset
  2
REFLN
 70
     0
  0
ATTDEF
  5
246
100
AcDbEntity
  8
0
100
AcDbText
 10
5.0
 20
5.0
 30
0.0
 40
0.2
  1
0
100
AcDbAttributeDefinition
  3

  2
MATERIAL
 70
     0
  0
ATTDEF
  5
247
100
AcDbEntity
  8
0
100
AcDbText
 10
5.0
 20
5.0
 30
0.0
 40
0.2
  1
8 ft.
100
AcDbAttributeDefinition
  3
Wall height
  2
VISWALLHEIGHT
 70
     0
  0
ATTDEF
  5
248
100
AcDbEntity
  8
0
100
AcDbText
 10
5.0
 20
5.0
 30
0.0
 40
0.2
  1
8 ft.
100
AcDbAttributeDefinition
  3
Wall length
  2
VISWALLLENGTH
 70
     0
  0
ATTDEF
  5
249
100
AcDbEntity
  8
0
100
AcDbText
 10
5.0
 20
5.0
 30
0.0
 40
0.2
  1
Edge
100
AcDbAttributeDefinition
  3
Wall justification
  2
VISWALLJUSTIFY
 70
     0
  0
ATTDEF
  5
24A
100
AcDbEntity
  8
0
100
AcDbText
 10
5.0
 20
5.0
 30
0.0
 40
0.2
  1
Straight
100
AcDbAttributeDefinition
  3
Wall segment
  2
VISWALLSEGMENT
 70
     0
  0
ATTDEF
  5
24B
100
AcDbEntity
  8
0
100
AcDbText
 10
5.0
 20
5.0
 30
0.0
 40
0.2
  1
10 ft.
100
AcDbAttributeDefinition
  3
Wall radius
  2
RADIUS
 70
     0
  0
ATTDEF
  5
24C
100
AcDbEntity
  8
0
100
AcDbText
 10
5.0
 20
5.0
 30
0.0
 40
0.2
  1
Building Component
100
AcDbAttributeDefinition
  3
Shape class
  2
SHAPECLASS
 70
     0
  0
ATTDEF
  5
24D
100
AcDbEntity
  8
0
100
AcDbText
 10
5.0
 20
5.0
 30
0.0
 40
0.2
  1
Wall
100
AcDbAttributeDefinition
  3
Shape type
  2
SHAPETYPE
 70
     0
  0
ATTDEF
  5
24E
100
AcDbEntity
  8
0
100
AcDbText
 10
5.0
 20
5.0
 30
0.0
 40
0.2
  1

100
AcDbAttributeDefinition
  3
Subshape type
  2
SUBSHAPETYPE
 70
     0
  0
ATTDEF
  5
24F
100
AcDbEntity
  8
0
100
AcDbText
 10
5.0
 20
5.0
 30
0.0
 40
0.2
  1
0
100
AcDbAttributeDefinition
  3
Fire rating
  2
FIRERATING
 70
     0
  0
ATTDEF
  5
250
100
AcDbEntity
  8
0
100
AcDbText
 10
5.0
 20
5.0
 30
0.0
 40
0.2
  1
0
100
AcDbAttributeDefinition
  3
Base elevation
  2
BASEELEVATION
 70
     0
  0
LWPOLYLINE
  5
251
102
{ACAD_REACTORS
330
252
102
}
100
AcDbEntity
  8
BUILDING_ENVELOPE
  6
CONTINUOUS
 62
     7
100
AcDbPolyline
 90
        6
 70
     1
 10
1.0
 20
5.333333
 10
9.0
 20
5.333333
 10
9.0
 20
5.166667
 10
9.0
 20
5.0
 10
1.0
 20
5.0
 10
1.0
 20
5.166667
  0
HATCH
  5
252
100
AcDbEntity
  8
BUILDING_ENVELOPE
 62
   253
100
AcDbHatch
 10
0.0
 20
0.0
 30
0.0
210
0.0
220
0.0
230
1.0
  2
SOLID
 70
     1
 71
     1
 91
        1
 92
        3
 72
     0
 73
     1
 93
        6
 10
1.0
 20
5.333333333333333
 10
9.0
 20
5.333333333333333
 10
9.0
 20
5.1666666666666661
 10
9.0
 20
5.0
 10
1.0
 20
5.0
 10
1.0
 20
5.1666666666666661
 97
       19
330
22C
330
22D
330
22E
330
22F
330
230
330
231
330
232
330
233
330
234
330
235
330
236
330
237
330
238
330
239
330
23A
330
23B
330
23C
330
240
330
251
 75
     0
 76
     1
 98
        0
  0
LWPOLYLINE
  5
253
100
AcDbEntity
  8
BUILDING_ENVELOPE
  6
CONTINUOUS
 62
     7
100
AcDbPolyline
 90
        4
 70
     0
 10
1.0
 20
5.166667
 10
1.0
 20
5.333333
 10
9.0
 20
5.333333
 10
9.0
 20
5.166667
  0
LWPOLYLINE
  5
254
100
AcDbEntity
  8
BUILDING_ENVELOPE
  6
CONTINUOUS
 62
     7
100
AcDbPolyline
 90
        4
 70
     0
 10
1.0
 20
5.166667
 10
1.0
 20
5.0
 10
9.0
 20
5.0
 10
9.0
 20
5.166667
  0
ENDBLK
  5
255
100
AcDbEntity
  8
0
100
AcDbBlockEnd
  0
BLOCK
  5
257
100
AcDbEntity
  8
0
100
AcDbBlockBegin
  2
_T__ROOM
 70
     2
 10
0.0
 20
0.0
 30
0.0
  3
_T__ROOM
  1

  0
ATTDEF
  5
258
100
AcDbEntity
  8
0
100
AcDbText
 10
6.0
 20
6.0
 30
0.0
 40
0.2
  1
120
100
AcDbAttributeDefinition
  3
Width
  2
WIDTH
 70
     0
  0
ATTDEF
  5
259
100
AcDbEntity
  8
0
100
AcDbText
 10
6.0
 20
6.0
 30
0.0
 40
0.2
  1
96
100
AcDbAttributeDefinition
  3
Length
  2
LENGTH
 70
     0
  0
ATTDEF
  5
25A
100
AcDbEntity
  8
0
100
AcDbText
 10
6.0
 20
6.0
 30
0.0
 40
0.2
  1
Building Component
100
AcDbAttributeDefinition
  3
Shape class
  2
SHAPECLASS
 70
     0
  0
ATTDEF
  5
25B
100
AcDbEntity
  8
0
100
AcDbText
 10
6.0
 20
6.0
 30
0.0
 40
0.2
  1
Room
100
AcDbAttributeDefinition
  3
Shape type
  2
SHAPETYPE
 70
     0
  0
ATTDEF
  5
25C
100
AcDbEntity
  8
0
100
AcDbText
 10
6.0
 20
6.0
 30
0.0
 40
0.2
  1

100
AcDbAttributeDefinition
  3
Subshape type
  2
SUBSHAPETYPE
 70
     0
  0
LWPOLYLINE
  5
25D
102
{ACAD_REACTORS
330
25E
102
}
100
AcDbEntity
  8
BUILDING_ENVELOPE
  6
CONTINUOUS
 62
     7
100
AcDbPolyline
 90
        4
 70
     1
 10
0.666667
 20
10.333333
 10
11.333333
 20
10.333333
 10
11.0
 20
10.0
 10
1.0
 20
10.0
  0
HATCH
  5
25E
100
AcDbEntity
  8
BUILDING_ENVELOPE
 62
   253
100
AcDbHatch
 10
0.0
 20
0.0
 30
0.0
210
0.0
220
0.0
230
1.0
  2
SOLID
 70
     1
 71
     1
 91
        1
 92
        3
 72
     0
 73
     1
 93
        4
 10
0.666666666666672
 20
10.333333333333332
 10
11.333333333333332
 20
10.333333333333332
 10
11.0
 20
10.0
 10
1.0
 20
10.0
 97
        1
330
25D
 75
     0
 76
     1
 98
        0
  0
LINE
  5
25F
100
AcDbEntity
  8
BUILDING_ENVELOPE
  6
CONTINUOUS
 62
     7
100
AcDbLine
 10
0.666667
 20
10.333333
 30
0.0
 11
11.333333
 21
10.333333
 31
0.0
  0
LINE
  5
260
100
AcDbEntity
  8
BUILDING_ENVELOPE
  6
CONTINUOUS
 62
     7
100
AcDbLine
 10
1.0
 20
10.0
 30
0.0
 11
11.0
 21
10.0
 31
0.0
  0
LWPOLYLINE
  5
261
102
{ACAD_REACTORS
330
262
102
}
100
AcDbEntity
  8
BUILDING_ENVELOPE
  6
CONTINUOUS
 62
     7
100
AcDbPolyline
 90
        4
 70
     1
 10
11.333333
 20
10.333333
 10
11.333333
 20
4.666667
 10
11.0
 20
5.0
 10
11.0
 20
10.0
  0
HATCH
  5
262
100
AcDbEntity
  8
BUILDING_ENVELOPE
 62
   253
100
AcDbHatch
 10
0.0
 20
0.0
 30
0.0
210
0.0
220
0.0
230
1.0
  2
SOLID
 70
     1
 71
     1
 91
        1
 92
        3
 72
     0
 73
     1
 93
        4
 10
11.333333333333332
 20
10.333333333333332
 10
11.333333333333332
 20
4.6666666666666661
 10
11.0
 20
5.0
 10
11.0
 20
10.0
 97
        1
330
261
 75
     0
 76
     1
 98
        0
  0
LINE
  5
263
100
AcDbEntity
  8
BUILDING_ENVELOPE
  6
CONTINUOUS
 62
     7
100
AcDbLine
 10
11.333333
 20
10.333333
 30
0.0
 11
11.333333
 21
4.666667
 31
0.0
  0
LINE
  5
264
100
AcDbEntity
  8
BUILDING_ENVELOPE
  6
CONTINUOUS
 62
     7
100
AcDbLine
 10
11.0
 20
10.0
 30
0.0
 11
11.0
 21
5.0
 31
0.0
  0
LWPOLYLINE
  5
265
102
{ACAD_REACTORS
330
266
102
}
100
AcDbEntity
  8
BUILDING_ENVELOPE
  6
CONTINUOUS
 62
     7
100
AcDbPolyline
 90
        4
 70
     1
 10
11.333333
 20
4.666667
 10
8.333333
 20
4.666667
 10
8.0
 20
5.0
 10
11.0
 20
5.0
  0
HATCH
  5
266
100
AcDbEntity
  8
BUILDING_ENVELOPE
 62
   253
100
AcDbHatch
 10
0.0
 20
0.0
 30
0.0
210
0.0
220
0.0
230
1.0
  2
SOLID
 70
     1
 71
     1
 91
        1
 92
        3
 72
     0
 73
     1
 93
        4
 10
11.333333333333337
 20
4.6666666666666661
 10
8.3333333333333375
 20
4.6666666666666661
 10
8.0
 20
5.0
 10
11.0
 20
5.0
 97
        1
330
265
 75
     0
 76
     1
 98
        0
  0
LINE
  5
267
100
AcDbEntity
  8
BUILDING_ENVELOPE
  6
CONTINUOUS
 62
     7
100
AcDbLine
 10
11.333333
 20
4.666667
 30
0.0
 11
8.333333
 21
4.666667
 31
0.0
  0
LINE
  5
268
100
AcDbEntity
  8
BUILDING_ENVELOPE
  6
CONTINUOUS
 62
     7
100
AcDbLine
 10
11.0
 20
5.0
 30
0.0
 11
8.0
 21
5.0
 31
0.0
  0
LWPOLYLINE
  5
269
102
{ACAD_REACTORS
330
26A
102
}
100
AcDbEntity
  8
BUILDING_ENVELOPE
  6
CONTINUOUS
 62
     7
100
AcDbPolyline
 90
        4
 70
     1
 10
8.333333
 20
4.666667
 10
8.333333
 20
1.666667
 10
8.0
 20
2.0
 10
8.0
 20
5.0
  0
HATCH
  5
26A
100
AcDbEntity
  8
BUILDING_ENVELOPE
 62
   253
100
AcDbHatch
 10
0.0
 20
0.0
 30
0.0
210
0.0
220
0.0
230
1.0
  2
SOLID
 70
     1
 71
     1
 91
        1
 92
        3
 72
     0
 73
     1
 93
        4
 10
8.3333333333333321
 20
4.6666666666666661
 10
8.3333333333333321
 20
1.6666666666666665
 10
8.0
 20
2.0
 10
8.0
 20
5.0
 97
        1
330
269
 75
     0
 76
     1
 98
        0
  0
LINE
  5
26B
100
AcDbEntity
  8
BUILDING_ENVELOPE
  6
CONTINUOUS
 62
     7
100
AcDbLine
 10
8.333333
 20
4.666667
 30
0.0
 11
8.333333
 21
1.666667
 31
0.0
  0
LINE
  5
26C
100
AcDbEntity
  8
BUILDING_ENVELOPE
  6
CONTINUOUS
 62
     7
100
AcDbLine
 10
8.0
 20
5.0
 30
0.0
 11
8.0
 21
2.0
 31
0.0
  0
LWPOLYLINE
  5
26D
102
{ACAD_REACTORS
330
26E
102
}
100
AcDbEntity
  8
BUILDING_ENVELOPE
  6
CONTINUOUS
 62
     7
100
AcDbPolyline
 90
        4
 70
     1
 10
8.333333
 20
1.666667
 10
3.666667
 20
1.666667
 10
4.0
 20
2.0
 10
8.0
 20
2.0
  0
HATCH
  5
26E
100
AcDbEntity
  8
BUILDING_ENVELOPE
 62
   253
100
AcDbHatch
 10
0.0
 20
0.0
 30
0.0
210
0.0
220
0.0
230
1.0
  2
SOLID
 70
     1
 71
     1
 91
        1
 92
        3
 72
     0
 73
     1
 93
        4
 10
8.3333333333333393
 20
1.6666666666666761
 10
3.6666666666666723
 20
1.6666666666666761
 10
4.0
 20
2.0000000000000093
 10
8.0
 20
2.0000000000000093
 97
        1
330
26D
 75
     0
 76
     1
 98
        0
  0
LINE
  5
26F
100
AcDbEntity
  8
BUILDING_ENVELOPE
  6
CONTINUOUS
 62
     7
100
AcDbLine
 10
8.333333
 20
1.666667
 30
0.0
 11
3.666667
 21
1.666667
 31
0.0
  0
LINE
  5
270
100
AcDbEntity
  8
BUILDING_ENVELOPE
  6
CONTINUOUS
 62
     7
100
AcDbLine
 10
8.0
 20
2.0
 30
0.0
 11
4.0
 21
2.0
 31
0.0
  0
LWPOLYLINE
  5
271
102
{ACAD_REACTORS
330
272
102
}
100
AcDbEntity
  8
BUILDING_ENVELOPE
  6
CONTINUOUS
 62
     7
100
AcDbPolyline
 90
        4
 70
     1
 10
3.666667
 20
1.666667
 10
3.666667
 20
6.666667
 10
4.0
 20
7.0
 10
4.0
 20
2.0
  0
HATCH
  5
272
100
AcDbEntity
  8
BUILDING_ENVELOPE
 62
   253
100
AcDbHatch
 10
0.0
 20
0.0
 30
0.0
210
0.0
220
0.0
230
1.0
  2
SOLID
 70
     1
 71
     1
 91
        1
 92
        3
 72
     0
 73
     1
 93
        4
 10
3.6666666666666665
 20
1.6666666666666865
 10
3.6666666666666665
 20
6.6666666666666661
 10
4.0
 20
7.0
 10
4.0
 20
2.0000000000000182
 97
        1
330
271
 75
     0
 76
     1
 98
        0
  0
LINE
  5
273
100
AcDbEntity
  8
BUILDING_ENVELOPE
  6
CONTINUOUS
 62
     7
100
AcDbLine
 10
3.666667
 20
1.666667
 30
0.0
 11
3.666667
 21
6.666667
 31
0.0
  0
LINE
  5
274
100
AcDbEntity
  8
BUILDING_ENVELOPE
  6
CONTINUOUS
 62
     7
100
AcDbLine
 10
4.0
 20
2.0
 30
0.0
 11
4.0
 21
7.0
 31
0.0
  0
LWPOLYLINE
  5
275
102
{ACAD_REACTORS
330
276
102
}
100
AcDbEntity
  8
BUILDING_ENVELOPE
  6
CONTINUOUS
 62
     7
100
AcDbPolyline
 90
        4
 70
     1
 10
3.666667
 20
6.666667
 10
0.666667
 20
6.666667
 10
1.0
 20
7.0
 10
4.0
 20
7.0
  0
HATCH
  5
276
100
AcDbEntity
  8
BUILDING_ENVELOPE
 62
   253
100
AcDbHatch
 10
0.0
 20
0.0
 30
0.0
210
0.0
220
0.0
230
1.0
  2
SOLID
 70
     1
 71
     1
 91
        1
 92
        3
 72
     0
 73
     1
 93
        4
 10
3.6666666666666665
 20
6.6666666666666661
 10
0.6666666666666281
 20
6.6666666666666661
 10
0.9999999999999615
 20
7.0
 10
4.0
 20
7.0
 97
        1
330
275
 75
     0
 76
     1
 98
        0
  0
LINE
  5
277
100
AcDbEntity
  8
BUILDING_ENVELOPE
  6
CONTINUOUS
 62
     7
100
AcDbLine
 10
3.666667
 20
6.666667
 30
0.0
 11
0.666667
 21
6.666667
 31
0.0
  0
LINE
  5
278
100
AcDbEntity
  8
BUILDING_ENVELOPE
  6
CONTINUOUS
 62
     7
100
AcDbLine
 10
4.0
 20
7.0
 30
0.0
 11
1.0
 21
7.0
 31
0.0
  0
LWPOLYLINE
  5
279
102
{ACAD_REACTORS
330
27A
102
}
100
AcDbEntity
  8
BUILDING_ENVELOPE
  6
CONTINUOUS
 62
     7
100
AcDbPolyline
 90
        4
 70
     1
 10
0.666667
 20
6.666667
 10
0.666667
 20
10.333333
 10
1.0
 20
10.0
 10
1.0
 20
7.0
  0
HATCH
  5
27A
100
AcDbEntity
  8
BUILDING_ENVELOPE
 62
   253
100
AcDbHatch
 10
0.0
 20
0.0
 30
0.0
210
0.0
220
0.0
230
1.0
  2
SOLID
 70
     1
 71
     1
 91
        1
 92
        3
 72
     0
 73
     1
 93
        4
 10
0.666666666666643
 20
6.6666666666666616
 10
0.666666666666643
 20
10.333333333333323
 10
0.9999999999999762
 20
10.0
 10
0.9999999999999762
 20
7.0
 97
        1
330
279
 75
     0
 76
     1
 98
        0
  0
LINE
  5
27B
100
AcDbEntity
  8
BUILDING_ENVELOPE
  6
CONTINUOUS
 62
     7
100
AcDbLine
 10
0.666667
 20
6.666667
 30
0.0
 11
0.666667
 21
10.333333
 31
0.0
  0
LINE
  5
27C
100
AcDbEntity
  8
BUILDING_ENVELOPE
  6
CONTINUOUS
 62
     7
100
AcDbLine
 10
1.0
 20
7.0
 30
0.0
 11
1.0
 21
10.0
 31
0.0
  0
ENDBLK
  5
27D
100
AcDbEntity
  8
0
100
AcDbBlockEnd
  0
BLOCK
  5
27F
100
AcDbEntity
  8
0
100
AcDbBlockBegin
  2
WINDOW
 70
     2
 10
0.0
 20
0.0
 30
0.0
  3
WINDOW
  1

  0
ATTDEF
  5
280
100
AcDbEntity
  8
0
100
AcDbText
 10
5.0
 20
5.0
 30
0.0
 40
0.2
  1
60
100
AcDbAttributeDefinition
  3
Window height
  2
VISWNDWHEIGHT
 70
     0
  0
ATTDEF
  5
281
100
AcDbEntity
  8
0
100
AcDbText
 10
5.0
 20
5.0
 30
0.0
 40
0.2
  1
0
100
AcDbAttributeDefinition
  3
Reference Line Offset
  2
REFLN
 70
     0
  0
ATTDEF
  5
282
100
AcDbEntity
  8
0
100
AcDbText
 10
5.0
 20
5.0
 30
0.0
 40
0.2
  1
30
100
AcDbAttributeDefinition
  3
Window width
  2
SUBTYPE
 70
     0
  0
ATTDEF
  5
283
100
AcDbEntity
  8
0
100
AcDbText
 10
5.0
 20
5.0
 30
0.0
 40
0.2
  1
2
100
AcDbAttributeDefinition
  3
Window frame depth
  2
SUBVISWNDWFRAMEDEPTH
 70
     0
  0
ATTDEF
  5
284
100
AcDbEntity
  8
0
100
AcDbText
 10
5.0
 20
5.0
 30
0.0
 40
0.2
  1
4
100
AcDbAttributeDefinition
  3
Window frame width
  2
SUBVISWNDWFRAMEWIDTH
 70
     0
  0
ATTDEF
  5
285
100
AcDbEntity
  8
0
100
AcDbText
 10
5.0
 20
5.0
 30
0.0
 40
0.2
  1
2.5
100
AcDbAttributeDefinition
  3
Window sash depth
  2
SUBVISWNDWSASHDEPTH
 70
     0
  0
ATTDEF
  5
286
100
AcDbEntity
  8
0
100
AcDbText
 10
5.0
 20
5.0
 30
0.0
 40
0.2
  1
1
100
AcDbAttributeDefinition
  3
Window sash width
  2
SUBVISWNDWSASHWIDTH
 70
     0
  0
ATTDEF
  5
287
100
AcDbEntity
  8
0
100
AcDbText
 10
5.0
 20
5.0
 30
0.0
 40
0.2
  1
2
100
AcDbAttributeDefinition
  3
Window sill depth inside
  2
SUBVISWNDWSILLDEPTHIN
 70
     0
  0
ATTDEF
  5
288
100
AcDbEntity
  8
0
100
AcDbText
 10
5.0
 20
5.0
 30
0.0
 40
0.2
  1
2
100
AcDbAttributeDefinition
  3
Window sill width inside
  2
SUBVISWNDWSILLWIDTHIN
 70
     0
  0
ATTDEF
  5
289
100
AcDbEntity
  8
0
100
AcDbText
 10
5.0
 20
5.0
 30
0.0
 40
0.2
  1
2
100
AcDbAttributeDefinition
  3
Window sill depth outside
  2
SUBVISWNDWSILLDEPTHOUT
 70
     0
  0
ATTDEF
  5
28A
100
AcDbEntity
  8
0
100
AcDbText
 10
5.0
 20
5.0
 30
0.0
 40
0.2
  1
2
100
AcDbAttributeDefinition
  3
Window sill width outside
  2
SUBVISWNDWSILLWIDTHOUT
 70
     0
  0
ATTDEF
  5
28B
100
AcDbEntity
  8
0
100
AcDbText
 10
5.0
 20
5.0
 30
0.0
 40
0.2
  1
80
100
AcDbAttributeDefinition
  3
Window header height
  2
VISWNDWHEADERHEIGHT
 70
     0
  0
ATTDEF
  5
28C
100
AcDbEntity
  8
0
100
AcDbText
 10
5.0
 20
5.0
 30
0.0
 40
0.2
  1
6
100
AcDbAttributeDefinition
  3
Window along wall offset
  2
VISWNDWALONGWALLOFFSET
 70
     0
  0
ATTDEF
  5
28D
100
AcDbEntity
  8
0
100
AcDbText
 10
5.0
 20
5.0
 30
0.0
 40
0.2
  1
15
100
AcDbAttributeDefinition
  3
Window operator size
  2
VISWNDWOPERATOR
 70
     0
  0
ATTDEF
  5
28E
100
AcDbEntity
  8
0
100
AcDbText
 10
5.0
 20
5.0
 30
0.0
 40
0.2
  1
12
100
AcDbAttributeDefinition
  3
Window spring height
  2
VISWNDWSPRING
 70
     0
  0
ATTDEF
  5
28F
100
AcDbEntity
  8
0
100
AcDbText
 10
5.0
 20
5.0
 30
0.0
 40
0.2
  1
Center
100
AcDbAttributeDefinition
  3
Window within wall offset
  2
VISJUSTIFICATION
 70
     0
  0
ATTDEF
  5
290
100
AcDbEntity
  8
0
100
AcDbText
 10
5.0
 20
5.0
 30
0.0
 40
0.2
  1
Building Component
100
AcDbAttributeDefinition
  3
Shape class
  2
SHAPECLASS
 70
     0
  0
ATTDEF
  5
291
100
AcDbEntity
  8
0
100
AcDbText
 10
5.0
 20
5.0
 30
0.0
 40
0.2
  1
Window
100
AcDbAttributeDefinition
  3
Shape type
  2
SHAPETYPE
 70
     0
  0
ATTDEF
  5
292
100
AcDbEntity
  8
0
100
AcDbText
 10
5.0
 20
5.0
 30
0.0
 40
0.2
  1
Picture
100
AcDbAttributeDefinition
  3
Window type
  2
SUBSHAPETYPE
 70
     0
  0
ATTDEF
  5
293
100
AcDbEntity
  8
0
100
AcDbText
 10
5.0
 20
5.0
 30
0.0
 40
0.2
  1
0
100
AcDbAttributeDefinition
  3
Fire rating
  2
FIRERATING
 70
     0
  0
ATTDEF
  5
294
100
AcDbEntity
  8
0
100
AcDbText
 10
5.0
 20
5.0
 30
0.0
 40
0.2
  1
0
100
AcDbAttributeDefinition
  3
Window number
  2
WNDWNUMBER
 70
     0
  0
LWPOLYLINE
  5
295
102
{ACAD_REACTORS
330
2B6
102
}
100
AcDbEntity
  8
BUILDING_ENVELOPE
  6
CONTINUOUS
 62
     7
100
AcDbPolyline
 90
        4
 70
     1
 10
3.75
 20
4.734
 10
6.25
 20
4.734
 10
6.25
 20
5.266
 10
3.75
 20
5.266
  0
LINE
  5
296
102
{ACAD_REACTORS
330
2B6
102
}
100
AcDbEntity
  8
BUILDING_ENVELOPE
  6
CONTINUOUS
 62
     7
100
AcDbLine
 10
3.75
 20
4.75
 30
0.0
 11
3.75
 21
5.25
 31
0.0
  0
LINE
  5
297
102
{ACAD_REACTORS
330
2B6
102
}
100
AcDbEntity
  8
BUILDING_ENVELOPE
  6
CONTINUOUS
 62
     7
100
AcDbLine
 10
3.75
 20
5.25
 30
0.0
 11
4.083333
 21
5.25
 31
0.0
  0
LINE
  5
298
102
{ACAD_REACTORS
330
2B6
102
}
100
AcDbEntity
  8
BUILDING_ENVELOPE
  6
CONTINUOUS
 62
     7
100
AcDbLine
 10
4.083333
 20
5.25
 30
0.0
 11
4.083333
 21
5.104167
 31
0.0
  0
LINE
  5
299
102
{ACAD_REACTORS
330
2B6
102
}
100
AcDbEntity
  8
BUILDING_ENVELOPE
  6
CONTINUOUS
 62
     7
100
AcDbLine
 10
4.083333
 20
4.895833
 30
0.0
 11
4.083333
 21
4.75
 31
0.0
  0
LINE
  5
29A
102
{ACAD_REACTORS
330
2B6
102
}
100
AcDbEntity
  8
BUILDING_ENVELOPE
  6
CONTINUOUS
 62
     7
100
AcDbLine
 10
4.083333
 20
4.75
 30
0.0
 11
3.75
 21
4.75
 31
0.0
  0
LINE
  5
29B
102
{ACAD_REACTORS
330
2B6
102
}
100
AcDbEntity
  8
BUILDING_ENVELOPE
  6
CONTINUOUS
 62
     7
100
AcDbLine
 10
6.25
 20
4.75
 30
0.0
 11
6.25
 21
5.25
 31
0.0
  0
LINE
  5
29C
102
{ACAD_REACTORS
330
2B6
102
}
100
AcDbEntity
  8
BUILDING_ENVELOPE
  6
CONTINUOUS
 62
     7
100
AcDbLine
 10
6.25
 20
5.25
 30
0.0
 11
5.916667
 21
5.25
 31
0.0
  0
LINE
  5
29D
102
{ACAD_REACTORS
330
2B6
102
}
100
AcDbEntity
  8
BUILDING_ENVELOPE
  6
CONTINUOUS
 62
     7
100
AcDbLine
 10
5.916667
 20
5.25
 30
0.0
 11
5.916667
 21
5.104167
 31
0.0
  0
LINE
  5
29E
102
{ACAD_REACTORS
330
2B6
102
}
100
AcDbEntity
  8
BUILDING_ENVELOPE
  6
CONTINUOUS
 62
     7
100
AcDbLine
 10
5.916667
 20
4.895833
 30
0.0
 11
5.916667
 21
4.75
 31
0.0
  0
LINE
  5
29F
102
{ACAD_REACTORS
330
2B6
102
}
100
AcDbEntity
  8
BUILDING_ENVELOPE
  6
CONTINUOUS
 62
     7
100
AcDbLine
 10
5.916667
 20
4.75
 30
0.0
 11
6.25
 21
4.75
 31
0.0
  0
LWPOLYLINE
  5
2A0
102
{ACAD_REACTORS
330
2B6
102
}
100
AcDbEntity
  8
BUILDING_ENVELOPE
  6
CONTINUOUS
 62
     7
100
AcDbPolyline
 90
        4
 70
     1
 10
4.083333
 20
5.104167
 10
4.166667
 20
5.104167
 10
4.166667
 20
4.895833
 10
4.083333
 20
4.895833
  0
LWPOLYLINE
  5
2A1
102
{ACAD_REACTORS
330
2B6
102
}
100
AcDbEntity
  8
BUILDING_ENVELOPE
  6
CONTINUOUS
 62
     7
100
AcDbPolyline
 90
        4
 70
     1
 10
5.916667
 20
5.104167
 10
5.833333
 20
5.104167
 10
5.833333
 20
4.895833
 10
5.916667
 20
4.895833
  0
LINE
  5
2A2
100
AcDbEntity
  8
BUILDING_ENVELOPE
  6
CONTINUOUS
 62
     7
100
AcDbLine
 10
4.166667
 20
5.0
 30
0.0
 11
5.833333
 21
5.0
 31
0.0
  0
LINE
  5
2A3
100
AcDbEntity
  8
BUILDING_ENVELOPE
  6
CONTINUOUS
 62
     7
100
AcDbLine
 10
3.75
 20
4.75
 30
0.0
 11
3.75
 21
5.25
 31
0.0
  0
LINE
  5
2A4
100
AcDbEntity
  8
BUILDING_ENVELOPE
  6
CONTINUOUS
 62
     7
100
AcDbLine
 10
6.25
 20
4.75
 30
0.0
 11
6.25
 21
5.25
 31
0.0
  0
ENDBLK
  5
2A5
100
AcDbEntity
  8
0
100
AcDbBlockEnd
  0
BLOCK
  5
2A7
100
AcDbEntity
  8
0
100
AcDbBlockBegin
  2
EXTERIOR_WALL
 70
     2
 10
0.0
 20
0.0
 30
0.0
  3
EXTERIOR_WALL
  1

  0
ATTDEF
  5
2A8
100
AcDbEntity
  8
0
100
AcDbText
 10
5.0
 20
5.0
 30
0.0
 40
0.2
  1
6 in.
100
AcDbAttributeDefinition
  3
Wall thickness
  2
T
 70
     0
  0
ATTDEF
  5
2A9
100
AcDbEntity
  8
0
100
AcDbText
 10
5.0
 20
5.0
 30
0.0
 40
0.2
  1
0 in.
100
AcDbAttributeDefinition
  3
Reference Line Offset
  2
REFLN
 70
     0
  0
ATTDEF
  5
2AA
100
AcDbEntity
  8
0
100
AcDbText
 10
5.0
 20
5.0
 30
0.0
 40
0.2
  1
0
100
AcDbAttributeDefinition
  3

  2
MATERIAL
 70
     0
  0
ATTDEF
  5
2AB
100
AcDbEntity
  8
0
100
AcDbText
 10
5.0
 20
5.0
 30
0.0
 40
0.2
  1
8 ft.
100
AcDbAttributeDefinition
  3
Wall height
  2
VISWALLHEIGHT
 70
     0
  0
ATTDEF
  5
2AC
100
AcDbEntity
  8
0
100
AcDbText
 10
5.0
 20
5.0
 30
0.0
 40
0.2
  1
8 ft.
100
AcDbAttributeDefinition
  3
Wall length
  2
VISWALLLENGTH
 70
     0
  0
ATTDEF
  5
2AD
100
AcDbEntity
  8
0
100
AcDbText
 10
5.0
 20
5.0
 30
0.0
 40
0.2
  1
Edge
100
AcDbAttributeDefinition
  3
Wall justification
  2
VISWALLJUSTIFY
 70
     0
  0
ATTDEF
  5
2AE
100
AcDbEntity
  8
0
100
AcDbText
 10
5.0
 20
5.0
 30
0.0
 40
0.2
  1
Straight
100
AcDbAttributeDefinition
  3
Wall segment
  2
VISWALLSEGMENT
 70
     0
  0
ATTDEF
  5
2AF
100
AcDbEntity
  8
0
100
AcDbText
 10
5.0
 20
5.0
 30
0.0
 40
0.2
  1
10 ft.
100
AcDbAttributeDefinition
  3
Wall radius
  2
RADIUS
 70
     0
  0
ATTDEF
  5
2B0
100
AcDbEntity
  8
0
100
AcDbText
 10
5.0
 20
5.0
 30
0.0
 40
0.2
  1
Building Component
100
AcDbAttributeDefinition
  3
Shape class
  2
SHAPECLASS
 70
     0
  0
ATTDEF
  5
2B1
100
AcDbEntity
  8
0
100
AcDbText
 10
5.0
 20
5.0
 30
0.0
 40
0.2
  1
Wall
100
AcDbAttributeDefinition
  3
Shape type
  2
SHAPETYPE
 70
     0
  0
ATTDEF
  5
2B2
100
AcDbEntity
  8
0
100
AcDbText
 10
5.0
 20
5.0
 30
0.0
 40
0.2
  1

100
AcDbAttributeDefinition
  3
Subshape type
  2
SUBSHAPETYPE
 70
     0
  0
ATTDEF
  5
2B3
100
AcDbEntity
  8
0
100
AcDbText
 10
5.0
 20
5.0
 30
0.0
 40
0.2
  1
0
100
AcDbAttributeDefinition
  3
Fire rating
  2
FIRERATING
 70
     0
  0
ATTDEF
  5
2B4
100
AcDbEntity
  8
0
100
AcDbText
 10
5.0
 20
5.0
 30
0.0
 40
0.2
  1
0
100
AcDbAttributeDefinition
  3
Base elevation
  2
BASEELEVATION
 70
     0
  0
LWPOLYLINE
  5
2B5
102
{ACAD_REACTORS
330
2B6
102
}
100
AcDbEntity
  8
BUILDING_ENVELOPE
  6
CONTINUOUS
 62
     7
100
AcDbPolyline
 90
        6
 70
     1
 10
1.0
 20
5.5
 10
9.0
 20
5.5
 10
9.0
 20
5.25
 10
9.0
 20
5.0
 10
1.0
 20
5.0
 10
1.0
 20
5.25
  0
HATCH
  5
2B6
100
AcDbEntity
  8
BUILDING_ENVELOPE
 62
   253
100
AcDbHatch
 10
0.0
 20
0.0
 30
0.0
210
0.0
220
0.0
230
1.0
  2
SOLID
 70
     1
 71
     1
 91
        1
 92
        3
 72
     0
 73
     1
 93
        6
 10
1.0
 20
5.5
 10
9.0
 20
5.5
 10
9.0
 20
5.25
 10
9.0
 20
5.0
 10
1.0
 20
5.0
 10
1.0
 20
5.25
 97
       14
330
295
330
296
330
297
330
298
330
299
330
29A
330
29B
330
29C
330
29D
330
29E
330
29F
330
2A0
330
2A1
330
2B5
 75
     0
 76
     1
 98
        0
  0
LWPOLYLINE
  5
2B7
100
AcDbEntity
  8
BUILDING_ENVELOPE
  6
CONTINUOUS
 62
     7
100
AcDbPolyline
 90
        4
 70
     0
 10
1.0
 20
5.25
 10
1.0
 20
5.5
 10
9.0
 20
5.5
 10
9.0
 20
5.25
  0
LWPOLYLINE
  5
2B8
100
AcDbEntity
  8
BUILDING_ENVELOPE
  6
CONTINUOUS
 62
     7
100
AcDbPolyline
 90
        4
 70
     0
 10
1.0
 20
5.25
 10
1.0
 20
5.0
 10
9.0
 20
5.0
 10
9.0
 20
5.25
  0
ENDBLK
  5
2B9
100
AcDbEntity
  8
0
100
AcDbBlockEnd
  0
BLOCK
  5
2BB
100
AcDbEntity
  8
0
100
AcDbBlockBegin
  2
DOUBLE
 70
     2
 10
0.0
 20
0.0
 30
0.0
  3
DOUBLE
  1

  0
ATTDEF
  5
2BC
100
AcDbEntity
  8
0
100
AcDbText
 10
5.0
 20
5.0
 30
0.0
 40
0.2
  1
80
100
AcDbAttributeDefinition
  3
Door height
  2
VISDOORHEIGHT
 70
     0
  0
ATTDEF
  5
2BD
100
AcDbEntity
  8
0
100
AcDbText
 10
5.0
 20
5.0
 30
0.0
 40
0.2
  1
0
100
AcDbAttributeDefinition
  3
Reference Line Offset
  2
REFLN
 70
     0
  0
ATTDEF
  5
2BE
100
AcDbEntity
  8
0
100
AcDbText
 10
5.0
 20
5.0
 30
0.0
 40
0.2
  1
60
100
AcDbAttributeDefinition
  3
Door width
  2
SUBTYPE
 70
     0
  0
ATTDEF
  5
2BF
100
AcDbEntity
  8
0
100
AcDbText
 10
5.0
 20
5.0
 30
0.0
 40
0.2
  1
2
100
AcDbAttributeDefinition
  3
Door frame width
  2
SUBVISDOORFRAMEWIDTH
 70
     0
  0
ATTDEF
  5
2C0
100
AcDbEntity
  8
0
100
AcDbText
 10
5.0
 20
5.0
 30
0.0
 40
0.2
  1
4
100
AcDbAttributeDefinition
  3
Door frame depth
  2
SUBVISDOORFRAMEDEPTH
 70
     0
  0
ATTDEF
  5
2C1
100
AcDbEntity
  8
0
100
AcDbText
 10
5.0
 20
5.0
 30
0.0
 40
0.2
  1
0.5
100
AcDbAttributeDefinition
  3
Door stop width
  2
SUBVISDOORSTOPWIDTH
 70
     0
  0
ATTDEF
  5
2C2
100
AcDbEntity
  8
0
100
AcDbText
 10
5.0
 20
5.0
 30
0.0
 40
0.2
  1
1.5
100
AcDbAttributeDefinition
  3
Door stop depth
  2
SUBVISDOORSTOPDEPTH
 70
     0
  0
ATTDEF
  5
2C3
100
AcDbEntity
  8
0
100
AcDbText
 10
5.0
 20
5.0
 30
0.0
 40
0.2
  1
2
100
AcDbAttributeDefinition
  3
Door threshold depth inside
  2
SUBVISDOORTHRESDEPTHIN
 70
     0
  0
ATTDEF
  5
2C4
100
AcDbEntity
  8
0
100
AcDbText
 10
5.0
 20
5.0
 30
0.0
 40
0.2
  1
2
100
AcDbAttributeDefinition
  3
Door threshold width inside
  2
SUBVISDOORTHRESWIDTHIN
 70
     0
  0
ATTDEF
  5
2C5
100
AcDbEntity
  8
0
100
AcDbText
 10
5.0
 20
5.0
 30
0.0
 40
0.2
  1
2
100
AcDbAttributeDefinition
  3
Door threshold depth outside
  2
SUBVISDOORTHRESDEPTHOUT
 70
     0
  0
ATTDEF
  5
2C6
100
AcDbEntity
  8
0
100
AcDbText
 10
5.0
 20
5.0
 30
0.0
 40
0.2
  1
2
100
AcDbAttributeDefinition
  3
Door threshold width outside
  2
SUBVISDOORTHRESWIDTHOUT
 70
     0
  0
ATTDEF
  5
2C7
100
AcDbEntity
  8
0
100
AcDbText
 10
5.0
 20
5.0
 30
0.0
 40
0.2
  1
2
100
AcDbAttributeDefinition
  3
Door panel thickness
  2
SUBVISDOORPANELTHICKNESS
 70
     0
  0
ATTDEF
  5
2C8
100
AcDbEntity
  8
0
100
AcDbText
 10
5.0
 20
5.0
 30
0.0
 40
0.2
  1
30
100
AcDbAttributeDefinition
  3
Door leaf width
  2
VISDOORLEAF
 70
     0
  0
ATTDEF
  5
2C9
100
AcDbEntity
  8
0
100
AcDbText
 10
5.0
 20
5.0
 30
0.0
 40
0.2
  1
12
100
AcDbAttributeDefinition
  3
Door spring height
  2
VISDOORSPRING
 70
     0
  0
ATTDEF
  5
2CA
100
AcDbEntity
  8
0
100
AcDbText
 10
5.0
 20
5.0
 30
0.0
 40
0.2
  1
6
100
AcDbAttributeDefinition
  3
Door along wall offset
  2
VISDOORALONGWALLOFFSET
 70
     0
  0
ATTDEF
  5
2CB
100
AcDbEntity
  8
0
100
AcDbText
 10
5.0
 20
5.0
 30
0.0
 40
0.2
  1
Double
100
AcDbAttributeDefinition
  3
Door type
  2
SUBSHAPETYPE
 70
     0
  0
ATTDEF
  5
2CC
100
AcDbEntity
  8
0
100
AcDbText
 10
5.0
 20
5.0
 30
0.0
 40
0.2
  1
Center
100
AcDbAttributeDefinition
  3
Door within wall offset
  2
VISJUSTIFICATION
 70
     0
  0
ATTDEF
  5
2CD
100
AcDbEntity
  8
0
100
AcDbText
 10
5.0
 20
5.0
 30
0.0
 40
0.2
  1
50
100
AcDbAttributeDefinition
  3
Door open percentage
  2
VISDOOROPENPERCENT
 70
     0
  0
ATTDEF
  5
2CE
100
AcDbEntity
  8
0
100
AcDbText
 10
5.0
 20
5.0
 30
0.0
 40
0.2
  1
Building Component
100
AcDbAttributeDefinition
  3
Shape class
  2
SHAPECLASS
 70
     0
  0
ATTDEF
  5
2CF
100
AcDbEntity
  8
0
100
AcDbText
 10
5.0
 20
5.0
 30
0.0
 40
0.2
  1
Door
100
AcDbAttributeDefinition
  3
Shape type
  2
SHAPETYPE
 70
     0
  0
ATTDEF
  5
2D0
100
AcDbEntity
  8
0
100
AcDbText
 10
5.0
 20
5.0
 30
0.0
 40
0.2
  1
0
100
AcDbAttributeDefinition
  3
Fire rating
  2
FIRERATING
 70
     0
  0
ATTDEF
  5
2D1
100
AcDbEntity
  8
0
100
AcDbText
 10
5.0
 20
5.0
 30
0.0
 40
0.2
  1
0
100
AcDbAttributeDefinition
  3
Door number
  2
DOORNUMBER
 70
     0
  0
ATTDEF
  5
2D2
100
AcDbEntity
  8
0
100
AcDbText
 10
5.0
 20
5.0
 30
0.0
 40
0.2
  1
0
100
AcDbAttributeDefinition
  3
Base elevation
  2
BASEELEVATION
 70
     0
  0
LWPOLYLINE
  5
2D3
100
AcDbEntity
  8
BUILDING_ENVELOPE
  6
CONTINUOUS
 62
     7
100
AcDbPolyline
 90
        4
 70
     1
 10
2.333333
 20
4.734
 10
7.666667
 20
4.734
 10
7.666667
 20
5.266
 10
2.333333
 20
5.266
  0
LINE
  5
2D4
100
AcDbEntity
  8
BUILDING_ENVELOPE
  6
CONTINUOUS
 62
     7
100
AcDbLine
 10
7.666667
 20
4.75
 30
0.0
 11
7.666667
 21
5.25
 31
0.0
  0
LINE
  5
2D5
100
AcDbEntity
  8
BUILDING_ENVELOPE
  6
CONTINUOUS
 62
     7
100
AcDbLine
 10
7.666667
 20
5.25
 30
0.0
 11
7.5
 21
5.25
 31
0.0
  0
LINE
  5
2D6
100
AcDbEntity
  8
BUILDING_ENVELOPE
  6
CONTINUOUS
 62
     7
100
AcDbLine
 10
7.5
 20
5.25
 30
0.0
 11
7.5
 21
5.083333
 31
0.0
  0
LINE
  5
2D7
100
AcDbEntity
  8
BUILDING_ENVELOPE
  6
CONTINUOUS
 62
     7
100
AcDbLine
 10
7.5
 20
4.958333
 30
0.0
 11
7.5
 21
4.75
 31
0.0
  0
LINE
  5
2D8
100
AcDbEntity
  8
BUILDING_ENVELOPE
  6
CONTINUOUS
 62
     7
100
AcDbLine
 10
7.5
 20
4.75
 30
0.0
 11
7.666667
 21
4.75
 31
0.0
  0
LINE
  5
2D9
100
AcDbEntity
  8
BUILDING_ENVELOPE
  6
CONTINUOUS
 62
     7
100
AcDbLine
 10
2.333333
 20
4.75
 30
0.0
 11
2.333333
 21
5.25
 31
0.0
  0
LINE
  5
2DA
100
AcDbEntity
  8
BUILDING_ENVELOPE
  6
CONTINUOUS
 62
     7
100
AcDbLine
 10
2.333333
 20
5.25
 30
0.0
 11
2.5
 21
5.25
 31
0.0
  0
LINE
  5
2DB
100
AcDbEntity
  8
BUILDING_ENVELOPE
  6
CONTINUOUS
 62
     7
100
AcDbLine
 10
2.5
 20
5.25
 30
0.0
 11
2.5
 21
5.083333
 31
0.0
  0
LINE
  5
2DC
100
AcDbEntity
  8
BUILDING_ENVELOPE
  6
CONTINUOUS
 62
     7
100
AcDbLine
 10
2.5
 20
4.958333
 30
0.0
 11
2.5
 21
4.75
 31
0.0
  0
LINE
  5
2DD
100
AcDbEntity
  8
BUILDING_ENVELOPE
  6
CONTINUOUS
 62
     7
100
AcDbLine
 10
2.5
 20
4.75
 30
0.0
 11
2.333333
 21
4.75
 31
0.0
  0
LINE
  5
2DE
100
AcDbEntity
  8
BUILDING_ENVELOPE
  6
CONTINUOUS
 62
     7
100
AcDbLine
 10
7.5
 20
5.083333
 30
0.0
 11
7.458333
 21
5.083333
 31
0.0
  0
LINE
  5
2DF
100
AcDbEntity
  8
BUILDING_ENVELOPE
  6
CONTINUOUS
 62
     7
100
AcDbLine
 10
7.458333
 20
5.083333
 30
0.0
 11
7.458333
 21
4.958333
 31
0.0
  0
LINE
  5
2E0
100
AcDbEntity
  8
BUILDING_ENVELOPE
  6
CONTINUOUS
 62
     7
100
AcDbLine
 10
7.458333
 20
4.958333
 30
0.0
 11
7.5
 21
4.958333
 31
0.0
  0
LINE
  5
2E1
100
AcDbEntity
  8
BUILDING_ENVELOPE
  6
CONTINUOUS
 62
     7
100
AcDbLine
 10
2.5
 20
5.083333
 30
0.0
 11
2.541667
 21
5.083333
 31
0.0
  0
LINE
  5
2E2
100
AcDbEntity
  8
BUILDING_ENVELOPE
  6
CONTINUOUS
 62
     7
100
AcDbLine
 10
2.541667
 20
5.083333
 30
0.0
 11
2.541667
 21
4.958333
 31
0.0
  0
LINE
  5
2E3
100
AcDbEntity
  8
BUILDING_ENVELOPE
  6
CONTINUOUS
 62
     7
100
AcDbLine
 10
2.541667
 20
4.958333
 30
0.0
 11
2.5
 21
4.958333
 31
0.0
  0
LINE
  5
2E4
100
AcDbEntity
  8
BUILDING_ENVELOPE
  6
CONTINUOUS
 62
     7
100
AcDbLine
 10
7.666667
 20
4.75
 30
0.0
 11
7.666667
 21
5.25
 31
0.0
  0
LINE
  5
2E5
100
AcDbEntity
  8
BUILDING_ENVELOPE
  6
CONTINUOUS
 62
     7
100
AcDbLine
 10
2.333333
 20
4.75
 30
0.0
 11
2.333333
 21
5.25
 31
0.0
  0
ARC
  5
2E6
100
AcDbEntity
  8
BUILDING_ENVELOPE
  6
CONTINUOUS
 62
     7
100
AcDbCircle
 10
2.5
 20
5.25
 30
0.0
 40
2.5
100
AcDbArc
 50
0.0
 51
90.0
  0
ARC
  5
2E7
100
AcDbEntity
  8
BUILDING_ENVELOPE
  6
CONTINUOUS
 62
     7
100
AcDbCircle
 10
7.5
 20
5.25
 30
0.0
 40
2.5
100
AcDbArc
 50
90.0
 51
180.0
  0
LWPOLYLINE
  5
2E8
100
AcDbEntity
  8
BUILDING_ENVELOPE
  6
CONTINUOUS
 62
     7
100
AcDbPolyline
 90
        4
 70
     1
 10
2.5
 20
7.75
 10
2.5
 20
5.25
 10
2.666667
 20
5.25
 10
2.666667
 20
7.75
  0
LWPOLYLINE
  5
2E9
100
AcDbEntity
  8
BUILDING_ENVELOPE
  6
CONTINUOUS
 62
     7
100
AcDbPolyline
 90
        4
 70
     1
 10
7.333333
 20
7.75
 10
7.333333
 20
5.25
 10
7.5
 20
5.25
 10
7.5
 20
7.75
  0
ENDBLK
  5
2EA
100
AcDbEntity
  8
0
100
AcDbBlockEnd
  0
ENDSEC
  0
SECTION
  2
ENTITIES
  0
LWPOLYLINE
  5
33
102
{ACAD_REACTORS
330
34
102
}
100
AcDbEntity
  8
BUILDING_ENVELOPE
  6
CONTINUOUS
 62
     7
100
AcDbPolyline
 90
        4
 70
     1
 10
49.255756
 20
76.34
 10
83.922422
 20
76.34
 10
83.589089
 20
76.006667
 10
49.589089
 20
76.006667
  0
HATCH
  5
34
102
{ACAD_REACTORS
330
31
102
}
100
AcDbEntity
  8
BUILDING_ENVELOPE
 62
   253
100
AcDbHatch
 10
0.0
 20
0.0
 30
0.0
210
0.0
220
0.0
230
1.0
  2
SOLID
 70
     1
 71
     1
 91
        1
 92
        3
 72
     0
 73
     1
 93
        4
 10
49.255755555555552
 20
76.340000000000003
 10
83.922422222222224
 20
76.340000000000003
 10
83.589088888888881
 20
76.006666666666661
 10
49.589088888888888
 20
76.006666666666661
 97
        1
330
33
 75
     0
 76
     1
 98
        0
  0
LINE
  5
35
102
{ACAD_REACTORS
330
31
102
}
100
AcDbEntity
  8
BUILDING_ENVELOPE
  6
CONTINUOUS
 62
     7
100
AcDbLine
 10
49.255756
 20
76.34
 30
0.0
 11
83.922422
 21
76.34
 31
0.0
  0
LINE
  5
36
102
{ACAD_REACTORS
330
31
102
}
100
AcDbEntity
  8
BUILDING_ENVELOPE
  6
CONTINUOUS
 62
     7
100
AcDbLine
 10
49.589089
 20
76.006667
 30
0.0
 11
83.589089
 21
76.006667
 31
0.0
  0
LWPOLYLINE
  5
37
102
{ACAD_REACTORS
330
38
102
}
100
AcDbEntity
  8
BUILDING_ENVELOPE
  6
CONTINUOUS
 62
     7
100
AcDbPolyline
 90
        4
 70
     1
 10
83.922422
 20
76.34
 10
83.922422
 20
63.673333
 10
83.589089
 20
64.006667
 10
83.589089
 20
76.006667
  0
HATCH
  5
38
102
{ACAD_REACTORS
330
31
102
}
100
AcDbEntity
  8
BUILDING_ENVELOPE
 62
   253
100
AcDbHatch
 10
0.0
 20
0.0
 30
0.0
210
0.0
220
0.0
230
1.0
  2
SOLID
 70
     1
 71
     1
 91
        1
 92
        3
 72
     0
 73
     1
 93
        4
 10
83.922422222222224
 20
76.340000000000003
 10
83.922422222222224
 20
63.673333333333332
 10
83.589088888888881
 20
64.006666666666661
 10
83.589088888888881
 20
76.006666666666661
 97
        1
330
37
 75
     0
 76
     1
 98
        0
  0
LINE
  5
39
102
{ACAD_REACTORS
330
31
102
}
100
AcDbEntity
  8
BUILDING_ENVELOPE
  6
CONTINUOUS
 62
     7
100
AcDbLine
 10
83.922422
 20
76.34
 30
0.0
 11
83.922422
 21
63.673333
 31
0.0
  0
LINE
  5
3A
102
{ACAD_REACTORS
330
31
102
}
100
AcDbEntity
  8
BUILDING_ENVELOPE
  6
CONTINUOUS
 62
     7
100
AcDbLine
 10
83.589089
 20
76.006667
 30
0.0
 11
83.589089
 21
64.006667
 31
0.0
  0
LWPOLYLINE
  5
3B
102
{ACAD_REACTORS
330
3C
102
}
100
AcDbEntity
  8
BUILDING_ENVELOPE
  6
CONTINUOUS
 62
     7
100
AcDbPolyline
 90
        4
 70
     1
 10
83.922422
 20
63.673333
 10
49.255756
 20
63.673333
 10
49.589089
 20
64.006667
 10
83.589089
 20
64.006667
  0
HATCH
  5
3C
102
{ACAD_REACTORS
330
31
102
}
100
AcDbEntity
  8
BUILDING_ENVELOPE
 62
   253
100
AcDbHatch
 10
0.0
 20
0.0
 30
0.0
210
0.0
220
0.0
230
1.0
  2
SOLID
 70
     1
 71
     1
 91
        1
 92
        3
 72
     0
 73
     1
 93
        4
 10
83.922422222222224
 20
63.673333333333382
 10
49.25575555555546
 20
63.673333333333382
 10
49.589088888888796
 20
64.006666666666717
 10
83.589088888888881
 20
64.006666666666717
 97
        1
330
3B
 75
     0
 76
     1
 98
        0
  0
LINE
  5
3D
102
{ACAD_REACTORS
330
31
102
}
100
AcDbEntity
  8
BUILDING_ENVELOPE
  6
CONTINUOUS
 62
     7
100
AcDbLine
 10
83.922422
 20
63.673333
 30
0.0
 11
49.255756
 21
63.673333
 31
0.0
  0
LINE
  5
3E
102
{ACAD_REACTORS
330
31
102
}
100
AcDbEntity
  8
BUILDING_ENVELOPE
  6
CONTINUOUS
 62
     7
100
AcDbLine
 10
83.589089
 20
64.006667
 30
0.0
 11
49.589089
 21
64.006667
 31
0.0
  0
LWPOLYLINE
  5
3F
102
{ACAD_REACTORS
330
40
102
}
100
AcDbEntity
  8
BUILDING_ENVELOPE
  6
CONTINUOUS
 62
     7
100
AcDbPolyline
 90
        4
 70
     1
 10
49.255756
 20
63.673333
 10
49.255756
 20
76.34
 10
49.589089
 20
76.006667
 10
49.589089
 20
64.006667
  0
HATCH
  5
40
102
{ACAD_REACTORS
330
31
102
}
100
AcDbEntity
  8
BUILDING_ENVELOPE
 62
   253
100
AcDbHatch
 10
0.0
 20
0.0
 30
0.0
210
0.0
220
0.0
230
1.0
  2
SOLID
 70
     1
 71
     1
 91
        1
 92
        3
 72
     0
 73
     1
 93
        4
 10
49.255755555555538
 20
63.673333333333446
 10
49.255755555555538
 20
76.340000000000003
 10
49.589088888888867
 20
76.006666666666661
 10
49.589088888888867
 20
64.006666666666774
 97
        1
330
3F
 75
     0
 76
     1
 98
        0
  0
LINE
  5
41
102
{ACAD_REACTORS
330
31
102
}
100
AcDbEntity
  8
BUILDING_ENVELOPE
  6
CONTINUOUS
 62
     7
100
AcDbLine
 10
49.255756
 20
63.673333
 30
0.0
 11
49.255756
 21
76.34
 31
0.0
  0
LINE
  5
42
102
{ACAD_REACTORS
330
31
102
}
100
AcDbEntity
  8
BUILDING_ENVELOPE
  6
CONTINUOUS
 62
     7
100
AcDbLine
 10
49.589089
 20
64.006667
 30
0.0
 11
49.589089
 21
76.006667
 31
0.0
  0
LWPOLYLINE
  5
44
102
{ACAD_REACTORS
330
45
102
}
100
AcDbEntity
  8
BUILDING_ENVELOPE
  6
CONTINUOUS
 62
     7
100
AcDbPolyline
 90
        5
 70
     1
 10
1.755756
 20
36.34
 10
33.589089
 20
36.34
 10
33.589089
 20
36.173333
 10
33.589089
 20
36.006667
 10
1.422422
 20
36.006667
  0
HATCH
  5
45
102
{ACAD_REACTORS
330
43
102
}
100
AcDbEntity
  8
BUILDING_ENVELOPE
 62
   253
100
AcDbHatch
 10
0.0
 20
0.0
 30
0.0
210
0.0
220
0.0
230
1.0
  2
SOLID
 70
     1
 71
     1
 91
        1
 92
        3
 72
     0
 73
     1
 93
        5
 10
1.7557555555555571
 20
36.339999999999996
 10
33.589088888888888
 20
36.339999999999996
 10
33.589088888888888
 20
36.173333333333332
 10
33.589088888888888
 20
36.006666666666661
 10
1.422422222222226
 20
36.006666666666661
 97
        1
330
44
 75
     0
 76
     1
 98
        0
  0
LWPOLYLINE
  5
46
102
{ACAD_REACTORS
330
43
102
}
100
AcDbEntity
  8
BUILDING_ENVELOPE
  6
CONTINUOUS
 62
     7
100
AcDbPolyline
 90
        3
 70
     0
 10
1.755756
 20
36.34
 10
33.589089
 20
36.34
 10
33.589089
 20
36.173333
  0
LWPOLYLINE
  5
47
102
{ACAD_REACTORS
330
43
102
}
100
AcDbEntity
  8
BUILDING_ENVELOPE
  6
CONTINUOUS
 62
     7
100
AcDbPolyline
 90
        3
 70
     0
 10
1.422422
 20
36.006667
 10
33.589089
 20
36.006667
 10
33.589089
 20
36.173333
  0
LWPOLYLINE
  5
49
102
{ACAD_REACTORS
330
4A
102
}
100
AcDbEntity
  8
BUILDING_ENVELOPE
  6
CONTINUOUS
 62
     7
100
AcDbPolyline
 90
        4
 70
     1
 10
1.422422
 20
36.006667
 10
1.422422
 20
76.34
 10
1.755756
 20
76.006667
 10
1.755756
 20
36.34
  0
HATCH
  5
4A
102
{ACAD_REACTORS
330
48
102
}
100
AcDbEntity
  8
BUILDING_ENVELOPE
 62
   253
100
AcDbHatch
 10
0.0
 20
0.0
 30
0.0
210
0.0
220
0.0
230
1.0
  2
SOLID
 70
     1
 71
     1
 91
        1
 92
        3
 72
     0
 73
     1
 93
        4
 10
1.4224222222222216
 20
36.006666666666668
 10
1.4224222222222216
 20
76.340000000000003
 10
1.7557555555555551
 20
76.006666666666661
 10
1.7557555555555551
 20
36.340000000000003
 97
        1
330
49
 75
     0
 76
     1
 98
        0
  0
LINE
  5
4B
102
{ACAD_REACTORS
330
48
102
}
100
AcDbEntity
  8
BUILDING_ENVELOPE
  6
CONTINUOUS
 62
     7
100
AcDbLine
 10
1.422422
 20
36.006667
 30
0.0
 11
1.422422
 21
76.34
 31
0.0
  0
LINE
  5
4C
102
{ACAD_REACTORS
330
48
102
}
100
AcDbEntity
  8
BUILDING_ENVELOPE
  6
CONTINUOUS
 62
     7
100
AcDbLine
 10
1.755756
 20
36.34
 30
0.0
 11
1.755756
 21
76.006667
 31
0.0
  0
LWPOLYLINE
  5
4E
102
{ACAD_REACTORS
330
4F
102
}
100
AcDbEntity
  8
BUILDING_ENVELOPE
  6
CONTINUOUS
 62
     7
100
AcDbPolyline
 90
        5
 70
     1
 10
1.422422
 20
76.34
 10
49.589089
 20
76.34
 10
49.589089
 20
76.173333
 10
49.589089
 20
76.006667
 10
1.755756
 20
76.006667
  0
HATCH
  5
4F
102
{ACAD_REACTORS
330
4D
102
}
100
AcDbEntity
  8
BUILDING_ENVELOPE
 62
   253
100
AcDbHatch
 10
0.0
 20
0.0
 30
0.0
210
0.0
220
0.0
230
1.0
  2
SOLID
 70
     1
 71
     1
 91
        1
 92
        3
 72
     0
 73
     1
 93
        5
 10
1.4224222222222143
 20
76.340000000000003
 10
49.589088888888881
 20
76.340000000000003
 10
49.589088888888881
 20
76.173333333333332
 10
49.589088888888881
 20
76.006666666666661
 10
1.7557555555555475
 20
76.006666666666661
 97
        1
330
4E
 75
     0
 76
     1
 98
        0
  0
LWPOLYLINE
  5
50
102
{ACAD_REACTORS
330
4D
102
}
100
AcDbEntity
  8
BUILDING_ENVELOPE
  6
CONTINUOUS
 62
     7
100
AcDbPolyline
 90
        3
 70
     0
 10
1.422422
 20
76.34
 10
49.589089
 20
76.34
 10
49.589089
 20
76.173333
  0
LWPOLYLINE
  5
51
102
{ACAD_REACTORS
330
4D
102
}
100
AcDbEntity
  8
BUILDING_ENVELOPE
  6
CONTINUOUS
 62
     7
100
AcDbPolyline
 90
        3
 70
     0
 10
1.755756
 20
76.006667
 10
49.589089
 20
76.006667
 10
49.589089
 20
76.173333
  0
LWPOLYLINE
  5
53
102
{ACAD_REACTORS
330
54
102
}
100
AcDbEntity
  8
BUILDING_ENVELOPE
  6
CONTINUOUS
 62
     7
100
AcDbPolyline
 90
        4
 70
     1
 10
1.922422
 20
36.006667
 10
1.922422
 20
20.34
 10
1.589089
 20
20.006667
 10
1.589089
 20
36.006667
  0
HATCH
  5
54
102
{ACAD_REACTORS
330
52
102
}
100
AcDbEntity
  8
BUILDING_ENVELOPE
 62
   253
100
AcDbHatch
 10
0.0
 20
0.0
 30
0.0
210
0.0
220
0.0
230
1.0
  2
SOLID
 70
     1
 71
     1
 91
        1
 92
        3
 72
     0
 73
     1
 93
        4
 10
1.9224222222222231
 20
36.006666666666661
 10
1.9224222222222231
 20
20.339999999999996
 10
1.5890888888888899
 20
20.006666666666664
 10
1.5890888888888899
 20
36.006666666666661
 97
        1
330
53
 75
     0
 76
     1
 98
        0
  0
LWPOLYLINE
  5
55
102
{ACAD_REACTORS
330
56
102
}
100
AcDbEntity
  8
BUILDING_ENVELOPE
  6
CONTINUOUS
 62
     7
100
AcDbPolyline
 90
        4
 70
     1
 10
1.589089
 20
36.006667
 10
1.922422
 20
36.006667
 10
1.922422
 20
36.04
 10
1.589089
 20
36.04
  0
HATCH
  5
56
102
{ACAD_REACTORS
330
52
102
}
100
AcDbEntity
  8
BUILDING_ENVELOPE
 62
   253
100
AcDbHatch
 10
0.0
 20
0.0
 30
0.0
210
0.0
220
0.0
230
1.0
  2
SOLID
 70
     1
 71
     1
 91
        1
 92
        3
 72
     0
 73
     1
 93
        4
 10
1.5890888888888899
 20
36.006666666666661
 10
1.9224222222222231
 20
36.006666666666661
 10
1.9224222222222231
 20
36.039999999999992
 10
1.5890888888888899
 20
36.039999999999992
 97
        1
330
55
 75
     0
 76
     1
 98
        0
  0
LINE
  5
57
102
{ACAD_REACTORS
330
52
102
}
100
AcDbEntity
  8
BUILDING_ENVELOPE
  6
CONTINUOUS
 62
     7
100
AcDbLine
 10
1.922422
 20
36.006667
 30
0.0
 11
1.922422
 21
20.34
 31
0.0
  0
LINE
  5
58
102
{ACAD_REACTORS
330
52
102
}
100
AcDbEntity
  8
BUILDING_ENVELOPE
  6
CONTINUOUS
 62
     7
100
AcDbLine
 10
1.589089
 20
36.006667
 30
0.0
 11
1.589089
 21
20.006667
 31
0.0
  0
LWPOLYLINE
  5
5A
102
{ACAD_REACTORS
330
5B
102
}
100
AcDbEntity
  8
BUILDING_ENVELOPE
  6
CONTINUOUS
 62
     7
100
AcDbPolyline
 90
        5
 70
     1
 10
1.922422
 20
20.34
 10
49.589089
 20
20.34
 10
49.589089
 20
20.173333
 10
49.589089
 20
20.006667
 10
1.589089
 20
20.006667
  0
HATCH
  5
5B
102
{ACAD_REACTORS
330
59
102
}
100
AcDbEntity
  8
BUILDING_ENVELOPE
 62
   253
100
AcDbHatch
 10
0.0
 20
0.0
 30
0.0
210
0.0
220
0.0
230
1.0
  2
SOLID
 70
     1
 71
     1
 91
        1
 92
        3
 72
     0
 73
     1
 93
        5
 10
1.9224222222222096
 20
20.34
 10
49.589088888888881
 20
20.34
 10
49.589088888888881
 20
20.173333333333332
 10
49.589088888888881
 20
20.006666666666668
 10
1.589088888888881
 20
20.006666666666668
 97
        1
330
5A
 75
     0
 76
     1
 98
        0
  0
LWPOLYLINE
  5
5C
102
{ACAD_REACTORS
330
59
102
}
100
AcDbEntity
  8
BUILDING_ENVELOPE
  6
CONTINUOUS
 62
     7
100
AcDbPolyline
 90
        3
 70
     0
 10
1.922422
 20
20.34
 10
49.589089
 20
20.34
 10
49.589089
 20
20.173333
  0
LWPOLYLINE
  5
5D
102
{ACAD_REACTORS
330
59
102
}
100
AcDbEntity
  8
BUILDING_ENVELOPE
  6
CONTINUOUS
 62
     7
100
AcDbPolyline
 90
        3
 70
     0
 10
1.589089
 20
20.006667
 10
49.589089
 20
20.006667
 10
49.589089
 20
20.173333
  0
LWPOLYLINE
  5
5F
102
{ACAD_REACTORS
330
60
102
}
100
AcDbEntity
  8
BUILDING_ENVELOPE
  6
CONTINUOUS
 62
     7
100
AcDbPolyline
 90
        5
 70
     1
 10
49.255756
 20
20.34
 10
49.255756
 20
64.006667
 10
49.422422
 20
64.006667
 10
49.589089
 20
64.006667
 10
49.589089
 20
20.34
  0
HATCH
  5
60
102
{ACAD_REACTORS
330
5E
102
}
100
AcDbEntity
  8
BUILDING_ENVELOPE
 62
   253
100
AcDbHatch
 10
0.0
 20
0.0
 30
0.0
210
0.0
220
0.0
230
1.0
  2
SOLID
 70
     1
 71
     1
 91
        1
 92
        3
 72
     0
 73
     1
 93
        5
 10
49.255755555555496
 20
20.340000000000025
 10
49.255755555555496
 20
64.006666666666803
 10
49.422422222222167
 20
64.006666666666803
 10
49.589088888888831
 20
64.006666666666803
 10
49.589088888888831
 20
20.340000000000032
 97
        1
330
5F
 75
     0
 76
     1
 98
        0
  0
LWPOLYLINE
  5
61
102
{ACAD_REACTORS
330
62
102
}
100
AcDbEntity
  8
BUILDING_ENVELOPE
  6
CONTINUOUS
 62
     7
100
AcDbPolyline
 90
        4
 70
     1
 10
49.589089
 20
20.34
 10
49.255756
 20
20.34
 10
49.255756
 20
20.306667
 10
49.589089
 20
20.306667
  0
HATCH
  5
62
102
{ACAD_REACTORS
330
5E
102
}
100
AcDbEntity
  8
BUILDING_ENVELOPE
 62
   253
100
AcDbHatch
 10
0.0
 20
0.0
 30
0.0
210
0.0
220
0.0
230
1.0
  2
SOLID
 70
     1
 71
     1
 91
        1
 92
        3
 72
     0
 73
     1
 93
        4
 10
49.589088888888831
 20
20.340000000000028
 10
49.255755555555496
 20
20.340000000000028
 10
49.255755555555496
 20
20.306666666666693
 10
49.589088888888831
 20
20.306666666666693
 97
        1
330
61
 75
     0
 76
     1
 98
        0
  0
LWPOLYLINE
  5
63
102
{ACAD_REACTORS
330
5E
102
}
100
AcDbEntity
  8
BUILDING_ENVELOPE
  6
CONTINUOUS
 62
     7
100
AcDbPolyline
 90
        3
 70
     0
 10
49.255756
 20
20.34
 10
49.255756
 20
64.006667
 10
49.422422
 20
64.006667
  0
LWPOLYLINE
  5
64
102
{ACAD_REACTORS
330
5E
102
}
100
AcDbEntity
  8
BUILDING_ENVELOPE
  6
CONTINUOUS
 62
     7
100
AcDbPolyline
 90
        3
 70
     0
 10
49.589089
 20
20.34
 10
49.589089
 20
64.006667
 10
49.422422
 20
64.006667
  0
LWPOLYLINE
  5
66
102
{ACAD_REACTORS
330
65
102
}
100
AcDbEntity
  8
BUILDING_ENVELOPE
  6
CONTINUOUS
 62
     7
100
AcDbPolyline
 90
        4
 70
     1
 10
49.597089
 20
46.173333
 10
49.597089
 20
35.84
 10
49.247756
 20
35.84
 10
49.247756
 20
46.173333
  0
LINE
  5
67
102
{ACAD_REACTORS
330
65
102
}
100
AcDbEntity
  8
BUILDING_ENVELOPE
  6
CONTINUOUS
 62
     7
100
AcDbLine
 10
49.589089
 20
35.84
 30
0.0
 11
49.255756
 21
35.84
 31
0.0
  0
LINE
  5
68
102
{ACAD_REACTORS
330
65
102
}
100
AcDbEntity
  8
BUILDING_ENVELOPE
  6
CONTINUOUS
 62
     7
100
AcDbLine
 10
49.255756
 20
35.84
 30
0.0
 11
49.255756
 21
36.006667
 31
0.0
  0
LINE
  5
69
102
{ACAD_REACTORS
330
65
102
}
100
AcDbEntity
  8
BUILDING_ENVELOPE
  6
CONTINUOUS
 62
     7
100
AcDbLine
 10
49.255756
 20
36.006667
 30
0.0
 11
49.380756
 21
36.006667
 31
0.0
  0
LINE
  5
6A
102
{ACAD_REACTORS
330
65
102
}
100
AcDbEntity
  8
BUILDING_ENVELOPE
  6
CONTINUOUS
 62
     7
100
AcDbLine
 10
49.505756
 20
36.006667
 30
0.0
 11
49.589089
 21
36.006667
 31
0.0
  0
LINE
  5
6B
102
{ACAD_REACTORS
330
65
102
}
100
AcDbEntity
  8
BUILDING_ENVELOPE
  6
CONTINUOUS
 62
     7
100
AcDbLine
 10
49.589089
 20
36.006667
 30
0.0
 11
49.589089
 21
35.84
 31
0.0
  0
LINE
  5
6C
102
{ACAD_REACTORS
330
65
102
}
100
AcDbEntity
  8
BUILDING_ENVELOPE
  6
CONTINUOUS
 62
     7
100
AcDbLine
 10
49.589089
 20
46.173333
 30
0.0
 11
49.255756
 21
46.173333
 31
0.0
  0
LINE
  5
6D
102
{ACAD_REACTORS
330
65
102
}
100
AcDbEntity
  8
BUILDING_ENVELOPE
  6
CONTINUOUS
 62
     7
100
AcDbLine
 10
49.255756
 20
46.173333
 30
0.0
 11
49.255756
 21
46.006667
 31
0.0
  0
LINE
  5
6E
102
{ACAD_REACTORS
330
65
102
}
100
AcDbEntity
  8
BUILDING_ENVELOPE
  6
CONTINUOUS
 62
     7
100
AcDbLine
 10
49.255756
 20
46.006667
 30
0.0
 11
49.380756
 21
46.006667
 31
0.0
  0
LINE
  5
6F
102
{ACAD_REACTORS
330
65
102
}
100
AcDbEntity
  8
BUILDING_ENVELOPE
  6
CONTINUOUS
 62
     7
100
AcDbLine
 10
49.505756
 20
46.006667
 30
0.0
 11
49.589089
 21
46.006667
 31
0.0
  0
LINE
  5
70
102
{ACAD_REACTORS
330
65
102
}
100
AcDbEntity
  8
BUILDING_ENVELOPE
  6
CONTINUOUS
 62
     7
100
AcDbLine
 10
49.589089
 20
46.006667
 30
0.0
 11
49.589089
 21
46.173333
 31
0.0
  0
LINE
  5
71
102
{ACAD_REACTORS
330
65
102
}
100
AcDbEntity
  8
BUILDING_ENVELOPE
  6
CONTINUOUS
 62
     7
100
AcDbLine
 10
49.380756
 20
36.006667
 30
0.0
 11
49.380756
 21
36.048333
 31
0.0
  0
LINE
  5
72
102
{ACAD_REACTORS
330
65
102
}
100
AcDbEntity
  8
BUILDING_ENVELOPE
  6
CONTINUOUS
 62
     7
100
AcDbLine
 10
49.380756
 20
36.048333
 30
0.0
 11
49.505756
 21
36.048333
 31
0.0
  0
LINE
  5
73
102
{ACAD_REACTORS
330
65
102
}
100
AcDbEntity
  8
BUILDING_ENVELOPE
  6
CONTINUOUS
 62
     7
100
AcDbLine
 10
49.505756
 20
36.048333
 30
0.0
 11
49.505756
 21
36.006667
 31
0.0
  0
LINE
  5
74
102
{ACAD_REACTORS
330
65
102
}
100
AcDbEntity
  8
BUILDING_ENVELOPE
  6
CONTINUOUS
 62
     7
100
AcDbLine
 10
49.380756
 20
46.006667
 30
0.0
 11
49.380756
 21
45.965
 31
0.0
  0
LINE
  5
75
102
{ACAD_REACTORS
330
65
102
}
100
AcDbEntity
  8
BUILDING_ENVELOPE
  6
CONTINUOUS
 62
     7
100
AcDbLine
 10
49.380756
 20
45.965
 30
0.0
 11
49.505756
 21
45.965
 31
0.0
  0
LINE
  5
76
102
{ACAD_REACTORS
330
65
102
}
100
AcDbEntity
  8
BUILDING_ENVELOPE
  6
CONTINUOUS
 62
     7
100
AcDbLine
 10
49.505756
 20
45.965
 30
0.0
 11
49.505756
 21
46.006667
 31
0.0
  0
LINE
  5
77
102
{ACAD_REACTORS
330
65
102
}
100
AcDbEntity
  8
BUILDING_ENVELOPE
  6
CONTINUOUS
 62
     7
100
AcDbLine
 10
49.589089
 20
35.84
 30
0.0
 11
49.255756
 21
35.84
 31
0.0
  0
LINE
  5
78
102
{ACAD_REACTORS
330
65
102
}
100
AcDbEntity
  8
BUILDING_ENVELOPE
  6
CONTINUOUS
 62
     7
100
AcDbLine
 10
49.589089
 20
46.173333
 30
0.0
 11
49.255756
 21
46.173333
 31
0.0
  0
ARC
  5
79
102
{ACAD_REACTORS
330
65
102
}
100
AcDbEntity
  8
BUILDING_ENVELOPE
  6
CONTINUOUS
 62
     7
100
AcDbCircle
 10
49.255756
 20
36.006667
 30
0.0
 40
10.0
100
AcDbArc
 50
90.0
 51
180.0
  0
LWPOLYLINE
  5
7A
102
{ACAD_REACTORS
330
65
102
}
100
AcDbEntity
  8
BUILDING_ENVELOPE
  6
CONTINUOUS
 62
     7
100
AcDbPolyline
 90
        4
 70
     1
 10
39.255756
 20
36.131667
 10
49.255756
 20
36.131667
 10
49.255756
 20
36.006667
 10
39.255756
 20
36.006667
  0
LWPOLYLINE
  5
7C
102
{ACAD_REACTORS
330
7B
102
}
100
AcDbEntity
  8
BUILDING_ENVELOPE
  6
CONTINUOUS
 62
     7
100
AcDbPolyline
 90
        4
 70
     1
 10
49.597089
 20
50.006667
 10
49.597089
 20
60.006667
 10
49.247756
 20
60.006667
 10
49.247756
 20
50.006667
  0
LINE
  5
7D
102
{ACAD_REACTORS
330
7B
102
}
100
AcDbEntity
  8
BUILDING_ENVELOPE
  6
CONTINUOUS
 62
     7
100
AcDbLine
 10
49.589089
 20
50.006667
 30
0.0
 11
49.255756
 21
50.006667
 31
0.0
  0
LINE
  5
7E
102
{ACAD_REACTORS
330
7B
102
}
100
AcDbEntity
  8
BUILDING_ENVELOPE
  6
CONTINUOUS
 62
     7
100
AcDbLine
 10
49.255756
 20
50.006667
 30
0.0
 11
49.255756
 21
50.173333
 31
0.0
  0
LINE
  5
7F
102
{ACAD_REACTORS
330
7B
102
}
100
AcDbEntity
  8
BUILDING_ENVELOPE
  6
CONTINUOUS
 62
     7
100
AcDbLine
 10
49.255756
 20
50.173333
 30
0.0
 11
49.339089
 21
50.173333
 31
0.0
  0
LINE
  5
80
102
{ACAD_REACTORS
330
7B
102
}
100
AcDbEntity
  8
BUILDING_ENVELOPE
  6
CONTINUOUS
 62
     7
100
AcDbLine
 10
49.505756
 20
50.173333
 30
0.0
 11
49.589089
 21
50.173333
 31
0.0
  0
LINE
  5
81
102
{ACAD_REACTORS
330
7B
102
}
100
AcDbEntity
  8
BUILDING_ENVELOPE
  6
CONTINUOUS
 62
     7
100
AcDbLine
 10
49.589089
 20
50.173333
 30
0.0
 11
49.589089
 21
50.006667
 31
0.0
  0
LINE
  5
82
102
{ACAD_REACTORS
330
7B
102
}
100
AcDbEntity
  8
BUILDING_ENVELOPE
  6
CONTINUOUS
 62
     7
100
AcDbLine
 10
49.589089
 20
60.006667
 30
0.0
 11
49.255756
 21
60.006667
 31
0.0
  0
LINE
  5
83
102
{ACAD_REACTORS
330
7B
102
}
100
AcDbEntity
  8
BUILDING_ENVELOPE
  6
CONTINUOUS
 62
     7
100
AcDbLine
 10
49.255756
 20
60.006667
 30
0.0
 11
49.255756
 21
59.84
 31
0.0
  0
LINE
  5
84
102
{ACAD_REACTORS
330
7B
102
}
100
AcDbEntity
  8
BUILDING_ENVELOPE
  6
CONTINUOUS
 62
     7
100
AcDbLine
 10
49.255756
 20
59.84
 30
0.0
 11
49.339089
 21
59.84
 31
0.0
  0
LINE
  5
85
102
{ACAD_REACTORS
330
7B
102
}
100
AcDbEntity
  8
BUILDING_ENVELOPE
  6
CONTINUOUS
 62
     7
100
AcDbLine
 10
49.505756
 20
59.84
 30
0.0
 11
49.589089
 21
59.84
 31
0.0
  0
LINE
  5
86
102
{ACAD_REACTORS
330
7B
102
}
100
AcDbEntity
  8
BUILDING_ENVELOPE
  6
CONTINUOUS
 62
     7
100
AcDbLine
 10
49.589089
 20
59.84
 30
0.0
 11
49.589089
 21
60.006667
 31
0.0
  0
LWPOLYLINE
  5
87
102
{ACAD_REACTORS
330
7B
102
}
100
AcDbEntity
  8
BUILDING_ENVELOPE
  6
CONTINUOUS
 62
     7
100
AcDbPolyline
 90
        4
 70
     1
 10
49.339089
 20
50.173333
 10
49.339089
 20
50.34
 10
49.505756
 20
50.34
 10
49.505756
 20
50.173333
  0
LWPOLYLINE
  5
88
102
{ACAD_REACTORS
330
7B
102
}
100
AcDbEntity
  8
BUILDING_ENVELOPE
  6
CONTINUOUS
 62
     7
100
AcDbPolyline
 90
        4
 70
     1
 10
49.339089
 20
59.84
 10
49.339089
 20
59.673333
 10
49.505756
 20
59.673333
 10
49.505756
 20
59.84
  0
LINE
  5
89
102
{ACAD_REACTORS
330
7B
102
}
100
AcDbEntity
  8
BUILDING_ENVELOPE
  6
CONTINUOUS
 62
     7
100
AcDbLine
 10
49.422422
 20
50.34
 30
0.0
 11
49.422422
 21
59.673333
 31
0.0
  0
LINE
  5
8A
102
{ACAD_REACTORS
330
7B
102
}
100
AcDbEntity
  8
BUILDING_ENVELOPE
  6
CONTINUOUS
 62
     7
100
AcDbLine
 10
49.589089
 20
50.006667
 30
0.0
 11
49.255756
 21
50.006667
 31
0.0
  0
LINE
  5
8B
102
{ACAD_REACTORS
330
7B
102
}
100
AcDbEntity
  8
BUILDING_ENVELOPE
  6
CONTINUOUS
 62
     7
100
AcDbLine
 10
49.589089
 20
60.006667
 30
0.0
 11
49.255756
 21
60.006667
 31
0.0
  0
LWPOLYLINE
  5
8D
102
{ACAD_REACTORS
330
8C
102
}
100
AcDbEntity
  8
BUILDING_ENVELOPE
  6
CONTINUOUS
 62
     7
100
AcDbPolyline
 90
        4
 70
     1
 10
50.513331
 20
63.665333
 10
59.755756
 20
63.665333
 10
59.755756
 20
64.014667
 10
50.513331
 20
64.014667
  0
LINE
  5
8E
102
{ACAD_REACTORS
330
8C
102
}
100
AcDbEntity
  8
BUILDING_ENVELOPE
  6
CONTINUOUS
 62
     7
100
AcDbLine
 10
59.755756
 20
63.673333
 30
0.0
 11
59.755756
 21
64.006667
 31
0.0
  0
LINE
  5
8F
102
{ACAD_REACTORS
330
8C
102
}
100
AcDbEntity
  8
BUILDING_ENVELOPE
  6
CONTINUOUS
 62
     7
100
AcDbLine
 10
59.755756
 20
64.006667
 30
0.0
 11
59.589089
 21
64.006667
 31
0.0
  0
LINE
  5
90
102
{ACAD_REACTORS
330
8C
102
}
100
AcDbEntity
  8
BUILDING_ENVELOPE
  6
CONTINUOUS
 62
     7
100
AcDbLine
 10
59.589089
 20
64.006667
 30
0.0
 11
59.589089
 21
63.881667
 31
0.0
  0
LINE
  5
91
102
{ACAD_REACTORS
330
8C
102
}
100
AcDbEntity
  8
BUILDING_ENVELOPE
  6
CONTINUOUS
 62
     7
100
AcDbLine
 10
59.589089
 20
63.756667
 30
0.0
 11
59.589089
 21
63.673333
 31
0.0
  0
LINE
  5
92
102
{ACAD_REACTORS
330
8C
102
}
100
AcDbEntity
  8
BUILDING_ENVELOPE
  6
CONTINUOUS
 62
     7
100
AcDbLine
 10
59.589089
 20
63.673333
 30
0.0
 11
59.755756
 21
63.673333
 31
0.0
  0
LINE
  5
93
102
{ACAD_REACTORS
330
8C
102
}
100
AcDbEntity
  8
BUILDING_ENVELOPE
  6
CONTINUOUS
 62
     7
100
AcDbLine
 10
50.513331
 20
63.673333
 30
0.0
 11
50.513331
 21
64.006667
 31
0.0
  0
LINE
  5
94
102
{ACAD_REACTORS
330
8C
102
}
100
AcDbEntity
  8
BUILDING_ENVELOPE
  6
CONTINUOUS
 62
     7
100
AcDbLine
 10
50.513331
 20
64.006667
 30
0.0
 11
50.679998
 21
64.006667
 31
0.0
  0
LINE
  5
95
102
{ACAD_REACTORS
330
8C
102
}
100
AcDbEntity
  8
BUILDING_ENVELOPE
  6
CONTINUOUS
 62
     7
100
AcDbLine
 10
50.679998
 20
64.006667
 30
0.0
 11
50.679998
 21
63.881667
 31
0.0
  0
LINE
  5
96
102
{ACAD_REACTORS
330
8C
102
}
100
AcDbEntity
  8
BUILDING_ENVELOPE
  6
CONTINUOUS
 62
     7
100
AcDbLine
 10
50.679998
 20
63.756667
 30
0.0
 11
50.679998
 21
63.673333
 31
0.0
  0
LINE
  5
97
102
{ACAD_REACTORS
330
8C
102
}
100
AcDbEntity
  8
BUILDING_ENVELOPE
  6
CONTINUOUS
 62
     7
100
AcDbLine
 10
50.679998
 20
63.673333
 30
0.0
 11
50.513331
 21
63.673333
 31
0.0
  0
LINE
  5
98
102
{ACAD_REACTORS
330
8C
102
}
100
AcDbEntity
  8
BUILDING_ENVELOPE
  6
CONTINUOUS
 62
     7
100
AcDbLine
 10
59.589089
 20
63.881667
 30
0.0
 11
59.547422
 21
63.881667
 31
0.0
  0
LINE
  5
99
102
{ACAD_REACTORS
330
8C
102
}
100
AcDbEntity
  8
BUILDING_ENVELOPE
  6
CONTINUOUS
 62
     7
100
AcDbLine
 10
59.547422
 20
63.881667
 30
0.0
 11
59.547422
 21
63.756667
 31
0.0
  0
LINE
  5
9A
102
{ACAD_REACTORS
330
8C
102
}
100
AcDbEntity
  8
BUILDING_ENVELOPE
  6
CONTINUOUS
 62
     7
100
AcDbLine
 10
59.547422
 20
63.756667
 30
0.0
 11
59.589089
 21
63.756667
 31
0.0
  0
LINE
  5
9B
102
{ACAD_REACTORS
330
8C
102
}
100
AcDbEntity
  8
BUILDING_ENVELOPE
  6
CONTINUOUS
 62
     7
100
AcDbLine
 10
50.679998
 20
63.881667
 30
0.0
 11
50.721665
 21
63.881667
 31
0.0
  0
LINE
  5
9C
102
{ACAD_REACTORS
330
8C
102
}
100
AcDbEntity
  8
BUILDING_ENVELOPE
  6
CONTINUOUS
 62
     7
100
AcDbLine
 10
50.721665
 20
63.881667
 30
0.0
 11
50.721665
 21
63.756667
 31
0.0
  0
LINE
  5
9D
102
{ACAD_REACTORS
330
8C
102
}
100
AcDbEntity
  8
BUILDING_ENVELOPE
  6
CONTINUOUS
 62
     7
100
AcDbLine
 10
50.721665
 20
63.756667
 30
0.0
 11
50.679998
 21
63.756667
 31
0.0
  0
LINE
  5
9E
102
{ACAD_REACTORS
330
8C
102
}
100
AcDbEntity
  8
BUILDING_ENVELOPE
  6
CONTINUOUS
 62
     7
100
AcDbLine
 10
59.755756
 20
63.673333
 30
0.0
 11
59.755756
 21
64.006667
 31
0.0
  0
LINE
  5
9F
102
{ACAD_REACTORS
330
8C
102
}
100
AcDbEntity
  8
BUILDING_ENVELOPE
  6
CONTINUOUS
 62
     7
100
AcDbLine
 10
50.513331
 20
63.673333
 30
0.0
 11
50.513331
 21
64.006667
 31
0.0
  0
ARC
  5
A0
102
{ACAD_REACTORS
330
8C
102
}
100
AcDbEntity
  8
BUILDING_ENVELOPE
  6
CONTINUOUS
 62
     7
100
AcDbCircle
 10
59.589089
 20
64.006667
 30
0.0
 40
8.909091
100
AcDbArc
 50
90.0
 51
180.0
  0
LWPOLYLINE
  5
A1
102
{ACAD_REACTORS
330
8C
102
}
100
AcDbEntity
  8
BUILDING_ENVELOPE
  6
CONTINUOUS
 62
     7
100
AcDbPolyline
 90
        4
 70
     1
 10
59.464089
 20
72.915758
 10
59.464089
 20
64.006667
 10
59.589089
 20
64.006667
 10
59.589089
 20
72.915758
  0
LWPOLYLINE
  5
A3
102
{ACAD_REACTORS
330
A4
102
}
100
AcDbEntity
  8
BUILDING_ENVELOPE
  6
CONTINUOUS
 62
     7
100
AcDbPolyline
 90
        4
 70
     1
 10
49.589089
 20
36.34
 10
79.195149
 20
36.34
 10
78.861816
 20
36.006667
 10
49.589089
 20
36.006667
  0
HATCH
  5
A4
102
{ACAD_REACTORS
330
A2
102
}
100
AcDbEntity
  8
BUILDING_ENVELOPE
 62
   253
100
AcDbHatch
 10
0.0
 20
0.0
 30
0.0
210
0.0
220
0.0
230
1.0
  2
SOLID
 70
     1
 71
     1
 91
        1
 92
        3
 72
     0
 73
     1
 93
        4
 10
49.589088888888831
 20
36.339999999999854
 10
79.195149494949476
 20
36.339999999999854
 10
78.861816161616147
 20
36.006666666666518
 10
49.589088888888831
 20
36.006666666666518
 97
       50
330
66
330
67
330
68
330
69
330
6A
330
6B
330
6C
330
6D
330
6E
330
6F
330
70
330
71
330
72
330
73
330
74
330
75
330
76
330
7A
330
7C
330
7D
330
7E
330
7F
330
80
330
81
330
82
330
83
330
84
330
85
330
86
330
87
330
88
330
8D
330
8E
330
8F
330
90
330
91
330
92
330
93
330
94
330
95
330
96
330
97
330
98
330
99
330
9A
330
9B
330
9C
330
9D
330
A1
330
A3
 75
     0
 76
     1
 98
        0
  0
LWPOLYLINE
  5
A5
102
{ACAD_REACTORS
330
A6
102
}
100
AcDbEntity
  8
BUILDING_ENVELOPE
  6
CONTINUOUS
 62
     7
100
AcDbPolyline
 90
        4
 70
     1
 10
49.589089
 20
36.006667
 10
49.589089
 20
36.34
 10
49.555756
 20
36.34
 10
49.555756
 20
36.006667
  0
HATCH
  5
A6
102
{ACAD_REACTORS
330
A2
102
}
100
AcDbEntity
  8
BUILDING_ENVELOPE
 62
   253
100
AcDbHatch
 10
0.0
 20
0.0
 30
0.0
210
0.0
220
0.0
230
1.0
  2
SOLID
 70
     1
 71
     1
 91
        1
 92
        3
 72
     0
 73
     1
 93
        4
 10
49.589088888888831
 20
36.006666666666518
 10
49.589088888888831
 20
36.339999999999854
 10
49.5557555555555
 20
36.339999999999854
 10
49.5557555555555
 20
36.006666666666518
 97
        1
330
A5
 75
     0
 76
     1
 98
        0
  0
LINE
  5
A7
102
{ACAD_REACTORS
330
A2
102
}
100
AcDbEntity
  8
BUILDING_ENVELOPE
  6
CONTINUOUS
 62
     7
100
AcDbLine
 10
49.589089
 20
36.34
 30
0.0
 11
79.195149
 21
36.34
 31
0.0
  0
LINE
  5
A8
102
{ACAD_REACTORS
330
A2
102
}
100
AcDbEntity
  8
BUILDING_ENVELOPE
  6
CONTINUOUS
 62
     7
100
AcDbLine
 10
49.589089
 20
36.006667
 30
0.0
 11
78.861816
 21
36.006667
 31
0.0
  0
LWPOLYLINE
  5
AA
102
{ACAD_REACTORS
330
AB
102
}
100
AcDbEntity
  8
BUILDING_ENVELOPE
  6
CONTINUOUS
 62
     7
100
AcDbPolyline
 90
        4
 70
     1
 10
105.170229
 20
36.465
 10
139.836896
 20
36.465
 10
139.503563
 20
36.131667
 10
105.503563
 20
36.131667
  0
HATCH
  5
AB
102
{ACAD_REACTORS
330
A9
102
}
100
AcDbEntity
  8
BUILDING_ENVELOPE
 62
   253
100
AcDbHatch
 10
0.0
 20
0.0
 30
0.0
210
0.0
220
0.0
230
1.0
  2
SOLID
 70
     1
 71
     1
 91
        1
 92
        3
 72
     0
 73
     1
 93
        4
 10
105.170229239766
 20
36.465000000000003
 10
139.83689590643269
 20
36.465000000000003
 10
139.50356257309937
 20
36.131666666666668
 10
105.50356257309933
 20
36.131666666666668
 97
        1
330
AA
 75
     0
 76
     1
 98
        0
  0
LINE
  5
AC
102
{ACAD_REACTORS
330
A9
102
}
100
AcDbEntity
  8
BUILDING_ENVELOPE
  6
CONTINUOUS
 62
     7
100
AcDbLine
 10
105.170229
 20
36.465
 30
0.0
 11
139.836896
 21
36.465
 31
0.0
  0
LINE
  5
AD
102
{ACAD_REACTORS
330
A9
102
}
100
AcDbEntity
  8
BUILDING_ENVELOPE
  6
CONTINUOUS
 62
     7
100
AcDbLine
 10
105.503563
 20
36.131667
 30
0.0
 11
139.503563
 21
36.131667
 31
0.0
  0
LWPOLYLINE
  5
AE
102
{ACAD_REACTORS
330
AF
102
}
100
AcDbEntity
  8
BUILDING_ENVELOPE
  6
CONTINUOUS
 62
     7
100
AcDbPolyline
 90
        4
 70
     1
 10
139.836896
 20
36.465
 10
139.836896
 20
20.506667
 10
139.503563
 20
20.84
 10
139.503563
 20
36.131667
  0
HATCH
  5
AF
102
{ACAD_REACTORS
330
A9
102
}
100
AcDbEntity
  8
BUILDING_ENVELOPE
 62
   253
100
AcDbHatch
 10
0.0
 20
0.0
 30
0.0
210
0.0
220
0.0
230
1.0
  2
SOLID
 70
     1
 71
     1
 91
        1
 92
        3
 72
     0
 73
     1
 93
        4
 10
139.83689590643266
 20
36.464999999999996
 10
139.83689590643266
 20
20.506666666666831
 10
139.50356257309932
 20
20.840000000000163
 10
139.50356257309932
 20
36.131666666666661
 97
        1
330
AE
 75
     0
 76
     1
 98
        0
  0
LINE
  5
B0
102
{ACAD_REACTORS
330
A9
102
}
100
AcDbEntity
  8
BUILDING_ENVELOPE
  6
CONTINUOUS
 62
     7
100
AcDbLine
 10
139.836896
 20
36.465
 30
0.0
 11
139.836896
 21
20.506667
 31
0.0
  0
LINE
  5
B1
102
{ACAD_REACTORS
330
A9
102
}
100
AcDbEntity
  8
BUILDING_ENVELOPE
  6
CONTINUOUS
 62
     7
100
AcDbLine
 10
139.503563
 20
36.131667
 30
0.0
 11
139.503563
 21
20.84
 31
0.0
  0
LWPOLYLINE
  5
B2
102
{ACAD_REACTORS
330
B3
102
}
100
AcDbEntity
  8
BUILDING_ENVELOPE
  6
CONTINUOUS
 62
     7
100
AcDbPolyline
 90
        4
 70
     1
 10
139.836896
 20
20.506667
 10
105.170229
 20
20.506667
 10
105.503563
 20
20.84
 10
139.503563
 20
20.84
  0
HATCH
  5
B3
102
{ACAD_REACTORS
330
A9
102
}
100
AcDbEntity
  8
BUILDING_ENVELOPE
 62
   253
100
AcDbHatch
 10
0.0
 20
0.0
 30
0.0
210
0.0
220
0.0
230
1.0
  2
SOLID
 70
     1
 71
     1
 91
        1
 92
        3
 72
     0
 73
     1
 93
        4
 10
139.83689590643272
 20
20.506666666666881
 10
105.17022923976594
 20
20.506666666666881
 10
105.50356257309927
 20
20.840000000000217
 10
139.50356257309937
 20
20.840000000000217
 97
        1
330
B2
 75
     0
 76
     1
 98
        0
  0
LINE
  5
B4
102
{ACAD_REACTORS
330
A9
102
}
100
AcDbEntity
  8
BUILDING_ENVELOPE
  6
CONTINUOUS
 62
     7
100
AcDbLine
 10
139.836896
 20
20.506667
 30
0.0
 11
105.170229
 21
20.506667
 31
0.0
  0
LINE
  5
B5
102
{ACAD_REACTORS
330
A9
102
}
100
AcDbEntity
  8
BUILDING_ENVELOPE
  6
CONTINUOUS
 62
     7
100
AcDbLine
 10
139.503563
 20
20.84
 30
0.0
 11
105.503563
 21
20.84
 31
0.0
  0
LWPOLYLINE
  5
B6
102
{ACAD_REACTORS
330
B7
102
}
100
AcDbEntity
  8
BUILDING_ENVELOPE
  6
CONTINUOUS
 62
     7
100
AcDbPolyline
 90
        4
 70
     1
 10
105.170229
 20
20.506667
 10
105.170229
 20
36.465
 10
105.503563
 20
36.131667
 10
105.503563
 20
20.84
  0
HATCH
  5
B7
102
{ACAD_REACTORS
330
A9
102
}
100
AcDbEntity
  8
BUILDING_ENVELOPE
 62
   253
100
AcDbHatch
 10
0.0
 20
0.0
 30
0.0
210
0.0
220
0.0
230
1.0
  2
SOLID
 70
     1
 71
     1
 91
        1
 92
        3
 72
     0
 73
     1
 93
        4
 10
105.17022923976597
 20
20.50666666666698
 10
105.17022923976597
 20
36.464999999999989
 10
105.50356257309932
 20
36.131666666666661
 10
105.50356257309932
 20
20.840000000000312
 97
        1
330
B6
 75
     0
 76
     1
 98
        0
  0
LINE
  5
B8
102
{ACAD_REACTORS
330
A9
102
}
100
AcDbEntity
  8
BUILDING_ENVELOPE
  6
CONTINUOUS
 62
     7
100
AcDbLine
 10
105.170229
 20
20.506667
 30
0.0
 11
105.170229
 21
36.465
 31
0.0
  0
LINE
  5
B9
102
{ACAD_REACTORS
330
A9
102
}
100
AcDbEntity
  8
BUILDING_ENVELOPE
  6
CONTINUOUS
 62
     7
100
AcDbLine
 10
105.503563
 20
20.84
 30
0.0
 11
105.503563
 21
36.131667
 31
0.0
  0
LWPOLYLINE
  5
BB
102
{ACAD_REACTORS
330
BA
102
}
100
AcDbEntity
  8
BUILDING_ENVELOPE
  6
CONTINUOUS
 62
     7
100
AcDbPolyline
 90
        4
 70
     1
 10
34.339089
 20
19.998667
 10
40.339089
 20
19.998667
 10
40.339089
 20
20.348
 10
34.339089
 20
20.348
  0
LINE
  5
BC
102
{ACAD_REACTORS
330
BA
102
}
100
AcDbEntity
  8
BUILDING_ENVELOPE
  6
CONTINUOUS
 62
     7
100
AcDbLine
 10
34.339089
 20
20.006667
 30
0.0
 11
34.339089
 21
20.34
 31
0.0
  0
LINE
  5
BD
102
{ACAD_REACTORS
330
BA
102
}
100
AcDbEntity
  8
BUILDING_ENVELOPE
  6
CONTINUOUS
 62
     7
100
AcDbLine
 10
34.339089
 20
20.34
 30
0.0
 11
34.505756
 21
20.34
 31
0.0
  0
LINE
  5
BE
102
{ACAD_REACTORS
330
BA
102
}
100
AcDbEntity
  8
BUILDING_ENVELOPE
  6
CONTINUOUS
 62
     7
100
AcDbLine
 10
34.505756
 20
20.34
 30
0.0
 11
34.505756
 21
20.256667
 31
0.0
  0
LINE
  5
BF
102
{ACAD_REACTORS
330
BA
102
}
100
AcDbEntity
  8
BUILDING_ENVELOPE
  6
CONTINUOUS
 62
     7
100
AcDbLine
 10
34.505756
 20
20.09
 30
0.0
 11
34.505756
 21
20.006667
 31
0.0
  0
LINE
  5
C0
102
{ACAD_REACTORS
330
BA
102
}
100
AcDbEntity
  8
BUILDING_ENVELOPE
  6
CONTINUOUS
 62
     7
100
AcDbLine
 10
34.505756
 20
20.006667
 30
0.0
 11
34.339089
 21
20.006667
 31
0.0
  0
LINE
  5
C1
102
{ACAD_REACTORS
330
BA
102
}
100
AcDbEntity
  8
BUILDING_ENVELOPE
  6
CONTINUOUS
 62
     7
100
AcDbLine
 10
40.339089
 20
20.006667
 30
0.0
 11
40.339089
 21
20.34
 31
0.0
  0
LINE
  5
C2
102
{ACAD_REACTORS
330
BA
102
}
100
AcDbEntity
  8
BUILDING_ENVELOPE
  6
CONTINUOUS
 62
     7
100
AcDbLine
 10
40.339089
 20
20.34
 30
0.0
 11
40.172422
 21
20.34
 31
0.0
  0
LINE
  5
C3
102
{ACAD_REACTORS
330
BA
102
}
100
AcDbEntity
  8
BUILDING_ENVELOPE
  6
CONTINUOUS
 62
     7
100
AcDbLine
 10
40.172422
 20
20.34
 30
0.0
 11
40.172422
 21
20.256667
 31
0.0
  0
LINE
  5
C4
102
{ACAD_REACTORS
330
BA
102
}
100
AcDbEntity
  8
BUILDING_ENVELOPE
  6
CONTINUOUS
 62
     7
100
AcDbLine
 10
40.172422
 20
20.09
 30
0.0
 11
40.172422
 21
20.006667
 31
0.0
  0
LINE
  5
C5
102
{ACAD_REACTORS
330
BA
102
}
100
AcDbEntity
  8
BUILDING_ENVELOPE
  6
CONTINUOUS
 62
     7
100
AcDbLine
 10
40.172422
 20
20.006667
 30
0.0
 11
40.339089
 21
20.006667
 31
0.0
  0
LWPOLYLINE
  5
C6
102
{ACAD_REACTORS
330
BA
102
}
100
AcDbEntity
  8
BUILDING_ENVELOPE
  6
CONTINUOUS
 62
     7
100
AcDbPolyline
 90
        4
 70
     1
 10
34.505756
 20
20.256667
 10
34.672422
 20
20.256667
 10
34.672422
 20
20.09
 10
34.505756
 20
20.09
  0
LWPOLYLINE
  5
C7
102
{ACAD_REACTORS
330
BA
102
}
100
AcDbEntity
  8
BUILDING_ENVELOPE
  6
CONTINUOUS
 62
     7
100
AcDbPolyline
 90
        4
 70
     1
 10
40.172422
 20
20.256667
 10
40.005756
 20
20.256667
 10
40.005756
 20
20.09
 10
40.172422
 20
20.09
  0
LINE
  5
C8
102
{ACAD_REACTORS
330
BA
102
}
100
AcDbEntity
  8
BUILDING_ENVELOPE
  6
CONTINUOUS
 62
     7
100
AcDbLine
 10
34.672422
 20
20.173333
 30
0.0
 11
40.005756
 21
20.173333
 31
0.0
  0
LINE
  5
C9
102
{ACAD_REACTORS
330
BA
102
}
100
AcDbEntity
  8
BUILDING_ENVELOPE
  6
CONTINUOUS
 62
     7
100
AcDbLine
 10
34.339089
 20
20.006667
 30
0.0
 11
34.339089
 21
20.34
 31
0.0
  0
LINE
  5
CA
102
{ACAD_REACTORS
330
BA
102
}
100
AcDbEntity
  8
BUILDING_ENVELOPE
  6
CONTINUOUS
 62
     7
100
AcDbLine
 10
40.339089
 20
20.006667
 30
0.0
 11
40.339089
 21
20.34
 31
0.0
  0
LWPOLYLINE
  5
CC
102
{ACAD_REACTORS
330
CD
102
}
100
AcDbEntity
  8
BUILDING_ENVELOPE
  6
CONTINUOUS
 62
     7
100
AcDbPolyline
 90
        4
 70
     1
 10
127.255756
 20
48.798333
 10
139.172422
 20
48.798333
 10
138.839089
 20
48.465
 10
127.589089
 20
48.465
  0
HATCH
  5
CD
102
{ACAD_REACTORS
330
CB
102
}
100
AcDbEntity
  8
BUILDING_ENVELOPE
 62
   253
100
AcDbHatch
 10
0.0
 20
0.0
 30
0.0
210
0.0
220
0.0
230
1.0
  2
SOLID
 70
     1
 71
     1
 91
        1
 92
        3
 72
     0
 73
     1
 93
        4
 10
127.25575555555557
 20
48.798333333333325
 10
139.17242222222208
 20
48.798333333333325
 10
138.83908888888874
 20
48.464999999999989
 10
127.58908888888891
 20
48.464999999999989
 97
       14
330
BB
330
BC
330
BD
330
BE
330
BF
330
C0
330
C1
330
C2
330
C3
330
C4
330
C5
330
C6
330
C7
330
CC
 75
     0
 76
     1
 98
        0
  0
LINE
  5
CE
102
{ACAD_REACTORS
330
CB
102
}
100
AcDbEntity
  8
BUILDING_ENVELOPE
  6
CONTINUOUS
 62
     7
100
AcDbLine
 10
127.255756
 20
48.798333
 30
0.0
 11
139.172422
 21
48.798333
 31
0.0
  0
LINE
  5
CF
102
{ACAD_REACTORS
330
CB
102
}
100
AcDbEntity
  8
BUILDING_ENVELOPE
  6
CONTINUOUS
 62
     7
100
AcDbLine
 10
127.589089
 20
48.465
 30
0.0
 11
138.839089
 21
48.465
 31
0.0
  0
LWPOLYLINE
  5
D0
102
{ACAD_REACTORS
330
D1
102
}
100
AcDbEntity
  8
BUILDING_ENVELOPE
  6
CONTINUOUS
 62
     7
100
AcDbPolyline
 90
        4
 70
     1
 10
139.172422
 20
48.798333
 10
139.172422
 20
36.131667
 10
138.839089
 20
36.465
 10
138.839089
 20
48.465
  0
HATCH
  5
D1
102
{ACAD_REACTORS
330
CB
102
}
100
AcDbEntity
  8
BUILDING_ENVELOPE
 62
   253
100
AcDbHatch
 10
0.0
 20
0.0
 30
0.0
210
0.0
220
0.0
230
1.0
  2
SOLID
 70
     1
 71
     1
 91
        1
 92
        3
 72
     0
 73
     1
 93
        4
 10
139.17242222222205
 20
48.798333333333325
 10
139.17242222222205
 20
36.131666666666661
 10
138.83908888888874
 20
36.464999999999989
 10
138.83908888888874
 20
48.464999999999989
 97
        1
330
D0
 75
     0
 76
     1
 98
        0
  0
LINE
  5
D2
102
{ACAD_REACTORS
330
CB
102
}
100
AcDbEntity
  8
BUILDING_ENVELOPE
  6
CONTINUOUS
 62
     7
100
AcDbLine
 10
139.172422
 20
48.798333
 30
0.0
 11
139.172422
 21
36.131667
 31
0.0
  0
LINE
  5
D3
102
{ACAD_REACTORS
330
CB
102
}
100
AcDbEntity
  8
BUILDING_ENVELOPE
  6
CONTINUOUS
 62
     7
100
AcDbLine
 10
138.839089
 20
48.465
 30
0.0
 11
138.839089
 21
36.465
 31
0.0
  0
LWPOLYLINE
  5
D4
102
{ACAD_REACTORS
330
D5
102
}
100
AcDbEntity
  8
BUILDING_ENVELOPE
  6
CONTINUOUS
 62
     7
100
AcDbPolyline
 90
        4
 70
     1
 10
139.172422
 20
36.131667
 10
127.255756
 20
36.131667
 10
127.589089
 20
36.465
 10
138.839089
 20
36.465
  0
HATCH
  5
D5
102
{ACAD_REACTORS
330
CB
102
}
100
AcDbEntity
  8
BUILDING_ENVELOPE
 62
   253
100
AcDbHatch
 10
0.0
 20
0.0
 30
0.0
210
0.0
220
0.0
230
1.0
  2
SOLID
 70
     1
 71
     1
 91
        1
 92
        3
 72
     0
 73
     1
 93
        4
 10
139.17242222222205
 20
36.131666666666803
 10
127.25575555555554
 20
36.131666666666803
 10
127.58908888888887
 20
36.465000000000138
 10
138.83908888888874
 20
36.465000000000138
 97
        1
330
D4
 75
     0
 76
     1
 98
        0
  0
LINE
  5
D6
102
{ACAD_REACTORS
330
CB
102
}
100
AcDbEntity
  8
BUILDING_ENVELOPE
  6
CONTINUOUS
 62
     7
100
AcDbLine
 10
139.172422
 20
36.131667
 30
0.0
 11
127.255756
 21
36.131667
 31
0.0
  0
LINE
  5
D7
102
{ACAD_REACTORS
330
CB
102
}
100
AcDbEntity
  8
BUILDING_ENVELOPE
  6
CONTINUOUS
 62
     7
100
AcDbLine
 10
138.839089
 20
36.465
 30
0.0
 11
127.589089
 21
36.465
 31
0.0
  0
LWPOLYLINE
  5
D8
102
{ACAD_REACTORS
330
D9
102
}
100
AcDbEntity
  8
BUILDING_ENVELOPE
  6
CONTINUOUS
 62
     7
100
AcDbPolyline
 90
        4
 70
     1
 10
127.255756
 20
36.131667
 10
127.255756
 20
48.798333
 10
127.589089
 20
48.465
 10
127.589089
 20
36.465
  0
HATCH
  5
D9
102
{ACAD_REACTORS
330
CB
102
}
100
AcDbEntity
  8
BUILDING_ENVELOPE
 62
   253
100
AcDbHatch
 10
0.0
 20
0.0
 30
0.0
210
0.0
220
0.0
230
1.0
  2
SOLID
 70
     1
 71
     1
 91
        1
 92
        3
 72
     0
 73
     1
 93
        4
 10
127.25575555555554
 20
36.131666666666774
 10
127.25575555555554
 20
48.798333333333325
 10
127.58908888888887
 20
48.464999999999989
 10
127.58908888888887
 20
36.46500000000011
 97
        1
330
D8
 75
     0
 76
     1
 98
        0
  0
LINE
  5
DA
102
{ACAD_REACTORS
330
CB
102
}
100
AcDbEntity
  8
BUILDING_ENVELOPE
  6
CONTINUOUS
 62
     7
100
AcDbLine
 10
127.255756
 20
36.131667
 30
0.0
 11
127.255756
 21
48.798333
 31
0.0
  0
LINE
  5
DB
102
{ACAD_REACTORS
330
CB
102
}
100
AcDbEntity
  8
BUILDING_ENVELOPE
  6
CONTINUOUS
 62
     7
100
AcDbLine
 10
127.589089
 20
36.465
 30
0.0
 11
127.589089
 21
48.465
 31
0.0
  0
LWPOLYLINE
  5
DD
102
{ACAD_REACTORS
330
DE
102
}
100
AcDbEntity
  8
BUILDING_ENVELOPE
  6
CONTINUOUS
 62
     7
100
AcDbPolyline
 90
        5
 70
     1
 10
49.589089
 20
20.34
 10
91.589089
 20
20.34
 10
91.589089
 20
20.173333
 10
91.589089
 20
20.006667
 10
49.589089
 20
20.006667
  0
HATCH
  5
DE
102
{ACAD_REACTORS
330
DC
102
}
100
AcDbEntity
  8
BUILDING_ENVELOPE
 62
   253
100
AcDbHatch
 10
0.0
 20
0.0
 30
0.0
210
0.0
220
0.0
230
1.0
  2
SOLID
 70
     1
 71
     1
 91
        1
 92
        3
 72
     0
 73
     1
 93
        5
 10
49.589088888888881
 20
20.34
 10
91.589088888888867
 20
20.34
 10
91.589088888888867
 20
20.173333333333332
 10
91.589088888888867
 20
20.006666666666668
 10
49.589088888888881
 20
20.006666666666668
 97
        1
330
DD
 75
     0
 76
     1
 98
        0
  0
LWPOLYLINE
  5
DF
102
{ACAD_REACTORS
330
E0
102
}
100
AcDbEntity
  8
BUILDING_ENVELOPE
  6
CONTINUOUS
 62
     7
100
AcDbPolyline
 90
        4
 70
     1
 10
49.589089
 20
20.006667
 10
49.589089
 20
20.34
 10
49.555756
 20
20.34
 10
49.555756
 20
20.006667
  0
HATCH
  5
E0
102
{ACAD_REACTORS
330
DC
102
}
100
AcDbEntity
  8
BUILDING_ENVELOPE
 62
   253
100
AcDbHatch
 10
0.0
 20
0.0
 30
0.0
210
0.0
220
0.0
230
1.0
  2
SOLID
 70
     1
 71
     1
 91
        1
 92
        3
 72
     0
 73
     1
 93
        4
 10
49.589088888888881
 20
20.006666666666668
 10
49.589088888888881
 20
20.34
 10
49.55575555555555
 20
20.34
 10
49.55575555555555
 20
20.006666666666668
 97
        1
330
DF
 75
     0
 76
     1
 98
        0
  0
LWPOLYLINE
  5
E1
102
{ACAD_REACTORS
330
DC
102
}
100
AcDbEntity
  8
BUILDING_ENVELOPE
  6
CONTINUOUS
 62
     7
100
AcDbPolyline
 90
        3
 70
     0
 10
49.589089
 20
20.34
 10
91.589089
 20
20.34
 10
91.589089
 20
20.173333
  0
LWPOLYLINE
  5
E2
102
{ACAD_REACTORS
330
DC
102
}
100
AcDbEntity
  8
BUILDING_ENVELOPE
  6
CONTINUOUS
 62
     7
100
AcDbPolyline
 90
        3
 70
     0
 10
49.589089
 20
20.006667
 10
91.589089
 20
20.006667
 10
91.589089
 20
20.173333
  0
LWPOLYLINE
  5
E4
102
{ACAD_REACTORS
330
E3
102
}
100
AcDbEntity
  8
BUILDING_ENVELOPE
  6
CONTINUOUS
 62
     7
100
AcDbPolyline
 90
        4
 70
     1
 10
55.589089
 20
19.998667
 10
66.839089
 20
19.998667
 10
66.839089
 20
20.348
 10
55.589089
 20
20.348
  0
LINE
  5
E5
102
{ACAD_REACTORS
330
E3
102
}
100
AcDbEntity
  8
BUILDING_ENVELOPE
  6
CONTINUOUS
 62
     7
100
AcDbLine
 10
55.589089
 20
20.006667
 30
0.0
 11
55.589089
 21
20.34
 31
0.0
  0
LINE
  5
E6
102
{ACAD_REACTORS
330
E3
102
}
100
AcDbEntity
  8
BUILDING_ENVELOPE
  6
CONTINUOUS
 62
     7
100
AcDbLine
 10
55.589089
 20
20.34
 30
0.0
 11
55.755756
 21
20.34
 31
0.0
  0
LINE
  5
E7
102
{ACAD_REACTORS
330
E3
102
}
100
AcDbEntity
  8
BUILDING_ENVELOPE
  6
CONTINUOUS
 62
     7
100
AcDbLine
 10
55.755756
 20
20.34
 30
0.0
 11
55.755756
 21
20.256667
 31
0.0
  0
LINE
  5
E8
102
{ACAD_REACTORS
330
E3
102
}
100
AcDbEntity
  8
BUILDING_ENVELOPE
  6
CONTINUOUS
 62
     7
100
AcDbLine
 10
55.755756
 20
20.09
 30
0.0
 11
55.755756
 21
20.006667
 31
0.0
  0
LINE
  5
E9
102
{ACAD_REACTORS
330
E3
102
}
100
AcDbEntity
  8
BUILDING_ENVELOPE
  6
CONTINUOUS
 62
     7
100
AcDbLine
 10
55.755756
 20
20.006667
 30
0.0
 11
55.589089
 21
20.006667
 31
0.0
  0
LINE
  5
EA
102
{ACAD_REACTORS
330
E3
102
}
100
AcDbEntity
  8
BUILDING_ENVELOPE
  6
CONTINUOUS
 62
     7
100
AcDbLine
 10
66.839089
 20
20.006667
 30
0.0
 11
66.839089
 21
20.34
 31
0.0
  0
LINE
  5
EB
102
{ACAD_REACTORS
330
E3
102
}
100
AcDbEntity
  8
BUILDING_ENVELOPE
  6
CONTINUOUS
 62
     7
100
AcDbLine
 10
66.839089
 20
20.34
 30
0.0
 11
66.672422
 21
20.34
 31
0.0
  0
LINE
  5
EC
102
{ACAD_REACTORS
330
E3
102
}
100
AcDbEntity
  8
BUILDING_ENVELOPE
  6
CONTINUOUS
 62
     7
100
AcDbLine
 10
66.672422
 20
20.34
 30
0.0
 11
66.672422
 21
20.256667
 31
0.0
  0
LINE
  5
ED
102
{ACAD_REACTORS
330
E3
102
}
100
AcDbEntity
  8
BUILDING_ENVELOPE
  6
CONTINUOUS
 62
     7
100
AcDbLine
 10
66.672422
 20
20.09
 30
0.0
 11
66.672422
 21
20.006667
 31
0.0
  0
LINE
  5
EE
102
{ACAD_REACTORS
330
E3
102
}
100
AcDbEntity
  8
BUILDING_ENVELOPE
  6
CONTINUOUS
 62
     7
100
AcDbLine
 10
66.672422
 20
20.006667
 30
0.0
 11
66.839089
 21
20.006667
 31
0.0
  0
LWPOLYLINE
  5
EF
102
{ACAD_REACTORS
330
E3
102
}
100
AcDbEntity
  8
BUILDING_ENVELOPE
  6
CONTINUOUS
 62
     7
100
AcDbPolyline
 90
        4
 70
     1
 10
55.755756
 20
20.256667
 10
55.922422
 20
20.256667
 10
55.922422
 20
20.09
 10
55.755756
 20
20.09
  0
LWPOLYLINE
  5
F0
102
{ACAD_REACTORS
330
E3
102
}
100
AcDbEntity
  8
BUILDING_ENVELOPE
  6
CONTINUOUS
 62
     7
100
AcDbPolyline
 90
        4
 70
     1
 10
66.672422
 20
20.256667
 10
66.505756
 20
20.256667
 10
66.505756
 20
20.09
 10
66.672422
 20
20.09
  0
LINE
  5
F1
102
{ACAD_REACTORS
330
E3
102
}
100
AcDbEntity
  8
BUILDING_ENVELOPE
  6
CONTINUOUS
 62
     7
100
AcDbLine
 10
55.922422
 20
20.173333
 30
0.0
 11
66.505756
 21
20.173333
 31
0.0
  0
LINE
  5
F2
102
{ACAD_REACTORS
330
E3
102
}
100
AcDbEntity
  8
BUILDING_ENVELOPE
  6
CONTINUOUS
 62
     7
100
AcDbLine
 10
55.589089
 20
20.006667
 30
0.0
 11
55.589089
 21
20.34
 31
0.0
  0
LINE
  5
F3
102
{ACAD_REACTORS
330
E3
102
}
100
AcDbEntity
  8
BUILDING_ENVELOPE
  6
CONTINUOUS
 62
     7
100
AcDbLine
 10
66.839089
 20
20.006667
 30
0.0
 11
66.839089
 21
20.34
 31
0.0
  0
LWPOLYLINE
  5
F5
102
{ACAD_REACTORS
330
F6
102
}
100
AcDbEntity
  8
BUILDING_ENVELOPE
  6
CONTINUOUS
 62
     7
100
AcDbPolyline
 90
        4
 70
     1
 10
79.195149
 20
36.34
 10
79.195149
 20
20.34
 10
78.861816
 20
20.34
 10
78.861816
 20
36.006667
  0
HATCH
  5
F6
102
{ACAD_REACTORS
330
F4
102
}
100
AcDbEntity
  8
BUILDING_ENVELOPE
 62
   253
100
AcDbHatch
 10
0.0
 20
0.0
 30
0.0
210
0.0
220
0.0
230
1.0
  2
SOLID
 70
     1
 71
     1
 91
        1
 92
        3
 72
     0
 73
     1
 93
        4
 10
79.19514949494949
 20
36.339999999999854
 10
79.19514949494949
 20
20.340000000000032
 10
78.861816161616161
 20
20.340000000000032
 10
78.861816161616161
 20
36.006666666666518
 97
       14
330
E4
330
E5
330
E6
330
E7
330
E8
330
E9
330
EA
330
EB
330
EC
330
ED
330
EE
330
EF
330
F0
330
F5
 75
     0
 76
     1
 98
        0
  0
LWPOLYLINE
  5
F7
102
{ACAD_REACTORS
330
F8
102
}
100
AcDbEntity
  8
BUILDING_ENVELOPE
  6
CONTINUOUS
 62
     7
100
AcDbPolyline
 90
        4
 70
     1
 10
79.195149
 20
20.34
 10
78.861816
 20
20.34
 10
78.861816
 20
20.306667
 10
79.195149
 20
20.306667
  0
HATCH
  5
F8
102
{ACAD_REACTORS
330
F4
102
}
100
AcDbEntity
  8
BUILDING_ENVELOPE
 62
   253
100
AcDbHatch
 10
0.0
 20
0.0
 30
0.0
210
0.0
220
0.0
230
1.0
  2
SOLID
 70
     1
 71
     1
 91
        1
 92
        3
 72
     0
 73
     1
 93
        4
 10
79.19514949494949
 20
20.340000000000032
 10
78.861816161616161
 20
20.340000000000032
 10
78.861816161616161
 20
20.306666666666697
 10
79.19514949494949
 20
20.306666666666697
 97
        1
330
F7
 75
     0
 76
     1
 98
        0
  0
LINE
  5
F9
102
{ACAD_REACTORS
330
F4
102
}
100
AcDbEntity
  8
BUILDING_ENVELOPE
  6
CONTINUOUS
 62
     7
100
AcDbLine
 10
79.195149
 20
36.34
 30
0.0
 11
79.195149
 21
20.34
 31
0.0
  0
LINE
  5
FA
102
{ACAD_REACTORS
330
F4
102
}
100
AcDbEntity
  8
BUILDING_ENVELOPE
  6
CONTINUOUS
 62
     7
100
AcDbLine
 10
78.861816
 20
36.006667
 30
0.0
 11
78.861816
 21
20.34
 31
0.0
  0
LWPOLYLINE
  5
FC
102
{ACAD_REACTORS
330
FB
102
}
100
AcDbEntity
  8
BUILDING_ENVELOPE
  6
CONTINUOUS
 62
     7
100
AcDbPolyline
 90
        4
 70
     1
 10
69.422422
 20
36.348
 10
75.755756
 20
36.348
 10
75.755756
 20
35.998667
 10
69.422422
 20
35.998667
  0
LINE
  5
FD
102
{ACAD_REACTORS
330
FB
102
}
100
AcDbEntity
  8
BUILDING_ENVELOPE
  6
CONTINUOUS
 62
     7
100
AcDbLine
 10
75.755756
 20
36.34
 30
0.0
 11
75.755756
 21
36.006667
 31
0.0
  0
LINE
  5
FE
102
{ACAD_REACTORS
330
FB
102
}
100
AcDbEntity
  8
BUILDING_ENVELOPE
  6
CONTINUOUS
 62
     7
100
AcDbLine
 10
75.755756
 20
36.006667
 30
0.0
 11
75.589089
 21
36.006667
 31
0.0
  0
LINE
  5
FF
102
{ACAD_REACTORS
330
FB
102
}
100
AcDbEntity
  8
BUILDING_ENVELOPE
  6
CONTINUOUS
 62
     7
100
AcDbLine
 10
75.589089
 20
36.006667
 30
0.0
 11
75.589089
 21
36.131667
 31
0.0
  0
LINE
  5
100
102
{ACAD_REACTORS
330
FB
102
}
100
AcDbEntity
  8
BUILDING_ENVELOPE
  6
CONTINUOUS
 62
     7
100
AcDbLine
 10
75.589089
 20
36.256667
 30
0.0
 11
75.589089
 21
36.34
 31
0.0
  0
LINE
  5
101
102
{ACAD_REACTORS
330
FB
102
}
100
AcDbEntity
  8
BUILDING_ENVELOPE
  6
CONTINUOUS
 62
     7
100
AcDbLine
 10
75.589089
 20
36.34
 30
0.0
 11
75.755756
 21
36.34
 31
0.0
  0
LINE
  5
102
102
{ACAD_REACTORS
330
FB
102
}
100
AcDbEntity
  8
BUILDING_ENVELOPE
  6
CONTINUOUS
 62
     7
100
AcDbLine
 10
69.422422
 20
36.34
 30
0.0
 11
69.422422
 21
36.006667
 31
0.0
  0
LINE
  5
103
102
{ACAD_REACTORS
330
FB
102
}
100
AcDbEntity
  8
BUILDING_ENVELOPE
  6
CONTINUOUS
 62
     7
100
AcDbLine
 10
69.422422
 20
36.006667
 30
0.0
 11
69.589089
 21
36.006667
 31
0.0
  0
LINE
  5
104
102
{ACAD_REACTORS
330
FB
102
}
100
AcDbEntity
  8
BUILDING_ENVELOPE
  6
CONTINUOUS
 62
     7
100
AcDbLine
 10
69.589089
 20
36.006667
 30
0.0
 11
69.589089
 21
36.131667
 31
0.0
  0
LINE
  5
105
102
{ACAD_REACTORS
330
FB
102
}
100
AcDbEntity
  8
BUILDING_ENVELOPE
  6
CONTINUOUS
 62
     7
100
AcDbLine
 10
69.589089
 20
36.256667
 30
0.0
 11
69.589089
 21
36.34
 31
0.0
  0
LINE
  5
106
102
{ACAD_REACTORS
330
FB
102
}
100
AcDbEntity
  8
BUILDING_ENVELOPE
  6
CONTINUOUS
 62
     7
100
AcDbLine
 10
69.589089
 20
36.34
 30
0.0
 11
69.422422
 21
36.34
 31
0.0
  0
LINE
  5
107
102
{ACAD_REACTORS
330
FB
102
}
100
AcDbEntity
  8
BUILDING_ENVELOPE
  6
CONTINUOUS
 62
     7
100
AcDbLine
 10
75.589089
 20
36.131667
 30
0.0
 11
75.547422
 21
36.131667
 31
0.0
  0
LINE
  5
108
102
{ACAD_REACTORS
330
FB
102
}
100
AcDbEntity
  8
BUILDING_ENVELOPE
  6
CONTINUOUS
 62
     7
100
AcDbLine
 10
75.547422
 20
36.131667
 30
0.0
 11
75.547422
 21
36.256667
 31
0.0
  0
LINE
  5
109
102
{ACAD_REACTORS
330
FB
102
}
100
AcDbEntity
  8
BUILDING_ENVELOPE
  6
CONTINUOUS
 62
     7
100
AcDbLine
 10
75.547422
 20
36.256667
 30
0.0
 11
75.589089
 21
36.256667
 31
0.0
  0
LINE
  5
10A
102
{ACAD_REACTORS
330
FB
102
}
100
AcDbEntity
  8
BUILDING_ENVELOPE
  6
CONTINUOUS
 62
     7
100
AcDbLine
 10
69.589089
 20
36.131667
 30
0.0
 11
69.630756
 21
36.131667
 31
0.0
  0
LINE
  5
10B
102
{ACAD_REACTORS
330
FB
102
}
100
AcDbEntity
  8
BUILDING_ENVELOPE
  6
CONTINUOUS
 62
     7
100
AcDbLine
 10
69.630756
 20
36.131667
 30
0.0
 11
69.630756
 21
36.256667
 31
0.0
  0
LINE
  5
10C
102
{ACAD_REACTORS
330
FB
102
}
100
AcDbEntity
  8
BUILDING_ENVELOPE
  6
CONTINUOUS
 62
     7
100
AcDbLine
 10
69.630756
 20
36.256667
 30
0.0
 11
69.589089
 21
36.256667
 31
0.0
  0
LINE
  5
10D
102
{ACAD_REACTORS
330
FB
102
}
100
AcDbEntity
  8
BUILDING_ENVELOPE
  6
CONTINUOUS
 62
     7
100
AcDbLine
 10
75.755756
 20
36.34
 30
0.0
 11
75.755756
 21
36.006667
 31
0.0
  0
LINE
  5
10E
102
{ACAD_REACTORS
330
FB
102
}
100
AcDbEntity
  8
BUILDING_ENVELOPE
  6
CONTINUOUS
 62
     7
100
AcDbLine
 10
69.422422
 20
36.34
 30
0.0
 11
69.422422
 21
36.006667
 31
0.0
  0
ARC
  5
10F
102
{ACAD_REACTORS
330
FB
102
}
100
AcDbEntity
  8
BUILDING_ENVELOPE
  6
CONTINUOUS
 62
     7
100
AcDbCircle
 10
75.589089
 20
36.006667
 30
0.0
 40
6.0
100
AcDbArc
 50
180.0
 51
270.0
  0
LWPOLYLINE
  5
110
102
{ACAD_REACTORS
330
FB
102
}
100
AcDbEntity
  8
BUILDING_ENVELOPE
  6
CONTINUOUS
 62
     7
100
AcDbPolyline
 90
        4
 70
     1
 10
75.464089
 20
30.006667
 10
75.464089
 20
36.006667
 10
75.589089
 20
36.006667
 10
75.589089
 20
30.006667
  0
LWPOLYLINE
  5
112
102
{ACAD_REACTORS
330
111
102
}
100
AcDbEntity
  8
BUILDING_ENVELOPE
  6
CONTINUOUS
 62
     7
100
AcDbPolyline
 90
        4
 70
     1
 10
139.180422
 20
38.298333
 10
139.180422
 20
43.548333
 10
138.831089
 20
43.548333
 10
138.831089
 20
38.298333
  0
LINE
  5
113
102
{ACAD_REACTORS
330
111
102
}
100
AcDbEntity
  8
BUILDING_ENVELOPE
  6
CONTINUOUS
 62
     7
100
AcDbLine
 10
139.172422
 20
43.548333
 30
0.0
 11
138.839089
 21
43.548333
 31
0.0
  0
LINE
  5
114
102
{ACAD_REACTORS
330
111
102
}
100
AcDbEntity
  8
BUILDING_ENVELOPE
  6
CONTINUOUS
 62
     7
100
AcDbLine
 10
138.839089
 20
43.548333
 30
0.0
 11
138.839089
 21
43.381667
 31
0.0
  0
LINE
  5
115
102
{ACAD_REACTORS
330
111
102
}
100
AcDbEntity
  8
BUILDING_ENVELOPE
  6
CONTINUOUS
 62
     7
100
AcDbLine
 10
138.839089
 20
43.381667
 30
0.0
 11
138.964089
 21
43.381667
 31
0.0
  0
LINE
  5
116
102
{ACAD_REACTORS
330
111
102
}
100
AcDbEntity
  8
BUILDING_ENVELOPE
  6
CONTINUOUS
 62
     7
100
AcDbLine
 10
139.089089
 20
43.381667
 30
0.0
 11
139.172422
 21
43.381667
 31
0.0
  0
LINE
  5
117
102
{ACAD_REACTORS
330
111
102
}
100
AcDbEntity
  8
BUILDING_ENVELOPE
  6
CONTINUOUS
 62
     7
100
AcDbLine
 10
139.172422
 20
43.381667
 30
0.0
 11
139.172422
 21
43.548333
 31
0.0
  0
LINE
  5
118
102
{ACAD_REACTORS
330
111
102
}
100
AcDbEntity
  8
BUILDING_ENVELOPE
  6
CONTINUOUS
 62
     7
100
AcDbLine
 10
139.172422
 20
38.298333
 30
0.0
 11
138.839089
 21
38.298333
 31
0.0
  0
LINE
  5
119
102
{ACAD_REACTORS
330
111
102
}
100
AcDbEntity
  8
BUILDING_ENVELOPE
  6
CONTINUOUS
 62
     7
100
AcDbLine
 10
138.839089
 20
38.298333
 30
0.0
 11
138.839089
 21
38.465
 31
0.0
  0
LINE
  5
11A
102
{ACAD_REACTORS
330
111
102
}
100
AcDbEntity
  8
BUILDING_ENVELOPE
  6
CONTINUOUS
 62
     7
100
AcDbLine
 10
138.839089
 20
38.465
 30
0.0
 11
138.964089
 21
38.465
 31
0.0
  0
LINE
  5
11B
102
{ACAD_REACTORS
330
111
102
}
100
AcDbEntity
  8
BUILDING_ENVELOPE
  6
CONTINUOUS
 62
     7
100
AcDbLine
 10
139.089089
 20
38.465
 30
0.0
 11
139.172422
 21
38.465
 31
0.0
  0
LINE
  5
11C
102
{ACAD_REACTORS
330
111
102
}
100
AcDbEntity
  8
BUILDING_ENVELOPE
  6
CONTINUOUS
 62
     7
100
AcDbLine
 10
139.172422
 20
38.465
 30
0.0
 11
139.172422
 21
38.298333
 31
0.0
  0
LINE
  5
11D
102
{ACAD_REACTORS
330
111
102
}
100
AcDbEntity
  8
BUILDING_ENVELOPE
  6
CONTINUOUS
 62
     7
100
AcDbLine
 10
138.964089
 20
43.381667
 30
0.0
 11
138.964089
 21
43.34
 31
0.0
  0
LINE
  5
11E
102
{ACAD_REACTORS
330
111
102
}
100
AcDbEntity
  8
BUILDING_ENVELOPE
  6
CONTINUOUS
 62
     7
100
AcDbLine
 10
138.964089
 20
43.34
 30
0.0
 11
139.089089
 21
43.34
 31
0.0
  0
LINE
  5
11F
102
{ACAD_REACTORS
330
111
102
}
100
AcDbEntity
  8
BUILDING_ENVELOPE
  6
CONTINUOUS
 62
     7
100
AcDbLine
 10
139.089089
 20
43.34
 30
0.0
 11
139.089089
 21
43.381667
 31
0.0
  0
LINE
  5
120
102
{ACAD_REACTORS
330
111
102
}
100
AcDbEntity
  8
BUILDING_ENVELOPE
  6
CONTINUOUS
 62
     7
100
AcDbLine
 10
138.964089
 20
38.465
 30
0.0
 11
138.964089
 21
38.506667
 31
0.0
  0
LINE
  5
121
102
{ACAD_REACTORS
330
111
102
}
100
AcDbEntity
  8
BUILDING_ENVELOPE
  6
CONTINUOUS
 62
     7
100
AcDbLine
 10
138.964089
 20
38.506667
 30
0.0
 11
139.089089
 21
38.506667
 31
0.0
  0
LINE
  5
122
102
{ACAD_REACTORS
330
111
102
}
100
AcDbEntity
  8
BUILDING_ENVELOPE
  6
CONTINUOUS
 62
     7
100
AcDbLine
 10
139.089089
 20
38.506667
 30
0.0
 11
139.089089
 21
38.465
 31
0.0
  0
LINE
  5
123
102
{ACAD_REACTORS
330
111
102
}
100
AcDbEntity
  8
BUILDING_ENVELOPE
  6
CONTINUOUS
 62
     7
100
AcDbLine
 10
139.172422
 20
43.548333
 30
0.0
 11
138.839089
 21
43.548333
 31
0.0
  0
LINE
  5
124
102
{ACAD_REACTORS
330
111
102
}
100
AcDbEntity
  8
BUILDING_ENVELOPE
  6
CONTINUOUS
 62
     7
100
AcDbLine
 10
139.172422
 20
38.298333
 30
0.0
 11
138.839089
 21
38.298333
 31
0.0
  0
ARC
  5
125
102
{ACAD_REACTORS
330
111
102
}
100
AcDbEntity
  8
BUILDING_ENVELOPE
  6
CONTINUOUS
 62
     7
100
AcDbCircle
 10
138.839089
 20
43.381667
 30
0.0
 40
4.916667
100
AcDbArc
 50
180.0
 51
270.0
  0
LWPOLYLINE
  5
126
102
{ACAD_REACTORS
330
111
102
}
100
AcDbEntity
  8
BUILDING_ENVELOPE
  6
CONTINUOUS
 62
     7
100
AcDbPolyline
 90
        4
 70
     1
 10
133.922422
 20
43.256667
 10
138.839089
 20
43.256667
 10
138.839089
 20
43.381667
 10
133.922422
 20
43.381667
  0
LWPOLYLINE
  5
128
102
{ACAD_REACTORS
330
127
102
}
100
AcDbEntity
  8
BUILDING_ENVELOPE
  6
CONTINUOUS
 62
     7
100
AcDbPolyline
 90
        4
 70
     1
 10
134.630756
 20
36.123667
 10
128.297422
 20
36.123667
 10
128.297422
 20
36.473
 10
134.630756
 20
36.473
  0
LINE
  5
129
102
{ACAD_REACTORS
330
127
102
}
100
AcDbEntity
  8
BUILDING_ENVELOPE
  6
CONTINUOUS
 62
     7
100
AcDbLine
 10
128.297422
 20
36.131667
 30
0.0
 11
128.297422
 21
36.465
 31
0.0
  0
LINE
  5
12A
102
{ACAD_REACTORS
330
127
102
}
100
AcDbEntity
  8
BUILDING_ENVELOPE
  6
CONTINUOUS
 62
     7
100
AcDbLine
 10
128.297422
 20
36.465
 30
0.0
 11
128.464089
 21
36.465
 31
0.0
  0
LINE
  5
12B
102
{ACAD_REACTORS
330
127
102
}
100
AcDbEntity
  8
BUILDING_ENVELOPE
  6
CONTINUOUS
 62
     7
100
AcDbLine
 10
128.464089
 20
36.465
 30
0.0
 11
128.464089
 21
36.34
 31
0.0
  0
LINE
  5
12C
102
{ACAD_REACTORS
330
127
102
}
100
AcDbEntity
  8
BUILDING_ENVELOPE
  6
CONTINUOUS
 62
     7
100
AcDbLine
 10
128.464089
 20
36.215
 30
0.0
 11
128.464089
 21
36.131667
 31
0.0
  0
LINE
  5
12D
102
{ACAD_REACTORS
330
127
102
}
100
AcDbEntity
  8
BUILDING_ENVELOPE
  6
CONTINUOUS
 62
     7
100
AcDbLine
 10
128.464089
 20
36.131667
 30
0.0
 11
128.297422
 21
36.131667
 31
0.0
  0
LINE
  5
12E
102
{ACAD_REACTORS
330
127
102
}
100
AcDbEntity
  8
BUILDING_ENVELOPE
  6
CONTINUOUS
 62
     7
100
AcDbLine
 10
134.630756
 20
36.131667
 30
0.0
 11
134.630756
 21
36.465
 31
0.0
  0
LINE
  5
12F
102
{ACAD_REACTORS
330
127
102
}
100
AcDbEntity
  8
BUILDING_ENVELOPE
  6
CONTINUOUS
 62
     7
100
AcDbLine
 10
134.630756
 20
36.465
 30
0.0
 11
134.464089
 21
36.465
 31
0.0
  0
LINE
  5
130
102
{ACAD_REACTORS
330
127
102
}
100
AcDbEntity
  8
BUILDING_ENVELOPE
  6
CONTINUOUS
 62
     7
100
AcDbLine
 10
134.464089
 20
36.465
 30
0.0
 11
134.464089
 21
36.34
 31
0.0
  0
LINE
  5
131
102
{ACAD_REACTORS
330
127
102
}
100
AcDbEntity
  8
BUILDING_ENVELOPE
  6
CONTINUOUS
 62
     7
100
AcDbLine
 10
134.464089
 20
36.215
 30
0.0
 11
134.464089
 21
36.131667
 31
0.0
  0
LINE
  5
132
102
{ACAD_REACTORS
330
127
102
}
100
AcDbEntity
  8
BUILDING_ENVELOPE
  6
CONTINUOUS
 62
     7
100
AcDbLine
 10
134.464089
 20
36.131667
 30
0.0
 11
134.630756
 21
36.131667
 31
0.0
  0
LINE
  5
133
102
{ACAD_REACTORS
330
127
102
}
100
AcDbEntity
  8
BUILDING_ENVELOPE
  6
CONTINUOUS
 62
     7
100
AcDbLine
 10
128.464089
 20
36.34
 30
0.0
 11
128.505756
 21
36.34
 31
0.0
  0
LINE
  5
134
102
{ACAD_REACTORS
330
127
102
}
100
AcDbEntity
  8
BUILDING_ENVELOPE
  6
CONTINUOUS
 62
     7
100
AcDbLine
 10
128.505756
 20
36.34
 30
0.0
 11
128.505756
 21
36.215
 31
0.0
  0
LINE
  5
135
102
{ACAD_REACTORS
330
127
102
}
100
AcDbEntity
  8
BUILDING_ENVELOPE
  6
CONTINUOUS
 62
     7
100
AcDbLine
 10
128.505756
 20
36.215
 30
0.0
 11
128.464089
 21
36.215
 31
0.0
  0
LINE
  5
136
102
{ACAD_REACTORS
330
127
102
}
100
AcDbEntity
  8
BUILDING_ENVELOPE
  6
CONTINUOUS
 62
     7
100
AcDbLine
 10
134.464089
 20
36.34
 30
0.0
 11
134.422422
 21
36.34
 31
0.0
  0
LINE
  5
137
102
{ACAD_REACTORS
330
127
102
}
100
AcDbEntity
  8
BUILDING_ENVELOPE
  6
CONTINUOUS
 62
     7
100
AcDbLine
 10
134.422422
 20
36.34
 30
0.0
 11
134.422422
 21
36.215
 31
0.0
  0
LINE
  5
138
102
{ACAD_REACTORS
330
127
102
}
100
AcDbEntity
  8
BUILDING_ENVELOPE
  6
CONTINUOUS
 62
     7
100
AcDbLine
 10
134.422422
 20
36.215
 30
0.0
 11
134.464089
 21
36.215
 31
0.0
  0
LINE
  5
139
102
{ACAD_REACTORS
330
127
102
}
100
AcDbEntity
  8
BUILDING_ENVELOPE
  6
CONTINUOUS
 62
     7
100
AcDbLine
 10
128.297422
 20
36.131667
 30
0.0
 11
128.297422
 21
36.465
 31
0.0
  0
LINE
  5
13A
102
{ACAD_REACTORS
330
127
102
}
100
AcDbEntity
  8
BUILDING_ENVELOPE
  6
CONTINUOUS
 62
     7
100
AcDbLine
 10
134.630756
 20
36.131667
 30
0.0
 11
134.630756
 21
36.465
 31
0.0
  0
ARC
  5
13B
102
{ACAD_REACTORS
330
127
102
}
100
AcDbEntity
  8
BUILDING_ENVELOPE
  6
CONTINUOUS
 62
     7
100
AcDbCircle
 10
128.464089
 20
36.465
 30
0.0
 40
6.0
100
AcDbArc
 50
0.0
 51
20.854458
  0
LWPOLYLINE
  5
13C
102
{ACAD_REACTORS
330
127
102
}
100
AcDbEntity
  8
BUILDING_ENVELOPE
  6
CONTINUOUS
 62
     7
100
AcDbPolyline
 90
        4
 70
     1
 10
134.115515
 20
38.484161
 10
128.508588
 20
36.348189
 10
128.464089
 20
36.465
 10
134.071015
 20
38.600972
  0
LWPOLYLINE
  5
13E
102
{ACAD_REACTORS
330
13D
102
}
100
AcDbEntity
  8
BUILDING_ENVELOPE
  6
CONTINUOUS
 62
     7
100
AcDbPolyline
 90
        4
 70
     1
 10
113.503563
 20
20.498667
 10
121.753563
 20
20.498667
 10
121.753563
 20
20.848
 10
113.503563
 20
20.848
  0
LINE
  5
13F
102
{ACAD_REACTORS
330
13D
102
}
100
AcDbEntity
  8
BUILDING_ENVELOPE
  6
CONTINUOUS
 62
     7
100
AcDbLine
 10
113.503563
 20
20.506667
 30
0.0
 11
113.503563
 21
20.84
 31
0.0
  0
LINE
  5
140
102
{ACAD_REACTORS
330
13D
102
}
100
AcDbEntity
  8
BUILDING_ENVELOPE
  6
CONTINUOUS
 62
     7
100
AcDbLine
 10
113.503563
 20
20.84
 30
0.0
 11
113.670229
 21
20.84
 31
0.0
  0
LINE
  5
141
102
{ACAD_REACTORS
330
13D
102
}
100
AcDbEntity
  8
BUILDING_ENVELOPE
  6
CONTINUOUS
 62
     7
100
AcDbLine
 10
113.670229
 20
20.84
 30
0.0
 11
113.670229
 21
20.756667
 31
0.0
  0
LINE
  5
142
102
{ACAD_REACTORS
330
13D
102
}
100
AcDbEntity
  8
BUILDING_ENVELOPE
  6
CONTINUOUS
 62
     7
100
AcDbLine
 10
113.670229
 20
20.59
 30
0.0
 11
113.670229
 21
20.506667
 31
0.0
  0
LINE
  5
143
102
{ACAD_REACTORS
330
13D
102
}
100
AcDbEntity
  8
BUILDING_ENVELOPE
  6
CONTINUOUS
 62
     7
100
AcDbLine
 10
113.670229
 20
20.506667
 30
0.0
 11
113.503563
 21
20.506667
 31
0.0
  0
LINE
  5
144
102
{ACAD_REACTORS
330
13D
102
}
100
AcDbEntity
  8
BUILDING_ENVELOPE
  6
CONTINUOUS
 62
     7
100
AcDbLine
 10
121.753563
 20
20.506667
 30
0.0
 11
121.753563
 21
20.84
 31
0.0
  0
LINE
  5
145
102
{ACAD_REACTORS
330
13D
102
}
100
AcDbEntity
  8
BUILDING_ENVELOPE
  6
CONTINUOUS
 62
     7
100
AcDbLine
 10
121.753563
 20
20.84
 30
0.0
 11
121.586896
 21
20.84
 31
0.0
  0
LINE
  5
146
102
{ACAD_REACTORS
330
13D
102
}
100
AcDbEntity
  8
BUILDING_ENVELOPE
  6
CONTINUOUS
 62
     7
100
AcDbLine
 10
121.586896
 20
20.84
 30
0.0
 11
121.586896
 21
20.756667
 31
0.0
  0
LINE
  5
147
102
{ACAD_REACTORS
330
13D
102
}
100
AcDbEntity
  8
BUILDING_ENVELOPE
  6
CONTINUOUS
 62
     7
100
AcDbLine
 10
121.586896
 20
20.59
 30
0.0
 11
121.586896
 21
20.506667
 31
0.0
  0
LINE
  5
148
102
{ACAD_REACTORS
330
13D
102
}
100
AcDbEntity
  8
BUILDING_ENVELOPE
  6
CONTINUOUS
 62
     7
100
AcDbLine
 10
121.586896
 20
20.506667
 30
0.0
 11
121.753563
 21
20.506667
 31
0.0
  0
LWPOLYLINE
  5
149
102
{ACAD_REACTORS
330
13D
102
}
100
AcDbEntity
  8
BUILDING_ENVELOPE
  6
CONTINUOUS
 62
     7
100
AcDbPolyline
 90
        4
 70
     1
 10
113.670229
 20
20.756667
 10
113.836896
 20
20.756667
 10
113.836896
 20
20.59
 10
113.670229
 20
20.59
  0
LWPOLYLINE
  5
14A
102
{ACAD_REACTORS
330
13D
102
}
100
AcDbEntity
  8
BUILDING_ENVELOPE
  6
CONTINUOUS
 62
     7
100
AcDbPolyline
 90
        4
 70
     1
 10
121.586896
 20
20.756667
 10
121.420229
 20
20.756667
 10
121.420229
 20
20.59
 10
121.586896
 20
20.59
  0
LINE
  5
14B
102
{ACAD_REACTORS
330
13D
102
}
100
AcDbEntity
  8
BUILDING_ENVELOPE
  6
CONTINUOUS
 62
     7
100
AcDbLine
 10
113.836896
 20
20.673333
 30
0.0
 11
121.420229
 21
20.673333
 31
0.0
  0
LINE
  5
14C
102
{ACAD_REACTORS
330
13D
102
}
100
AcDbEntity
  8
BUILDING_ENVELOPE
  6
CONTINUOUS
 62
     7
100
AcDbLine
 10
113.503563
 20
20.506667
 30
0.0
 11
113.503563
 21
20.84
 31
0.0
  0
LINE
  5
14D
102
{ACAD_REACTORS
330
13D
102
}
100
AcDbEntity
  8
BUILDING_ENVELOPE
  6
CONTINUOUS
 62
     7
100
AcDbLine
 10
121.753563
 20
20.506667
 30
0.0
 11
121.753563
 21
20.84
 31
0.0
  0
LWPOLYLINE
  5
14F
102
{ACAD_REACTORS
330
150
102
}
100
AcDbEntity
  8
BUILDING_ENVELOPE
  6
CONTINUOUS
 62
     7
100
AcDbPolyline
 90
        4
 70
     1
 10
79.255756
 20
36.131667
 10
105.836896
 20
36.131667
 10
105.503563
 20
35.798333
 10
79.589089
 20
35.798333
  0
HATCH
  5
150
102
{ACAD_REACTORS
330
14E
102
}
100
AcDbEntity
  8
BUILDING_ENVELOPE
 62
   253
100
AcDbHatch
 10
0.0
 20
0.0
 30
0.0
210
0.0
220
0.0
230
1.0
  2
SOLID
 70
     1
 71
     1
 91
        1
 92
        3
 72
     0
 73
     1
 93
        4
 10
79.255755555555496
 20
36.131666666666732
 10
105.83689590643263
 20
36.131666666666732
 10
105.50356257309929
 20
35.798333333333403
 10
79.589088888888824
 20
35.798333333333403
 97
       68
330
FC
330
FD
330
FE
330
FF
330
100
330
101
330
102
330
103
330
104
330
105
330
106
330
107
330
108
330
109
330
10A
330
10B
330
10C
330
110
330
112
330
113
330
114
330
115
330
116
330
117
330
118
330
119
330
11A
330
11B
330
11C
330
11D
330
11E
330
11F
330
120
330
121
330
122
330
126
330
128
330
129
330
12A
330
12B
330
12C
330
12D
330
12E
330
12F
330
130
330
131
330
132
330
133
330
134
330
135
330
136
330
137
330
138
330
13C
330
13E
330
13F
330
140
330
141
330
142
330
143
330
144
330
145
330
146
330
147
330
148
330
149
330
14A
330
14F
 75
     0
 76
     1
 98
        0
  0
LINE
  5
151
102
{ACAD_REACTORS
330
14E
102
}
100
AcDbEntity
  8
BUILDING_ENVELOPE
  6
CONTINUOUS
 62
     7
100
AcDbLine
 10
79.255756
 20
36.131667
 30
0.0
 11
105.836896
 21
36.131667
 31
0.0
  0
LINE
  5
152
102
{ACAD_REACTORS
330
14E
102
}
100
AcDbEntity
  8
BUILDING_ENVELOPE
  6
CONTINUOUS
 62
     7
100
AcDbLine
 10
79.589089
 20
35.798333
 30
0.0
 11
105.503563
 21
35.798333
 31
0.0
  0
LWPOLYLINE
  5
153
102
{ACAD_REACTORS
330
154
102
}
100
AcDbEntity
  8
BUILDING_ENVELOPE
  6
CONTINUOUS
 62
     7
100
AcDbPolyline
 90
        4
 70
     1
 10
105.836896
 20
36.131667
 10
105.836896
 20
20.173333
 10
105.503563
 20
20.506667
 10
105.503563
 20
35.798333
  0
HATCH
  5
154
102
{ACAD_REACTORS
330
14E
102
}
100
AcDbEntity
  8
BUILDING_ENVELOPE
 62
   253
100
AcDbHatch
 10
0.0
 20
0.0
 30
0.0
210
0.0
220
0.0
230
1.0
  2
SOLID
 70
     1
 71
     1
 91
        1
 92
        3
 72
     0
 73
     1
 93
        4
 10
105.83689590643263
 20
36.131666666666732
 10
105.83689590643263
 20
20.173333333333563
 10
105.50356257309929
 20
20.506666666666895
 10
105.50356257309929
 20
35.798333333333396
 97
        1
330
153
 75
     0
 76
     1
 98
        0
  0
LINE
  5
155
102
{ACAD_REACTORS
330
14E
102
}
100
AcDbEntity
  8
BUILDING_ENVELOPE
  6
CONTINUOUS
 62
     7
100
AcDbLine
 10
105.836896
 20
36.131667
 30
0.0
 11
105.836896
 21
20.173333
 31
0.0
  0
LINE
  5
156
102
{ACAD_REACTORS
330
14E
102
}
100
AcDbEntity
  8
BUILDING_ENVELOPE
  6
CONTINUOUS
 62
     7
100
AcDbLine
 10
105.503563
 20
35.798333
 30
0.0
 11
105.503563
 21
20.506667
 31
0.0
  0
LWPOLYLINE
  5
157
102
{ACAD_REACTORS
330
158
102
}
100
AcDbEntity
  8
BUILDING_ENVELOPE
  6
CONTINUOUS
 62
     7
100
AcDbPolyline
 90
        4
 70
     1
 10
105.836896
 20
20.173333
 10
79.255756
 20
20.173333
 10
79.589089
 20
20.506667
 10
105.503563
 20
20.506667
  0
HATCH
  5
158
102
{ACAD_REACTORS
330
14E
102
}
100
AcDbEntity
  8
BUILDING_ENVELOPE
 62
   253
100
AcDbHatch
 10
0.0
 20
0.0
 30
0.0
210
0.0
220
0.0
230
1.0
  2
SOLID
 70
     1
 71
     1
 91
        1
 92
        3
 72
     0
 73
     1
 93
        4
 10
105.83689590643263
 20
20.173333333333609
 10
79.255755555555439
 20
20.173333333333609
 10
79.589088888888767
 20
20.506666666666945
 10
105.50356257309929
 20
20.506666666666945
 97
        1
330
157
 75
     0
 76
     1
 98
        0
  0
LINE
  5
159
102
{ACAD_REACTORS
330
14E
102
}
100
AcDbEntity
  8
BUILDING_ENVELOPE
  6
CONTINUOUS
 62
     7
100
AcDbLine
 10
105.836896
 20
20.173333
 30
0.0
 11
79.255756
 21
20.173333
 31
0.0
  0
LINE
  5
15A
102
{ACAD_REACTORS
330
14E
102
}
100
AcDbEntity
  8
BUILDING_ENVELOPE
  6
CONTINUOUS
 62
     7
100
AcDbLine
 10
105.503563
 20
20.506667
 30
0.0
 11
79.589089
 21
20.506667
 31
0.0
  0
LWPOLYLINE
  5
15B
102
{ACAD_REACTORS
330
15C
102
}
100
AcDbEntity
  8
BUILDING_ENVELOPE
  6
CONTINUOUS
 62
     7
100
AcDbPolyline
 90
        4
 70
     1
 10
79.255756
 20
20.173333
 10
79.255756
 20
36.131667
 10
79.589089
 20
35.798333
 10
79.589089
 20
20.506667
  0
HATCH
  5
15C
102
{ACAD_REACTORS
330
14E
102
}
100
AcDbEntity
  8
BUILDING_ENVELOPE
 62
   253
100
AcDbHatch
 10
0.0
 20
0.0
 30
0.0
210
0.0
220
0.0
230
1.0
  2
SOLID
 70
     1
 71
     1
 91
        1
 92
        3
 72
     0
 73
     1
 93
        4
 10
79.255755555555496
 20
20.173333333333716
 10
79.255755555555496
 20
36.131666666666725
 10
79.589088888888824
 20
35.798333333333389
 10
79.589088888888824
 20
20.506666666667044
 97
        1
330
15B
 75
     0
 76
     1
 98
        0
  0
LINE
  5
15D
102
{ACAD_REACTORS
330
14E
102
}
100
AcDbEntity
  8
BUILDING_ENVELOPE
  6
CONTINUOUS
 62
     7
100
AcDbLine
 10
79.255756
 20
20.173333
 30
0.0
 11
79.255756
 21
36.131667
 31
0.0
  0
LINE
  5
15E
102
{ACAD_REACTORS
330
14E
102
}
100
AcDbEntity
  8
BUILDING_ENVELOPE
  6
CONTINUOUS
 62
     7
100
AcDbLine
 10
79.589089
 20
20.506667
 30
0.0
 11
79.589089
 21
35.798333
 31
0.0
  0
LWPOLYLINE
  5
160
102
{ACAD_REACTORS
330
15F
102
}
100
AcDbEntity
  8
BUILDING_ENVELOPE
  6
CONTINUOUS
 62
     7
100
AcDbPolyline
 90
        4
 70
     1
 10
84.695149
 20
36.139667
 10
91.028483
 20
36.139667
 10
91.028483
 20
35.790333
 10
84.695149
 20
35.790333
  0
LINE
  5
161
102
{ACAD_REACTORS
330
15F
102
}
100
AcDbEntity
  8
BUILDING_ENVELOPE
  6
CONTINUOUS
 62
     7
100
AcDbLine
 10
91.028483
 20
36.131667
 30
0.0
 11
91.028483
 21
35.798333
 31
0.0
  0
LINE
  5
162
102
{ACAD_REACTORS
330
15F
102
}
100
AcDbEntity
  8
BUILDING_ENVELOPE
  6
CONTINUOUS
 62
     7
100
AcDbLine
 10
91.028483
 20
35.798333
 30
0.0
 11
90.861816
 21
35.798333
 31
0.0
  0
LINE
  5
163
102
{ACAD_REACTORS
330
15F
102
}
100
AcDbEntity
  8
BUILDING_ENVELOPE
  6
CONTINUOUS
 62
     7
100
AcDbLine
 10
90.861816
 20
35.798333
 30
0.0
 11
90.861816
 21
35.923333
 31
0.0
  0
LINE
  5
164
102
{ACAD_REACTORS
330
15F
102
}
100
AcDbEntity
  8
BUILDING_ENVELOPE
  6
CONTINUOUS
 62
     7
100
AcDbLine
 10
90.861816
 20
36.048333
 30
0.0
 11
90.861816
 21
36.131667
 31
0.0
  0
LINE
  5
165
102
{ACAD_REACTORS
330
15F
102
}
100
AcDbEntity
  8
BUILDING_ENVELOPE
  6
CONTINUOUS
 62
     7
100
AcDbLine
 10
90.861816
 20
36.131667
 30
0.0
 11
91.028483
 21
36.131667
 31
0.0
  0
LINE
  5
166
102
{ACAD_REACTORS
330
15F
102
}
100
AcDbEntity
  8
BUILDING_ENVELOPE
  6
CONTINUOUS
 62
     7
100
AcDbLine
 10
84.695149
 20
36.131667
 30
0.0
 11
84.695149
 21
35.798333
 31
0.0
  0
LINE
  5
167
102
{ACAD_REACTORS
330
15F
102
}
100
AcDbEntity
  8
BUILDING_ENVELOPE
  6
CONTINUOUS
 62
     7
100
AcDbLine
 10
84.695149
 20
35.798333
 30
0.0
 11
84.861816
 21
35.798333
 31
0.0
  0
LINE
  5
168
102
{ACAD_REACTORS
330
15F
102
}
100
AcDbEntity
  8
BUILDING_ENVELOPE
  6
CONTINUOUS
 62
     7
100
AcDbLine
 10
84.861816
 20
35.798333
 30
0.0
 11
84.861816
 21
35.923333
 31
0.0
  0
LINE
  5
169
102
{ACAD_REACTORS
330
15F
102
}
100
AcDbEntity
  8
BUILDING_ENVELOPE
  6
CONTINUOUS
 62
     7
100
AcDbLine
 10
84.861816
 20
36.048333
 30
0.0
 11
84.861816
 21
36.131667
 31
0.0
  0
LINE
  5
16A
102
{ACAD_REACTORS
330
15F
102
}
100
AcDbEntity
  8
BUILDING_ENVELOPE
  6
CONTINUOUS
 62
     7
100
AcDbLine
 10
84.861816
 20
36.131667
 30
0.0
 11
84.695149
 21
36.131667
 31
0.0
  0
LINE
  5
16B
102
{ACAD_REACTORS
330
15F
102
}
100
AcDbEntity
  8
BUILDING_ENVELOPE
  6
CONTINUOUS
 62
     7
100
AcDbLine
 10
90.861816
 20
35.923333
 30
0.0
 11
90.820149
 21
35.923333
 31
0.0
  0
LINE
  5
16C
102
{ACAD_REACTORS
330
15F
102
}
100
AcDbEntity
  8
BUILDING_ENVELOPE
  6
CONTINUOUS
 62
     7
100
AcDbLine
 10
90.820149
 20
35.923333
 30
0.0
 11
90.820149
 21
36.048333
 31
0.0
  0
LINE
  5
16D
102
{ACAD_REACTORS
330
15F
102
}
100
AcDbEntity
  8
BUILDING_ENVELOPE
  6
CONTINUOUS
 62
     7
100
AcDbLine
 10
90.820149
 20
36.048333
 30
0.0
 11
90.861816
 21
36.048333
 31
0.0
  0
LINE
  5
16E
102
{ACAD_REACTORS
330
15F
102
}
100
AcDbEntity
  8
BUILDING_ENVELOPE
  6
CONTINUOUS
 62
     7
100
AcDbLine
 10
84.861816
 20
35.923333
 30
0.0
 11
84.903483
 21
35.923333
 31
0.0
  0
LINE
  5
16F
102
{ACAD_REACTORS
330
15F
102
}
100
AcDbEntity
  8
BUILDING_ENVELOPE
  6
CONTINUOUS
 62
     7
100
AcDbLine
 10
84.903483
 20
35.923333
 30
0.0
 11
84.903483
 21
36.048333
 31
0.0
  0
LINE
  5
170
102
{ACAD_REACTORS
330
15F
102
}
100
AcDbEntity
  8
BUILDING_ENVELOPE
  6
CONTINUOUS
 62
     7
100
AcDbLine
 10
84.903483
 20
36.048333
 30
0.0
 11
84.861816
 21
36.048333
 31
0.0
  0
LINE
  5
171
102
{ACAD_REACTORS
330
15F
102
}
100
AcDbEntity
  8
BUILDING_ENVELOPE
  6
CONTINUOUS
 62
     7
100
AcDbLine
 10
91.028483
 20
36.131667
 30
0.0
 11
91.028483
 21
35.798333
 31
0.0
  0
LINE
  5
172
102
{ACAD_REACTORS
330
15F
102
}
100
AcDbEntity
  8
BUILDING_ENVELOPE
  6
CONTINUOUS
 62
     7
100
AcDbLine
 10
84.695149
 20
36.131667
 30
0.0
 11
84.695149
 21
35.798333
 31
0.0
  0
ARC
  5
173
102
{ACAD_REACTORS
330
15F
102
}
100
AcDbEntity
  8
BUILDING_ENVELOPE
  6
CONTINUOUS
 62
     7
100
AcDbCircle
 10
90.861816
 20
35.798333
 30
0.0
 40
6.0
100
AcDbArc
 50
180.0
 51
270.0
  0
LWPOLYLINE
  5
174
102
{ACAD_REACTORS
330
15F
102
}
100
AcDbEntity
  8
BUILDING_ENVELOPE
  6
CONTINUOUS
 62
     7
100
AcDbPolyline
 90
        4
 70
     1
 10
90.736816
 20
29.798333
 10
90.736816
 20
35.798333
 10
90.861816
 20
35.798333
 10
90.861816
 20
29.798333
  0
LWPOLYLINE
  5
176
102
{ACAD_REACTORS
330
175
102
}
100
AcDbEntity
  8
BUILDING_ENVELOPE
  6
CONTINUOUS
 62
     7
100
AcDbPolyline
 90
        4
 70
     1
 10
139.844896
 20
25.84
 10
139.844896
 20
31.173333
 10
139.495563
 20
31.173333
 10
139.495563
 20
25.84
  0
LINE
  5
177
102
{ACAD_REACTORS
330
175
102
}
100
AcDbEntity
  8
BUILDING_ENVELOPE
  6
CONTINUOUS
 62
     7
100
AcDbLine
 10
139.836896
 20
31.173333
 30
0.0
 11
139.503563
 21
31.173333
 31
0.0
  0
LINE
  5
178
102
{ACAD_REACTORS
330
175
102
}
100
AcDbEntity
  8
BUILDING_ENVELOPE
  6
CONTINUOUS
 62
     7
100
AcDbLine
 10
139.503563
 20
31.173333
 30
0.0
 11
139.503563
 21
31.006667
 31
0.0
  0
LINE
  5
179
102
{ACAD_REACTORS
330
175
102
}
100
AcDbEntity
  8
BUILDING_ENVELOPE
  6
CONTINUOUS
 62
     7
100
AcDbLine
 10
139.503563
 20
31.006667
 30
0.0
 11
139.628563
 21
31.006667
 31
0.0
  0
LINE
  5
17A
102
{ACAD_REACTORS
330
175
102
}
100
AcDbEntity
  8
BUILDING_ENVELOPE
  6
CONTINUOUS
 62
     7
100
AcDbLine
 10
139.753563
 20
31.006667
 30
0.0
 11
139.836896
 21
31.006667
 31
0.0
  0
LINE
  5
17B
102
{ACAD_REACTORS
330
175
102
}
100
AcDbEntity
  8
BUILDING_ENVELOPE
  6
CONTINUOUS
 62
     7
100
AcDbLine
 10
139.836896
 20
31.006667
 30
0.0
 11
139.836896
 21
31.173333
 31
0.0
  0
LINE
  5
17C
102
{ACAD_REACTORS
330
175
102
}
100
AcDbEntity
  8
BUILDING_ENVELOPE
  6
CONTINUOUS
 62
     7
100
AcDbLine
 10
139.836896
 20
25.84
 30
0.0
 11
139.503563
 21
25.84
 31
0.0
  0
LINE
  5
17D
102
{ACAD_REACTORS
330
175
102
}
100
AcDbEntity
  8
BUILDING_ENVELOPE
  6
CONTINUOUS
 62
     7
100
AcDbLine
 10
139.503563
 20
25.84
 30
0.0
 11
139.503563
 21
26.006667
 31
0.0
  0
LINE
  5
17E
102
{ACAD_REACTORS
330
175
102
}
100
AcDbEntity
  8
BUILDING_ENVELOPE
  6
CONTINUOUS
 62
     7
100
AcDbLine
 10
139.503563
 20
26.006667
 30
0.0
 11
139.628563
 21
26.006667
 31
0.0
  0
LINE
  5
17F
102
{ACAD_REACTORS
330
175
102
}
100
AcDbEntity
  8
BUILDING_ENVELOPE
  6
CONTINUOUS
 62
     7
100
AcDbLine
 10
139.753563
 20
26.006667
 30
0.0
 11
139.836896
 21
26.006667
 31
0.0
  0
LINE
  5
180
102
{ACAD_REACTORS
330
175
102
}
100
AcDbEntity
  8
BUILDING_ENVELOPE
  6
CONTINUOUS
 62
     7
100
AcDbLine
 10
139.836896
 20
26.006667
 30
0.0
 11
139.836896
 21
25.84
 31
0.0
  0
LINE
  5
181
102
{ACAD_REACTORS
330
175
102
}
100
AcDbEntity
  8
BUILDING_ENVELOPE
  6
CONTINUOUS
 62
     7
100
AcDbLine
 10
139.628563
 20
31.006667
 30
0.0
 11
139.628563
 21
30.965
 31
0.0
  0
LINE
  5
182
102
{ACAD_REACTORS
330
175
102
}
100
AcDbEntity
  8
BUILDING_ENVELOPE
  6
CONTINUOUS
 62
     7
100
AcDbLine
 10
139.628563
 20
30.965
 30
0.0
 11
139.753563
 21
30.965
 31
0.0
  0
LINE
  5
183
102
{ACAD_REACTORS
330
175
102
}
100
AcDbEntity
  8
BUILDING_ENVELOPE
  6
CONTINUOUS
 62
     7
100
AcDbLine
 10
139.753563
 20
30.965
 30
0.0
 11
139.753563
 21
31.006667
 31
0.0
  0
LINE
  5
184
102
{ACAD_REACTORS
330
175
102
}
100
AcDbEntity
  8
BUILDING_ENVELOPE
  6
CONTINUOUS
 62
     7
100
AcDbLine
 10
139.628563
 20
26.006667
 30
0.0
 11
139.628563
 21
26.048333
 31
0.0
  0
LINE
  5
185
102
{ACAD_REACTORS
330
175
102
}
100
AcDbEntity
  8
BUILDING_ENVELOPE
  6
CONTINUOUS
 62
     7
100
AcDbLine
 10
139.628563
 20
26.048333
 30
0.0
 11
139.753563
 21
26.048333
 31
0.0
  0
LINE
  5
186
102
{ACAD_REACTORS
330
175
102
}
100
AcDbEntity
  8
BUILDING_ENVELOPE
  6
CONTINUOUS
 62
     7
100
AcDbLine
 10
139.753563
 20
26.048333
 30
0.0
 11
139.753563
 21
26.006667
 31
0.0
  0
LINE
  5
187
102
{ACAD_REACTORS
330
175
102
}
100
AcDbEntity
  8
BUILDING_ENVELOPE
  6
CONTINUOUS
 62
     7
100
AcDbLine
 10
139.836896
 20
31.173333
 30
0.0
 11
139.503563
 21
31.173333
 31
0.0
  0
LINE
  5
188
102
{ACAD_REACTORS
330
175
102
}
100
AcDbEntity
  8
BUILDING_ENVELOPE
  6
CONTINUOUS
 62
     7
100
AcDbLine
 10
139.836896
 20
25.84
 30
0.0
 11
139.503563
 21
25.84
 31
0.0
  0
ARC
  5
189
102
{ACAD_REACTORS
330
175
102
}
100
AcDbEntity
  8
BUILDING_ENVELOPE
  6
CONTINUOUS
 62
     7
100
AcDbCircle
 10
139.503563
 20
31.006667
 30
0.0
 40
5.0
100
AcDbArc
 50
180.0
 51
270.0
  0
LWPOLYLINE
  5
18A
102
{ACAD_REACTORS
330
175
102
}
100
AcDbEntity
  8
BUILDING_ENVELOPE
  6
CONTINUOUS
 62
     7
100
AcDbPolyline
 90
        4
 70
     1
 10
134.503563
 20
30.881667
 10
139.503563
 20
30.881667
 10
139.503563
 20
31.006667
 10
134.503563
 20
31.006667
  0
LWPOLYLINE
  5
18C
102
{ACAD_REACTORS
330
18D
102
}
100
AcDbEntity
  8
BUILDING_ENVELOPE
  6
CONTINUOUS
 62
     7
100
AcDbPolyline
 90
        4
 70
     1
 10
139.836896
 20
20.506667
 10
139.836896
 20
6.34
 10
139.503563
 20
6.006667
 10
139.503563
 20
20.506667
  0
HATCH
  5
18D
102
{ACAD_REACTORS
330
18B
102
}
100
AcDbEntity
  8
BUILDING_ENVELOPE
 62
   253
100
AcDbHatch
 10
0.0
 20
0.0
 30
0.0
210
0.0
220
0.0
230
1.0
  2
SOLID
 70
     1
 71
     1
 91
        1
 92
        3
 72
     0
 73
     1
 93
        4
 10
139.83689590643266
 20
20.50666666666681
 10
139.83689590643266
 20
6.3400000000000265
 10
139.50356257309932
 20
6.0066666666666935
 10
139.50356257309932
 20
20.50666666666681
 97
       37
330
160
330
161
330
162
330
163
330
164
330
165
330
166
330
167
330
168
330
169
330
16A
330
16B
330
16C
330
16D
330
16E
330
16F
330
170
330
174
330
176
330
177
330
178
330
179
330
17A
330
17B
330
17C
330
17D
330
17E
330
17F
330
180
330
181
330
182
330
183
330
184
330
185
330
186
330
18A
330
18C
 75
     0
 76
     1
 98
        0
  0
LWPOLYLINE
  5
18E
102
{ACAD_REACTORS
330
18F
102
}
100
AcDbEntity
  8
BUILDING_ENVELOPE
  6
CONTINUOUS
 62
     7
100
AcDbPolyline
 90
        4
 70
     1
 10
139.503563
 20
20.506667
 10
139.836896
 20
20.506667
 10
139.836896
 20
20.54
 10
139.503563
 20
20.54
  0
HATCH
  5
18F
102
{ACAD_REACTORS
330
18B
102
}
100
AcDbEntity
  8
BUILDING_ENVELOPE
 62
   253
100
AcDbHatch
 10
0.0
 20
0.0
 30
0.0
210
0.0
220
0.0
230
1.0
  2
SOLID
 70
     1
 71
     1
 91
        1
 92
        3
 72
     0
 73
     1
 93
        4
 10
139.50356257309932
 20
20.50666666666681
 10
139.83689590643266
 20
20.50666666666681
 10
139.83689590643266
 20
20.540000000000141
 10
139.50356257309932
 20
20.540000000000141
 97
        1
330
18E
 75
     0
 76
     1
 98
        0
  0
LINE
  5
190
102
{ACAD_REACTORS
330
18B
102
}
100
AcDbEntity
  8
BUILDING_ENVELOPE
  6
CONTINUOUS
 62
     7
100
AcDbLine
 10
139.836896
 20
20.506667
 30
0.0
 11
139.836896
 21
6.34
 31
0.0
  0
LINE
  5
191
102
{ACAD_REACTORS
330
18B
102
}
100
AcDbEntity
  8
BUILDING_ENVELOPE
  6
CONTINUOUS
 62
     7
100
AcDbLine
 10
139.503563
 20
20.506667
 30
0.0
 11
139.503563
 21
6.006667
 31
0.0
  0
LWPOLYLINE
  5
193
102
{ACAD_REACTORS
330
194
102
}
100
AcDbEntity
  8
BUILDING_ENVELOPE
  6
CONTINUOUS
 62
     7
100
AcDbPolyline
 90
        4
 70
     1
 10
139.836896
 20
6.34
 10
169.589089
 20
6.34
 10
169.922422
 20
6.006667
 10
139.503563
 20
6.006667
  0
HATCH
  5
194
102
{ACAD_REACTORS
330
192
102
}
100
AcDbEntity
  8
BUILDING_ENVELOPE
 62
   253
100
AcDbHatch
 10
0.0
 20
0.0
 30
0.0
210
0.0
220
0.0
230
1.0
  2
SOLID
 70
     1
 71
     1
 91
        1
 92
        3
 72
     0
 73
     1
 93
        4
 10
139.83689590643263
 20
6.3400000000000283
 10
169.58908888888885
 20
6.3400000000000283
 10
169.92242222222217
 20
6.0066666666666944
 10
139.50356257309932
 20
6.0066666666666944
 97
        1
330
193
 75
     0
 76
     1
 98
        0
  0
LINE
  5
195
102
{ACAD_REACTORS
330
192
102
}
100
AcDbEntity
  8
BUILDING_ENVELOPE
  6
CONTINUOUS
 62
     7
100
AcDbLine
 10
139.836896
 20
6.34
 30
0.0
 11
169.589089
 21
6.34
 31
0.0
  0
LINE
  5
196
102
{ACAD_REACTORS
330
192
102
}
100
AcDbEntity
  8
BUILDING_ENVELOPE
  6
CONTINUOUS
 62
     7
100
AcDbLine
 10
139.503563
 20
6.006667
 30
0.0
 11
169.922422
 21
6.006667
 31
0.0
  0
LWPOLYLINE
  5
198
102
{ACAD_REACTORS
330
199
102
}
100
AcDbEntity
  8
BUILDING_ENVELOPE
  6
CONTINUOUS
 62
     7
100
AcDbPolyline
 90
        4
 70
     1
 10
169.922422
 20
76.34
 10
169.922422
 20
6.006667
 10
169.589089
 20
6.34
 10
169.589089
 20
76.006667
  0
HATCH
  5
199
102
{ACAD_REACTORS
330
197
102
}
100
AcDbEntity
  8
BUILDING_ENVELOPE
 62
   253
100
AcDbHatch
 10
0.0
 20
0.0
 30
0.0
210
0.0
220
0.0
230
1.0
  2
SOLID
 70
     1
 71
     1
 91
        1
 92
        3
 72
     0
 73
     1
 93
        4
 10
169.92242222222222
 20
76.339999999999989
 10
169.92242222222222
 20
6.0066666666666606
 10
169.58908888888891
 20
6.3399999999999936
 10
169.58908888888891
 20
76.006666666666661
 97
        1
330
198
 75
     0
 76
     1
 98
        0
  0
LINE
  5
19A
102
{ACAD_REACTORS
330
197
102
}
100
AcDbEntity
  8
BUILDING_ENVELOPE
  6
CONTINUOUS
 62
     7
100
AcDbLine
 10
169.922422
 20
76.34
 30
0.0
 11
169.922422
 21
6.006667
 31
0.0
  0
LINE
  5
19B
102
{ACAD_REACTORS
330
197
102
}
100
AcDbEntity
  8
BUILDING_ENVELOPE
  6
CONTINUOUS
 62
     7
100
AcDbLine
 10
169.589089
 20
76.006667
 30
0.0
 11
169.589089
 21
6.34
 31
0.0
  0
LWPOLYLINE
  5
19D
102
{ACAD_REACTORS
330
19E
102
}
100
AcDbEntity
  8
BUILDING_ENVELOPE
  6
CONTINUOUS
 62
     7
100
AcDbPolyline
 90
        5
 70
     1
 10
83.589089
 20
76.34
 10
141.589089
 20
76.34
 10
141.589089
 20
76.006667
 10
83.589089
 20
76.006667
 10
83.589089
 20
76.173333
  0
HATCH
  5
19E
102
{ACAD_REACTORS
330
19C
102
}
100
AcDbEntity
  8
BUILDING_ENVELOPE
 62
   253
100
AcDbHatch
 10
0.0
 20
0.0
 30
0.0
210
0.0
220
0.0
230
1.0
  2
SOLID
 70
     1
 71
     1
 91
        1
 92
        3
 72
     0
 73
     1
 93
        5
 10
83.589088888888909
 20
76.340000000000003
 10
141.58908888888891
 20
76.340000000000003
 10
141.58908888888891
 20
76.006666666666661
 10
83.589088888888909
 20
76.006666666666661
 10
83.589088888888909
 20
76.173333333333332
 97
        1
330
19D
 75
     0
 76
     1
 98
        0
  0
LWPOLYLINE
  5
19F
102
{ACAD_REACTORS
330
19C
102
}
100
AcDbEntity
  8
BUILDING_ENVELOPE
  6
CONTINUOUS
 62
     7
100
AcDbPolyline
 90
        3
 70
     0
 10
83.589089
 20
76.173333
 10
83.589089
 20
76.34
 10
141.589089
 20
76.34
  0
LWPOLYLINE
  5
1A0
102
{ACAD_REACTORS
330
19C
102
}
100
AcDbEntity
  8
BUILDING_ENVELOPE
  6
CONTINUOUS
 62
     7
100
AcDbPolyline
 90
        3
 70
     0
 10
83.589089
 20
76.173333
 10
83.589089
 20
76.006667
 10
141.589089
 20
76.006667
  0
LWPOLYLINE
  5
1A2
102
{ACAD_REACTORS
330
1A3
102
}
100
AcDbEntity
  8
BUILDING_ENVELOPE
  6
CONTINUOUS
 62
     7
100
AcDbPolyline
 90
        6
 70
     1
 10
127.589089
 20
76.84
 10
141.589089
 20
76.84
 10
141.589089
 20
76.59
 10
141.589089
 20
76.34
 10
127.589089
 20
76.34
 10
127.589089
 20
76.59
  0
HATCH
  5
1A3
102
{ACAD_REACTORS
330
1A1
102
}
100
AcDbEntity
  8
BUILDING_ENVELOPE
 62
   253
100
AcDbHatch
 10
0.0
 20
0.0
 30
0.0
210
0.0
220
0.0
230
1.0
  2
SOLID
 70
     1
 71
     1
 91
        1
 92
        3
 72
     0
 73
     1
 93
        6
 10
127.58908888888891
 20
76.840000000000003
 10
141.58908888888891
 20
76.840000000000003
 10
141.58908888888891
 20
76.590000000000003
 10
141.58908888888891
 20
76.340000000000003
 10
127.58908888888891
 20
76.340000000000003
 10
127.58908888888891
 20
76.590000000000003
 97
        1
330
1A2
 75
     0
 76
     1
 98
        0
  0
LWPOLYLINE
  5
1A4
102
{ACAD_REACTORS
330
1A1
102
}
100
AcDbEntity
  8
BUILDING_ENVELOPE
  6
CONTINUOUS
 62
     7
100
AcDbPolyline
 90
        4
 70
     0
 10
127.589089
 20
76.59
 10
127.589089
 20
76.84
 10
141.589089
 20
76.84
 10
141.589089
 20
76.59
  0
LWPOLYLINE
  5
1A5
102
{ACAD_REACTORS
330
1A1
102
}
100
AcDbEntity
  8
BUILDING_ENVELOPE
  6
CONTINUOUS
 62
     7
100
AcDbPolyline
 90
        4
 70
     0
 10
127.589089
 20
76.59
 10
127.589089
 20
76.34
 10
141.589089
 20
76.34
 10
141.589089
 20
76.59
  0
LWPOLYLINE
  5
1A7
102
{ACAD_REACTORS
330
1A8
102
}
100
AcDbEntity
  8
BUILDING_ENVELOPE
  6
CONTINUOUS
 62
     7
100
AcDbPolyline
 90
        4
 70
     1
 10
141.589089
 20
76.34
 10
169.922422
 20
76.34
 10
169.589089
 20
76.006667
 10
141.589089
 20
76.006667
  0
HATCH
  5
1A8
102
{ACAD_REACTORS
330
1A6
102
}
100
AcDbEntity
  8
BUILDING_ENVELOPE
 62
   253
100
AcDbHatch
 10
0.0
 20
0.0
 30
0.0
210
0.0
220
0.0
230
1.0
  2
SOLID
 70
     1
 71
     1
 91
        1
 92
        3
 72
     0
 73
     1
 93
        4
 10
141.58908888888891
 20
76.340000000000003
 10
169.92242222222222
 20
76.340000000000003
 10
169.58908888888891
 20
76.006666666666661
 10
141.58908888888891
 20
76.006666666666661
 97
        1
330
1A7
 75
     0
 76
     1
 98
        0
  0
LINE
  5
1A9
102
{ACAD_REACTORS
330
1A6
102
}
100
AcDbEntity
  8
BUILDING_ENVELOPE
  6
CONTINUOUS
 62
     7
100
AcDbLine
 10
141.589089
 20
76.34
 30
0.0
 11
169.922422
 21
76.34
 31
0.0
  0
LINE
  5
1AA
102
{ACAD_REACTORS
330
1A6
102
}
100
AcDbEntity
  8
BUILDING_ENVELOPE
  6
CONTINUOUS
 62
     7
100
AcDbLine
 10
141.589089
 20
76.006667
 30
0.0
 11
169.589089
 21
76.006667
 31
0.0
  0
LWPOLYLINE
  5
1AC
102
{ACAD_REACTORS
330
1AB
102
}
100
AcDbEntity
  8
BUILDING_ENVELOPE
  6
CONTINUOUS
 62
     7
100
AcDbPolyline
 90
        4
 70
     1
 10
169.930422
 20
50.465
 10
169.930422
 20
71.006667
 10
169.581089
 20
71.006667
 10
169.581089
 20
50.465
  0
LINE
  5
1AD
102
{ACAD_REACTORS
330
1AB
102
}
100
AcDbEntity
  8
BUILDING_ENVELOPE
  6
CONTINUOUS
 62
     7
100
AcDbLine
 10
169.922422
 20
50.465
 30
0.0
 11
169.589089
 21
50.465
 31
0.0
  0
LINE
  5
1AE
102
{ACAD_REACTORS
330
1AB
102
}
100
AcDbEntity
  8
BUILDING_ENVELOPE
  6
CONTINUOUS
 62
     7
100
AcDbLine
 10
169.589089
 20
50.465
 30
0.0
 11
169.589089
 21
50.631667
 31
0.0
  0
LINE
  5
1AF
102
{ACAD_REACTORS
330
1AB
102
}
100
AcDbEntity
  8
BUILDING_ENVELOPE
  6
CONTINUOUS
 62
     7
100
AcDbLine
 10
169.589089
 20
50.631667
 30
0.0
 11
169.672422
 21
50.631667
 31
0.0
  0
LINE
  5
1B0
102
{ACAD_REACTORS
330
1AB
102
}
100
AcDbEntity
  8
BUILDING_ENVELOPE
  6
CONTINUOUS
 62
     7
100
AcDbLine
 10
169.839089
 20
50.631667
 30
0.0
 11
169.922422
 21
50.631667
 31
0.0
  0
LINE
  5
1B1
102
{ACAD_REACTORS
330
1AB
102
}
100
AcDbEntity
  8
BUILDING_ENVELOPE
  6
CONTINUOUS
 62
     7
100
AcDbLine
 10
169.922422
 20
50.631667
 30
0.0
 11
169.922422
 21
50.465
 31
0.0
  0
LINE
  5
1B2
102
{ACAD_REACTORS
330
1AB
102
}
100
AcDbEntity
  8
BUILDING_ENVELOPE
  6
CONTINUOUS
 62
     7
100
AcDbLine
 10
169.922422
 20
71.006667
 30
0.0
 11
169.589089
 21
71.006667
 31
0.0
  0
LINE
  5
1B3
102
{ACAD_REACTORS
330
1AB
102
}
100
AcDbEntity
  8
BUILDING_ENVELOPE
  6
CONTINUOUS
 62
     7
100
AcDbLine
 10
169.589089
 20
71.006667
 30
0.0
 11
169.589089
 21
70.84
 31
0.0
  0
LINE
  5
1B4
102
{ACAD_REACTORS
330
1AB
102
}
100
AcDbEntity
  8
BUILDING_ENVELOPE
  6
CONTINUOUS
 62
     7
100
AcDbLine
 10
169.589089
 20
70.84
 30
0.0
 11
169.672422
 21
70.84
 31
0.0
  0
LINE
  5
1B5
102
{ACAD_REACTORS
330
1AB
102
}
100
AcDbEntity
  8
BUILDING_ENVELOPE
  6
CONTINUOUS
 62
     7
100
AcDbLine
 10
169.839089
 20
70.84
 30
0.0
 11
169.922422
 21
70.84
 31
0.0
  0
LINE
  5
1B6
102
{ACAD_REACTORS
330
1AB
102
}
100
AcDbEntity
  8
BUILDING_ENVELOPE
  6
CONTINUOUS
 62
     7
100
AcDbLine
 10
169.922422
 20
70.84
 30
0.0
 11
169.922422
 21
71.006667
 31
0.0
  0
LWPOLYLINE
  5
1B7
102
{ACAD_REACTORS
330
1AB
102
}
100
AcDbEntity
  8
BUILDING_ENVELOPE
  6
CONTINUOUS
 62
     7
100
AcDbPolyline
 90
        4
 70
     1
 10
169.672422
 20
50.631667
 10
169.672422
 20
50.798333
 10
169.839089
 20
50.798333
 10
169.839089
 20
50.631667
  0
LWPOLYLINE
  5
1B8
102
{ACAD_REACTORS
330
1AB
102
}
100
AcDbEntity
  8
BUILDING_ENVELOPE
  6
CONTINUOUS
 62
     7
100
AcDbPolyline
 90
        4
 70
     1
 10
169.672422
 20
70.84
 10
169.672422
 20
70.673333
 10
169.839089
 20
70.673333
 10
169.839089
 20
70.84
  0
LINE
  5
1B9
102
{ACAD_REACTORS
330
1AB
102
}
100
AcDbEntity
  8
BUILDING_ENVELOPE
  6
CONTINUOUS
 62
     7
100
AcDbLine
 10
169.755756
 20
50.798333
 30
0.0
 11
169.755756
 21
70.673333
 31
0.0
  0
LINE
  5
1BA
102
{ACAD_REACTORS
330
1AB
102
}
100
AcDbEntity
  8
BUILDING_ENVELOPE
  6
CONTINUOUS
 62
     7
100
AcDbLine
 10
169.922422
 20
50.465
 30
0.0
 11
169.589089
 21
50.465
 31
0.0
  0
LINE
  5
1BB
102
{ACAD_REACTORS
330
1AB
102
}
100
AcDbEntity
  8
BUILDING_ENVELOPE
  6
CONTINUOUS
 62
     7
100
AcDbLine
 10
169.922422
 20
71.006667
 30
0.0
 11
169.589089
 21
71.006667
 31
0.0
  0
LWPOLYLINE
  5
1BD
102
{ACAD_REACTORS
330
1BC
102
}
100
AcDbEntity
  8
BUILDING_ENVELOPE
  6
CONTINUOUS
 62
     7
100
AcDbPolyline
 90
        4
 70
     1
 10
83.930422
 20
68.006667
 10
83.930422
 20
72.006667
 10
83.581089
 20
72.006667
 10
83.581089
 20
68.006667
  0
LINE
  5
1BE
102
{ACAD_REACTORS
330
1BC
102
}
100
AcDbEntity
  8
BUILDING_ENVELOPE
  6
CONTINUOUS
 62
     7
100
AcDbLine
 10
83.922422
 20
68.006667
 30
0.0
 11
83.589089
 21
68.006667
 31
0.0
  0
LINE
  5
1BF
102
{ACAD_REACTORS
330
1BC
102
}
100
AcDbEntity
  8
BUILDING_ENVELOPE
  6
CONTINUOUS
 62
     7
100
AcDbLine
 10
83.589089
 20
68.006667
 30
0.0
 11
83.589089
 21
68.173333
 31
0.0
  0
LINE
  5
1C0
102
{ACAD_REACTORS
330
1BC
102
}
100
AcDbEntity
  8
BUILDING_ENVELOPE
  6
CONTINUOUS
 62
     7
100
AcDbLine
 10
83.589089
 20
68.173333
 30
0.0
 11
83.672422
 21
68.173333
 31
0.0
  0
LINE
  5
1C1
102
{ACAD_REACTORS
330
1BC
102
}
100
AcDbEntity
  8
BUILDING_ENVELOPE
  6
CONTINUOUS
 62
     7
100
AcDbLine
 10
83.839089
 20
68.173333
 30
0.0
 11
83.922422
 21
68.173333
 31
0.0
  0
LINE
  5
1C2
102
{ACAD_REACTORS
330
1BC
102
}
100
AcDbEntity
  8
BUILDING_ENVELOPE
  6
CONTINUOUS
 62
     7
100
AcDbLine
 10
83.922422
 20
68.173333
 30
0.0
 11
83.922422
 21
68.006667
 31
0.0
  0
LINE
  5
1C3
102
{ACAD_REACTORS
330
1BC
102
}
100
AcDbEntity
  8
BUILDING_ENVELOPE
  6
CONTINUOUS
 62
     7
100
AcDbLine
 10
83.922422
 20
72.006667
 30
0.0
 11
83.589089
 21
72.006667
 31
0.0
  0
LINE
  5
1C4
102
{ACAD_REACTORS
330
1BC
102
}
100
AcDbEntity
  8
BUILDING_ENVELOPE
  6
CONTINUOUS
 62
     7
100
AcDbLine
 10
83.589089
 20
72.006667
 30
0.0
 11
83.589089
 21
71.84
 31
0.0
  0
LINE
  5
1C5
102
{ACAD_REACTORS
330
1BC
102
}
100
AcDbEntity
  8
BUILDING_ENVELOPE
  6
CONTINUOUS
 62
     7
100
AcDbLine
 10
83.589089
 20
71.84
 30
0.0
 11
83.672422
 21
71.84
 31
0.0
  0
LINE
  5
1C6
102
{ACAD_REACTORS
330
1BC
102
}
100
AcDbEntity
  8
BUILDING_ENVELOPE
  6
CONTINUOUS
 62
     7
100
AcDbLine
 10
83.839089
 20
71.84
 30
0.0
 11
83.922422
 21
71.84
 31
0.0
  0
LINE
  5
1C7
102
{ACAD_REACTORS
330
1BC
102
}
100
AcDbEntity
  8
BUILDING_ENVELOPE
  6
CONTINUOUS
 62
     7
100
AcDbLine
 10
83.922422
 20
71.84
 30
0.0
 11
83.922422
 21
72.006667
 31
0.0
  0
LWPOLYLINE
  5
1C8
102
{ACAD_REACTORS
330
1BC
102
}
100
AcDbEntity
  8
BUILDING_ENVELOPE
  6
CONTINUOUS
 62
     7
100
AcDbPolyline
 90
        4
 70
     1
 10
83.672422
 20
68.173333
 10
83.672422
 20
68.34
 10
83.839089
 20
68.34
 10
83.839089
 20
68.173333
  0
LWPOLYLINE
  5
1C9
102
{ACAD_REACTORS
330
1BC
102
}
100
AcDbEntity
  8
BUILDING_ENVELOPE
  6
CONTINUOUS
 62
     7
100
AcDbPolyline
 90
        4
 70
     1
 10
83.672422
 20
71.84
 10
83.672422
 20
71.673333
 10
83.839089
 20
71.673333
 10
83.839089
 20
71.84
  0
LINE
  5
1CA
102
{ACAD_REACTORS
330
1BC
102
}
100
AcDbEntity
  8
BUILDING_ENVELOPE
  6
CONTINUOUS
 62
     7
100
AcDbLine
 10
83.755756
 20
68.34
 30
0.0
 11
83.755756
 21
71.673333
 31
0.0
  0
LINE
  5
1CB
102
{ACAD_REACTORS
330
1BC
102
}
100
AcDbEntity
  8
BUILDING_ENVELOPE
  6
CONTINUOUS
 62
     7
100
AcDbLine
 10
83.922422
 20
68.006667
 30
0.0
 11
83.589089
 21
68.006667
 31
0.0
  0
LINE
  5
1CC
102
{ACAD_REACTORS
330
1BC
102
}
100
AcDbEntity
  8
BUILDING_ENVELOPE
  6
CONTINUOUS
 62
     7
100
AcDbLine
 10
83.922422
 20
72.006667
 30
0.0
 11
83.589089
 21
72.006667
 31
0.0
  0
LWPOLYLINE
  5
1CE
102
{ACAD_REACTORS
330
1CD
102
}
100
AcDbEntity
  8
BUILDING_ENVELOPE
  6
CONTINUOUS
 62
     7
100
AcDbPolyline
 90
        4
 70
     1
 10
163.755756
 20
5.998667
 10
158.695149
 20
5.998667
 10
158.695149
 20
6.348
 10
163.755756
 20
6.348
  0
LINE
  5
1CF
102
{ACAD_REACTORS
330
1CD
102
}
100
AcDbEntity
  8
BUILDING_ENVELOPE
  6
CONTINUOUS
 62
     7
100
AcDbLine
 10
158.695149
 20
6.006667
 30
0.0
 11
158.695149
 21
6.34
 31
0.0
  0
LINE
  5
1D0
102
{ACAD_REACTORS
330
1CD
102
}
100
AcDbEntity
  8
BUILDING_ENVELOPE
  6
CONTINUOUS
 62
     7
100
AcDbLine
 10
158.695149
 20
6.34
 30
0.0
 11
158.861816
 21
6.34
 31
0.0
  0
LINE
  5
1D1
102
{ACAD_REACTORS
330
1CD
102
}
100
AcDbEntity
  8
BUILDING_ENVELOPE
  6
CONTINUOUS
 62
     7
100
AcDbLine
 10
158.861816
 20
6.34
 30
0.0
 11
158.861816
 21
6.215
 31
0.0
  0
LINE
  5
1D2
102
{ACAD_REACTORS
330
1CD
102
}
100
AcDbEntity
  8
BUILDING_ENVELOPE
  6
CONTINUOUS
 62
     7
100
AcDbLine
 10
158.861816
 20
6.09
 30
0.0
 11
158.861816
 21
6.006667
 31
0.0
  0
LINE
  5
1D3
102
{ACAD_REACTORS
330
1CD
102
}
100
AcDbEntity
  8
BUILDING_ENVELOPE
  6
CONTINUOUS
 62
     7
100
AcDbLine
 10
158.861816
 20
6.006667
 30
0.0
 11
158.695149
 21
6.006667
 31
0.0
  0
LINE
  5
1D4
102
{ACAD_REACTORS
330
1CD
102
}
100
AcDbEntity
  8
BUILDING_ENVELOPE
  6
CONTINUOUS
 62
     7
100
AcDbLine
 10
163.755756
 20
6.006667
 30
0.0
 11
163.755756
 21
6.34
 31
0.0
  0
LINE
  5
1D5
102
{ACAD_REACTORS
330
1CD
102
}
100
AcDbEntity
  8
BUILDING_ENVELOPE
  6
CONTINUOUS
 62
     7
100
AcDbLine
 10
163.755756
 20
6.34
 30
0.0
 11
163.589089
 21
6.34
 31
0.0
  0
LINE
  5
1D6
102
{ACAD_REACTORS
330
1CD
102
}
100
AcDbEntity
  8
BUILDING_ENVELOPE
  6
CONTINUOUS
 62
     7
100
AcDbLine
 10
163.589089
 20
6.34
 30
0.0
 11
163.589089
 21
6.215
 31
0.0
  0
LINE
  5
1D7
102
{ACAD_REACTORS
330
1CD
102
}
100
AcDbEntity
  8
BUILDING_ENVELOPE
  6
CONTINUOUS
 62
     7
100
AcDbLine
 10
163.589089
 20
6.09
 30
0.0
 11
163.589089
 21
6.006667
 31
0.0
  0
LINE
  5
1D8
102
{ACAD_REACTORS
330
1CD
102
}
100
AcDbEntity
  8
BUILDING_ENVELOPE
  6
CONTINUOUS
 62
     7
100
AcDbLine
 10
163.589089
 20
6.006667
 30
0.0
 11
163.755756
 21
6.006667
 31
0.0
  0
LINE
  5
1D9
102
{ACAD_REACTORS
330
1CD
102
}
100
AcDbEntity
  8
BUILDING_ENVELOPE
  6
CONTINUOUS
 62
     7
100
AcDbLine
 10
158.861816
 20
6.215
 30
0.0
 11
158.903483
 21
6.215
 31
0.0
  0
LINE
  5
1DA
102
{ACAD_REACTORS
330
1CD
102
}
100
AcDbEntity
  8
BUILDING_ENVELOPE
  6
CONTINUOUS
 62
     7
100
AcDbLine
 10
158.903483
 20
6.215
 30
0.0
 11
158.903483
 21
6.09
 31
0.0
  0
LINE
  5
1DB
102
{ACAD_REACTORS
330
1CD
102
}
100
AcDbEntity
  8
BUILDING_ENVELOPE
  6
CONTINUOUS
 62
     7
100
AcDbLine
 10
158.903483
 20
6.09
 30
0.0
 11
158.861816
 21
6.09
 31
0.0
  0
LINE
  5
1DC
102
{ACAD_REACTORS
330
1CD
102
}
100
AcDbEntity
  8
BUILDING_ENVELOPE
  6
CONTINUOUS
 62
     7
100
AcDbLine
 10
163.589089
 20
6.215
 30
0.0
 11
163.547422
 21
6.215
 31
0.0
  0
LINE
  5
1DD
102
{ACAD_REACTORS
330
1CD
102
}
100
AcDbEntity
  8
BUILDING_ENVELOPE
  6
CONTINUOUS
 62
     7
100
AcDbLine
 10
163.547422
 20
6.215
 30
0.0
 11
163.547422
 21
6.09
 31
0.0
  0
LINE
  5
1DE
102
{ACAD_REACTORS
330
1CD
102
}
100
AcDbEntity
  8
BUILDING_ENVELOPE
  6
CONTINUOUS
 62
     7
100
AcDbLine
 10
163.547422
 20
6.09
 30
0.0
 11
163.589089
 21
6.09
 31
0.0
  0
LINE
  5
1DF
102
{ACAD_REACTORS
330
1CD
102
}
100
AcDbEntity
  8
BUILDING_ENVELOPE
  6
CONTINUOUS
 62
     7
100
AcDbLine
 10
158.695149
 20
6.006667
 30
0.0
 11
158.695149
 21
6.34
 31
0.0
  0
LINE
  5
1E0
102
{ACAD_REACTORS
330
1CD
102
}
100
AcDbEntity
  8
BUILDING_ENVELOPE
  6
CONTINUOUS
 62
     7
100
AcDbLine
 10
163.755756
 20
6.006667
 30
0.0
 11
163.755756
 21
6.34
 31
0.0
  0
ARC
  5
1E1
102
{ACAD_REACTORS
330
1CD
102
}
100
AcDbEntity
  8
BUILDING_ENVELOPE
  6
CONTINUOUS
 62
     7
100
AcDbCircle
 10
158.861816
 20
6.34
 30
0.0
 40
4.727273
100
AcDbArc
 50
0.0
 51
76.358975
  0
LWPOLYLINE
  5
1E2
102
{ACAD_REACTORS
330
1CD
102
}
100
AcDbEntity
  8
BUILDING_ENVELOPE
  6
CONTINUOUS
 62
     7
100
AcDbPolyline
 90
        4
 70
     1
 10
160.098161
 20
10.904448
 10
158.98329
 20
6.31052
 10
158.861816
 20
6.34
 10
159.976687
 20
10.933928
  0
LWPOLYLINE
  5
1E4
102
{ACAD_REACTORS
330
1E3
102
}
100
AcDbEntity
  8
BUILDING_ENVELOPE
  6
CONTINUOUS
 62
     7
100
AcDbPolyline
 90
        4
 70
     1
 10
155.755756
 20
6.348
 10
143.422422
 20
6.348
 10
143.422422
 20
5.998667
 10
155.755756
 20
5.998667
  0
LINE
  5
1E5
102
{ACAD_REACTORS
330
1E3
102
}
100
AcDbEntity
  8
BUILDING_ENVELOPE
  6
CONTINUOUS
 62
     7
100
AcDbLine
 10
143.422422
 20
6.34
 30
0.0
 11
143.422422
 21
6.006667
 31
0.0
  0
LINE
  5
1E6
102
{ACAD_REACTORS
330
1E3
102
}
100
AcDbEntity
  8
BUILDING_ENVELOPE
  6
CONTINUOUS
 62
     7
100
AcDbLine
 10
143.422422
 20
6.006667
 30
0.0
 11
143.589089
 21
6.006667
 31
0.0
  0
LINE
  5
1E7
102
{ACAD_REACTORS
330
1E3
102
}
100
AcDbEntity
  8
BUILDING_ENVELOPE
  6
CONTINUOUS
 62
     7
100
AcDbLine
 10
143.589089
 20
6.006667
 30
0.0
 11
143.589089
 21
6.131667
 31
0.0
  0
LINE
  5
1E8
102
{ACAD_REACTORS
330
1E3
102
}
100
AcDbEntity
  8
BUILDING_ENVELOPE
  6
CONTINUOUS
 62
     7
100
AcDbLine
 10
143.589089
 20
6.256667
 30
0.0
 11
143.589089
 21
6.34
 31
0.0
  0
LINE
  5
1E9
102
{ACAD_REACTORS
330
1E3
102
}
100
AcDbEntity
  8
BUILDING_ENVELOPE
  6
CONTINUOUS
 62
     7
100
AcDbLine
 10
143.589089
 20
6.34
 30
0.0
 11
143.422422
 21
6.34
 31
0.0
  0
LINE
  5
1EA
102
{ACAD_REACTORS
330
1E3
102
}
100
AcDbEntity
  8
BUILDING_ENVELOPE
  6
CONTINUOUS
 62
     7
100
AcDbLine
 10
155.755756
 20
6.34
 30
0.0
 11
155.755756
 21
6.006667
 31
0.0
  0
LINE
  5
1EB
102
{ACAD_REACTORS
330
1E3
102
}
100
AcDbEntity
  8
BUILDING_ENVELOPE
  6
CONTINUOUS
 62
     7
100
AcDbLine
 10
155.755756
 20
6.006667
 30
0.0
 11
155.589089
 21
6.006667
 31
0.0
  0
LINE
  5
1EC
102
{ACAD_REACTORS
330
1E3
102
}
100
AcDbEntity
  8
BUILDING_ENVELOPE
  6
CONTINUOUS
 62
     7
100
AcDbLine
 10
155.589089
 20
6.006667
 30
0.0
 11
155.589089
 21
6.131667
 31
0.0
  0
LINE
  5
1ED
102
{ACAD_REACTORS
330
1E3
102
}
100
AcDbEntity
  8
BUILDING_ENVELOPE
  6
CONTINUOUS
 62
     7
100
AcDbLine
 10
155.589089
 20
6.256667
 30
0.0
 11
155.589089
 21
6.34
 31
0.0
  0
LINE
  5
1EE
102
{ACAD_REACTORS
330
1E3
102
}
100
AcDbEntity
  8
BUILDING_ENVELOPE
  6
CONTINUOUS
 62
     7
100
AcDbLine
 10
155.589089
 20
6.34
 30
0.0
 11
155.755756
 21
6.34
 31
0.0
  0
LINE
  5
1EF
102
{ACAD_REACTORS
330
1E3
102
}
100
AcDbEntity
  8
BUILDING_ENVELOPE
  6
CONTINUOUS
 62
     7
100
AcDbLine
 10
143.589089
 20
6.131667
 30
0.0
 11
143.630756
 21
6.131667
 31
0.0
  0
LINE
  5
1F0
102
{ACAD_REACTORS
330
1E3
102
}
100
AcDbEntity
  8
BUILDING_ENVELOPE
  6
CONTINUOUS
 62
     7
100
AcDbLine
 10
143.630756
 20
6.131667
 30
0.0
 11
143.630756
 21
6.256667
 31
0.0
  0
LINE
  5
1F1
102
{ACAD_REACTORS
330
1E3
102
}
100
AcDbEntity
  8
BUILDING_ENVELOPE
  6
CONTINUOUS
 62
     7
100
AcDbLine
 10
143.630756
 20
6.256667
 30
0.0
 11
143.589089
 21
6.256667
 31
0.0
  0
LINE
  5
1F2
102
{ACAD_REACTORS
330
1E3
102
}
100
AcDbEntity
  8
BUILDING_ENVELOPE
  6
CONTINUOUS
 62
     7
100
AcDbLine
 10
155.589089
 20
6.131667
 30
0.0
 11
155.547422
 21
6.131667
 31
0.0
  0
LINE
  5
1F3
102
{ACAD_REACTORS
330
1E3
102
}
100
AcDbEntity
  8
BUILDING_ENVELOPE
  6
CONTINUOUS
 62
     7
100
AcDbLine
 10
155.547422
 20
6.131667
 30
0.0
 11
155.547422
 21
6.256667
 31
0.0
  0
LINE
  5
1F4
102
{ACAD_REACTORS
330
1E3
102
}
100
AcDbEntity
  8
BUILDING_ENVELOPE
  6
CONTINUOUS
 62
     7
100
AcDbLine
 10
155.547422
 20
6.256667
 30
0.0
 11
155.589089
 21
6.256667
 31
0.0
  0
LINE
  5
1F5
102
{ACAD_REACTORS
330
1E3
102
}
100
AcDbEntity
  8
BUILDING_ENVELOPE
  6
CONTINUOUS
 62
     7
100
AcDbLine
 10
143.422422
 20
6.34
 30
0.0
 11
143.422422
 21
6.006667
 31
0.0
  0
LINE
  5
1F6
102
{ACAD_REACTORS
330
1E3
102
}
100
AcDbEntity
  8
BUILDING_ENVELOPE
  6
CONTINUOUS
 62
     7
100
AcDbLine
 10
155.755756
 20
6.34
 30
0.0
 11
155.755756
 21
6.006667
 31
0.0
  0
ARC
  5
1F7
102
{ACAD_REACTORS
330
1E3
102
}
100
AcDbEntity
  8
BUILDING_ENVELOPE
  6
CONTINUOUS
 62
     7
100
AcDbCircle
 10
155.589089
 20
6.006667
 30
0.0
 40
6.0
100
AcDbArc
 50
180.0
 51
270.0
  0
ARC
  5
1F8
102
{ACAD_REACTORS
330
1E3
102
}
100
AcDbEntity
  8
BUILDING_ENVELOPE
  6
CONTINUOUS
 62
     7
100
AcDbCircle
 10
143.589089
 20
6.006667
 30
0.0
 40
6.0
100
AcDbArc
 50
270.0
 51
0.0
  0
LWPOLYLINE
  5
1F9
102
{ACAD_REACTORS
330
1E3
102
}
100
AcDbEntity
  8
BUILDING_ENVELOPE
  6
CONTINUOUS
 62
     7
100
AcDbPolyline
 90
        4
 70
     1
 10
155.589089
 20
0.006667
 10
155.589089
 20
6.006667
 10
155.464089
 20
6.006667
 10
155.464089
 20
0.006667
  0
LWPOLYLINE
  5
1FA
102
{ACAD_REACTORS
330
1E3
102
}
100
AcDbEntity
  8
BUILDING_ENVELOPE
  6
CONTINUOUS
 62
     7
100
AcDbPolyline
 90
        4
 70
     1
 10
143.714089
 20
0.006667
 10
143.714089
 20
6.006667
 10
143.589089
 20
6.006667
 10
143.589089
 20
0.006667
  0
ENDSEC
  0
SECTION
  2
OBJECTS
  0
DICTIONARY
  5
C
100
AcDbDictionary
  3
ACAD_GROUP
350
D
  3
ACAD_MLINESTYLE
350
1B
  0
DICTIONARY
  5
D
102
{ACAD_REACTORS
330
C
102
}
100
AcDbDictionary
  3
VISIOGROUP_0
350
31
  3
VISIOGROUP_1
350
43
  3
VISIOGROUP_2
350
48
  3
VISIOGROUP_3
350
4D
  3
VISIOGROUP_4
350
52
  3
VISIOGROUP_5
350
59
  3
VISIOGROUP_6
350
5E
  3
VISIOGROUP_7
350
65
  3
VISIOGROUP_8
350
7B
  3
VISIOGROUP_9
350
8C
  3
VISIOGROUP_10
350
A2
  3
VISIOGROUP_11
350
A9
  3
VISIOGROUP_12
350
BA
  3
VISIOGROUP_13
350
CB
  3
VISIOGROUP_14
350
DC
  3
VISIOGROUP_15
350
E3
  3
VISIOGROUP_16
350
F4
  3
VISIOGROUP_17
350
FB
  3
VISIOGROUP_18
350
111
  3
VISIOGROUP_19
350
127
  3
VISIOGROUP_20
350
13D
  3
VISIOGROUP_21
350
14E
  3
VISIOGROUP_22
350
15F
  3
VISIOGROUP_23
350
175
  3
VISIOGROUP_24
350
18B
  3
VISIOGROUP_25
350
192
  3
VISIOGROUP_26
350
197
  3
VISIOGROUP_27
350
19C
  3
VISIOGROUP_28
350
1A1
  3
VISIOGROUP_29
350
1A6
  3
VISIOGROUP_30
350
1AB
  3
VISIOGROUP_31
350
1BC
  3
VISIOGROUP_32
350
1CD
  3
VISIOGROUP_33
350
1E3
  0
DICTIONARY
  5
1B
102
{ACAD_REACTORS
330
C
102
}
100
AcDbDictionary
  3
STANDARD
350
1C
  0
MLINESTYLE
  5
1C
102
{ACAD_REACTORS
330
1B
102
}
100
AcDbMlineStyle
  2
STANDARD
 70
     0
  3

 62
   256
 51
90.0
 52
90.0
 71
     2
 49
0.5
 62
   256
  6
BYLAYER
 49
-0.5
 62
   256
  6
BYLAYER
  0
DICTIONARY
  5
29
102
{ACAD_REACTORS
330
C
102
}
100
AcDbDictionary
  3
MODEL
350
2A
  3
LAYOUT1
350
2B
  0
DICTIONARY
  5
2C
102
{ACAD_REACTORS
330
C
102
}
100
AcDbDictionary
  0
GROUP
  5
31
102
{ACAD_REACTORS
330
D
102
}
100
AcDbGroup
300
Group created by Visio.
 70
     0
 71
     1
340
33
340
34
340
35
340
36
340
37
340
38
340
39
340
3A
340
3B
340
3C
340
3D
340
3E
340
3F
340
40
340
41
340
42
  0
GROUP
  5
43
102
{ACAD_REACTORS
330
D
102
}
100
AcDbGroup
300
Group created by Visio.
 70
     0
 71
     1
340
44
340
45
340
46
340
47
  0
GROUP
  5
48
102
{ACAD_REACTORS
330
D
102
}
100
AcDbGroup
300
Group created by Visio.
 70
     0
 71
     1
340
49
340
4A
340
4B
340
4C
  0
GROUP
  5
4D
102
{ACAD_REACTORS
330
D
102
}
100
AcDbGroup
300
Group created by Visio.
 70
     0
 71
     1
340
4E
340
4F
340
50
340
51
  0
GROUP
  5
52
102
{ACAD_REACTORS
330
D
102
}
100
AcDbGroup
300
Group created by Visio.
 70
     0
 71
     1
340
53
340
54
340
55
340
56
340
57
340
58
  0
GROUP
  5
59
102
{ACAD_REACTORS
330
D
102
}
100
AcDbGroup
300
Group created by Visio.
 70
     0
 71
     1
340
5A
340
5B
340
5C
340
5D
  0
GROUP
  5
5E
102
{ACAD_REACTORS
330
D
102
}
100
AcDbGroup
300
Group created by Visio.
 70
     0
 71
     1
340
5F
340
60
340
61
340
62
340
63
340
64
  0
GROUP
  5
65
102
{ACAD_REACTORS
330
D
102
}
100
AcDbGroup
300
Group created by Visio.
 70
     0
 71
     1
340
66
340
67
340
68
340
69
340
6A
340
6B
340
6C
340
6D
340
6E
340
6F
340
70
340
71
340
72
340
73
340
74
340
75
340
76
340
77
340
78
340
79
340
7A
  0
GROUP
  5
7B
102
{ACAD_REACTORS
330
D
102
}
100
AcDbGroup
300
Group created by Visio.
 70
     0
 71
     1
340
7C
340
7D
340
7E
340
7F
340
80
340
81
340
82
340
83
340
84
340
85
340
86
340
87
340
88
340
89
340
8A
340
8B
  0
GROUP
  5
8C
102
{ACAD_REACTORS
330
D
102
}
100
AcDbGroup
300
Group created by Visio.
 70
     0
 71
     1
340
8D
340
8E
340
8F
340
90
340
91
340
92
340
93
340
94
340
95
340
96
340
97
340
98
340
99
340
9A
340
9B
340
9C
340
9D
340
9E
340
9F
340
A0
340
A1
  0
GROUP
  5
A2
102
{ACAD_REACTORS
330
D
102
}
100
AcDbGroup
300
Group created by Visio.
 70
     0
 71
     1
340
A3
340
A4
340
A5
340
A6
340
A7
340
A8
  0
GROUP
  5
A9
102
{ACAD_REACTORS
330
D
102
}
100
AcDbGroup
300
Group created by Visio.
 70
     0
 71
     1
340
AA
340
AB
340
AC
340
AD
340
AE
340
AF
340
B0
340
B1
340
B2
340
B3
340
B4
340
B5
340
B6
340
B7
340
B8
340
B9
  0
GROUP
  5
BA
102
{ACAD_REACTORS
330
D
102
}
100
AcDbGroup
300
Group created by Visio.
 70
     0
 71
     1
340
BB
340
BC
340
BD
340
BE
340
BF
340
C0
340
C1
340
C2
340
C3
340
C4
340
C5
340
C6
340
C7
340
C8
340
C9
340
CA
  0
GROUP
  5
CB
102
{ACAD_REACTORS
330
D
102
}
100
AcDbGroup
300
Group created by Visio.
 70
     0
 71
     1
340
CC
340
CD
340
CE
340
CF
340
D0
340
D1
340
D2
340
D3
340
D4
340
D5
340
D6
340
D7
340
D8
340
D9
340
DA
340
DB
  0
GROUP
  5
DC
102
{ACAD_REACTORS
330
D
102
}
100
AcDbGroup
300
Group created by Visio.
 70
     0
 71
     1
340
DD
340
DE
340
DF
340
E0
340
E1
340
E2
  0
GROUP
  5
E3
102
{ACAD_REACTORS
330
D
102
}
100
AcDbGroup
300
Group created by Visio.
 70
     0
 71
     1
340
E4
340
E5
340
E6
340
E7
340
E8
340
E9
340
EA
340
EB
340
EC
340
ED
340
EE
340
EF
340
F0
340
F1
340
F2
340
F3
  0
GROUP
  5
F4
102
{ACAD_REACTORS
330
D
102
}
100
AcDbGroup
300
Group created by Visio.
 70
     0
 71
     1
340
F5
340
F6
340
F7
340
F8
340
F9
340
FA
  0
GROUP
  5
FB
102
{ACAD_REACTORS
330
D
102
}
100
AcDbGroup
300
Group created by Visio.
 70
     0
 71
     1
340
FC
340
FD
340
FE
340
FF
340
100
340
101
340
102
340
103
340
104
340
105
340
106
340
107
340
108
340
109
340
10A
340
10B
340
10C
340
10D
340
10E
340
10F
340
110
  0
GROUP
  5
111
102
{ACAD_REACTORS
330
D
102
}
100
AcDbGroup
300
Group created by Visio.
 70
     0
 71
     1
340
112
340
113
340
114
340
115
340
116
340
117
340
118
340
119
340
11A
340
11B
340
11C
340
11D
340
11E
340
11F
340
120
340
121
340
122
340
123
340
124
340
125
340
126
  0
GROUP
  5
127
102
{ACAD_REACTORS
330
D
102
}
100
AcDbGroup
300
Group created by Visio.
 70
     0
 71
     1
340
128
340
129
340
12A
340
12B
340
12C
340
12D
340
12E
340
12F
340
130
340
131
340
132
340
133
340
134
340
135
340
136
340
137
340
138
340
139
340
13A
340
13B
340
13C
  0
GROUP
  5
13D
102
{ACAD_REACTORS
330
D
102
}
100
AcDbGroup
300
Group created by Visio.
 70
     0
 71
     1
340
13E
340
13F
340
140
340
141
340
142
340
143
340
144
340
145
340
146
340
147
340
148
340
149
340
14A
340
14B
340
14C
340
14D
  0
GROUP
  5
14E
102
{ACAD_REACTORS
330
D
102
}
100
AcDbGroup
300
Group created by Visio.
 70
     0
 71
     1
340
14F
340
150
340
151
340
152
340
153
340
154
340
155
340
156
340
157
340
158
340
159
340
15A
340
15B
340
15C
340
15D
340
15E
  0
GROUP
  5
15F
102
{ACAD_REACTORS
330
D
102
}
100
AcDbGroup
300
Group created by Visio.
 70
     0
 71
     1
340
160
340
161
340
162
340
163
340
164
340
165
340
166
340
167
340
168
340
169
340
16A
340
16B
340
16C
340
16D
340
16E
340
16F
340
170
340
171
340
172
340
173
340
174
  0
GROUP
  5
175
102
{ACAD_REACTORS
330
D
102
}
100
AcDbGroup
300
Group created by Visio.
 70
     0
 71
     1
340
176
340
177
340
178
340
179
340
17A
340
17B
340
17C
340
17D
340
17E
340
17F
340
180
340
181
340
182
340
183
340
184
340
185
340
186
340
187
340
188
340
189
340
18A
  0
GROUP
  5
18B
102
{ACAD_REACTORS
330
D
102
}
100
AcDbGroup
300
Group created by Visio.
 70
     0
 71
     1
340
18C
340
18D
340
18E
340
18F
340
190
340
191
  0
GROUP
  5
192
102
{ACAD_REACTORS
330
D
102
}
100
AcDbGroup
300
Group created by Visio.
 70
     0
 71
     1
340
193
340
194
340
195
340
196
  0
GROUP
  5
197
102
{ACAD_REACTORS
330
D
102
}
100
AcDbGroup
300
Group created by Visio.
 70
     0
 71
     1
340
198
340
199
340
19A
340
19B
  0
GROUP
  5
19C
102
{ACAD_REACTORS
330
D
102
}
100
AcDbGroup
300
Group created by Visio.
 70
     0
 71
     1
340
19D
340
19E
340
19F
340
1A0
  0
GROUP
  5
1A1
102
{ACAD_REACTORS
330
D
102
}
100
AcDbGroup
300
Group created by Visio.
 70
     0
 71
     1
340
1A2
340
1A3
340
1A4
340
1A5
  0
GROUP
  5
1A6
102
{ACAD_REACTORS
330
D
102
}
100
AcDbGroup
300
Group created by Visio.
 70
     0
 71
     1
340
1A7
340
1A8
340
1A9
340
1AA
  0
GROUP
  5
1AB
102
{ACAD_REACTORS
330
D
102
}
100
AcDbGroup
300
Group created by Visio.
 70
     0
 71
     1
340
1AC
340
1AD
340
1AE
340
1AF
340
1B0
340
1B1
340
1B2
340
1B3
340
1B4
340
1B5
340
1B6
340
1B7
340
1B8
340
1B9
340
1BA
340
1BB
  0
GROUP
  5
1BC
102
{ACAD_REACTORS
330
D
102
}
100
AcDbGroup
300
Group created by Visio.
 70
     0
 71
     1
340
1BD
340
1BE
340
1BF
340
1C0
340
1C1
340
1C2
340
1C3
340
1C4
340
1C5
340
1C6
340
1C7
340
1C8
340
1C9
340
1CA
340
1CB
340
1CC
  0
GROUP
  5
1CD
102
{ACAD_REACTORS
330
D
102
}
100
AcDbGroup
300
Group created by Visio.
 70
     0
 71
     1
340
1CE
340
1CF
340
1D0
340
1D1
340
1D2
340
1D3
340
1D4
340
1D5
340
1D6
340
1D7
340
1D8
340
1D9
340
1DA
340
1DB
340
1DC
340
1DD
340
1DE
340
1DF
340
1E0
340
1E1
340
1E2
  0
GROUP
  5
1E3
102
{ACAD_REACTORS
330
D
102
}
100
AcDbGroup
300
Group created by Visio.
 70
     0
 71
     1
340
1E4
340
1E5
340
1E6
340
1E7
340
1E8
340
1E9
340
1EA
340
1EB
340
1EC
340
1ED
340
1EE
340
1EF
340
1F0
340
1F1
340
1F2
340
1F3
340
1F4
340
1F5
340
1F6
340
1F7
340
1F8
340
1F9
340
1FA
  0
ENDSEC
  0
EOF
