  0
SECTION
  2
HEADER
  9
$ACADVER
  1
AC1014
  9
$ACADMAINTVER
 70
     0
  9
$DWGCODEPAGE
  3
ANSI_1252
  9
$INSBASE
 10
0.0
 20
0.0
 30
0.0
  9
$EXTMIN
 10
0.0
 20
0.0
 30
0.0
  9
$EXTMAX
 10
144.0
 20
96.0
 30
0.0
  9
$LIMMIN
 10
0.0
 20
0.0
  9
$LIMMAX
 10
12.0
 20
9.0
  9
$ORTHOMODE
 70
     0
  9
$REGENMODE
 70
     1
  9
$FILLMODE
 70
     0
  9
$QTEXTMODE
 70
     0
  9
$MIRRTEXT
 70
     1
  9
$DRAGMODE
 70
     2
  9
$LTSCALE
 40
1.0
  9
$OSMODE
 70
    37
  9
$ATTMODE
 70
     1
  9
$TEXTSIZE
 40
0.2
  9
$TRACEWID
 40
0.05
  9
$TEXTSTYLE
  7
STANDARD
  9
$CLAYER
  8
0
  9
$CELTYPE
  6
BYLAYER
  9
$CECOLOR
 62
   256
  9
$CELTSCALE
 40
1.0
  9
$DELOBJ
 70
     1
  9
$DISPSILH
 70
     0
  9
$DIMSCALE
 40
1.0
  9
$DIMASZ
 40
0.18
  9
$DIMEXO
 40
0.0625
  9
$DIMDLI
 40
0.38
  9
$DIMRND
 40
0.0
  9
$DIMDLE
 40
0.0
  9
$DIMEXE
 40
0.18
  9
$DIMTP
 40
0.0
  9
$DIMTM
 40
0.0
  9
$DIMTXT
 40
0.18
  9
$DIMCEN
 40
0.09
  9
$DIMTSZ
 40
0.0
  9
$DIMTOL
 70
     0
  9
$DIMLIM
 70
     0
  9
$DIMTIH
 70
     0
  9
$DIMTOH
 70
     0
  9
$DIMSE1
 70
     0
  9
$DIMSE2
 70
     0
  9
$DIMTAD
 70
     1
  9
$DIMZIN
 70
     0
  9
$DIMBLK
  1

  9
$DIMASO
 70
     1
  9
$DIMSHO
 70
     1
  9
$DIMPOST
  1

  9
$DIMAPOST
  1

  9
$DIMALT
 70
     0
  9
$DIMALTD
 70
     2
  9
$DIMALTF
 40
25.4
  9
$DIMLFAC
 40
1.0
  9
$DIMTOFL
 70
     0
  9
$DIMTVP
 40
0.0
  9
$DIMTIX
 70
     0
  9
$DIMSOXD
 70
     0
  9
$DIMSAH
 70
     0
  9
$DIMBLK1
  1

  9
$DIMBLK2
  1

  9
$DIMSTYLE
  2
STANDARD
  9
$DIMCLRD
 70
     0
  9
$DIMCLRE
 70
     0
  9
$DIMCLRT
 70
     0
  9
$DIMTFAC
 40
1.0
  9
$DIMGAP
 40
0.09
  9
$DIMJUST
 70
     0
  9
$DIMSD1
 70
     0
  9
$DIMSD2
 70
     0
  9
$DIMTOLJ
 70
     1
  9
$DIMTZIN
 70
     0
  9
$DIMALTZ
 70
     0
  9
$DIMALTTZ
 70
     0
  9
$DIMFIT
 70
     5
  9
$DIMUPT
 70
     0
  9
$DIMUNIT
 70
     2
  9
$DIMDEC
 70
     2
  9
$DIMTDEC
 70
     4
  9
$DIMALTU
 70
     2
  9
$DIMALTTD
 70
     2
  9
$DIMTXSTY
  7
STANDARD
  9
$DIMAUNIT
 70
     0
  9
$LUNITS
 70
     2
  9
$LUPREC
 70
     4
  9
$SKETCHINC
 40
0.1
  9
$FILLETRAD
 40
0.5
  9
$AUNITS
 70
     0
  9
$AUPREC
 70
     0
  9
$MENU
  1
.
  9
$ELEVATION
 40
0.0
  9
$PELEVATION
 40
0.0
  9
$THICKNESS
 40
0.0
  9
$LIMCHECK
 70
     0
  9
$BLIPMODE
 70
     0
  9
$CHAMFERA
 40
0.5
  9
$CHAMFERB
 40
0.5
  9
$CHAMFERC
 40
1.0
  9
$CHAMFERD
 40
0.0
  9
$SKPOLY
 70
     0
  9
$TDCREATE
 40
2450772.666465926
  9
$TDUPDATE
 40
2458689.703842581
  9
$TDINDWG
 40
0.0011680787
  9
$TDUSRTIMER
 40
0.0011565046
  9
$USRTIMER
 70
     1
  9
$ANGBASE
 50
0.0
  9
$ANGDIR
 70
     0
  9
$PDMODE
 70
     0
  9
$PDSIZE
 40
0.0
  9
$PLINEWID
 40
0.0
  9
$COORDS
 70
     1
  9
$SPLFRAME
 70
     0
  9
$SPLINETYPE
 70
     6
  9
$SPLINESEGS
 70
     8
  9
$ATTDIA
 70
     0
  9
$ATTREQ
 70
     1
  9
$HANDLING
 70
     1
  9
$HANDSEED
  5
A0
  9
$SURFTAB1
 70
     6
  9
$SURFTAB2
 70
     6
  9
$SURFTYPE
 70
     6
  9
$SURFU
 70
     6
  9
$SURFV
 70
     6
  9
$UCSNAME
  2

  9
$UCSORG
 10
0.0
 20
0.0
 30
0.0
  9
$UCSXDIR
 10
1.0
 20
0.0
 30
0.0
  9
$UCSYDIR
 10
0.0
 20
1.0
 30
0.0
  9
$PUCSNAME
  2

  9
$PUCSORG
 10
0.0
 20
0.0
 30
0.0
  9
$PUCSXDIR
 10
1.0
 20
0.0
 30
0.0
  9
$PUCSYDIR
 10
0.0
 20
1.0
 30
0.0
  9
$USERI1
 70
     0
  9
$USERI2
 70
     0
  9
$USERI3
 70
     0
  9
$USERI4
 70
     0
  9
$USERI5
 70
     0
  9
$USERR1
 40
0.0
  9
$USERR2
 40
0.0
  9
$USERR3
 40
0.0
  9
$USERR4
 40
0.0
  9
$USERR5
 40
0.0
  9
$WORLDVIEW
 70
     1
  9
$SHADEDGE
 70
     3
  9
$SHADEDIF
 70
    70
  9
$TILEMODE
 70
     1
  9
$MAXACTVP
 70
    48
  9
$PINSBASE
 10
0.0
 20
0.0
 30
0.0
  9
$PLIMCHECK
 70
     0
  9
$PEXTMIN
 10
0.0
 20
0.0
 30
0.0
  9
$PEXTMAX
 10
0.0
 20
0.0
 30
0.0
  9
$PLIMMIN
 10
0.0
 20
0.0
  9
$PLIMMAX
 10
12.0
 20
9.0
  9
$UNITMODE
 70
     0
  9
$VISRETAIN
 70
     1
  9
$PLINEGEN
 70
     0
  9
$PSLTSCALE
 70
     1
  9
$TREEDEPTH
 70
  3020
  9
$PICKSTYLE
 70
     1
  9
$CMLSTYLE
  2
STANDARD
  9
$CMLJUST
 70
     0
  9
$CMLSCALE
 40
1.0
  9
$PROXYGRAPHICS
 70
     1
  9
$MEASUREMENT
 70
     0
  0
ENDSEC
  0
SECTION
  2
CLASSES
  0
CLASS
  1
LWPOLYLINE
  2
AcDbPolyline
  3
AutoCAD 2000
 90
       20
280
     0
281
     1
  0
CLASS
  1
IMAGE
  2
AcDbRasterImage
  3
ISM
 90
       21
280
     0
281
     1
  0
CLASS
  1
OLE2FRAME
  2
AcDbOle2Frame
  3
AutoCAD 2000
 90
       21
280
     0
281
     1
  0
CLASS
  1
HATCH
  2
AcDbHatch
  3
AutoCAD 2000
 90
       20
280
     0
281
     1
  0
CLASS
  1
DICTIONARYVAR
  2
AcDbDictionaryVar
  3
ObjectDBX Classes
 90
       20
280
     0
281
     0
  0
CLASS
  1
RASTERVARIABLES
  2
AcDbRasterVariables
  3
ISM
 90
       21
280
     0
281
     0
  0
CLASS
  1
IMAGEDEF
  2
AcDbRasterImageDef
  3
ISM
 90
       21
280
     0
281
     0
  0
CLASS
  1
IMAGEDEF_REACTOR
  2
AcDbRasterImageDefReactor
  3
ISM
 90
       21
280
     0
281
     0
  0
CLASS
  1
IDBUFFER
  2
AcDbIdBuffer
  3
ObjectDBX Classes
 90
       20
280
     0
281
     0
  0
CLASS
  1
SPATIAL_FILTER
  2
AcDbSpatialFilter
  3
ObjectDBX Classes
 90
       20
280
     0
281
     0
  0
CLASS
  1
XRECORD
  2
AcDbXrecord
  3
AutoCAD 2000
 90
       21
280
     0
281
     0
  0
CLASS
  1
SORTENTSTABLE
  2
AcDbSortentsTable
  3
"AutoCAD"
 90
        0
280
     0
281
     0
  0
CLASS
  1
LAYER_INDEX
  2
AcDbLayerIndex
  3
"Acad"
 90
        0
280
     0
281
     0
  0
CLASS
  1
SPATIAL_INDEX
  2
AcDbSpatialIndex
  3
"Acad"
 90
        0
280
     0
281
     0
  0
CLASS
  1
OBJECT_PTR
  2
CAseDLPNTableRecord
  3
"ASE-LPNTableRecord"
 90
        1
280
     0
281
     0
  0
CLASS
  1
LAYOUT
  2
AcDbLayout
  3
"AutoCAD 2000"
 90
        1
280
     0
281
     0
  0
CLASS
  1
PLOTSETTINGS
  2
AcDbPlotsettings
  3
"AutoCAD 2000"
 90
        1
280
     0
281
     0
  0
CLASS
  1
ACDBDICTIONARYWDFLT
  2
AcDbDictionaryWithDefault
  3
"AutoCAD 2000"
 90
        1
280
     0
281
     0
  0
CLASS
  1
ACDBPLACEHOLDER
  2
AcDbPlaceholder
  3
"AutoCAD 2000"
 90
        1
280
     0
281
     0
  0
CLASS
  1
VBA_PROJECT
  2
AcDbVbaProject
  3
"AutoCAD 2000"
 90
        1
280
     0
281
     0
  0
CLASS
  1
WIPEOUT
  2
AcDbWipeout
  3
"AutoCAD 2000"
 90
        1
280
     0
281
     1
  0
CLASS
  1
WIPEOUTVARIABLES
  2
AcDbWipeoutVariables
  3
"AutoCAD 2000"
 90
        1
280
     0
281
     0
  0
CLASS
  1
RTEXT
  2
RText
  3
RText|AutoCAD Express Tool|expresstools@autodesk.com
 90
        1
280
     0
281
     1
  0
CLASS
  1
ARCALIGNEDTEXT
  2
AcDbArcAlignedText
  3
RText|AutoCAD Express Tool|expresstools@autodesk.com
 90
        1
280
     0
281
     1
  0
ENDSEC
  0
SECTION
  2
TABLES
  0
TABLE
  2
VPORT
  5
8
100
AcDbSymbolTable
 70
     1
  0
VPORT
  5
25
100
AcDbSymbolTableRecord
100
AcDbViewportTableRecord
  2
*ACTIVE
 70
     0
 10
0.0
 20
0.0
 11
1.0
 21
1.0
 12
72.0
 22
48.0
 13
0.0
 23
0.0
 14
0.5
 24
0.5
 15
0.5
 25
0.5
 16
0.0
 26
0.0
 36
1.0
 17
0.0
 27
0.0
 37
0.0
 40
96.0
 41
1.5
 42
50.0
 43
0.0
 44
0.0
 50
0.0
 51
0.0
 71
     0
 72
   100
 73
     1
 74
     1
 75
     0
 76
     0
 77
     0
 78
     0
  0
ENDTAB
  0
TABLE
  2
LTYPE
  5
5
100
AcDbSymbolTable
 70
     3
  0
LTYPE
  5
12
100
AcDbSymbolTableRecord
100
AcDbLinetypeTableRecord
  2
BYBLOCK
 70
     0
  3

 72
    65
 73
     0
 40
0.0
  0
LTYPE
  5
13
100
AcDbSymbolTableRecord
100
AcDbLinetypeTableRecord
  2
BYLAYER
 70
     0
  3

 72
    65
 73
     0
 40
0.0
  0
LTYPE
  5
14
100
AcDbSymbolTableRecord
100
AcDbLinetypeTableRecord
  2
CONTINUOUS
 70
     0
  3
Solid line
 72
    65
 73
     0
 40
0.0
  0
ENDTAB
  0
TABLE
  2
LAYER
  5
2
100
AcDbSymbolTable
 70
     2
  0
LAYER
  5
E
100
AcDbSymbolTableRecord
100
AcDbLayerTableRecord
  2
0
 70
     0
 62
     7
  6
CONTINUOUS
  0
LAYER
  5
32
100
AcDbSymbolTableRecord
100
AcDbLayerTableRecord
  2
BUILDING_ENVELOPE
 70
     0
 62
     7
  6
CONTINUOUS
  0
ENDTAB
  0
TABLE
  2
STYLE
  5
3
100
AcDbSymbolTable
 70
     1
  0
STYLE
  5
F
100
AcDbSymbolTableRecord
100
AcDbTextStyleTableRecord
  2
STANDARD
 70
     0
 40
0.0
 41
1.0
 50
0.0
 71
     0
 42
0.2
  3
txt.shx
  4

  0
ENDTAB
  0
TABLE
  2
VIEW
  5
6
100
AcDbSymbolTable
 70
     0
  0
ENDTAB
  0
TABLE
  2
UCS
  5
7
100
AcDbSymbolTable
 70
     0
  0
ENDTAB
  0
TABLE
  2
APPID
  5
9
100
AcDbSymbolTable
 70
     1
  0
APPID
  5
10
100
AcDbSymbolTableRecord
100
AcDbRegAppTableRecord
  2
ACAD
 70
     0
  0
ENDTAB
  0
TABLE
  2
DIMSTYLE
  5
A
100
AcDbSymbolTable
 70
     1
  0
DIMSTYLE
105
1D
100
AcDbSymbolTableRecord
100
AcDbDimStyleTableRecord
  2
STANDARD
 70
     0
  3

  4

  5

  6

  7

 40
1.0
 41
0.18
 42
0.0625
 43
0.38
 44
0.18
 45
0.0
 46
0.0
 47
0.0
 48
0.0
 71
     0
 72
     0
 73
     1
 74
     1
 75
     0
 76
     0
 77
     0
 78
     0
140
0.18
141
0.09
142
0.0
143
25.4
144
1.0
145
0.0
146
1.0
147
0.09
170
     0
171
     2
172
     0
173
     0
174
     0
175
     0
176
     0
177
     0
178
     0
270
     2
271
     4
272
     4
273
     2
274
     2
275
     0
280
     0
281
     0
282
     0
283
     1
284
     0
285
     0
286
     0
287
     3
288
     0
340
F
  0
ENDTAB
  0
TABLE
  2
BLOCK_RECORD
  5
1
100
AcDbSymbolTable
 70
     2
  0
BLOCK_RECORD
  5
18
100
AcDbSymbolTableRecord
100
AcDbBlockTableRecord
  2
*MODEL_SPACE
  0
BLOCK_RECORD
  5
15
100
AcDbSymbolTableRecord
100
AcDbBlockTableRecord
  2
*PAPER_SPACE
  0
BLOCK_RECORD
  5
59
100
AcDbSymbolTableRecord
100
AcDbBlockTableRecord
  2
ROOM
  0
BLOCK_RECORD
  5
71
100
AcDbSymbolTableRecord
100
AcDbBlockTableRecord
  2
DOOR
  0
ENDTAB
  0
ENDSEC
  0
SECTION
  2
BLOCKS
  0
BLOCK
  5
19
100
AcDbEntity
  8
0
100
AcDbBlockBegin
  2
*MODEL_SPACE
 70
     0
 10
0.0
 20
0.0
 30
0.0
  3
*MODEL_SPACE
  1

  0
ENDBLK
  5
1A
100
AcDbEntity
  8
0
100
AcDbBlockEnd
  0
BLOCK
  5
16
100
AcDbEntity
 67
     1
  8
0
100
AcDbBlockBegin
  2
*PAPER_SPACE
 70
     0
 10
0.0
 20
0.0
 30
0.0
  3
*PAPER_SPACE
  1

  0
ENDBLK
  5
17
100
AcDbEntity
 67
     1
  8
0
100
AcDbBlockEnd
  0
BLOCK
  5
5A
100
AcDbEntity
  8
0
100
AcDbBlockBegin
  2
ROOM
 70
     2
 10
0.0
 20
0.0
 30
0.0
  3
ROOM
  1

  0
ATTDEF
  5
5B
100
AcDbEntity
  8
0
100
AcDbText
 10
6.0
 20
6.0
 30
0.0
 40
0.2
  1
120
100
AcDbAttributeDefinition
  3
Width
  2
WIDTH
 70
     0
  0
ATTDEF
  5
5C
100
AcDbEntity
  8
0
100
AcDbText
 10
6.0
 20
6.0
 30
0.0
 40
0.2
  1
96
100
AcDbAttributeDefinition
  3
Length
  2
LENGTH
 70
     0
  0
ATTDEF
  5
5D
100
AcDbEntity
  8
0
100
AcDbText
 10
6.0
 20
6.0
 30
0.0
 40
0.2
  1
Building Component
100
AcDbAttributeDefinition
  3
Shape class
  2
SHAPECLASS
 70
     0
  0
ATTDEF
  5
5E
100
AcDbEntity
  8
0
100
AcDbText
 10
6.0
 20
6.0
 30
0.0
 40
0.2
  1
Room
100
AcDbAttributeDefinition
  3
Shape type
  2
SHAPETYPE
 70
     0
  0
ATTDEF
  5
5F
100
AcDbEntity
  8
0
100
AcDbText
 10
6.0
 20
6.0
 30
0.0
 40
0.2
  1

100
AcDbAttributeDefinition
  3
Subshape type
  2
SUBSHAPETYPE
 70
     0
  0
LWPOLYLINE
  5
60
102
{ACAD_REACTORS
330
61
102
}
100
AcDbEntity
  8
BUILDING_ENVELOPE
  6
CONTINUOUS
 62
     7
100
AcDbPolyline
 90
        4
 70
     1
 10
0.666667
 20
10.333333
 10
11.333333
 20
10.333333
 10
11.0
 20
10.0
 10
1.0
 20
10.0
  0
HATCH
  5
61
100
AcDbEntity
  8
BUILDING_ENVELOPE
 62
   253
100
AcDbHatch
 10
0.0
 20
0.0
 30
0.0
210
0.0
220
0.0
230
1.0
  2
SOLID
 70
     1
 71
     1
 91
        1
 92
        3
 72
     0
 73
     1
 93
        4
 10
0.6666666666666676
 20
10.333333333333332
 10
11.333333333333332
 20
10.333333333333332
 10
11.0
 20
10.0
 10
1.0
 20
10.0
 97
       19
330
44
330
45
330
46
330
47
330
48
330
49
330
4A
330
4B
330
4C
330
4D
330
4E
330
4F
330
50
330
51
330
52
330
53
330
54
330
58
330
60
 75
     0
 76
     1
 98
        0
  0
LINE
  5
62
100
AcDbEntity
  8
BUILDING_ENVELOPE
  6
CONTINUOUS
 62
     7
100
AcDbLine
 10
0.666667
 20
10.333333
 30
0.0
 11
11.333333
 21
10.333333
 31
0.0
  0
LINE
  5
63
100
AcDbEntity
  8
BUILDING_ENVELOPE
  6
CONTINUOUS
 62
     7
100
AcDbLine
 10
1.0
 20
10.0
 30
0.0
 11
11.0
 21
10.0
 31
0.0
  0
LWPOLYLINE
  5
64
102
{ACAD_REACTORS
330
65
102
}
100
AcDbEntity
  8
BUILDING_ENVELOPE
  6
CONTINUOUS
 62
     7
100
AcDbPolyline
 90
        4
 70
     1
 10
11.333333
 20
10.333333
 10
11.333333
 20
1.666667
 10
11.0
 20
2.0
 10
11.0
 20
10.0
  0
HATCH
  5
65
100
AcDbEntity
  8
BUILDING_ENVELOPE
 62
   253
100
AcDbHatch
 10
0.0
 20
0.0
 30
0.0
210
0.0
220
0.0
230
1.0
  2
SOLID
 70
     1
 71
     1
 91
        1
 92
        3
 72
     0
 73
     1
 93
        4
 10
11.333333333333332
 20
10.333333333333332
 10
11.333333333333332
 20
1.6666666666666665
 10
11.0
 20
2.0
 10
11.0
 20
10.0
 97
        1
330
64
 75
     0
 76
     1
 98
        0
  0
LINE
  5
66
100
AcDbEntity
  8
BUILDING_ENVELOPE
  6
CONTINUOUS
 62
     7
100
AcDbLine
 10
11.333333
 20
10.333333
 30
0.0
 11
11.333333
 21
1.666667
 31
0.0
  0
LINE
  5
67
100
AcDbEntity
  8
BUILDING_ENVELOPE
  6
CONTINUOUS
 62
     7
100
AcDbLine
 10
11.0
 20
10.0
 30
0.0
 11
11.0
 21
2.0
 31
0.0
  0
LWPOLYLINE
  5
68
102
{ACAD_REACTORS
330
69
102
}
100
AcDbEntity
  8
BUILDING_ENVELOPE
  6
CONTINUOUS
 62
     7
100
AcDbPolyline
 90
        4
 70
     1
 10
11.333333
 20
1.666667
 10
0.666667
 20
1.666667
 10
1.0
 20
2.0
 10
11.0
 20
2.0
  0
HATCH
  5
69
100
AcDbEntity
  8
BUILDING_ENVELOPE
 62
   253
100
AcDbHatch
 10
0.0
 20
0.0
 30
0.0
210
0.0
220
0.0
230
1.0
  2
SOLID
 70
     1
 71
     1
 91
        1
 92
        3
 72
     0
 73
     1
 93
        4
 10
11.333333333333311
 20
1.6666666666667045
 10
0.6666666666666382
 20
1.6666666666667045
 10
0.9999999999999716
 20
2.0000000000000377
 10
10.999999999999972
 20
2.0000000000000377
 97
        1
330
68
 75
     0
 76
     1
 98
        0
  0
LINE
  5
6A
100
AcDbEntity
  8
BUILDING_ENVELOPE
  6
CONTINUOUS
 62
     7
100
AcDbLine
 10
11.333333
 20
1.666667
 30
0.0
 11
0.666667
 21
1.666667
 31
0.0
  0
LINE
  5
6B
100
AcDbEntity
  8
BUILDING_ENVELOPE
  6
CONTINUOUS
 62
     7
100
AcDbLine
 10
11.0
 20
2.0
 30
0.0
 11
1.0
 21
2.0
 31
0.0
  0
LWPOLYLINE
  5
6C
102
{ACAD_REACTORS
330
6D
102
}
100
AcDbEntity
  8
BUILDING_ENVELOPE
  6
CONTINUOUS
 62
     7
100
AcDbPolyline
 90
        4
 70
     1
 10
0.666667
 20
1.666667
 10
0.666667
 20
10.333333
 10
1.0
 20
10.0
 10
1.0
 20
2.0
  0
HATCH
  5
6D
100
AcDbEntity
  8
BUILDING_ENVELOPE
 62
   253
100
AcDbHatch
 10
0.0
 20
0.0
 30
0.0
210
0.0
220
0.0
230
1.0
  2
SOLID
 70
     1
 71
     1
 91
        1
 92
        3
 72
     0
 73
     1
 93
        4
 10
0.6666666666666501
 20
1.6666666666667438
 10
0.6666666666666501
 20
10.333333333333327
 10
0.9999999999999834
 20
10.0
 10
0.9999999999999834
 20
2.0000000000000755
 97
        1
330
6C
 75
     0
 76
     1
 98
        0
  0
LINE
  5
6E
100
AcDbEntity
  8
BUILDING_ENVELOPE
  6
CONTINUOUS
 62
     7
100
AcDbLine
 10
0.666667
 20
1.666667
 30
0.0
 11
0.666667
 21
10.333333
 31
0.0
  0
LINE
  5
6F
100
AcDbEntity
  8
BUILDING_ENVELOPE
  6
CONTINUOUS
 62
     7
100
AcDbLine
 10
1.0
 20
2.0
 30
0.0
 11
1.0
 21
10.0
 31
0.0
  0
ENDBLK
  5
70
100
AcDbEntity
  8
0
100
AcDbBlockEnd
  0
BLOCK
  5
72
100
AcDbEntity
  8
0
100
AcDbBlockBegin
  2
DOOR
 70
     2
 10
0.0
 20
0.0
 30
0.0
  3
DOOR
  1

  0
ATTDEF
  5
73
100
AcDbEntity
  8
0
100
AcDbText
 10
5.0
 20
5.0
 30
0.0
 40
0.2
  1
80
100
AcDbAttributeDefinition
  3
Door height
  2
VISDOORHEIGHT
 70
     0
  0
ATTDEF
  5
74
100
AcDbEntity
  8
0
100
AcDbText
 10
5.0
 20
5.0
 30
0.0
 40
0.2
  1
0
100
AcDbAttributeDefinition
  3
Reference Line Offset
  2
REFLN
 70
     0
  0
ATTDEF
  5
75
100
AcDbEntity
  8
0
100
AcDbText
 10
5.0
 20
5.0
 30
0.0
 40
0.2
  1
30
100
AcDbAttributeDefinition
  3
Door width
  2
SUBTYPE
 70
     0
  0
ATTDEF
  5
76
100
AcDbEntity
  8
0
100
AcDbText
 10
5.0
 20
5.0
 30
0.0
 40
0.2
  1
2
100
AcDbAttributeDefinition
  3
Door frame width
  2
SUBVISDOORFRAMEWIDTH
 70
     0
  0
ATTDEF
  5
77
100
AcDbEntity
  8
0
100
AcDbText
 10
5.0
 20
5.0
 30
0.0
 40
0.2
  1
4
100
AcDbAttributeDefinition
  3
Door frame depth
  2
SUBVISDOORFRAMEDEPTH
 70
     0
  0
ATTDEF
  5
78
100
AcDbEntity
  8
0
100
AcDbText
 10
5.0
 20
5.0
 30
0.0
 40
0.2
  1
0.5
100
AcDbAttributeDefinition
  3
Door stop width
  2
SUBVISDOORSTOPWIDTH
 70
     0
  0
ATTDEF
  5
79
100
AcDbEntity
  8
0
100
AcDbText
 10
5.0
 20
5.0
 30
0.0
 40
0.2
  1
1.5
100
AcDbAttributeDefinition
  3
Door stop depth
  2
SUBVISDOORSTOPDEPTH
 70
     0
  0
ATTDEF
  5
7A
100
AcDbEntity
  8
0
100
AcDbText
 10
5.0
 20
5.0
 30
0.0
 40
0.2
  1
2
100
AcDbAttributeDefinition
  3
Door threshold depth inside
  2
SUBVISDOORTHRESDEPTHIN
 70
     0
  0
ATTDEF
  5
7B
100
AcDbEntity
  8
0
100
AcDbText
 10
5.0
 20
5.0
 30
0.0
 40
0.2
  1
2
100
AcDbAttributeDefinition
  3
Door threshold width inside
  2
SUBVISDOORTHRESWIDTHIN
 70
     0
  0
ATTDEF
  5
7C
100
AcDbEntity
  8
0
100
AcDbText
 10
5.0
 20
5.0
 30
0.0
 40
0.2
  1
2
100
AcDbAttributeDefinition
  3
Door threshold depth outside
  2
SUBVISDOORTHRESDEPTHOUT
 70
     0
  0
ATTDEF
  5
7D
100
AcDbEntity
  8
0
100
AcDbText
 10
5.0
 20
5.0
 30
0.0
 40
0.2
  1
2
100
AcDbAttributeDefinition
  3
Door threshold width outside
  2
SUBVISDOORTHRESWIDTHOUT
 70
     0
  0
ATTDEF
  5
7E
100
AcDbEntity
  8
0
100
AcDbText
 10
5.0
 20
5.0
 30
0.0
 40
0.2
  1
2
100
AcDbAttributeDefinition
  3
Door panel thickness
  2
SUBVISDOORPANELTHICKNESS
 70
     0
  0
ATTDEF
  5
7F
100
AcDbEntity
  8
0
100
AcDbText
 10
5.0
 20
5.0
 30
0.0
 40
0.2
  1
15
100
AcDbAttributeDefinition
  3
Door leaf width
  2
VISDOORLEAF
 70
     0
  0
ATTDEF
  5
80
100
AcDbEntity
  8
0
100
AcDbText
 10
5.0
 20
5.0
 30
0.0
 40
0.2
  1
12
100
AcDbAttributeDefinition
  3
Door spring height
  2
VISDOORSPRING
 70
     0
  0
ATTDEF
  5
81
100
AcDbEntity
  8
0
100
AcDbText
 10
5.0
 20
5.0
 30
0.0
 40
0.2
  1
6
100
AcDbAttributeDefinition
  3
Door along wall offset
  2
VISDOORALONGWALLOFFSET
 70
     0
  0
ATTDEF
  5
82
100
AcDbEntity
  8
0
100
AcDbText
 10
5.0
 20
5.0
 30
0.0
 40
0.2
  1
Single
100
AcDbAttributeDefinition
  3
Door type
  2
SUBSHAPETYPE
 70
     0
  0
ATTDEF
  5
83
100
AcDbEntity
  8
0
100
AcDbText
 10
5.0
 20
5.0
 30
0.0
 40
0.2
  1
Center
100
AcDbAttributeDefinition
  3
Door within wall offset
  2
VISJUSTIFICATION
 70
     0
  0
ATTDEF
  5
84
100
AcDbEntity
  8
0
100
AcDbText
 10
5.0
 20
5.0
 30
0.0
 40
0.2
  1
50
100
AcDbAttributeDefinition
  3
Door open percentage
  2
VISDOOROPENPERCENT
 70
     0
  0
ATTDEF
  5
85
100
AcDbEntity
  8
0
100
AcDbText
 10
5.0
 20
5.0
 30
0.0
 40
0.2
  1
Building Component
100
AcDbAttributeDefinition
  3
Shape class
  2
SHAPECLASS
 70
     0
  0
ATTDEF
  5
86
100
AcDbEntity
  8
0
100
AcDbText
 10
5.0
 20
5.0
 30
0.0
 40
0.2
  1
Door
100
AcDbAttributeDefinition
  3
Shape type
  2
SHAPETYPE
 70
     0
  0
ATTDEF
  5
87
100
AcDbEntity
  8
0
100
AcDbText
 10
5.0
 20
5.0
 30
0.0
 40
0.2
  1
0
100
AcDbAttributeDefinition
  3
Fire rating
  2
FIRERATING
 70
     0
  0
ATTDEF
  5
88
100
AcDbEntity
  8
0
100
AcDbText
 10
5.0
 20
5.0
 30
0.0
 40
0.2
  1
0
100
AcDbAttributeDefinition
  3
Door number
  2
DOORNUMBER
 70
     0
  0
ATTDEF
  5
89
100
AcDbEntity
  8
0
100
AcDbText
 10
5.0
 20
5.0
 30
0.0
 40
0.2
  1
0
100
AcDbAttributeDefinition
  3
Base elevation
  2
BASEELEVATION
 70
     0
  0
LWPOLYLINE
  5
8A
100
AcDbEntity
  8
BUILDING_ENVELOPE
  6
CONTINUOUS
 62
     7
100
AcDbPolyline
 90
        4
 70
     1
 10
3.583333
 20
4.734
 10
6.416667
 20
4.734
 10
6.416667
 20
5.266
 10
3.583333
 20
5.266
  0
LINE
  5
8B
100
AcDbEntity
  8
BUILDING_ENVELOPE
  6
CONTINUOUS
 62
     7
100
AcDbLine
 10
6.416667
 20
4.75
 30
0.0
 11
6.416667
 21
5.25
 31
0.0
  0
LINE
  5
8C
100
AcDbEntity
  8
BUILDING_ENVELOPE
  6
CONTINUOUS
 62
     7
100
AcDbLine
 10
6.416667
 20
5.25
 30
0.0
 11
6.25
 21
5.25
 31
0.0
  0
LINE
  5
8D
100
AcDbEntity
  8
BUILDING_ENVELOPE
  6
CONTINUOUS
 62
     7
100
AcDbLine
 10
6.25
 20
5.25
 30
0.0
 11
6.25
 21
5.083333
 31
0.0
  0
LINE
  5
8E
100
AcDbEntity
  8
BUILDING_ENVELOPE
  6
CONTINUOUS
 62
     7
100
AcDbLine
 10
6.25
 20
4.958333
 30
0.0
 11
6.25
 21
4.75
 31
0.0
  0
LINE
  5
8F
100
AcDbEntity
  8
BUILDING_ENVELOPE
  6
CONTINUOUS
 62
     7
100
AcDbLine
 10
6.25
 20
4.75
 30
0.0
 11
6.416667
 21
4.75
 31
0.0
  0
LINE
  5
90
100
AcDbEntity
  8
BUILDING_ENVELOPE
  6
CONTINUOUS
 62
     7
100
AcDbLine
 10
3.583333
 20
4.75
 30
0.0
 11
3.583333
 21
5.25
 31
0.0
  0
LINE
  5
91
100
AcDbEntity
  8
BUILDING_ENVELOPE
  6
CONTINUOUS
 62
     7
100
AcDbLine
 10
3.583333
 20
5.25
 30
0.0
 11
3.75
 21
5.25
 31
0.0
  0
LINE
  5
92
100
AcDbEntity
  8
BUILDING_ENVELOPE
  6
CONTINUOUS
 62
     7
100
AcDbLine
 10
3.75
 20
5.25
 30
0.0
 11
3.75
 21
5.083333
 31
0.0
  0
LINE
  5
93
100
AcDbEntity
  8
BUILDING_ENVELOPE
  6
CONTINUOUS
 62
     7
100
AcDbLine
 10
3.75
 20
4.958333
 30
0.0
 11
3.75
 21
4.75
 31
0.0
  0
LINE
  5
94
100
AcDbEntity
  8
BUILDING_ENVELOPE
  6
CONTINUOUS
 62
     7
100
AcDbLine
 10
3.75
 20
4.75
 30
0.0
 11
3.583333
 21
4.75
 31
0.0
  0
LINE
  5
95
100
AcDbEntity
  8
BUILDING_ENVELOPE
  6
CONTINUOUS
 62
     7
100
AcDbLine
 10
6.25
 20
5.083333
 30
0.0
 11
6.208333
 21
5.083333
 31
0.0
  0
LINE
  5
96
100
AcDbEntity
  8
BUILDING_ENVELOPE
  6
CONTINUOUS
 62
     7
100
AcDbLine
 10
6.208333
 20
5.083333
 30
0.0
 11
6.208333
 21
4.958333
 31
0.0
  0
LINE
  5
97
100
AcDbEntity
  8
BUILDING_ENVELOPE
  6
CONTINUOUS
 62
     7
100
AcDbLine
 10
6.208333
 20
4.958333
 30
0.0
 11
6.25
 21
4.958333
 31
0.0
  0
LINE
  5
98
100
AcDbEntity
  8
BUILDING_ENVELOPE
  6
CONTINUOUS
 62
     7
100
AcDbLine
 10
3.75
 20
5.083333
 30
0.0
 11
3.791667
 21
5.083333
 31
0.0
  0
LINE
  5
99
100
AcDbEntity
  8
BUILDING_ENVELOPE
  6
CONTINUOUS
 62
     7
100
AcDbLine
 10
3.791667
 20
5.083333
 30
0.0
 11
3.791667
 21
4.958333
 31
0.0
  0
LINE
  5
9A
100
AcDbEntity
  8
BUILDING_ENVELOPE
  6
CONTINUOUS
 62
     7
100
AcDbLine
 10
3.791667
 20
4.958333
 30
0.0
 11
3.75
 21
4.958333
 31
0.0
  0
LINE
  5
9B
100
AcDbEntity
  8
BUILDING_ENVELOPE
  6
CONTINUOUS
 62
     7
100
AcDbLine
 10
6.416667
 20
4.75
 30
0.0
 11
6.416667
 21
5.25
 31
0.0
  0
LINE
  5
9C
100
AcDbEntity
  8
BUILDING_ENVELOPE
  6
CONTINUOUS
 62
     7
100
AcDbLine
 10
3.583333
 20
4.75
 30
0.0
 11
3.583333
 21
5.25
 31
0.0
  0
ARC
  5
9D
100
AcDbEntity
  8
BUILDING_ENVELOPE
  6
CONTINUOUS
 62
     7
100
AcDbCircle
 10
6.25
 20
5.25
 30
0.0
 40
2.5
100
AcDbArc
 50
90.0
 51
180.0
  0
LWPOLYLINE
  5
9E
100
AcDbEntity
  8
BUILDING_ENVELOPE
  6
CONTINUOUS
 62
     7
100
AcDbPolyline
 90
        4
 70
     1
 10
6.083333
 20
7.75
 10
6.083333
 20
5.25
 10
6.25
 20
5.25
 10
6.25
 20
7.75
  0
ENDBLK
  5
9F
100
AcDbEntity
  8
0
100
AcDbBlockEnd
  0
ENDSEC
  0
SECTION
  2
ENTITIES
  0
LWPOLYLINE
  5
33
102
{ACAD_REACTORS
330
34
102
}
100
AcDbEntity
  8
BUILDING_ENVELOPE
  6
CONTINUOUS
 62
     7
100
AcDbPolyline
 90
        4
 70
     1
 10
1.422422
 20
64.889089
 10
80.589089
 20
64.889089
 10
80.255756
 20
64.555756
 10
1.755756
 20
64.555756
  0
HATCH
  5
34
102
{ACAD_REACTORS
330
31
102
}
100
AcDbEntity
  8
BUILDING_ENVELOPE
 62
   253
100
AcDbHatch
 10
0.0
 20
0.0
 30
0.0
210
0.0
220
0.0
230
1.0
  2
SOLID
 70
     1
 71
     1
 91
        1
 92
        3
 72
     0
 73
     1
 93
        4
 10
1.42242222222231
 20
64.889088888888622
 10
80.589088888889023
 20
64.889088888888622
 10
80.255755555555695
 20
64.555755555555294
 10
1.7557555555556423
 20
64.555755555555294
 97
        1
330
33
 75
     0
 76
     1
 98
        0
  0
LINE
  5
35
102
{ACAD_REACTORS
330
31
102
}
100
AcDbEntity
  8
BUILDING_ENVELOPE
  6
CONTINUOUS
 62
     7
100
AcDbLine
 10
1.422422
 20
64.889089
 30
0.0
 11
80.589089
 21
64.889089
 31
0.0
  0
LINE
  5
36
102
{ACAD_REACTORS
330
31
102
}
100
AcDbEntity
  8
BUILDING_ENVELOPE
  6
CONTINUOUS
 62
     7
100
AcDbLine
 10
1.755756
 20
64.555756
 30
0.0
 11
80.255756
 21
64.555756
 31
0.0
  0
LWPOLYLINE
  5
37
102
{ACAD_REACTORS
330
38
102
}
100
AcDbEntity
  8
BUILDING_ENVELOPE
  6
CONTINUOUS
 62
     7
100
AcDbPolyline
 90
        4
 70
     1
 10
80.589089
 20
64.889089
 10
80.589089
 20
1.422422
 10
80.255756
 20
1.755756
 10
80.255756
 20
64.555756
  0
HATCH
  5
38
102
{ACAD_REACTORS
330
31
102
}
100
AcDbEntity
  8
BUILDING_ENVELOPE
 62
   253
100
AcDbHatch
 10
0.0
 20
0.0
 30
0.0
210
0.0
220
0.0
230
1.0
  2
SOLID
 70
     1
 71
     1
 91
        1
 92
        3
 72
     0
 73
     1
 93
        4
 10
80.589088888888966
 20
64.889088888888622
 10
80.589088888888966
 20
1.4224222222219585
 10
80.255755555555638
 20
1.7557555555552917
 10
80.255755555555638
 20
64.555755555555294
 97
        1
330
37
 75
     0
 76
     1
 98
        0
  0
LINE
  5
39
102
{ACAD_REACTORS
330
31
102
}
100
AcDbEntity
  8
BUILDING_ENVELOPE
  6
CONTINUOUS
 62
     7
100
AcDbLine
 10
80.589089
 20
64.889089
 30
0.0
 11
80.589089
 21
1.422422
 31
0.0
  0
LINE
  5
3A
102
{ACAD_REACTORS
330
31
102
}
100
AcDbEntity
  8
BUILDING_ENVELOPE
  6
CONTINUOUS
 62
     7
100
AcDbLine
 10
80.255756
 20
64.555756
 30
0.0
 11
80.255756
 21
1.755756
 31
0.0
  0
LWPOLYLINE
  5
3B
102
{ACAD_REACTORS
330
3C
102
}
100
AcDbEntity
  8
BUILDING_ENVELOPE
  6
CONTINUOUS
 62
     7
100
AcDbPolyline
 90
        4
 70
     1
 10
80.589089
 20
1.422422
 10
1.422422
 20
1.422422
 10
1.755756
 20
1.755756
 10
80.255756
 20
1.755756
  0
HATCH
  5
3C
102
{ACAD_REACTORS
330
31
102
}
100
AcDbEntity
  8
BUILDING_ENVELOPE
 62
   253
100
AcDbHatch
 10
0.0
 20
0.0
 30
0.0
210
0.0
220
0.0
230
1.0
  2
SOLID
 70
     1
 71
     1
 91
        1
 92
        3
 72
     0
 73
     1
 93
        4
 10
80.58908888888898
 20
1.4224222222222256
 10
1.422422222222091
 20
1.4224222222222256
 10
1.755755555555415
 20
1.7557555555555588
 10
80.255755555555638
 20
1.7557555555555588
 97
        1
330
3B
 75
     0
 76
     1
 98
        0
  0
LINE
  5
3D
102
{ACAD_REACTORS
330
31
102
}
100
AcDbEntity
  8
BUILDING_ENVELOPE
  6
CONTINUOUS
 62
     7
100
AcDbLine
 10
80.589089
 20
1.422422
 30
0.0
 11
1.422422
 21
1.422422
 31
0.0
  0
LINE
  5
3E
102
{ACAD_REACTORS
330
31
102
}
100
AcDbEntity
  8
BUILDING_ENVELOPE
  6
CONTINUOUS
 62
     7
100
AcDbLine
 10
80.255756
 20
1.755756
 30
0.0
 11
1.755756
 21
1.755756
 31
0.0
  0
LWPOLYLINE
  5
3F
102
{ACAD_REACTORS
330
40
102
}
100
AcDbEntity
  8
BUILDING_ENVELOPE
  6
CONTINUOUS
 62
     7
100
AcDbPolyline
 90
        4
 70
     1
 10
1.422422
 20
1.422422
 10
1.422422
 20
64.889089
 10
1.755756
 20
64.555756
 10
1.755756
 20
1.755756
  0
HATCH
  5
40
102
{ACAD_REACTORS
330
31
102
}
100
AcDbEntity
  8
BUILDING_ENVELOPE
 62
   253
100
AcDbHatch
 10
0.0
 20
0.0
 30
0.0
210
0.0
220
0.0
230
1.0
  2
SOLID
 70
     1
 71
     1
 91
        1
 92
        3
 72
     0
 73
     1
 93
        4
 10
1.422422222222226
 20
1.4224222222225615
 10
1.422422222222226
 20
64.889088888888608
 10
1.7557555555555595
 20
64.555755555555294
 10
1.7557555555555595
 20
1.7557555555558935
 97
        1
330
3F
 75
     0
 76
     1
 98
        0
  0
LINE
  5
41
102
{ACAD_REACTORS
330
31
102
}
100
AcDbEntity
  8
BUILDING_ENVELOPE
  6
CONTINUOUS
 62
     7
100
AcDbLine
 10
1.422422
 20
1.422422
 30
0.0
 11
1.422422
 21
64.889089
 31
0.0
  0
LINE
  5
42
102
{ACAD_REACTORS
330
31
102
}
100
AcDbEntity
  8
BUILDING_ENVELOPE
  6
CONTINUOUS
 62
     7
100
AcDbLine
 10
1.755756
 20
1.755756
 30
0.0
 11
1.755756
 21
64.555756
 31
0.0
  0
LWPOLYLINE
  5
44
102
{ACAD_REACTORS
330
43
102
}
100
AcDbEntity
  8
BUILDING_ENVELOPE
  6
CONTINUOUS
 62
     7
100
AcDbPolyline
 90
        4
 70
     1
 10
80.597089
 20
41.389089
 10
80.597089
 20
50.722422
 10
80.247756
 20
50.722422
 10
80.247756
 20
41.389089
  0
LINE
  5
45
102
{ACAD_REACTORS
330
43
102
}
100
AcDbEntity
  8
BUILDING_ENVELOPE
  6
CONTINUOUS
 62
     7
100
AcDbLine
 10
80.589089
 20
50.722422
 30
0.0
 11
80.255756
 21
50.722422
 31
0.0
  0
LINE
  5
46
102
{ACAD_REACTORS
330
43
102
}
100
AcDbEntity
  8
BUILDING_ENVELOPE
  6
CONTINUOUS
 62
     7
100
AcDbLine
 10
80.255756
 20
50.722422
 30
0.0
 11
80.255756
 21
50.555756
 31
0.0
  0
LINE
  5
47
102
{ACAD_REACTORS
330
43
102
}
100
AcDbEntity
  8
BUILDING_ENVELOPE
  6
CONTINUOUS
 62
     7
100
AcDbLine
 10
80.255756
 20
50.555756
 30
0.0
 11
80.380756
 21
50.555756
 31
0.0
  0
LINE
  5
48
102
{ACAD_REACTORS
330
43
102
}
100
AcDbEntity
  8
BUILDING_ENVELOPE
  6
CONTINUOUS
 62
     7
100
AcDbLine
 10
80.505756
 20
50.555756
 30
0.0
 11
80.589089
 21
50.555756
 31
0.0
  0
LINE
  5
49
102
{ACAD_REACTORS
330
43
102
}
100
AcDbEntity
  8
BUILDING_ENVELOPE
  6
CONTINUOUS
 62
     7
100
AcDbLine
 10
80.589089
 20
50.555756
 30
0.0
 11
80.589089
 21
50.722422
 31
0.0
  0
LINE
  5
4A
102
{ACAD_REACTORS
330
43
102
}
100
AcDbEntity
  8
BUILDING_ENVELOPE
  6
CONTINUOUS
 62
     7
100
AcDbLine
 10
80.589089
 20
41.389089
 30
0.0
 11
80.255756
 21
41.389089
 31
0.0
  0
LINE
  5
4B
102
{ACAD_REACTORS
330
43
102
}
100
AcDbEntity
  8
BUILDING_ENVELOPE
  6
CONTINUOUS
 62
     7
100
AcDbLine
 10
80.255756
 20
41.389089
 30
0.0
 11
80.255756
 21
41.555756
 31
0.0
  0
LINE
  5
4C
102
{ACAD_REACTORS
330
43
102
}
100
AcDbEntity
  8
BUILDING_ENVELOPE
  6
CONTINUOUS
 62
     7
100
AcDbLine
 10
80.255756
 20
41.555756
 30
0.0
 11
80.380756
 21
41.555756
 31
0.0
  0
LINE
  5
4D
102
{ACAD_REACTORS
330
43
102
}
100
AcDbEntity
  8
BUILDING_ENVELOPE
  6
CONTINUOUS
 62
     7
100
AcDbLine
 10
80.505756
 20
41.555756
 30
0.0
 11
80.589089
 21
41.555756
 31
0.0
  0
LINE
  5
4E
102
{ACAD_REACTORS
330
43
102
}
100
AcDbEntity
  8
BUILDING_ENVELOPE
  6
CONTINUOUS
 62
     7
100
AcDbLine
 10
80.589089
 20
41.555756
 30
0.0
 11
80.589089
 21
41.389089
 31
0.0
  0
LINE
  5
4F
102
{ACAD_REACTORS
330
43
102
}
100
AcDbEntity
  8
BUILDING_ENVELOPE
  6
CONTINUOUS
 62
     7
100
AcDbLine
 10
80.380756
 20
50.555756
 30
0.0
 11
80.380756
 21
50.514089
 31
0.0
  0
LINE
  5
50
102
{ACAD_REACTORS
330
43
102
}
100
AcDbEntity
  8
BUILDING_ENVELOPE
  6
CONTINUOUS
 62
     7
100
AcDbLine
 10
80.380756
 20
50.514089
 30
0.0
 11
80.505756
 21
50.514089
 31
0.0
  0
LINE
  5
51
102
{ACAD_REACTORS
330
43
102
}
100
AcDbEntity
  8
BUILDING_ENVELOPE
  6
CONTINUOUS
 62
     7
100
AcDbLine
 10
80.505756
 20
50.514089
 30
0.0
 11
80.505756
 21
50.555756
 31
0.0
  0
LINE
  5
52
102
{ACAD_REACTORS
330
43
102
}
100
AcDbEntity
  8
BUILDING_ENVELOPE
  6
CONTINUOUS
 62
     7
100
AcDbLine
 10
80.380756
 20
41.555756
 30
0.0
 11
80.380756
 21
41.597422
 31
0.0
  0
LINE
  5
53
102
{ACAD_REACTORS
330
43
102
}
100
AcDbEntity
  8
BUILDING_ENVELOPE
  6
CONTINUOUS
 62
     7
100
AcDbLine
 10
80.380756
 20
41.597422
 30
0.0
 11
80.505756
 21
41.597422
 31
0.0
  0
LINE
  5
54
102
{ACAD_REACTORS
330
43
102
}
100
AcDbEntity
  8
BUILDING_ENVELOPE
  6
CONTINUOUS
 62
     7
100
AcDbLine
 10
80.505756
 20
41.597422
 30
0.0
 11
80.505756
 21
41.555756
 31
0.0
  0
LINE
  5
55
102
{ACAD_REACTORS
330
43
102
}
100
AcDbEntity
  8
BUILDING_ENVELOPE
  6
CONTINUOUS
 62
     7
100
AcDbLine
 10
80.589089
 20
50.722422
 30
0.0
 11
80.255756
 21
50.722422
 31
0.0
  0
LINE
  5
56
102
{ACAD_REACTORS
330
43
102
}
100
AcDbEntity
  8
BUILDING_ENVELOPE
  6
CONTINUOUS
 62
     7
100
AcDbLine
 10
80.589089
 20
41.389089
 30
0.0
 11
80.255756
 21
41.389089
 31
0.0
  0
ARC
  5
57
102
{ACAD_REACTORS
330
43
102
}
100
AcDbEntity
  8
BUILDING_ENVELOPE
  6
CONTINUOUS
 62
     7
100
AcDbCircle
 10
80.255756
 20
50.555756
 30
0.0
 40
9.0
100
AcDbArc
 50
180.0
 51
270.0
  0
LWPOLYLINE
  5
58
102
{ACAD_REACTORS
330
43
102
}
100
AcDbEntity
  8
BUILDING_ENVELOPE
  6
CONTINUOUS
 62
     7
100
AcDbPolyline
 90
        4
 70
     1
 10
71.255756
 20
50.430756
 10
80.255756
 20
50.430756
 10
80.255756
 20
50.555756
 10
71.255756
 20
50.555756
  0
ENDSEC
  0
SECTION
  2
OBJECTS
  0
DICTIONARY
  5
C
100
AcDbDictionary
  3
ACAD_GROUP
350
D
  3
ACAD_MLINESTYLE
350
1B
  0
DICTIONARY
  5
D
102
{ACAD_REACTORS
330
C
102
}
100
AcDbDictionary
  3
VISIOGROUP_0
350
31
  3
VISIOGROUP_1
350
43
  0
DICTIONARY
  5
1B
102
{ACAD_REACTORS
330
C
102
}
100
AcDbDictionary
  3
STANDARD
350
1C
  0
MLINESTYLE
  5
1C
102
{ACAD_REACTORS
330
1B
102
}
100
AcDbMlineStyle
  2
STANDARD
 70
     0
  3

 62
   256
 51
90.0
 52
90.0
 71
     2
 49
0.5
 62
   256
  6
BYLAYER
 49
-0.5
 62
   256
  6
BYLAYER
  0
DICTIONARY
  5
29
102
{ACAD_REACTORS
330
C
102
}
100
AcDbDictionary
  3
MODEL
350
2A
  3
LAYOUT1
350
2B
  0
DICTIONARY
  5
2C
102
{ACAD_REACTORS
330
C
102
}
100
AcDbDictionary
  0
GROUP
  5
31
102
{ACAD_REACTORS
330
D
102
}
100
AcDbGroup
300
Group created by Visio.
 70
     0
 71
     1
340
33
340
34
340
35
340
36
340
37
340
38
340
39
340
3A
340
3B
340
3C
340
3D
340
3E
340
3F
340
40
340
41
340
42
  0
GROUP
  5
43
102
{ACAD_REACTORS
330
D
102
}
100
AcDbGroup
300
Group created by Visio.
 70
     0
 71
     1
340
44
340
45
340
46
340
47
340
48
340
49
340
4A
340
4B
340
4C
340
4D
340
4E
340
4F
340
50
340
51
340
52
340
53
340
54
340
55
340
56
340
57
340
58
  0
ENDSEC
  0
EOF
