  0
SECTION
  2
HEADER
  9
$ACADVER
  1
AC1014
  9
$ACADMAINTVER
 70
     0
  9
$DWGCODEPAGE
  3
ANSI_1252
  9
$INSBASE
 10
0.0
 20
0.0
 30
0.0
  9
$EXTMIN
 10
0.0
 20
0.0
 30
0.0
  9
$EXTMAX
 10
144.0
 20
96.0
 30
0.0
  9
$LIMMIN
 10
0.0
 20
0.0
  9
$LIMMAX
 10
12.0
 20
9.0
  9
$ORTHOMODE
 70
     0
  9
$REGENMODE
 70
     1
  9
$FILLMODE
 70
     0
  9
$QTEXTMODE
 70
     0
  9
$MIRRTEXT
 70
     1
  9
$DRAGMODE
 70
     2
  9
$LTSCALE
 40
1.0
  9
$OSMODE
 70
    37
  9
$ATTMODE
 70
     1
  9
$TEXTSIZE
 40
0.2
  9
$TRACEWID
 40
0.05
  9
$TEXTSTYLE
  7
STANDARD
  9
$CLAYER
  8
0
  9
$CELTYPE
  6
BYLAYER
  9
$CECOLOR
 62
   256
  9
$CELTSCALE
 40
1.0
  9
$DELOBJ
 70
     1
  9
$DISPSILH
 70
     0
  9
$DIMSCALE
 40
1.0
  9
$DIMASZ
 40
0.18
  9
$DIMEXO
 40
0.0625
  9
$DIMDLI
 40
0.38
  9
$DIMRND
 40
0.0
  9
$DIMDLE
 40
0.0
  9
$DIMEXE
 40
0.18
  9
$DIMTP
 40
0.0
  9
$DIMTM
 40
0.0
  9
$DIMTXT
 40
0.18
  9
$DIMCEN
 40
0.09
  9
$DIMTSZ
 40
0.0
  9
$DIMTOL
 70
     0
  9
$DIMLIM
 70
     0
  9
$DIMTIH
 70
     0
  9
$DIMTOH
 70
     0
  9
$DIMSE1
 70
     0
  9
$DIMSE2
 70
     0
  9
$DIMTAD
 70
     1
  9
$DIMZIN
 70
     0
  9
$DIMBLK
  1

  9
$DIMASO
 70
     1
  9
$DIMSHO
 70
     1
  9
$DIMPOST
  1

  9
$DIMAPOST
  1

  9
$DIMALT
 70
     0
  9
$DIMALTD
 70
     2
  9
$DIMALTF
 40
25.4
  9
$DIMLFAC
 40
1.0
  9
$DIMTOFL
 70
     0
  9
$DIMTVP
 40
0.0
  9
$DIMTIX
 70
     0
  9
$DIMSOXD
 70
     0
  9
$DIMSAH
 70
     0
  9
$DIMBLK1
  1

  9
$DIMBLK2
  1

  9
$DIMSTYLE
  2
STANDARD
  9
$DIMCLRD
 70
     0
  9
$DIMCLRE
 70
     0
  9
$DIMCLRT
 70
     0
  9
$DIMTFAC
 40
1.0
  9
$DIMGAP
 40
0.09
  9
$DIMJUST
 70
     0
  9
$DIMSD1
 70
     0
  9
$DIMSD2
 70
     0
  9
$DIMTOLJ
 70
     1
  9
$DIMTZIN
 70
     0
  9
$DIMALTZ
 70
     0
  9
$DIMALTTZ
 70
     0
  9
$DIMFIT
 70
     5
  9
$DIMUPT
 70
     0
  9
$DIMUNIT
 70
     2
  9
$DIMDEC
 70
     2
  9
$DIMTDEC
 70
     4
  9
$DIMALTU
 70
     2
  9
$DIMALTTD
 70
     2
  9
$DIMTXSTY
  7
STANDARD
  9
$DIMAUNIT
 70
     0
  9
$LUNITS
 70
     2
  9
$LUPREC
 70
     4
  9
$SKETCHINC
 40
0.1
  9
$FILLETRAD
 40
0.5
  9
$AUNITS
 70
     0
  9
$AUPREC
 70
     0
  9
$MENU
  1
.
  9
$ELEVATION
 40
0.0
  9
$PELEVATION
 40
0.0
  9
$THICKNESS
 40
0.0
  9
$LIMCHECK
 70
     0
  9
$BLIPMODE
 70
     0
  9
$CHAMFERA
 40
0.5
  9
$CHAMFERB
 40
0.5
  9
$CHAMFERC
 40
1.0
  9
$CHAMFERD
 40
0.0
  9
$SKPOLY
 70
     0
  9
$TDCREATE
 40
2450772.666465926
  9
$TDUPDATE
 40
2458689.918923611
  9
$TDINDWG
 40
0.0011565046
  9
$TDUSRTIMER
 40
0.0011565046
  9
$USRTIMER
 70
     1
  9
$ANGBASE
 50
0.0
  9
$ANGDIR
 70
     0
  9
$PDMODE
 70
     0
  9
$PDSIZE
 40
0.0
  9
$PLINEWID
 40
0.0
  9
$COORDS
 70
     1
  9
$SPLFRAME
 70
     0
  9
$SPLINETYPE
 70
     6
  9
$SPLINESEGS
 70
     8
  9
$ATTDIA
 70
     0
  9
$ATTREQ
 70
     1
  9
$HANDLING
 70
     1
  9
$HANDSEED
  5
1E6
  9
$SURFTAB1
 70
     6
  9
$SURFTAB2
 70
     6
  9
$SURFTYPE
 70
     6
  9
$SURFU
 70
     6
  9
$SURFV
 70
     6
  9
$UCSNAME
  2

  9
$UCSORG
 10
0.0
 20
0.0
 30
0.0
  9
$UCSXDIR
 10
1.0
 20
0.0
 30
0.0
  9
$UCSYDIR
 10
0.0
 20
1.0
 30
0.0
  9
$PUCSNAME
  2

  9
$PUCSORG
 10
0.0
 20
0.0
 30
0.0
  9
$PUCSXDIR
 10
1.0
 20
0.0
 30
0.0
  9
$PUCSYDIR
 10
0.0
 20
1.0
 30
0.0
  9
$USERI1
 70
     0
  9
$USERI2
 70
     0
  9
$USERI3
 70
     0
  9
$USERI4
 70
     0
  9
$USERI5
 70
     0
  9
$USERR1
 40
0.0
  9
$USERR2
 40
0.0
  9
$USERR3
 40
0.0
  9
$USERR4
 40
0.0
  9
$USERR5
 40
0.0
  9
$WORLDVIEW
 70
     1
  9
$SHADEDGE
 70
     3
  9
$SHADEDIF
 70
    70
  9
$TILEMODE
 70
     1
  9
$MAXACTVP
 70
    48
  9
$PINSBASE
 10
0.0
 20
0.0
 30
0.0
  9
$PLIMCHECK
 70
     0
  9
$PEXTMIN
 10
0.0
 20
0.0
 30
0.0
  9
$PEXTMAX
 10
0.0
 20
0.0
 30
0.0
  9
$PLIMMIN
 10
0.0
 20
0.0
  9
$PLIMMAX
 10
12.0
 20
9.0
  9
$UNITMODE
 70
     0
  9
$VISRETAIN
 70
     1
  9
$PLINEGEN
 70
     0
  9
$PSLTSCALE
 70
     1
  9
$TREEDEPTH
 70
  3020
  9
$PICKSTYLE
 70
     1
  9
$CMLSTYLE
  2
STANDARD
  9
$CMLJUST
 70
     0
  9
$CMLSCALE
 40
1.0
  9
$PROXYGRAPHICS
 70
     1
  9
$MEASUREMENT
 70
     0
  0
ENDSEC
  0
SECTION
  2
CLASSES
  0
CLASS
  1
LWPOLYLINE
  2
AcDbPolyline
  3
AutoCAD 2000
 90
       20
280
     0
281
     1
  0
CLASS
  1
IMAGE
  2
AcDbRasterImage
  3
ISM
 90
       21
280
     0
281
     1
  0
CLASS
  1
OLE2FRAME
  2
AcDbOle2Frame
  3
AutoCAD 2000
 90
       21
280
     0
281
     1
  0
CLASS
  1
HATCH
  2
AcDbHatch
  3
AutoCAD 2000
 90
       20
280
     0
281
     1
  0
CLASS
  1
DICTIONARYVAR
  2
AcDbDictionaryVar
  3
ObjectDBX Classes
 90
       20
280
     0
281
     0
  0
CLASS
  1
RASTERVARIABLES
  2
AcDbRasterVariables
  3
ISM
 90
       21
280
     0
281
     0
  0
CLASS
  1
IMAGEDEF
  2
AcDbRasterImageDef
  3
ISM
 90
       21
280
     0
281
     0
  0
CLASS
  1
IMAGEDEF_REACTOR
  2
AcDbRasterImageDefReactor
  3
ISM
 90
       21
280
     0
281
     0
  0
CLASS
  1
IDBUFFER
  2
AcDbIdBuffer
  3
ObjectDBX Classes
 90
       20
280
     0
281
     0
  0
CLASS
  1
SPATIAL_FILTER
  2
AcDbSpatialFilter
  3
ObjectDBX Classes
 90
       20
280
     0
281
     0
  0
CLASS
  1
XRECORD
  2
AcDbXrecord
  3
AutoCAD 2000
 90
       21
280
     0
281
     0
  0
CLASS
  1
SORTENTSTABLE
  2
AcDbSortentsTable
  3
"AutoCAD"
 90
        0
280
     0
281
     0
  0
CLASS
  1
LAYER_INDEX
  2
AcDbLayerIndex
  3
"Acad"
 90
        0
280
     0
281
     0
  0
CLASS
  1
SPATIAL_INDEX
  2
AcDbSpatialIndex
  3
"Acad"
 90
        0
280
     0
281
     0
  0
CLASS
  1
OBJECT_PTR
  2
CAseDLPNTableRecord
  3
"ASE-LPNTableRecord"
 90
        1
280
     0
281
     0
  0
CLASS
  1
LAYOUT
  2
AcDbLayout
  3
"AutoCAD 2000"
 90
        1
280
     0
281
     0
  0
CLASS
  1
PLOTSETTINGS
  2
AcDbPlotsettings
  3
"AutoCAD 2000"
 90
        1
280
     0
281
     0
  0
CLASS
  1
ACDBDICTIONARYWDFLT
  2
AcDbDictionaryWithDefault
  3
"AutoCAD 2000"
 90
        1
280
     0
281
     0
  0
CLASS
  1
ACDBPLACEHOLDER
  2
AcDbPlaceholder
  3
"AutoCAD 2000"
 90
        1
280
     0
281
     0
  0
CLASS
  1
VBA_PROJECT
  2
AcDbVbaProject
  3
"AutoCAD 2000"
 90
        1
280
     0
281
     0
  0
CLASS
  1
WIPEOUT
  2
AcDbWipeout
  3
"AutoCAD 2000"
 90
        1
280
     0
281
     1
  0
CLASS
  1
WIPEOUTVARIABLES
  2
AcDbWipeoutVariables
  3
"AutoCAD 2000"
 90
        1
280
     0
281
     0
  0
CLASS
  1
RTEXT
  2
RText
  3
RText|AutoCAD Express Tool|expresstools@autodesk.com
 90
        1
280
     0
281
     1
  0
CLASS
  1
ARCALIGNEDTEXT
  2
AcDbArcAlignedText
  3
RText|AutoCAD Express Tool|expresstools@autodesk.com
 90
        1
280
     0
281
     1
  0
ENDSEC
  0
SECTION
  2
TABLES
  0
TABLE
  2
VPORT
  5
8
100
AcDbSymbolTable
 70
     1
  0
VPORT
  5
25
100
AcDbSymbolTableRecord
100
AcDbViewportTableRecord
  2
*ACTIVE
 70
     0
 10
0.0
 20
0.0
 11
1.0
 21
1.0
 12
72.0
 22
48.0
 13
0.0
 23
0.0
 14
0.5
 24
0.5
 15
0.5
 25
0.5
 16
0.0
 26
0.0
 36
1.0
 17
0.0
 27
0.0
 37
0.0
 40
96.0
 41
1.5
 42
50.0
 43
0.0
 44
0.0
 50
0.0
 51
0.0
 71
     0
 72
   100
 73
     1
 74
     1
 75
     0
 76
     0
 77
     0
 78
     0
  0
ENDTAB
  0
TABLE
  2
LTYPE
  5
5
100
AcDbSymbolTable
 70
     3
  0
LTYPE
  5
12
100
AcDbSymbolTableRecord
100
AcDbLinetypeTableRecord
  2
BYBLOCK
 70
     0
  3

 72
    65
 73
     0
 40
0.0
  0
LTYPE
  5
13
100
AcDbSymbolTableRecord
100
AcDbLinetypeTableRecord
  2
BYLAYER
 70
     0
  3

 72
    65
 73
     0
 40
0.0
  0
LTYPE
  5
14
100
AcDbSymbolTableRecord
100
AcDbLinetypeTableRecord
  2
CONTINUOUS
 70
     0
  3
Solid line
 72
    65
 73
     0
 40
0.0
  0
ENDTAB
  0
TABLE
  2
LAYER
  5
2
100
AcDbSymbolTable
 70
     2
  0
LAYER
  5
E
100
AcDbSymbolTableRecord
100
AcDbLayerTableRecord
  2
0
 70
     0
 62
     7
  6
CONTINUOUS
  0
LAYER
  5
32
100
AcDbSymbolTableRecord
100
AcDbLayerTableRecord
  2
BUILDING_ENVELOPE
 70
     0
 62
     7
  6
CONTINUOUS
  0
ENDTAB
  0
TABLE
  2
STYLE
  5
3
100
AcDbSymbolTable
 70
     1
  0
STYLE
  5
F
100
AcDbSymbolTableRecord
100
AcDbTextStyleTableRecord
  2
STANDARD
 70
     0
 40
0.0
 41
1.0
 50
0.0
 71
     0
 42
0.2
  3
txt.shx
  4

  0
ENDTAB
  0
TABLE
  2
VIEW
  5
6
100
AcDbSymbolTable
 70
     0
  0
ENDTAB
  0
TABLE
  2
UCS
  5
7
100
AcDbSymbolTable
 70
     0
  0
ENDTAB
  0
TABLE
  2
APPID
  5
9
100
AcDbSymbolTable
 70
     1
  0
APPID
  5
10
100
AcDbSymbolTableRecord
100
AcDbRegAppTableRecord
  2
ACAD
 70
     0
  0
ENDTAB
  0
TABLE
  2
DIMSTYLE
  5
A
100
AcDbSymbolTable
 70
     1
  0
DIMSTYLE
105
1D
100
AcDbSymbolTableRecord
100
AcDbDimStyleTableRecord
  2
STANDARD
 70
     0
  3

  4

  5

  6

  7

 40
1.0
 41
0.18
 42
0.0625
 43
0.38
 44
0.18
 45
0.0
 46
0.0
 47
0.0
 48
0.0
 71
     0
 72
     0
 73
     1
 74
     1
 75
     0
 76
     0
 77
     0
 78
     0
140
0.18
141
0.09
142
0.0
143
25.4
144
1.0
145
0.0
146
1.0
147
0.09
170
     0
171
     2
172
     0
173
     0
174
     0
175
     0
176
     0
177
     0
178
     0
270
     2
271
     4
272
     4
273
     2
274
     2
275
     0
280
     0
281
     0
282
     0
283
     1
284
     0
285
     0
286
     0
287
     3
288
     0
340
F
  0
ENDTAB
  0
TABLE
  2
BLOCK_RECORD
  5
1
100
AcDbSymbolTable
 70
    11
  0
BLOCK_RECORD
  5
18
100
AcDbSymbolTableRecord
100
AcDbBlockTableRecord
  2
*MODEL_SPACE
  0
BLOCK_RECORD
  5
15
100
AcDbSymbolTableRecord
100
AcDbBlockTableRecord
  2
*PAPER_SPACE
  0
BLOCK_RECORD
  5
BF
100
AcDbSymbolTableRecord
100
AcDbBlockTableRecord
  2
ROOM
  0
BLOCK_RECORD
  5
D7
100
AcDbSymbolTableRecord
100
AcDbBlockTableRecord
  2
WALL
  0
BLOCK_RECORD
  5
EB
100
AcDbSymbolTableRecord
100
AcDbBlockTableRecord
  2
WINDOW
  0
BLOCK_RECORD
  5
113
100
AcDbSymbolTableRecord
100
AcDbBlockTableRecord
  2
_T__ROOM
  0
BLOCK_RECORD
  5
13B
100
AcDbSymbolTableRecord
100
AcDbBlockTableRecord
  2
OPPOSING
  0
BLOCK_RECORD
  5
16C
100
AcDbSymbolTableRecord
100
AcDbBlockTableRecord
  2
UNEVEN
  0
BLOCK_RECORD
  5
19D
100
AcDbSymbolTableRecord
100
AcDbBlockTableRecord
  2
CURTAIN_WALL
  0
BLOCK_RECORD
  5
1B0
100
AcDbSymbolTableRecord
100
AcDbBlockTableRecord
  2
RECTANGULAR_COLUMN
  0
BLOCK_RECORD
  5
1B6
100
AcDbSymbolTableRecord
100
AcDbBlockTableRecord
  2
DOOR_SCHEDULE
  0
BLOCK_RECORD
  5
1BA
100
AcDbSymbolTableRecord
100
AcDbBlockTableRecord
  2
DOOR
  0
BLOCK_RECORD
  5
1D2
100
AcDbSymbolTableRecord
100
AcDbBlockTableRecord
  2
CURVED_WALL
  0
ENDTAB
  0
ENDSEC
  0
SECTION
  2
BLOCKS
  0
BLOCK
  5
19
100
AcDbEntity
  8
0
100
AcDbBlockBegin
  2
*MODEL_SPACE
 70
     0
 10
0.0
 20
0.0
 30
0.0
  3
*MODEL_SPACE
  1

  0
ENDBLK
  5
1A
100
AcDbEntity
  8
0
100
AcDbBlockEnd
  0
BLOCK
  5
16
100
AcDbEntity
 67
     1
  8
0
100
AcDbBlockBegin
  2
*PAPER_SPACE
 70
     0
 10
0.0
 20
0.0
 30
0.0
  3
*PAPER_SPACE
  1

  0
ENDBLK
  5
17
100
AcDbEntity
 67
     1
  8
0
100
AcDbBlockEnd
  0
BLOCK
  5
C0
100
AcDbEntity
  8
0
100
AcDbBlockBegin
  2
ROOM
 70
     2
 10
0.0
 20
0.0
 30
0.0
  3
ROOM
  1

  0
ATTDEF
  5
C1
100
AcDbEntity
  8
0
100
AcDbText
 10
6.0
 20
6.0
 30
0.0
 40
0.2
  1
120
100
AcDbAttributeDefinition
  3
Width
  2
WIDTH
 70
     0
  0
ATTDEF
  5
C2
100
AcDbEntity
  8
0
100
AcDbText
 10
6.0
 20
6.0
 30
0.0
 40
0.2
  1
96
100
AcDbAttributeDefinition
  3
Length
  2
LENGTH
 70
     0
  0
ATTDEF
  5
C3
100
AcDbEntity
  8
0
100
AcDbText
 10
6.0
 20
6.0
 30
0.0
 40
0.2
  1
Building Component
100
AcDbAttributeDefinition
  3
Shape class
  2
SHAPECLASS
 70
     0
  0
ATTDEF
  5
C4
100
AcDbEntity
  8
0
100
AcDbText
 10
6.0
 20
6.0
 30
0.0
 40
0.2
  1
Room
100
AcDbAttributeDefinition
  3
Shape type
  2
SHAPETYPE
 70
     0
  0
ATTDEF
  5
C5
100
AcDbEntity
  8
0
100
AcDbText
 10
6.0
 20
6.0
 30
0.0
 40
0.2
  1

100
AcDbAttributeDefinition
  3
Subshape type
  2
SUBSHAPETYPE
 70
     0
  0
LWPOLYLINE
  5
C6
102
{ACAD_REACTORS
330
C7
102
}
100
AcDbEntity
  8
BUILDING_ENVELOPE
  6
CONTINUOUS
 62
     7
100
AcDbPolyline
 90
        4
 70
     1
 10
0.666667
 20
10.333333
 10
11.333333
 20
10.333333
 10
11.0
 20
10.0
 10
1.0
 20
10.0
  0
HATCH
  5
C7
100
AcDbEntity
  8
BUILDING_ENVELOPE
 62
   253
100
AcDbHatch
 10
0.0
 20
0.0
 30
0.0
210
0.0
220
0.0
230
1.0
  2
SOLID
 70
     1
 71
     1
 91
        1
 92
        3
 72
     0
 73
     1
 93
        4
 10
0.6666666666666676
 20
10.333333333333332
 10
11.333333333333332
 20
10.333333333333332
 10
11.0
 20
10.0
 10
1.0
 20
10.0
 97
       14
330
AF
330
B0
330
B1
330
B2
330
B3
330
B4
330
B5
330
B6
330
B7
330
B8
330
B9
330
BA
330
BB
330
C6
 75
     0
 76
     1
 98
        0
  0
LINE
  5
C8
100
AcDbEntity
  8
BUILDING_ENVELOPE
  6
CONTINUOUS
 62
     7
100
AcDbLine
 10
0.666667
 20
10.333333
 30
0.0
 11
11.333333
 21
10.333333
 31
0.0
  0
LINE
  5
C9
100
AcDbEntity
  8
BUILDING_ENVELOPE
  6
CONTINUOUS
 62
     7
100
AcDbLine
 10
1.0
 20
10.0
 30
0.0
 11
11.0
 21
10.0
 31
0.0
  0
LWPOLYLINE
  5
CA
102
{ACAD_REACTORS
330
CB
102
}
100
AcDbEntity
  8
BUILDING_ENVELOPE
  6
CONTINUOUS
 62
     7
100
AcDbPolyline
 90
        4
 70
     1
 10
11.333333
 20
10.333333
 10
11.333333
 20
1.666667
 10
11.0
 20
2.0
 10
11.0
 20
10.0
  0
HATCH
  5
CB
100
AcDbEntity
  8
BUILDING_ENVELOPE
 62
   253
100
AcDbHatch
 10
0.0
 20
0.0
 30
0.0
210
0.0
220
0.0
230
1.0
  2
SOLID
 70
     1
 71
     1
 91
        1
 92
        3
 72
     0
 73
     1
 93
        4
 10
11.333333333333332
 20
10.333333333333332
 10
11.333333333333332
 20
1.6666666666666665
 10
11.0
 20
2.0
 10
11.0
 20
10.0
 97
        1
330
CA
 75
     0
 76
     1
 98
        0
  0
LINE
  5
CC
100
AcDbEntity
  8
BUILDING_ENVELOPE
  6
CONTINUOUS
 62
     7
100
AcDbLine
 10
11.333333
 20
10.333333
 30
0.0
 11
11.333333
 21
1.666667
 31
0.0
  0
LINE
  5
CD
100
AcDbEntity
  8
BUILDING_ENVELOPE
  6
CONTINUOUS
 62
     7
100
AcDbLine
 10
11.0
 20
10.0
 30
0.0
 11
11.0
 21
2.0
 31
0.0
  0
LWPOLYLINE
  5
CE
102
{ACAD_REACTORS
330
CF
102
}
100
AcDbEntity
  8
BUILDING_ENVELOPE
  6
CONTINUOUS
 62
     7
100
AcDbPolyline
 90
        4
 70
     1
 10
11.333333
 20
1.666667
 10
0.666667
 20
1.666667
 10
1.0
 20
2.0
 10
11.0
 20
2.0
  0
HATCH
  5
CF
100
AcDbEntity
  8
BUILDING_ENVELOPE
 62
   253
100
AcDbHatch
 10
0.0
 20
0.0
 30
0.0
210
0.0
220
0.0
230
1.0
  2
SOLID
 70
     1
 71
     1
 91
        1
 92
        3
 72
     0
 73
     1
 93
        4
 10
11.333333333333311
 20
1.6666666666667045
 10
0.6666666666666382
 20
1.6666666666667045
 10
0.9999999999999716
 20
2.0000000000000377
 10
10.999999999999972
 20
2.0000000000000377
 97
        1
330
CE
 75
     0
 76
     1
 98
        0
  0
LINE
  5
D0
100
AcDbEntity
  8
BUILDING_ENVELOPE
  6
CONTINUOUS
 62
     7
100
AcDbLine
 10
11.333333
 20
1.666667
 30
0.0
 11
0.666667
 21
1.666667
 31
0.0
  0
LINE
  5
D1
100
AcDbEntity
  8
BUILDING_ENVELOPE
  6
CONTINUOUS
 62
     7
100
AcDbLine
 10
11.0
 20
2.0
 30
0.0
 11
1.0
 21
2.0
 31
0.0
  0
LWPOLYLINE
  5
D2
102
{ACAD_REACTORS
330
D3
102
}
100
AcDbEntity
  8
BUILDING_ENVELOPE
  6
CONTINUOUS
 62
     7
100
AcDbPolyline
 90
        4
 70
     1
 10
0.666667
 20
1.666667
 10
0.666667
 20
10.333333
 10
1.0
 20
10.0
 10
1.0
 20
2.0
  0
HATCH
  5
D3
100
AcDbEntity
  8
BUILDING_ENVELOPE
 62
   253
100
AcDbHatch
 10
0.0
 20
0.0
 30
0.0
210
0.0
220
0.0
230
1.0
  2
SOLID
 70
     1
 71
     1
 91
        1
 92
        3
 72
     0
 73
     1
 93
        4
 10
0.6666666666666501
 20
1.6666666666667438
 10
0.6666666666666501
 20
10.333333333333327
 10
0.9999999999999834
 20
10.0
 10
0.9999999999999834
 20
2.0000000000000755
 97
        1
330
D2
 75
     0
 76
     1
 98
        0
  0
LINE
  5
D4
100
AcDbEntity
  8
BUILDING_ENVELOPE
  6
CONTINUOUS
 62
     7
100
AcDbLine
 10
0.666667
 20
1.666667
 30
0.0
 11
0.666667
 21
10.333333
 31
0.0
  0
LINE
  5
D5
100
AcDbEntity
  8
BUILDING_ENVELOPE
  6
CONTINUOUS
 62
     7
100
AcDbLine
 10
1.0
 20
2.0
 30
0.0
 11
1.0
 21
10.0
 31
0.0
  0
ENDBLK
  5
D6
100
AcDbEntity
  8
0
100
AcDbBlockEnd
  0
BLOCK
  5
D8
100
AcDbEntity
  8
0
100
AcDbBlockBegin
  2
WALL
 70
     2
 10
0.0
 20
0.0
 30
0.0
  3
WALL
  1

  0
ATTDEF
  5
D9
100
AcDbEntity
  8
0
100
AcDbText
 10
5.0
 20
5.0
 30
0.0
 40
0.2
  1
4 in.
100
AcDbAttributeDefinition
  3
Wall thickness
  2
T
 70
     0
  0
ATTDEF
  5
DA
100
AcDbEntity
  8
0
100
AcDbText
 10
5.0
 20
5.0
 30
0.0
 40
0.2
  1
0 in.
100
AcDbAttributeDefinition
  3
Reference Line Offset
  2
REFLN
 70
     0
  0
ATTDEF
  5
DB
100
AcDbEntity
  8
0
100
AcDbText
 10
5.0
 20
5.0
 30
0.0
 40
0.2
  1
0
100
AcDbAttributeDefinition
  3

  2
MATERIAL
 70
     0
  0
ATTDEF
  5
DC
100
AcDbEntity
  8
0
100
AcDbText
 10
5.0
 20
5.0
 30
0.0
 40
0.2
  1
8 ft.
100
AcDbAttributeDefinition
  3
Wall height
  2
VISWALLHEIGHT
 70
     0
  0
ATTDEF
  5
DD
100
AcDbEntity
  8
0
100
AcDbText
 10
5.0
 20
5.0
 30
0.0
 40
0.2
  1
8 ft.
100
AcDbAttributeDefinition
  3
Wall length
  2
VISWALLLENGTH
 70
     0
  0
ATTDEF
  5
DE
100
AcDbEntity
  8
0
100
AcDbText
 10
5.0
 20
5.0
 30
0.0
 40
0.2
  1
Edge
100
AcDbAttributeDefinition
  3
Wall justification
  2
VISWALLJUSTIFY
 70
     0
  0
ATTDEF
  5
DF
100
AcDbEntity
  8
0
100
AcDbText
 10
5.0
 20
5.0
 30
0.0
 40
0.2
  1
Straight
100
AcDbAttributeDefinition
  3
Wall segment
  2
VISWALLSEGMENT
 70
     0
  0
ATTDEF
  5
E0
100
AcDbEntity
  8
0
100
AcDbText
 10
5.0
 20
5.0
 30
0.0
 40
0.2
  1
10 ft.
100
AcDbAttributeDefinition
  3
Wall radius
  2
RADIUS
 70
     0
  0
ATTDEF
  5
E1
100
AcDbEntity
  8
0
100
AcDbText
 10
5.0
 20
5.0
 30
0.0
 40
0.2
  1
Building Component
100
AcDbAttributeDefinition
  3
Shape class
  2
SHAPECLASS
 70
     0
  0
ATTDEF
  5
E2
100
AcDbEntity
  8
0
100
AcDbText
 10
5.0
 20
5.0
 30
0.0
 40
0.2
  1
Wall
100
AcDbAttributeDefinition
  3
Shape type
  2
SHAPETYPE
 70
     0
  0
ATTDEF
  5
E3
100
AcDbEntity
  8
0
100
AcDbText
 10
5.0
 20
5.0
 30
0.0
 40
0.2
  1

100
AcDbAttributeDefinition
  3
Subshape type
  2
SUBSHAPETYPE
 70
     0
  0
ATTDEF
  5
E4
100
AcDbEntity
  8
0
100
AcDbText
 10
5.0
 20
5.0
 30
0.0
 40
0.2
  1
0
100
AcDbAttributeDefinition
  3
Fire rating
  2
FIRERATING
 70
     0
  0
ATTDEF
  5
E5
100
AcDbEntity
  8
0
100
AcDbText
 10
5.0
 20
5.0
 30
0.0
 40
0.2
  1
0
100
AcDbAttributeDefinition
  3
Base elevation
  2
BASEELEVATION
 70
     0
  0
LWPOLYLINE
  5
E6
102
{ACAD_REACTORS
330
E7
102
}
100
AcDbEntity
  8
BUILDING_ENVELOPE
  6
CONTINUOUS
 62
     7
100
AcDbPolyline
 90
        6
 70
     1
 10
1.0
 20
5.333333
 10
9.0
 20
5.333333
 10
9.0
 20
5.166667
 10
9.0
 20
5.0
 10
1.0
 20
5.0
 10
1.0
 20
5.166667
  0
HATCH
  5
E7
100
AcDbEntity
  8
BUILDING_ENVELOPE
 62
   253
100
AcDbHatch
 10
0.0
 20
0.0
 30
0.0
210
0.0
220
0.0
230
1.0
  2
SOLID
 70
     1
 71
     1
 91
        1
 92
        3
 72
     0
 73
     1
 93
        6
 10
1.0
 20
5.333333333333333
 10
9.0
 20
5.333333333333333
 10
9.0
 20
5.1666666666666661
 10
9.0
 20
5.0
 10
1.0
 20
5.0
 10
1.0
 20
5.1666666666666661
 97
        1
330
E6
 75
     0
 76
     1
 98
        0
  0
LWPOLYLINE
  5
E8
100
AcDbEntity
  8
BUILDING_ENVELOPE
  6
CONTINUOUS
 62
     7
100
AcDbPolyline
 90
        4
 70
     0
 10
1.0
 20
5.166667
 10
1.0
 20
5.333333
 10
9.0
 20
5.333333
 10
9.0
 20
5.166667
  0
LWPOLYLINE
  5
E9
100
AcDbEntity
  8
BUILDING_ENVELOPE
  6
CONTINUOUS
 62
     7
100
AcDbPolyline
 90
        4
 70
     0
 10
1.0
 20
5.166667
 10
1.0
 20
5.0
 10
9.0
 20
5.0
 10
9.0
 20
5.166667
  0
ENDBLK
  5
EA
100
AcDbEntity
  8
0
100
AcDbBlockEnd
  0
BLOCK
  5
EC
100
AcDbEntity
  8
0
100
AcDbBlockBegin
  2
WINDOW
 70
     2
 10
0.0
 20
0.0
 30
0.0
  3
WINDOW
  1

  0
ATTDEF
  5
ED
100
AcDbEntity
  8
0
100
AcDbText
 10
5.0
 20
5.0
 30
0.0
 40
0.2
  1
60
100
AcDbAttributeDefinition
  3
Window height
  2
VISWNDWHEIGHT
 70
     0
  0
ATTDEF
  5
EE
100
AcDbEntity
  8
0
100
AcDbText
 10
5.0
 20
5.0
 30
0.0
 40
0.2
  1
0
100
AcDbAttributeDefinition
  3
Reference Line Offset
  2
REFLN
 70
     0
  0
ATTDEF
  5
EF
100
AcDbEntity
  8
0
100
AcDbText
 10
5.0
 20
5.0
 30
0.0
 40
0.2
  1
30
100
AcDbAttributeDefinition
  3
Window width
  2
SUBTYPE
 70
     0
  0
ATTDEF
  5
F0
100
AcDbEntity
  8
0
100
AcDbText
 10
5.0
 20
5.0
 30
0.0
 40
0.2
  1
2
100
AcDbAttributeDefinition
  3
Window frame depth
  2
SUBVISWNDWFRAMEDEPTH
 70
     0
  0
ATTDEF
  5
F1
100
AcDbEntity
  8
0
100
AcDbText
 10
5.0
 20
5.0
 30
0.0
 40
0.2
  1
4
100
AcDbAttributeDefinition
  3
Window frame width
  2
SUBVISWNDWFRAMEWIDTH
 70
     0
  0
ATTDEF
  5
F2
100
AcDbEntity
  8
0
100
AcDbText
 10
5.0
 20
5.0
 30
0.0
 40
0.2
  1
2.5
100
AcDbAttributeDefinition
  3
Window sash depth
  2
SUBVISWNDWSASHDEPTH
 70
     0
  0
ATTDEF
  5
F3
100
AcDbEntity
  8
0
100
AcDbText
 10
5.0
 20
5.0
 30
0.0
 40
0.2
  1
1
100
AcDbAttributeDefinition
  3
Window sash width
  2
SUBVISWNDWSASHWIDTH
 70
     0
  0
ATTDEF
  5
F4
100
AcDbEntity
  8
0
100
AcDbText
 10
5.0
 20
5.0
 30
0.0
 40
0.2
  1
2
100
AcDbAttributeDefinition
  3
Window sill depth inside
  2
SUBVISWNDWSILLDEPTHIN
 70
     0
  0
ATTDEF
  5
F5
100
AcDbEntity
  8
0
100
AcDbText
 10
5.0
 20
5.0
 30
0.0
 40
0.2
  1
2
100
AcDbAttributeDefinition
  3
Window sill width inside
  2
SUBVISWNDWSILLWIDTHIN
 70
     0
  0
ATTDEF
  5
F6
100
AcDbEntity
  8
0
100
AcDbText
 10
5.0
 20
5.0
 30
0.0
 40
0.2
  1
2
100
AcDbAttributeDefinition
  3
Window sill depth outside
  2
SUBVISWNDWSILLDEPTHOUT
 70
     0
  0
ATTDEF
  5
F7
100
AcDbEntity
  8
0
100
AcDbText
 10
5.0
 20
5.0
 30
0.0
 40
0.2
  1
2
100
AcDbAttributeDefinition
  3
Window sill width outside
  2
SUBVISWNDWSILLWIDTHOUT
 70
     0
  0
ATTDEF
  5
F8
100
AcDbEntity
  8
0
100
AcDbText
 10
5.0
 20
5.0
 30
0.0
 40
0.2
  1
80
100
AcDbAttributeDefinition
  3
Window header height
  2
VISWNDWHEADERHEIGHT
 70
     0
  0
ATTDEF
  5
F9
100
AcDbEntity
  8
0
100
AcDbText
 10
5.0
 20
5.0
 30
0.0
 40
0.2
  1
6
100
AcDbAttributeDefinition
  3
Window along wall offset
  2
VISWNDWALONGWALLOFFSET
 70
     0
  0
ATTDEF
  5
FA
100
AcDbEntity
  8
0
100
AcDbText
 10
5.0
 20
5.0
 30
0.0
 40
0.2
  1
15
100
AcDbAttributeDefinition
  3
Window operator size
  2
VISWNDWOPERATOR
 70
     0
  0
ATTDEF
  5
FB
100
AcDbEntity
  8
0
100
AcDbText
 10
5.0
 20
5.0
 30
0.0
 40
0.2
  1
12
100
AcDbAttributeDefinition
  3
Window spring height
  2
VISWNDWSPRING
 70
     0
  0
ATTDEF
  5
FC
100
AcDbEntity
  8
0
100
AcDbText
 10
5.0
 20
5.0
 30
0.0
 40
0.2
  1
Center
100
AcDbAttributeDefinition
  3
Window within wall offset
  2
VISJUSTIFICATION
 70
     0
  0
ATTDEF
  5
FD
100
AcDbEntity
  8
0
100
AcDbText
 10
5.0
 20
5.0
 30
0.0
 40
0.2
  1
Building Component
100
AcDbAttributeDefinition
  3
Shape class
  2
SHAPECLASS
 70
     0
  0
ATTDEF
  5
FE
100
AcDbEntity
  8
0
100
AcDbText
 10
5.0
 20
5.0
 30
0.0
 40
0.2
  1
Window
100
AcDbAttributeDefinition
  3
Shape type
  2
SHAPETYPE
 70
     0
  0
ATTDEF
  5
FF
100
AcDbEntity
  8
0
100
AcDbText
 10
5.0
 20
5.0
 30
0.0
 40
0.2
  1
Picture
100
AcDbAttributeDefinition
  3
Window type
  2
SUBSHAPETYPE
 70
     0
  0
ATTDEF
  5
100
100
AcDbEntity
  8
0
100
AcDbText
 10
5.0
 20
5.0
 30
0.0
 40
0.2
  1
0
100
AcDbAttributeDefinition
  3
Fire rating
  2
FIRERATING
 70
     0
  0
ATTDEF
  5
101
100
AcDbEntity
  8
0
100
AcDbText
 10
5.0
 20
5.0
 30
0.0
 40
0.2
  1
0
100
AcDbAttributeDefinition
  3
Window number
  2
WNDWNUMBER
 70
     0
  0
LWPOLYLINE
  5
102
102
{ACAD_REACTORS
330
11B
102
}
100
AcDbEntity
  8
BUILDING_ENVELOPE
  6
CONTINUOUS
 62
     7
100
AcDbPolyline
 90
        4
 70
     1
 10
3.75
 20
4.734
 10
6.25
 20
4.734
 10
6.25
 20
5.266
 10
3.75
 20
5.266
  0
LINE
  5
103
102
{ACAD_REACTORS
330
11B
102
}
100
AcDbEntity
  8
BUILDING_ENVELOPE
  6
CONTINUOUS
 62
     7
100
AcDbLine
 10
3.75
 20
4.75
 30
0.0
 11
3.75
 21
5.25
 31
0.0
  0
LINE
  5
104
102
{ACAD_REACTORS
330
11B
102
}
100
AcDbEntity
  8
BUILDING_ENVELOPE
  6
CONTINUOUS
 62
     7
100
AcDbLine
 10
3.75
 20
5.25
 30
0.0
 11
4.083333
 21
5.25
 31
0.0
  0
LINE
  5
105
102
{ACAD_REACTORS
330
11B
102
}
100
AcDbEntity
  8
BUILDING_ENVELOPE
  6
CONTINUOUS
 62
     7
100
AcDbLine
 10
4.083333
 20
5.25
 30
0.0
 11
4.083333
 21
5.104167
 31
0.0
  0
LINE
  5
106
102
{ACAD_REACTORS
330
11B
102
}
100
AcDbEntity
  8
BUILDING_ENVELOPE
  6
CONTINUOUS
 62
     7
100
AcDbLine
 10
4.083333
 20
4.895833
 30
0.0
 11
4.083333
 21
4.75
 31
0.0
  0
LINE
  5
107
102
{ACAD_REACTORS
330
11B
102
}
100
AcDbEntity
  8
BUILDING_ENVELOPE
  6
CONTINUOUS
 62
     7
100
AcDbLine
 10
4.083333
 20
4.75
 30
0.0
 11
3.75
 21
4.75
 31
0.0
  0
LINE
  5
108
102
{ACAD_REACTORS
330
11B
102
}
100
AcDbEntity
  8
BUILDING_ENVELOPE
  6
CONTINUOUS
 62
     7
100
AcDbLine
 10
6.25
 20
4.75
 30
0.0
 11
6.25
 21
5.25
 31
0.0
  0
LINE
  5
109
102
{ACAD_REACTORS
330
11B
102
}
100
AcDbEntity
  8
BUILDING_ENVELOPE
  6
CONTINUOUS
 62
     7
100
AcDbLine
 10
6.25
 20
5.25
 30
0.0
 11
5.916667
 21
5.25
 31
0.0
  0
LINE
  5
10A
102
{ACAD_REACTORS
330
11B
102
}
100
AcDbEntity
  8
BUILDING_ENVELOPE
  6
CONTINUOUS
 62
     7
100
AcDbLine
 10
5.916667
 20
5.25
 30
0.0
 11
5.916667
 21
5.104167
 31
0.0
  0
LINE
  5
10B
102
{ACAD_REACTORS
330
11B
102
}
100
AcDbEntity
  8
BUILDING_ENVELOPE
  6
CONTINUOUS
 62
     7
100
AcDbLine
 10
5.916667
 20
4.895833
 30
0.0
 11
5.916667
 21
4.75
 31
0.0
  0
LINE
  5
10C
102
{ACAD_REACTORS
330
11B
102
}
100
AcDbEntity
  8
BUILDING_ENVELOPE
  6
CONTINUOUS
 62
     7
100
AcDbLine
 10
5.916667
 20
4.75
 30
0.0
 11
6.25
 21
4.75
 31
0.0
  0
LWPOLYLINE
  5
10D
102
{ACAD_REACTORS
330
11B
102
}
100
AcDbEntity
  8
BUILDING_ENVELOPE
  6
CONTINUOUS
 62
     7
100
AcDbPolyline
 90
        4
 70
     1
 10
4.083333
 20
5.104167
 10
4.166667
 20
5.104167
 10
4.166667
 20
4.895833
 10
4.083333
 20
4.895833
  0
LWPOLYLINE
  5
10E
102
{ACAD_REACTORS
330
11B
102
}
100
AcDbEntity
  8
BUILDING_ENVELOPE
  6
CONTINUOUS
 62
     7
100
AcDbPolyline
 90
        4
 70
     1
 10
5.916667
 20
5.104167
 10
5.833333
 20
5.104167
 10
5.833333
 20
4.895833
 10
5.916667
 20
4.895833
  0
LINE
  5
10F
100
AcDbEntity
  8
BUILDING_ENVELOPE
  6
CONTINUOUS
 62
     7
100
AcDbLine
 10
4.166667
 20
5.0
 30
0.0
 11
5.833333
 21
5.0
 31
0.0
  0
LINE
  5
110
100
AcDbEntity
  8
BUILDING_ENVELOPE
  6
CONTINUOUS
 62
     7
100
AcDbLine
 10
3.75
 20
4.75
 30
0.0
 11
3.75
 21
5.25
 31
0.0
  0
LINE
  5
111
100
AcDbEntity
  8
BUILDING_ENVELOPE
  6
CONTINUOUS
 62
     7
100
AcDbLine
 10
6.25
 20
4.75
 30
0.0
 11
6.25
 21
5.25
 31
0.0
  0
ENDBLK
  5
112
100
AcDbEntity
  8
0
100
AcDbBlockEnd
  0
BLOCK
  5
114
100
AcDbEntity
  8
0
100
AcDbBlockBegin
  2
_T__ROOM
 70
     2
 10
0.0
 20
0.0
 30
0.0
  3
_T__ROOM
  1

  0
ATTDEF
  5
115
100
AcDbEntity
  8
0
100
AcDbText
 10
6.0
 20
6.0
 30
0.0
 40
0.2
  1
120
100
AcDbAttributeDefinition
  3
Width
  2
WIDTH
 70
     0
  0
ATTDEF
  5
116
100
AcDbEntity
  8
0
100
AcDbText
 10
6.0
 20
6.0
 30
0.0
 40
0.2
  1
96
100
AcDbAttributeDefinition
  3
Length
  2
LENGTH
 70
     0
  0
ATTDEF
  5
117
100
AcDbEntity
  8
0
100
AcDbText
 10
6.0
 20
6.0
 30
0.0
 40
0.2
  1
Building Component
100
AcDbAttributeDefinition
  3
Shape class
  2
SHAPECLASS
 70
     0
  0
ATTDEF
  5
118
100
AcDbEntity
  8
0
100
AcDbText
 10
6.0
 20
6.0
 30
0.0
 40
0.2
  1
Room
100
AcDbAttributeDefinition
  3
Shape type
  2
SHAPETYPE
 70
     0
  0
ATTDEF
  5
119
100
AcDbEntity
  8
0
100
AcDbText
 10
6.0
 20
6.0
 30
0.0
 40
0.2
  1

100
AcDbAttributeDefinition
  3
Subshape type
  2
SUBSHAPETYPE
 70
     0
  0
LWPOLYLINE
  5
11A
102
{ACAD_REACTORS
330
11B
102
}
100
AcDbEntity
  8
BUILDING_ENVELOPE
  6
CONTINUOUS
 62
     7
100
AcDbPolyline
 90
        4
 70
     1
 10
0.666667
 20
10.333333
 10
11.333333
 20
10.333333
 10
11.0
 20
10.0
 10
1.0
 20
10.0
  0
HATCH
  5
11B
100
AcDbEntity
  8
BUILDING_ENVELOPE
 62
   253
100
AcDbHatch
 10
0.0
 20
0.0
 30
0.0
210
0.0
220
0.0
230
1.0
  2
SOLID
 70
     1
 71
     1
 91
        1
 92
        3
 72
     0
 73
     1
 93
        4
 10
0.666666666666672
 20
10.333333333333332
 10
11.333333333333332
 20
10.333333333333332
 10
11.0
 20
10.0
 10
1.0
 20
10.0
 97
       14
330
102
330
103
330
104
330
105
330
106
330
107
330
108
330
109
330
10A
330
10B
330
10C
330
10D
330
10E
330
11A
 75
     0
 76
     1
 98
        0
  0
LINE
  5
11C
100
AcDbEntity
  8
BUILDING_ENVELOPE
  6
CONTINUOUS
 62
     7
100
AcDbLine
 10
0.666667
 20
10.333333
 30
0.0
 11
11.333333
 21
10.333333
 31
0.0
  0
LINE
  5
11D
100
AcDbEntity
  8
BUILDING_ENVELOPE
  6
CONTINUOUS
 62
     7
100
AcDbLine
 10
1.0
 20
10.0
 30
0.0
 11
11.0
 21
10.0
 31
0.0
  0
LWPOLYLINE
  5
11E
102
{ACAD_REACTORS
330
11F
102
}
100
AcDbEntity
  8
BUILDING_ENVELOPE
  6
CONTINUOUS
 62
     7
100
AcDbPolyline
 90
        4
 70
     1
 10
11.333333
 20
10.333333
 10
11.333333
 20
4.666667
 10
11.0
 20
5.0
 10
11.0
 20
10.0
  0
HATCH
  5
11F
100
AcDbEntity
  8
BUILDING_ENVELOPE
 62
   253
100
AcDbHatch
 10
0.0
 20
0.0
 30
0.0
210
0.0
220
0.0
230
1.0
  2
SOLID
 70
     1
 71
     1
 91
        1
 92
        3
 72
     0
 73
     1
 93
        4
 10
11.333333333333332
 20
10.333333333333332
 10
11.333333333333332
 20
4.6666666666666661
 10
11.0
 20
5.0
 10
11.0
 20
10.0
 97
        1
330
11E
 75
     0
 76
     1
 98
        0
  0
LINE
  5
120
100
AcDbEntity
  8
BUILDING_ENVELOPE
  6
CONTINUOUS
 62
     7
100
AcDbLine
 10
11.333333
 20
10.333333
 30
0.0
 11
11.333333
 21
4.666667
 31
0.0
  0
LINE
  5
121
100
AcDbEntity
  8
BUILDING_ENVELOPE
  6
CONTINUOUS
 62
     7
100
AcDbLine
 10
11.0
 20
10.0
 30
0.0
 11
11.0
 21
5.0
 31
0.0
  0
LWPOLYLINE
  5
122
102
{ACAD_REACTORS
330
123
102
}
100
AcDbEntity
  8
BUILDING_ENVELOPE
  6
CONTINUOUS
 62
     7
100
AcDbPolyline
 90
        4
 70
     1
 10
11.333333
 20
4.666667
 10
8.333333
 20
4.666667
 10
8.0
 20
5.0
 10
11.0
 20
5.0
  0
HATCH
  5
123
100
AcDbEntity
  8
BUILDING_ENVELOPE
 62
   253
100
AcDbHatch
 10
0.0
 20
0.0
 30
0.0
210
0.0
220
0.0
230
1.0
  2
SOLID
 70
     1
 71
     1
 91
        1
 92
        3
 72
     0
 73
     1
 93
        4
 10
11.333333333333337
 20
4.6666666666666661
 10
8.3333333333333375
 20
4.6666666666666661
 10
8.0
 20
5.0
 10
11.0
 20
5.0
 97
        1
330
122
 75
     0
 76
     1
 98
        0
  0
LINE
  5
124
100
AcDbEntity
  8
BUILDING_ENVELOPE
  6
CONTINUOUS
 62
     7
100
AcDbLine
 10
11.333333
 20
4.666667
 30
0.0
 11
8.333333
 21
4.666667
 31
0.0
  0
LINE
  5
125
100
AcDbEntity
  8
BUILDING_ENVELOPE
  6
CONTINUOUS
 62
     7
100
AcDbLine
 10
11.0
 20
5.0
 30
0.0
 11
8.0
 21
5.0
 31
0.0
  0
LWPOLYLINE
  5
126
102
{ACAD_REACTORS
330
127
102
}
100
AcDbEntity
  8
BUILDING_ENVELOPE
  6
CONTINUOUS
 62
     7
100
AcDbPolyline
 90
        4
 70
     1
 10
8.333333
 20
4.666667
 10
8.333333
 20
1.666667
 10
8.0
 20
2.0
 10
8.0
 20
5.0
  0
HATCH
  5
127
100
AcDbEntity
  8
BUILDING_ENVELOPE
 62
   253
100
AcDbHatch
 10
0.0
 20
0.0
 30
0.0
210
0.0
220
0.0
230
1.0
  2
SOLID
 70
     1
 71
     1
 91
        1
 92
        3
 72
     0
 73
     1
 93
        4
 10
8.3333333333333321
 20
4.6666666666666661
 10
8.3333333333333321
 20
1.6666666666666665
 10
8.0
 20
2.0
 10
8.0
 20
5.0
 97
        1
330
126
 75
     0
 76
     1
 98
        0
  0
LINE
  5
128
100
AcDbEntity
  8
BUILDING_ENVELOPE
  6
CONTINUOUS
 62
     7
100
AcDbLine
 10
8.333333
 20
4.666667
 30
0.0
 11
8.333333
 21
1.666667
 31
0.0
  0
LINE
  5
129
100
AcDbEntity
  8
BUILDING_ENVELOPE
  6
CONTINUOUS
 62
     7
100
AcDbLine
 10
8.0
 20
5.0
 30
0.0
 11
8.0
 21
2.0
 31
0.0
  0
LWPOLYLINE
  5
12A
102
{ACAD_REACTORS
330
12B
102
}
100
AcDbEntity
  8
BUILDING_ENVELOPE
  6
CONTINUOUS
 62
     7
100
AcDbPolyline
 90
        4
 70
     1
 10
8.333333
 20
1.666667
 10
3.666667
 20
1.666667
 10
4.0
 20
2.0
 10
8.0
 20
2.0
  0
HATCH
  5
12B
100
AcDbEntity
  8
BUILDING_ENVELOPE
 62
   253
100
AcDbHatch
 10
0.0
 20
0.0
 30
0.0
210
0.0
220
0.0
230
1.0
  2
SOLID
 70
     1
 71
     1
 91
        1
 92
        3
 72
     0
 73
     1
 93
        4
 10
8.3333333333333393
 20
1.6666666666666761
 10
3.6666666666666723
 20
1.6666666666666761
 10
4.0
 20
2.0000000000000093
 10
8.0
 20
2.0000000000000093
 97
        1
330
12A
 75
     0
 76
     1
 98
        0
  0
LINE
  5
12C
100
AcDbEntity
  8
BUILDING_ENVELOPE
  6
CONTINUOUS
 62
     7
100
AcDbLine
 10
8.333333
 20
1.666667
 30
0.0
 11
3.666667
 21
1.666667
 31
0.0
  0
LINE
  5
12D
100
AcDbEntity
  8
BUILDING_ENVELOPE
  6
CONTINUOUS
 62
     7
100
AcDbLine
 10
8.0
 20
2.0
 30
0.0
 11
4.0
 21
2.0
 31
0.0
  0
LWPOLYLINE
  5
12E
102
{ACAD_REACTORS
330
12F
102
}
100
AcDbEntity
  8
BUILDING_ENVELOPE
  6
CONTINUOUS
 62
     7
100
AcDbPolyline
 90
        4
 70
     1
 10
3.666667
 20
1.666667
 10
3.666667
 20
6.666667
 10
4.0
 20
7.0
 10
4.0
 20
2.0
  0
HATCH
  5
12F
100
AcDbEntity
  8
BUILDING_ENVELOPE
 62
   253
100
AcDbHatch
 10
0.0
 20
0.0
 30
0.0
210
0.0
220
0.0
230
1.0
  2
SOLID
 70
     1
 71
     1
 91
        1
 92
        3
 72
     0
 73
     1
 93
        4
 10
3.6666666666666665
 20
1.6666666666666865
 10
3.6666666666666665
 20
6.6666666666666661
 10
4.0
 20
7.0
 10
4.0
 20
2.0000000000000182
 97
        1
330
12E
 75
     0
 76
     1
 98
        0
  0
LINE
  5
130
100
AcDbEntity
  8
BUILDING_ENVELOPE
  6
CONTINUOUS
 62
     7
100
AcDbLine
 10
3.666667
 20
1.666667
 30
0.0
 11
3.666667
 21
6.666667
 31
0.0
  0
LINE
  5
131
100
AcDbEntity
  8
BUILDING_ENVELOPE
  6
CONTINUOUS
 62
     7
100
AcDbLine
 10
4.0
 20
2.0
 30
0.0
 11
4.0
 21
7.0
 31
0.0
  0
LWPOLYLINE
  5
132
102
{ACAD_REACTORS
330
133
102
}
100
AcDbEntity
  8
BUILDING_ENVELOPE
  6
CONTINUOUS
 62
     7
100
AcDbPolyline
 90
        4
 70
     1
 10
3.666667
 20
6.666667
 10
0.666667
 20
6.666667
 10
1.0
 20
7.0
 10
4.0
 20
7.0
  0
HATCH
  5
133
100
AcDbEntity
  8
BUILDING_ENVELOPE
 62
   253
100
AcDbHatch
 10
0.0
 20
0.0
 30
0.0
210
0.0
220
0.0
230
1.0
  2
SOLID
 70
     1
 71
     1
 91
        1
 92
        3
 72
     0
 73
     1
 93
        4
 10
3.6666666666666665
 20
6.6666666666666661
 10
0.6666666666666281
 20
6.6666666666666661
 10
0.9999999999999615
 20
7.0
 10
4.0
 20
7.0
 97
        1
330
132
 75
     0
 76
     1
 98
        0
  0
LINE
  5
134
100
AcDbEntity
  8
BUILDING_ENVELOPE
  6
CONTINUOUS
 62
     7
100
AcDbLine
 10
3.666667
 20
6.666667
 30
0.0
 11
0.666667
 21
6.666667
 31
0.0
  0
LINE
  5
135
100
AcDbEntity
  8
BUILDING_ENVELOPE
  6
CONTINUOUS
 62
     7
100
AcDbLine
 10
4.0
 20
7.0
 30
0.0
 11
1.0
 21
7.0
 31
0.0
  0
LWPOLYLINE
  5
136
102
{ACAD_REACTORS
330
137
102
}
100
AcDbEntity
  8
BUILDING_ENVELOPE
  6
CONTINUOUS
 62
     7
100
AcDbPolyline
 90
        4
 70
     1
 10
0.666667
 20
6.666667
 10
0.666667
 20
10.333333
 10
1.0
 20
10.0
 10
1.0
 20
7.0
  0
HATCH
  5
137
100
AcDbEntity
  8
BUILDING_ENVELOPE
 62
   253
100
AcDbHatch
 10
0.0
 20
0.0
 30
0.0
210
0.0
220
0.0
230
1.0
  2
SOLID
 70
     1
 71
     1
 91
        1
 92
        3
 72
     0
 73
     1
 93
        4
 10
0.666666666666643
 20
6.6666666666666616
 10
0.666666666666643
 20
10.333333333333323
 10
0.9999999999999762
 20
10.0
 10
0.9999999999999762
 20
7.0
 97
        1
330
136
 75
     0
 76
     1
 98
        0
  0
LINE
  5
138
100
AcDbEntity
  8
BUILDING_ENVELOPE
  6
CONTINUOUS
 62
     7
100
AcDbLine
 10
0.666667
 20
6.666667
 30
0.0
 11
0.666667
 21
10.333333
 31
0.0
  0
LINE
  5
139
100
AcDbEntity
  8
BUILDING_ENVELOPE
  6
CONTINUOUS
 62
     7
100
AcDbLine
 10
1.0
 20
7.0
 30
0.0
 11
1.0
 21
10.0
 31
0.0
  0
ENDBLK
  5
13A
100
AcDbEntity
  8
0
100
AcDbBlockEnd
  0
BLOCK
  5
13C
100
AcDbEntity
  8
0
100
AcDbBlockBegin
  2
OPPOSING
 70
     2
 10
0.0
 20
0.0
 30
0.0
  3
OPPOSING
  1

  0
ATTDEF
  5
13D
100
AcDbEntity
  8
0
100
AcDbText
 10
5.0
 20
5.0
 30
0.0
 40
0.2
  1
80
100
AcDbAttributeDefinition
  3
Door height
  2
VISDOORHEIGHT
 70
     0
  0
ATTDEF
  5
13E
100
AcDbEntity
  8
0
100
AcDbText
 10
5.0
 20
5.0
 30
0.0
 40
0.2
  1
0
100
AcDbAttributeDefinition
  3
Reference Line Offset
  2
REFLN
 70
     0
  0
ATTDEF
  5
13F
100
AcDbEntity
  8
0
100
AcDbText
 10
5.0
 20
5.0
 30
0.0
 40
0.2
  1
60
100
AcDbAttributeDefinition
  3
Door width
  2
SUBTYPE
 70
     0
  0
ATTDEF
  5
140
100
AcDbEntity
  8
0
100
AcDbText
 10
5.0
 20
5.0
 30
0.0
 40
0.2
  1
2
100
AcDbAttributeDefinition
  3
Door frame width
  2
SUBVISDOORFRAMEWIDTH
 70
     0
  0
ATTDEF
  5
141
100
AcDbEntity
  8
0
100
AcDbText
 10
5.0
 20
5.0
 30
0.0
 40
0.2
  1
4
100
AcDbAttributeDefinition
  3
Door frame depth
  2
SUBVISDOORFRAMEDEPTH
 70
     0
  0
ATTDEF
  5
142
100
AcDbEntity
  8
0
100
AcDbText
 10
5.0
 20
5.0
 30
0.0
 40
0.2
  1
0.5
100
AcDbAttributeDefinition
  3
Door stop width
  2
SUBVISDOORSTOPWIDTH
 70
     0
  0
ATTDEF
  5
143
100
AcDbEntity
  8
0
100
AcDbText
 10
5.0
 20
5.0
 30
0.0
 40
0.2
  1
1.5
100
AcDbAttributeDefinition
  3
Door stop depth
  2
SUBVISDOORSTOPDEPTH
 70
     0
  0
ATTDEF
  5
144
100
AcDbEntity
  8
0
100
AcDbText
 10
5.0
 20
5.0
 30
0.0
 40
0.2
  1
2
100
AcDbAttributeDefinition
  3
Door threshold depth inside
  2
SUBVISDOORTHRESDEPTHIN
 70
     0
  0
ATTDEF
  5
145
100
AcDbEntity
  8
0
100
AcDbText
 10
5.0
 20
5.0
 30
0.0
 40
0.2
  1
2
100
AcDbAttributeDefinition
  3
Door threshold width inside
  2
SUBVISDOORTHRESWIDTHIN
 70
     0
  0
ATTDEF
  5
146
100
AcDbEntity
  8
0
100
AcDbText
 10
5.0
 20
5.0
 30
0.0
 40
0.2
  1
2
100
AcDbAttributeDefinition
  3
Door threshold depth outside
  2
SUBVISDOORTHRESDEPTHOUT
 70
     0
  0
ATTDEF
  5
147
100
AcDbEntity
  8
0
100
AcDbText
 10
5.0
 20
5.0
 30
0.0
 40
0.2
  1
2
100
AcDbAttributeDefinition
  3
Door threshold width outside
  2
SUBVISDOORTHRESWIDTHOUT
 70
     0
  0
ATTDEF
  5
148
100
AcDbEntity
  8
0
100
AcDbText
 10
5.0
 20
5.0
 30
0.0
 40
0.2
  1
2
100
AcDbAttributeDefinition
  3
Door panel thickness
  2
SUBVISDOORPANELTHICKNESS
 70
     0
  0
ATTDEF
  5
149
100
AcDbEntity
  8
0
100
AcDbText
 10
5.0
 20
5.0
 30
0.0
 40
0.2
  1
30
100
AcDbAttributeDefinition
  3
Door leaf width
  2
VISDOORLEAF
 70
     0
  0
ATTDEF
  5
14A
100
AcDbEntity
  8
0
100
AcDbText
 10
5.0
 20
5.0
 30
0.0
 40
0.2
  1
12
100
AcDbAttributeDefinition
  3
Door spring height
  2
VISDOORSPRING
 70
     0
  0
ATTDEF
  5
14B
100
AcDbEntity
  8
0
100
AcDbText
 10
5.0
 20
5.0
 30
0.0
 40
0.2
  1
6
100
AcDbAttributeDefinition
  3
Door along wall offset
  2
VISDOORALONGWALLOFFSET
 70
     0
  0
ATTDEF
  5
14C
100
AcDbEntity
  8
0
100
AcDbText
 10
5.0
 20
5.0
 30
0.0
 40
0.2
  1
Opposing
100
AcDbAttributeDefinition
  3
Door type
  2
SUBSHAPETYPE
 70
     0
  0
ATTDEF
  5
14D
100
AcDbEntity
  8
0
100
AcDbText
 10
5.0
 20
5.0
 30
0.0
 40
0.2
  1
Center
100
AcDbAttributeDefinition
  3
Door within wall offset
  2
VISJUSTIFICATION
 70
     0
  0
ATTDEF
  5
14E
100
AcDbEntity
  8
0
100
AcDbText
 10
5.0
 20
5.0
 30
0.0
 40
0.2
  1
50
100
AcDbAttributeDefinition
  3
Door open percentage
  2
VISDOOROPENPERCENT
 70
     0
  0
ATTDEF
  5
14F
100
AcDbEntity
  8
0
100
AcDbText
 10
5.0
 20
5.0
 30
0.0
 40
0.2
  1
Building Component
100
AcDbAttributeDefinition
  3
Shape class
  2
SHAPECLASS
 70
     0
  0
ATTDEF
  5
150
100
AcDbEntity
  8
0
100
AcDbText
 10
5.0
 20
5.0
 30
0.0
 40
0.2
  1
Door
100
AcDbAttributeDefinition
  3
Shape type
  2
SHAPETYPE
 70
     0
  0
ATTDEF
  5
151
100
AcDbEntity
  8
0
100
AcDbText
 10
5.0
 20
5.0
 30
0.0
 40
0.2
  1
0
100
AcDbAttributeDefinition
  3
Fire rating
  2
FIRERATING
 70
     0
  0
ATTDEF
  5
152
100
AcDbEntity
  8
0
100
AcDbText
 10
5.0
 20
5.0
 30
0.0
 40
0.2
  1
0
100
AcDbAttributeDefinition
  3
Door number
  2
DOORNUMBER
 70
     0
  0
ATTDEF
  5
153
100
AcDbEntity
  8
0
100
AcDbText
 10
5.0
 20
5.0
 30
0.0
 40
0.2
  1
0
100
AcDbAttributeDefinition
  3
Base elevation
  2
BASEELEVATION
 70
     0
  0
LWPOLYLINE
  5
154
102
{ACAD_REACTORS
330
1B4
102
}
100
AcDbEntity
  8
BUILDING_ENVELOPE
  6
CONTINUOUS
 62
     7
100
AcDbPolyline
 90
        4
 70
     1
 10
2.333333
 20
4.734
 10
7.666667
 20
4.734
 10
7.666667
 20
5.266
 10
2.333333
 20
5.266
  0
LINE
  5
155
102
{ACAD_REACTORS
330
1B4
102
}
100
AcDbEntity
  8
BUILDING_ENVELOPE
  6
CONTINUOUS
 62
     7
100
AcDbLine
 10
7.666667
 20
4.75
 30
0.0
 11
7.666667
 21
5.25
 31
0.0
  0
LINE
  5
156
102
{ACAD_REACTORS
330
1B4
102
}
100
AcDbEntity
  8
BUILDING_ENVELOPE
  6
CONTINUOUS
 62
     7
100
AcDbLine
 10
7.666667
 20
5.25
 30
0.0
 11
7.5
 21
5.25
 31
0.0
  0
LINE
  5
157
102
{ACAD_REACTORS
330
1B4
102
}
100
AcDbEntity
  8
BUILDING_ENVELOPE
  6
CONTINUOUS
 62
     7
100
AcDbLine
 10
7.5
 20
5.25
 30
0.0
 11
7.5
 21
5.083333
 31
0.0
  0
LINE
  5
158
102
{ACAD_REACTORS
330
1B4
102
}
100
AcDbEntity
  8
BUILDING_ENVELOPE
  6
CONTINUOUS
 62
     7
100
AcDbLine
 10
7.5
 20
4.958333
 30
0.0
 11
7.5
 21
4.75
 31
0.0
  0
LINE
  5
159
102
{ACAD_REACTORS
330
1B4
102
}
100
AcDbEntity
  8
BUILDING_ENVELOPE
  6
CONTINUOUS
 62
     7
100
AcDbLine
 10
7.5
 20
4.75
 30
0.0
 11
7.666667
 21
4.75
 31
0.0
  0
LINE
  5
15A
102
{ACAD_REACTORS
330
1B4
102
}
100
AcDbEntity
  8
BUILDING_ENVELOPE
  6
CONTINUOUS
 62
     7
100
AcDbLine
 10
2.333333
 20
4.75
 30
0.0
 11
2.333333
 21
5.25
 31
0.0
  0
LINE
  5
15B
102
{ACAD_REACTORS
330
1B4
102
}
100
AcDbEntity
  8
BUILDING_ENVELOPE
  6
CONTINUOUS
 62
     7
100
AcDbLine
 10
2.333333
 20
5.25
 30
0.0
 11
2.5
 21
5.25
 31
0.0
  0
LINE
  5
15C
102
{ACAD_REACTORS
330
1B4
102
}
100
AcDbEntity
  8
BUILDING_ENVELOPE
  6
CONTINUOUS
 62
     7
100
AcDbLine
 10
2.5
 20
5.25
 30
0.0
 11
2.5
 21
5.041667
 31
0.0
  0
LINE
  5
15D
102
{ACAD_REACTORS
330
1B4
102
}
100
AcDbEntity
  8
BUILDING_ENVELOPE
  6
CONTINUOUS
 62
     7
100
AcDbLine
 10
2.5
 20
4.916667
 30
0.0
 11
2.5
 21
4.75
 31
0.0
  0
LINE
  5
15E
102
{ACAD_REACTORS
330
1B4
102
}
100
AcDbEntity
  8
BUILDING_ENVELOPE
  6
CONTINUOUS
 62
     7
100
AcDbLine
 10
2.5
 20
4.75
 30
0.0
 11
2.333333
 21
4.75
 31
0.0
  0
LINE
  5
15F
102
{ACAD_REACTORS
330
1B4
102
}
100
AcDbEntity
  8
BUILDING_ENVELOPE
  6
CONTINUOUS
 62
     7
100
AcDbLine
 10
7.5
 20
5.083333
 30
0.0
 11
7.458333
 21
5.083333
 31
0.0
  0
LINE
  5
160
102
{ACAD_REACTORS
330
1B4
102
}
100
AcDbEntity
  8
BUILDING_ENVELOPE
  6
CONTINUOUS
 62
     7
100
AcDbLine
 10
7.458333
 20
5.083333
 30
0.0
 11
7.458333
 21
4.958333
 31
0.0
  0
LINE
  5
161
102
{ACAD_REACTORS
330
1B4
102
}
100
AcDbEntity
  8
BUILDING_ENVELOPE
  6
CONTINUOUS
 62
     7
100
AcDbLine
 10
7.458333
 20
4.958333
 30
0.0
 11
7.5
 21
4.958333
 31
0.0
  0
LINE
  5
162
102
{ACAD_REACTORS
330
1B4
102
}
100
AcDbEntity
  8
BUILDING_ENVELOPE
  6
CONTINUOUS
 62
     7
100
AcDbLine
 10
2.5
 20
5.041667
 30
0.0
 11
2.541667
 21
5.041667
 31
0.0
  0
LINE
  5
163
102
{ACAD_REACTORS
330
1B4
102
}
100
AcDbEntity
  8
BUILDING_ENVELOPE
  6
CONTINUOUS
 62
     7
100
AcDbLine
 10
2.541667
 20
5.041667
 30
0.0
 11
2.541667
 21
4.916667
 31
0.0
  0
LINE
  5
164
102
{ACAD_REACTORS
330
1B4
102
}
100
AcDbEntity
  8
BUILDING_ENVELOPE
  6
CONTINUOUS
 62
     7
100
AcDbLine
 10
2.541667
 20
4.916667
 30
0.0
 11
2.5
 21
4.916667
 31
0.0
  0
LINE
  5
165
100
AcDbEntity
  8
BUILDING_ENVELOPE
  6
CONTINUOUS
 62
     7
100
AcDbLine
 10
7.666667
 20
4.75
 30
0.0
 11
7.666667
 21
5.25
 31
0.0
  0
LINE
  5
166
100
AcDbEntity
  8
BUILDING_ENVELOPE
  6
CONTINUOUS
 62
     7
100
AcDbLine
 10
2.333333
 20
4.75
 30
0.0
 11
2.333333
 21
5.25
 31
0.0
  0
ARC
  5
167
100
AcDbEntity
  8
BUILDING_ENVELOPE
  6
CONTINUOUS
 62
     7
100
AcDbCircle
 10
7.5
 20
5.25
 30
0.0
 40
2.5
100
AcDbArc
 50
90.0
 51
180.0
  0
LWPOLYLINE
  5
168
102
{ACAD_REACTORS
330
1B4
102
}
100
AcDbEntity
  8
BUILDING_ENVELOPE
  6
CONTINUOUS
 62
     7
100
AcDbPolyline
 90
        4
 70
     1
 10
7.333333
 20
7.75
 10
7.333333
 20
5.25
 10
7.5
 20
5.25
 10
7.5
 20
7.75
  0
LWPOLYLINE
  5
169
102
{ACAD_REACTORS
330
1B4
102
}
100
AcDbEntity
  8
BUILDING_ENVELOPE
  6
CONTINUOUS
 62
     7
100
AcDbPolyline
 90
        4
 70
     1
 10
2.666667
 20
2.25
 10
2.666667
 20
4.75
 10
2.5
 20
4.75
 10
2.5
 20
2.25
  0
ARC
  5
16A
100
AcDbEntity
  8
BUILDING_ENVELOPE
  6
CONTINUOUS
 62
     7
100
AcDbCircle
 10
2.5
 20
4.75
 30
0.0
 40
2.5
100
AcDbArc
 50
270.0
 51
0.0
  0
ENDBLK
  5
16B
100
AcDbEntity
  8
0
100
AcDbBlockEnd
  0
BLOCK
  5
16D
100
AcDbEntity
  8
0
100
AcDbBlockBegin
  2
UNEVEN
 70
     2
 10
0.0
 20
0.0
 30
0.0
  3
UNEVEN
  1

  0
ATTDEF
  5
16E
100
AcDbEntity
  8
0
100
AcDbText
 10
5.0
 20
5.0
 30
0.0
 40
0.2
  1
80
100
AcDbAttributeDefinition
  3
Door height
  2
VISDOORHEIGHT
 70
     0
  0
ATTDEF
  5
16F
100
AcDbEntity
  8
0
100
AcDbText
 10
5.0
 20
5.0
 30
0.0
 40
0.2
  1
0
100
AcDbAttributeDefinition
  3
Reference Line Offset
  2
REFLN
 70
     0
  0
ATTDEF
  5
170
100
AcDbEntity
  8
0
100
AcDbText
 10
5.0
 20
5.0
 30
0.0
 40
0.2
  1
60
100
AcDbAttributeDefinition
  3
Door width
  2
SUBTYPE
 70
     0
  0
ATTDEF
  5
171
100
AcDbEntity
  8
0
100
AcDbText
 10
5.0
 20
5.0
 30
0.0
 40
0.2
  1
2
100
AcDbAttributeDefinition
  3
Door frame width
  2
SUBVISDOORFRAMEWIDTH
 70
     0
  0
ATTDEF
  5
172
100
AcDbEntity
  8
0
100
AcDbText
 10
5.0
 20
5.0
 30
0.0
 40
0.2
  1
4
100
AcDbAttributeDefinition
  3
Door frame depth
  2
SUBVISDOORFRAMEDEPTH
 70
     0
  0
ATTDEF
  5
173
100
AcDbEntity
  8
0
100
AcDbText
 10
5.0
 20
5.0
 30
0.0
 40
0.2
  1
0.5
100
AcDbAttributeDefinition
  3
Door stop width
  2
SUBVISDOORSTOPWIDTH
 70
     0
  0
ATTDEF
  5
174
100
AcDbEntity
  8
0
100
AcDbText
 10
5.0
 20
5.0
 30
0.0
 40
0.2
  1
1.5
100
AcDbAttributeDefinition
  3
Door stop depth
  2
SUBVISDOORSTOPDEPTH
 70
     0
  0
ATTDEF
  5
175
100
AcDbEntity
  8
0
100
AcDbText
 10
5.0
 20
5.0
 30
0.0
 40
0.2
  1
2
100
AcDbAttributeDefinition
  3
Door threshold depth inside
  2
SUBVISDOORTHRESDEPTHIN
 70
     0
  0
ATTDEF
  5
176
100
AcDbEntity
  8
0
100
AcDbText
 10
5.0
 20
5.0
 30
0.0
 40
0.2
  1
2
100
AcDbAttributeDefinition
  3
Door threshold width inside
  2
SUBVISDOORTHRESWIDTHIN
 70
     0
  0
ATTDEF
  5
177
100
AcDbEntity
  8
0
100
AcDbText
 10
5.0
 20
5.0
 30
0.0
 40
0.2
  1
2
100
AcDbAttributeDefinition
  3
Door threshold depth outside
  2
SUBVISDOORTHRESDEPTHOUT
 70
     0
  0
ATTDEF
  5
178
100
AcDbEntity
  8
0
100
AcDbText
 10
5.0
 20
5.0
 30
0.0
 40
0.2
  1
2
100
AcDbAttributeDefinition
  3
Door threshold width outside
  2
SUBVISDOORTHRESWIDTHOUT
 70
     0
  0
ATTDEF
  5
179
100
AcDbEntity
  8
0
100
AcDbText
 10
5.0
 20
5.0
 30
0.0
 40
0.2
  1
2
100
AcDbAttributeDefinition
  3
Door panel thickness
  2
SUBVISDOORPANELTHICKNESS
 70
     0
  0
ATTDEF
  5
17A
100
AcDbEntity
  8
0
100
AcDbText
 10
5.0
 20
5.0
 30
0.0
 40
0.2
  1
36
100
AcDbAttributeDefinition
  3
Door leaf width
  2
VISDOORLEAF
 70
     0
  0
ATTDEF
  5
17B
100
AcDbEntity
  8
0
100
AcDbText
 10
5.0
 20
5.0
 30
0.0
 40
0.2
  1
12
100
AcDbAttributeDefinition
  3
Door spring height
  2
VISDOORSPRING
 70
     0
  0
ATTDEF
  5
17C
100
AcDbEntity
  8
0
100
AcDbText
 10
5.0
 20
5.0
 30
0.0
 40
0.2
  1
6
100
AcDbAttributeDefinition
  3
Door along wall offset
  2
VISDOORALONGWALLOFFSET
 70
     0
  0
ATTDEF
  5
17D
100
AcDbEntity
  8
0
100
AcDbText
 10
5.0
 20
5.0
 30
0.0
 40
0.2
  1
Uneven
100
AcDbAttributeDefinition
  3
Door type
  2
SUBSHAPETYPE
 70
     0
  0
ATTDEF
  5
17E
100
AcDbEntity
  8
0
100
AcDbText
 10
5.0
 20
5.0
 30
0.0
 40
0.2
  1
Center
100
AcDbAttributeDefinition
  3
Door within wall offset
  2
VISJUSTIFICATION
 70
     0
  0
ATTDEF
  5
17F
100
AcDbEntity
  8
0
100
AcDbText
 10
5.0
 20
5.0
 30
0.0
 40
0.2
  1
50
100
AcDbAttributeDefinition
  3
Door open percentage
  2
VISDOOROPENPERCENT
 70
     0
  0
ATTDEF
  5
180
100
AcDbEntity
  8
0
100
AcDbText
 10
5.0
 20
5.0
 30
0.0
 40
0.2
  1
Building Component
100
AcDbAttributeDefinition
  3
Shape class
  2
SHAPECLASS
 70
     0
  0
ATTDEF
  5
181
100
AcDbEntity
  8
0
100
AcDbText
 10
5.0
 20
5.0
 30
0.0
 40
0.2
  1
Door
100
AcDbAttributeDefinition
  3
Shape type
  2
SHAPETYPE
 70
     0
  0
ATTDEF
  5
182
100
AcDbEntity
  8
0
100
AcDbText
 10
5.0
 20
5.0
 30
0.0
 40
0.2
  1
0
100
AcDbAttributeDefinition
  3
Fire rating
  2
FIRERATING
 70
     0
  0
ATTDEF
  5
183
100
AcDbEntity
  8
0
100
AcDbText
 10
5.0
 20
5.0
 30
0.0
 40
0.2
  1
0
100
AcDbAttributeDefinition
  3
Door number
  2
DOORNUMBER
 70
     0
  0
ATTDEF
  5
184
100
AcDbEntity
  8
0
100
AcDbText
 10
5.0
 20
5.0
 30
0.0
 40
0.2
  1
0
100
AcDbAttributeDefinition
  3
Base elevation
  2
BASEELEVATION
 70
     0
  0
LWPOLYLINE
  5
185
102
{ACAD_REACTORS
330
1B4
102
}
100
AcDbEntity
  8
BUILDING_ENVELOPE
  6
CONTINUOUS
 62
     7
100
AcDbPolyline
 90
        4
 70
     1
 10
2.333333
 20
4.734
 10
7.666667
 20
4.734
 10
7.666667
 20
5.266
 10
2.333333
 20
5.266
  0
LINE
  5
186
102
{ACAD_REACTORS
330
1B4
102
}
100
AcDbEntity
  8
BUILDING_ENVELOPE
  6
CONTINUOUS
 62
     7
100
AcDbLine
 10
7.666667
 20
4.75
 30
0.0
 11
7.666667
 21
5.25
 31
0.0
  0
LINE
  5
187
102
{ACAD_REACTORS
330
1B4
102
}
100
AcDbEntity
  8
BUILDING_ENVELOPE
  6
CONTINUOUS
 62
     7
100
AcDbLine
 10
7.666667
 20
5.25
 30
0.0
 11
7.5
 21
5.25
 31
0.0
  0
LINE
  5
188
102
{ACAD_REACTORS
330
1B4
102
}
100
AcDbEntity
  8
BUILDING_ENVELOPE
  6
CONTINUOUS
 62
     7
100
AcDbLine
 10
7.5
 20
5.25
 30
0.0
 11
7.5
 21
5.083333
 31
0.0
  0
LINE
  5
189
102
{ACAD_REACTORS
330
1B4
102
}
100
AcDbEntity
  8
BUILDING_ENVELOPE
  6
CONTINUOUS
 62
     7
100
AcDbLine
 10
7.5
 20
4.958333
 30
0.0
 11
7.5
 21
4.75
 31
0.0
  0
LINE
  5
18A
102
{ACAD_REACTORS
330
1B4
102
}
100
AcDbEntity
  8
BUILDING_ENVELOPE
  6
CONTINUOUS
 62
     7
100
AcDbLine
 10
7.5
 20
4.75
 30
0.0
 11
7.666667
 21
4.75
 31
0.0
  0
LINE
  5
18B
102
{ACAD_REACTORS
330
1B4
102
}
100
AcDbEntity
  8
BUILDING_ENVELOPE
  6
CONTINUOUS
 62
     7
100
AcDbLine
 10
2.333333
 20
4.75
 30
0.0
 11
2.333333
 21
5.25
 31
0.0
  0
LINE
  5
18C
102
{ACAD_REACTORS
330
1B4
102
}
100
AcDbEntity
  8
BUILDING_ENVELOPE
  6
CONTINUOUS
 62
     7
100
AcDbLine
 10
2.333333
 20
5.25
 30
0.0
 11
2.5
 21
5.25
 31
0.0
  0
LINE
  5
18D
102
{ACAD_REACTORS
330
1B4
102
}
100
AcDbEntity
  8
BUILDING_ENVELOPE
  6
CONTINUOUS
 62
     7
100
AcDbLine
 10
2.5
 20
5.25
 30
0.0
 11
2.5
 21
5.083333
 31
0.0
  0
LINE
  5
18E
102
{ACAD_REACTORS
330
1B4
102
}
100
AcDbEntity
  8
BUILDING_ENVELOPE
  6
CONTINUOUS
 62
     7
100
AcDbLine
 10
2.5
 20
4.958333
 30
0.0
 11
2.5
 21
4.75
 31
0.0
  0
LINE
  5
18F
102
{ACAD_REACTORS
330
1B4
102
}
100
AcDbEntity
  8
BUILDING_ENVELOPE
  6
CONTINUOUS
 62
     7
100
AcDbLine
 10
2.5
 20
4.75
 30
0.0
 11
2.333333
 21
4.75
 31
0.0
  0
LINE
  5
190
102
{ACAD_REACTORS
330
1B4
102
}
100
AcDbEntity
  8
BUILDING_ENVELOPE
  6
CONTINUOUS
 62
     7
100
AcDbLine
 10
7.5
 20
5.083333
 30
0.0
 11
7.458333
 21
5.083333
 31
0.0
  0
LINE
  5
191
102
{ACAD_REACTORS
330
1B4
102
}
100
AcDbEntity
  8
BUILDING_ENVELOPE
  6
CONTINUOUS
 62
     7
100
AcDbLine
 10
7.458333
 20
5.083333
 30
0.0
 11
7.458333
 21
4.958333
 31
0.0
  0
LINE
  5
192
102
{ACAD_REACTORS
330
1B4
102
}
100
AcDbEntity
  8
BUILDING_ENVELOPE
  6
CONTINUOUS
 62
     7
100
AcDbLine
 10
7.458333
 20
4.958333
 30
0.0
 11
7.5
 21
4.958333
 31
0.0
  0
LINE
  5
193
102
{ACAD_REACTORS
330
1B4
102
}
100
AcDbEntity
  8
BUILDING_ENVELOPE
  6
CONTINUOUS
 62
     7
100
AcDbLine
 10
2.5
 20
5.083333
 30
0.0
 11
2.541667
 21
5.083333
 31
0.0
  0
LINE
  5
194
102
{ACAD_REACTORS
330
1B4
102
}
100
AcDbEntity
  8
BUILDING_ENVELOPE
  6
CONTINUOUS
 62
     7
100
AcDbLine
 10
2.541667
 20
5.083333
 30
0.0
 11
2.541667
 21
4.958333
 31
0.0
  0
LINE
  5
195
102
{ACAD_REACTORS
330
1B4
102
}
100
AcDbEntity
  8
BUILDING_ENVELOPE
  6
CONTINUOUS
 62
     7
100
AcDbLine
 10
2.541667
 20
4.958333
 30
0.0
 11
2.5
 21
4.958333
 31
0.0
  0
LINE
  5
196
100
AcDbEntity
  8
BUILDING_ENVELOPE
  6
CONTINUOUS
 62
     7
100
AcDbLine
 10
7.666667
 20
4.75
 30
0.0
 11
7.666667
 21
5.25
 31
0.0
  0
LINE
  5
197
100
AcDbEntity
  8
BUILDING_ENVELOPE
  6
CONTINUOUS
 62
     7
100
AcDbLine
 10
2.333333
 20
4.75
 30
0.0
 11
2.333333
 21
5.25
 31
0.0
  0
ARC
  5
198
100
AcDbEntity
  8
BUILDING_ENVELOPE
  6
CONTINUOUS
 62
     7
100
AcDbCircle
 10
2.5
 20
5.25
 30
0.0
 40
3.0
100
AcDbArc
 50
0.0
 51
90.0
  0
ARC
  5
199
100
AcDbEntity
  8
BUILDING_ENVELOPE
  6
CONTINUOUS
 62
     7
100
AcDbCircle
 10
7.5
 20
5.25
 30
0.0
 40
2.0
100
AcDbArc
 50
90.0
 51
180.0
  0
LWPOLYLINE
  5
19A
102
{ACAD_REACTORS
330
1B4
102
}
100
AcDbEntity
  8
BUILDING_ENVELOPE
  6
CONTINUOUS
 62
     7
100
AcDbPolyline
 90
        4
 70
     1
 10
2.5
 20
8.25
 10
2.5
 20
5.25
 10
2.666667
 20
5.25
 10
2.666667
 20
8.25
  0
LWPOLYLINE
  5
19B
102
{ACAD_REACTORS
330
1B4
102
}
100
AcDbEntity
  8
BUILDING_ENVELOPE
  6
CONTINUOUS
 62
     7
100
AcDbPolyline
 90
        4
 70
     1
 10
7.333333
 20
7.25
 10
7.333333
 20
5.25
 10
7.5
 20
5.25
 10
7.5
 20
7.25
  0
ENDBLK
  5
19C
100
AcDbEntity
  8
0
100
AcDbBlockEnd
  0
BLOCK
  5
19E
100
AcDbEntity
  8
0
100
AcDbBlockBegin
  2
CURTAIN_WALL
 70
     2
 10
0.0
 20
0.0
 30
0.0
  3
CURTAIN_WALL
  1

  0
ATTDEF
  5
19F
100
AcDbEntity
  8
0
100
AcDbText
 10
5.0
 20
5.0
 30
0.0
 40
0.2
  1
4.5
100
AcDbAttributeDefinition
  3
Wall thickness
  2
T
 70
     0
  0
ATTDEF
  5
1A0
100
AcDbEntity
  8
0
100
AcDbText
 10
5.0
 20
5.0
 30
0.0
 40
0.2
  1
0
100
AcDbAttributeDefinition
  3
Reference line offset
  2
REFLN
 70
     0
  0
ATTDEF
  5
1A1
100
AcDbEntity
  8
0
100
AcDbText
 10
5.0
 20
5.0
 30
0.0
 40
0.2
  1
6
100
AcDbAttributeDefinition
  3
Mullion width
  2
MW
 70
     0
  0
ATTDEF
  5
1A2
100
AcDbEntity
  8
0
100
AcDbText
 10
5.0
 20
5.0
 30
0.0
 40
0.2
  1
0
100
AcDbAttributeDefinition
  3

  2
MH
 70
     0
  0
ATTDEF
  5
1A3
100
AcDbEntity
  8
0
100
AcDbText
 10
5.0
 20
5.0
 30
0.0
 40
0.2
  1
5
100
AcDbAttributeDefinition
  3

  2
NUMMULLIONS
 70
     0
  0
ATTDEF
  5
1A4
100
AcDbEntity
  8
0
100
AcDbText
 10
5.0
 20
5.0
 30
0.0
 40
0.2
  1
Middle
100
AcDbAttributeDefinition
  3
Glass location
  2
GLASSLOC
 70
     0
  0
ATTDEF
  5
1A5
100
AcDbEntity
  8
0
100
AcDbText
 10
5.0
 20
5.0
 30
0.0
 40
0.2
  1
Building Component
100
AcDbAttributeDefinition
  3
Shape class
  2
SHAPECLASS
 70
     0
  0
ATTDEF
  5
1A6
100
AcDbEntity
  8
0
100
AcDbText
 10
5.0
 20
5.0
 30
0.0
 40
0.2
  1

100
AcDbAttributeDefinition
  3
Shape type
  2
SHAPETYPE
 70
     0
  0
ATTDEF
  5
1A7
100
AcDbEntity
  8
0
100
AcDbText
 10
5.0
 20
5.0
 30
0.0
 40
0.2
  1

100
AcDbAttributeDefinition
  3
Subshape type
  2
SUBSHAPETYPE
 70
     0
  0
ATTDEF
  5
1A8
100
AcDbEntity
  8
0
100
AcDbText
 10
5.0
 20
5.0
 30
0.0
 40
0.2
  1
0
100
AcDbAttributeDefinition
  3
Fire rating
  2
FIRERATING
 70
     0
  0
LWPOLYLINE
  5
1A9
102
{ACAD_REACTORS
330
1B4
102
}
100
AcDbEntity
  8
BUILDING_ENVELOPE
  6
CONTINUOUS
 62
     7
100
AcDbPolyline
 90
        2
 70
     1
 10
0.0
 20
5.1875
 10
10.0
 20
5.1875
  0
LWPOLYLINE
  5
1AA
102
{ACAD_REACTORS
330
1B4
102
}
100
AcDbEntity
  8
BUILDING_ENVELOPE
  6
CONTINUOUS
 62
     7
100
AcDbPolyline
 90
        4
 70
     1
 10
0.0
 20
5.0
 10
0.5
 20
5.0
 10
0.5
 20
5.375
 10
0.0
 20
5.375
  0
LWPOLYLINE
  5
1AB
102
{ACAD_REACTORS
330
1B4
102
}
100
AcDbEntity
  8
BUILDING_ENVELOPE
  6
CONTINUOUS
 62
     7
100
AcDbPolyline
 90
        4
 70
     1
 10
2.375
 20
5.0
 10
2.875
 20
5.0
 10
2.875
 20
5.375
 10
2.375
 20
5.375
  0
LWPOLYLINE
  5
1AC
102
{ACAD_REACTORS
330
1B4
102
}
100
AcDbEntity
  8
BUILDING_ENVELOPE
  6
CONTINUOUS
 62
     7
100
AcDbPolyline
 90
        4
 70
     1
 10
4.75
 20
5.0
 10
5.25
 20
5.0
 10
5.25
 20
5.375
 10
4.75
 20
5.375
  0
LWPOLYLINE
  5
1AD
102
{ACAD_REACTORS
330
1B4
102
}
100
AcDbEntity
  8
BUILDING_ENVELOPE
  6
CONTINUOUS
 62
     7
100
AcDbPolyline
 90
        4
 70
     1
 10
7.125
 20
5.0
 10
7.625
 20
5.0
 10
7.625
 20
5.375
 10
7.125
 20
5.375
  0
LWPOLYLINE
  5
1AE
102
{ACAD_REACTORS
330
1B4
102
}
100
AcDbEntity
  8
BUILDING_ENVELOPE
  6
CONTINUOUS
 62
     7
100
AcDbPolyline
 90
        4
 70
     1
 10
9.5
 20
5.0
 10
10.0
 20
5.0
 10
10.0
 20
5.375
 10
9.5
 20
5.375
  0
ENDBLK
  5
1AF
100
AcDbEntity
  8
0
100
AcDbBlockEnd
  0
BLOCK
  5
1B1
100
AcDbEntity
  8
0
100
AcDbBlockBegin
  2
RECTANGULAR_COLUMN
 70
     0
 10
0.0
 20
0.0
 30
0.0
  3
RECTANGULAR_COLUMN
  1

  0
LWPOLYLINE
  5
1B2
100
AcDbEntity
  8
BUILDING_ENVELOPE
  6
CONTINUOUS
 62
     7
100
AcDbPolyline
 90
       12
 70
     1
 10
5.6
 20
5.6
 10
4.4
 20
5.6
 10
4.4
 20
5.466667
 10
4.933333
 20
5.466667
 10
4.933333
 20
4.533333
 10
4.4
 20
4.533333
 10
4.4
 20
4.4
 10
5.6
 20
4.4
 10
5.6
 20
4.533333
 10
5.066667
 20
4.533333
 10
5.066667
 20
5.466667
 10
5.6
 20
5.466667
  0
LWPOLYLINE
  5
1B3
102
{ACAD_REACTORS
330
1B4
102
}
100
AcDbEntity
  8
BUILDING_ENVELOPE
  6
CONTINUOUS
 62
     7
100
AcDbPolyline
 90
        4
 70
     1
 10
4.0
 20
4.0
 10
4.0
 20
6.0
 10
6.0
 20
6.0
 10
6.0
 20
4.0
  0
HATCH
  5
1B4
100
AcDbEntity
  8
BUILDING_ENVELOPE
 62
   253
100
AcDbHatch
 10
0.0
 20
0.0
 30
0.0
210
0.0
220
0.0
230
1.0
  2
SOLID
 70
     1
 71
     1
 91
        1
 92
        3
 72
     0
 73
     1
 93
        4
 10
4.0
 20
4.0
 10
4.0
 20
6.0
 10
6.0
 20
6.0
 10
6.0
 20
4.0
 97
       45
330
154
330
155
330
156
330
157
330
158
330
159
330
15A
330
15B
330
15C
330
15D
330
15E
330
15F
330
160
330
161
330
162
330
163
330
164
330
168
330
169
330
185
330
186
330
187
330
188
330
189
330
18A
330
18B
330
18C
330
18D
330
18E
330
18F
330
190
330
191
330
192
330
193
330
194
330
195
330
19A
330
19B
330
1A9
330
1AA
330
1AB
330
1AC
330
1AD
330
1AE
330
1B3
 75
     0
 76
     1
 98
        0
  0
ENDBLK
  5
1B5
100
AcDbEntity
  8
0
100
AcDbBlockEnd
  0
BLOCK
  5
1B7
100
AcDbEntity
  8
0
100
AcDbBlockBegin
  2
DOOR_SCHEDULE
 70
     2
 10
0.0
 20
0.0
 30
0.0
  3
DOOR_SCHEDULE
  1

  0
LWPOLYLINE
  5
1B8
100
AcDbEntity
  8
0
  6
CONTINUOUS
 62
     7
100
AcDbPolyline
 90
        4
 70
     1
 10
0.0
 20
0.039731
 10
0.333333
 20
0.039731
 10
0.333333
 20
0.166667
 10
0.0
 20
0.166667
  0
ENDBLK
  5
1B9
100
AcDbEntity
  8
0
100
AcDbBlockEnd
  0
BLOCK
  5
1BB
100
AcDbEntity
  8
0
100
AcDbBlockBegin
  2
DOOR
 70
     0
 10
0.0
 20
0.0
 30
0.0
  3
DOOR
  1

  0
LWPOLYLINE
  5
1BC
102
{ACAD_REACTORS
330
1E2
102
}
100
AcDbEntity
  8
BUILDING_ENVELOPE
  6
CONTINUOUS
 62
     7
100
AcDbPolyline
 90
        4
 70
     1
 10
3.583333
 20
4.734
 10
6.416667
 20
4.734
 10
6.416667
 20
5.266
 10
3.583333
 20
5.266
  0
LINE
  5
1BD
102
{ACAD_REACTORS
330
1E2
102
}
100
AcDbEntity
  8
BUILDING_ENVELOPE
  6
CONTINUOUS
 62
     7
100
AcDbLine
 10
6.416667
 20
4.75
 30
0.0
 11
6.416667
 21
5.25
 31
0.0
  0
LINE
  5
1BE
102
{ACAD_REACTORS
330
1E2
102
}
100
AcDbEntity
  8
BUILDING_ENVELOPE
  6
CONTINUOUS
 62
     7
100
AcDbLine
 10
6.416667
 20
5.25
 30
0.0
 11
6.25
 21
5.25
 31
0.0
  0
LINE
  5
1BF
102
{ACAD_REACTORS
330
1E2
102
}
100
AcDbEntity
  8
BUILDING_ENVELOPE
  6
CONTINUOUS
 62
     7
100
AcDbLine
 10
6.25
 20
5.25
 30
0.0
 11
6.25
 21
5.083333
 31
0.0
  0
LINE
  5
1C0
102
{ACAD_REACTORS
330
1E2
102
}
100
AcDbEntity
  8
BUILDING_ENVELOPE
  6
CONTINUOUS
 62
     7
100
AcDbLine
 10
6.25
 20
4.958333
 30
0.0
 11
6.25
 21
4.75
 31
0.0
  0
LINE
  5
1C1
102
{ACAD_REACTORS
330
1E2
102
}
100
AcDbEntity
  8
BUILDING_ENVELOPE
  6
CONTINUOUS
 62
     7
100
AcDbLine
 10
6.25
 20
4.75
 30
0.0
 11
6.416667
 21
4.75
 31
0.0
  0
LINE
  5
1C2
102
{ACAD_REACTORS
330
1E2
102
}
100
AcDbEntity
  8
BUILDING_ENVELOPE
  6
CONTINUOUS
 62
     7
100
AcDbLine
 10
3.583333
 20
4.75
 30
0.0
 11
3.583333
 21
5.25
 31
0.0
  0
LINE
  5
1C3
102
{ACAD_REACTORS
330
1E2
102
}
100
AcDbEntity
  8
BUILDING_ENVELOPE
  6
CONTINUOUS
 62
     7
100
AcDbLine
 10
3.583333
 20
5.25
 30
0.0
 11
3.75
 21
5.25
 31
0.0
  0
LINE
  5
1C4
102
{ACAD_REACTORS
330
1E2
102
}
100
AcDbEntity
  8
BUILDING_ENVELOPE
  6
CONTINUOUS
 62
     7
100
AcDbLine
 10
3.75
 20
5.25
 30
0.0
 11
3.75
 21
5.083333
 31
0.0
  0
LINE
  5
1C5
102
{ACAD_REACTORS
330
1E2
102
}
100
AcDbEntity
  8
BUILDING_ENVELOPE
  6
CONTINUOUS
 62
     7
100
AcDbLine
 10
3.75
 20
4.958333
 30
0.0
 11
3.75
 21
4.75
 31
0.0
  0
LINE
  5
1C6
102
{ACAD_REACTORS
330
1E2
102
}
100
AcDbEntity
  8
BUILDING_ENVELOPE
  6
CONTINUOUS
 62
     7
100
AcDbLine
 10
3.75
 20
4.75
 30
0.0
 11
3.583333
 21
4.75
 31
0.0
  0
LINE
  5
1C7
102
{ACAD_REACTORS
330
1E2
102
}
100
AcDbEntity
  8
BUILDING_ENVELOPE
  6
CONTINUOUS
 62
     7
100
AcDbLine
 10
6.25
 20
5.083333
 30
0.0
 11
6.208333
 21
5.083333
 31
0.0
  0
LINE
  5
1C8
102
{ACAD_REACTORS
330
1E2
102
}
100
AcDbEntity
  8
BUILDING_ENVELOPE
  6
CONTINUOUS
 62
     7
100
AcDbLine
 10
6.208333
 20
5.083333
 30
0.0
 11
6.208333
 21
4.958333
 31
0.0
  0
LINE
  5
1C9
102
{ACAD_REACTORS
330
1E2
102
}
100
AcDbEntity
  8
BUILDING_ENVELOPE
  6
CONTINUOUS
 62
     7
100
AcDbLine
 10
6.208333
 20
4.958333
 30
0.0
 11
6.25
 21
4.958333
 31
0.0
  0
LINE
  5
1CA
102
{ACAD_REACTORS
330
1E2
102
}
100
AcDbEntity
  8
BUILDING_ENVELOPE
  6
CONTINUOUS
 62
     7
100
AcDbLine
 10
3.75
 20
5.083333
 30
0.0
 11
3.791667
 21
5.083333
 31
0.0
  0
LINE
  5
1CB
102
{ACAD_REACTORS
330
1E2
102
}
100
AcDbEntity
  8
BUILDING_ENVELOPE
  6
CONTINUOUS
 62
     7
100
AcDbLine
 10
3.791667
 20
5.083333
 30
0.0
 11
3.791667
 21
4.958333
 31
0.0
  0
LINE
  5
1CC
102
{ACAD_REACTORS
330
1E2
102
}
100
AcDbEntity
  8
BUILDING_ENVELOPE
  6
CONTINUOUS
 62
     7
100
AcDbLine
 10
3.791667
 20
4.958333
 30
0.0
 11
3.75
 21
4.958333
 31
0.0
  0
LINE
  5
1CD
100
AcDbEntity
  8
BUILDING_ENVELOPE
  6
CONTINUOUS
 62
     7
100
AcDbLine
 10
6.416667
 20
4.75
 30
0.0
 11
6.416667
 21
5.25
 31
0.0
  0
LINE
  5
1CE
100
AcDbEntity
  8
BUILDING_ENVELOPE
  6
CONTINUOUS
 62
     7
100
AcDbLine
 10
3.583333
 20
4.75
 30
0.0
 11
3.583333
 21
5.25
 31
0.0
  0
ARC
  5
1CF
100
AcDbEntity
  8
BUILDING_ENVELOPE
  6
CONTINUOUS
 62
     7
100
AcDbCircle
 10
6.25
 20
5.25
 30
0.0
 40
2.5
100
AcDbArc
 50
90.0
 51
180.0
  0
LWPOLYLINE
  5
1D0
102
{ACAD_REACTORS
330
1E2
102
}
100
AcDbEntity
  8
BUILDING_ENVELOPE
  6
CONTINUOUS
 62
     7
100
AcDbPolyline
 90
        4
 70
     1
 10
6.083333
 20
7.75
 10
6.083333
 20
5.25
 10
6.25
 20
5.25
 10
6.25
 20
7.75
  0
ENDBLK
  5
1D1
100
AcDbEntity
  8
0
100
AcDbBlockEnd
  0
BLOCK
  5
1D3
100
AcDbEntity
  8
0
100
AcDbBlockBegin
  2
CURVED_WALL
 70
     2
 10
0.0
 20
0.0
 30
0.0
  3
CURVED_WALL
  1

  0
ATTDEF
  5
1D4
100
AcDbEntity
  8
0
100
AcDbText
 10
5.0
 20
5.0
 30
0.0
 40
0.2
  1
4 in.
100
AcDbAttributeDefinition
  3
Wall thickness
  2
T
 70
     0
  0
ATTDEF
  5
1D5
100
AcDbEntity
  8
0
100
AcDbText
 10
5.0
 20
5.0
 30
0.0
 40
0.2
  1
0 in.
100
AcDbAttributeDefinition
  3
Reference Line Offset
  2
REFLN
 70
     0
  0
ATTDEF
  5
1D6
100
AcDbEntity
  8
0
100
AcDbText
 10
5.0
 20
5.0
 30
0.0
 40
0.2
  1
0
100
AcDbAttributeDefinition
  3

  2
MATERIAL
 70
     0
  0
ATTDEF
  5
1D7
100
AcDbEntity
  8
0
100
AcDbText
 10
5.0
 20
5.0
 30
0.0
 40
0.2
  1
8 ft.
100
AcDbAttributeDefinition
  3
Wall height
  2
VISWALLHEIGHT
 70
     0
  0
ATTDEF
  5
1D8
100
AcDbEntity
  8
0
100
AcDbText
 10
5.0
 20
5.0
 30
0.0
 40
0.2
  1
8 ft.
100
AcDbAttributeDefinition
  3
Wall length
  2
VISWALLLENGTH
 70
     0
  0
ATTDEF
  5
1D9
100
AcDbEntity
  8
0
100
AcDbText
 10
5.0
 20
5.0
 30
0.0
 40
0.2
  1
Edge
100
AcDbAttributeDefinition
  3
Wall justification
  2
VISWALLJUSTIFY
 70
     0
  0
ATTDEF
  5
1DA
100
AcDbEntity
  8
0
100
AcDbText
 10
5.0
 20
5.0
 30
0.0
 40
0.2
  1
Curved
100
AcDbAttributeDefinition
  3
Wall segment
  2
VISWALLSEGMENT
 70
     0
  0
ATTDEF
  5
1DB
100
AcDbEntity
  8
0
100
AcDbText
 10
5.0
 20
5.0
 30
0.0
 40
0.2
  1
120
100
AcDbAttributeDefinition
  3
Wall radius
  2
RADIUS
 70
     0
  0
ATTDEF
  5
1DC
100
AcDbEntity
  8
0
100
AcDbText
 10
5.0
 20
5.0
 30
0.0
 40
0.2
  1
Building Component
100
AcDbAttributeDefinition
  3
Shape class
  2
SHAPECLASS
 70
     0
  0
ATTDEF
  5
1DD
100
AcDbEntity
  8
0
100
AcDbText
 10
5.0
 20
5.0
 30
0.0
 40
0.2
  1
Wall
100
AcDbAttributeDefinition
  3
Shape type
  2
SHAPETYPE
 70
     0
  0
ATTDEF
  5
1DE
100
AcDbEntity
  8
0
100
AcDbText
 10
5.0
 20
5.0
 30
0.0
 40
0.2
  1

100
AcDbAttributeDefinition
  3
Subshape type
  2
SUBSHAPETYPE
 70
     0
  0
ATTDEF
  5
1DF
100
AcDbEntity
  8
0
100
AcDbText
 10
5.0
 20
5.0
 30
0.0
 40
0.2
  1
0
100
AcDbAttributeDefinition
  3
Fire rating
  2
FIRERATING
 70
     0
  0
ATTDEF
  5
1E0
100
AcDbEntity
  8
0
100
AcDbText
 10
5.0
 20
5.0
 30
0.0
 40
0.2
  1
0
100
AcDbAttributeDefinition
  3
Base elevation
  2
BASEELEVATION
 70
     0
  0
LWPOLYLINE
  5
1E1
102
{ACAD_REACTORS
330
1E2
102
}
100
AcDbEntity
  8
BUILDING_ENVELOPE
  6
CONTINUOUS
 62
     7
100
AcDbPolyline
 90
        6
 70
     1
 10
0.866667
 20
5.305505
 42
-0.208712
 10
9.133333
 20
5.305505
 10
9.066667
 20
5.152753
 10
9.0
 20
5.0
 42
0.208712
 10
1.0
 20
5.0
 10
0.933333
 20
5.152753
  0
HATCH
  5
1E2
100
AcDbEntity
  8
BUILDING_ENVELOPE
 62
   253
100
AcDbHatch
 10
0.0
 20
0.0
 30
0.0
210
0.0
220
0.0
230
1.0
  2
SOLID
 70
     1
 71
     1
 91
        1
 92
        3
 72
     1
 73
     1
 93
        6
 10
0.8666666666666654
 20
5.3055050463303868
 42
-0.2087121525220798
 10
9.1333333333333329
 20
5.3055050463303894
 42
0.0
 10
9.0666666666666664
 20
5.1527525231651952
 42
0.0
 10
9.0
 20
5.0000000000000027
 42
0.2087121525220801
 10
0.9999999999999976
 20
4.9999999999999982
 42
0.0
 10
0.9333333333333311
 20
5.1527525231651925
 42
0.0
 97
       19
330
1BC
330
1BD
330
1BE
330
1BF
330
1C0
330
1C1
330
1C2
330
1C3
330
1C4
330
1C5
330
1C6
330
1C7
330
1C8
330
1C9
330
1CA
330
1CB
330
1CC
330
1D0
330
1E1
 75
     0
 76
     1
 98
        0
  0
LWPOLYLINE
  5
1E3
100
AcDbEntity
  8
BUILDING_ENVELOPE
  6
CONTINUOUS
 62
     7
100
AcDbPolyline
 90
        4
 70
     0
 10
0.933333
 20
5.152753
 10
0.866667
 20
5.305505
 42
-0.208712
 10
9.133333
 20
5.305505
 10
9.066667
 20
5.152753
  0
LWPOLYLINE
  5
1E4
100
AcDbEntity
  8
BUILDING_ENVELOPE
  6
CONTINUOUS
 62
     7
100
AcDbPolyline
 90
        4
 70
     0
 10
0.933333
 20
5.152753
 10
1.0
 20
5.0
 42
-0.208712
 10
9.0
 20
5.0
 10
9.066667
 20
5.152753
  0
ENDBLK
  5
1E5
100
AcDbEntity
  8
0
100
AcDbBlockEnd
  0
ENDSEC
  0
SECTION
  2
ENTITIES
  0
LWPOLYLINE
  5
33
102
{ACAD_REACTORS
330
34
102
}
100
AcDbEntity
  8
BUILDING_ENVELOPE
  6
CONTINUOUS
 62
     7
100
AcDbPolyline
 90
        4
 70
     1
 10
1.422422
 20
48.389089
 10
28.089089
 20
48.389089
 10
27.755756
 20
48.055756
 10
1.755756
 20
48.055756
  0
HATCH
  5
34
102
{ACAD_REACTORS
330
31
102
}
100
AcDbEntity
  8
BUILDING_ENVELOPE
 62
   253
100
AcDbHatch
 10
0.0
 20
0.0
 30
0.0
210
0.0
220
0.0
230
1.0
  2
SOLID
 70
     1
 71
     1
 91
        1
 92
        3
 72
     0
 73
     1
 93
        4
 10
1.4224222222222507
 20
48.389088888888871
 10
28.089088888888917
 20
48.389088888888871
 10
27.755755555555584
 20
48.055755555555535
 10
1.755755555555583
 20
48.055755555555535
 97
        1
330
33
 75
     0
 76
     1
 98
        0
  0
LINE
  5
35
102
{ACAD_REACTORS
330
31
102
}
100
AcDbEntity
  8
BUILDING_ENVELOPE
  6
CONTINUOUS
 62
     7
100
AcDbLine
 10
1.422422
 20
48.389089
 30
0.0
 11
28.089089
 21
48.389089
 31
0.0
  0
LINE
  5
36
102
{ACAD_REACTORS
330
31
102
}
100
AcDbEntity
  8
BUILDING_ENVELOPE
  6
CONTINUOUS
 62
     7
100
AcDbLine
 10
1.755756
 20
48.055756
 30
0.0
 11
27.755756
 21
48.055756
 31
0.0
  0
LWPOLYLINE
  5
37
102
{ACAD_REACTORS
330
38
102
}
100
AcDbEntity
  8
BUILDING_ENVELOPE
  6
CONTINUOUS
 62
     7
100
AcDbPolyline
 90
        4
 70
     1
 10
28.089089
 20
48.389089
 10
28.089089
 20
26.922422
 10
27.755756
 20
27.255756
 10
27.755756
 20
48.055756
  0
HATCH
  5
38
102
{ACAD_REACTORS
330
31
102
}
100
AcDbEntity
  8
BUILDING_ENVELOPE
 62
   253
100
AcDbHatch
 10
0.0
 20
0.0
 30
0.0
210
0.0
220
0.0
230
1.0
  2
SOLID
 70
     1
 71
     1
 91
        1
 92
        3
 72
     0
 73
     1
 93
        4
 10
28.089088888888917
 20
48.389088888888871
 10
28.089088888888917
 20
26.922422222222202
 10
27.755755555555584
 20
27.255755555555538
 10
27.755755555555584
 20
48.055755555555535
 97
        1
330
37
 75
     0
 76
     1
 98
        0
  0
LINE
  5
39
102
{ACAD_REACTORS
330
31
102
}
100
AcDbEntity
  8
BUILDING_ENVELOPE
  6
CONTINUOUS
 62
     7
100
AcDbLine
 10
28.089089
 20
48.389089
 30
0.0
 11
28.089089
 21
26.922422
 31
0.0
  0
LINE
  5
3A
102
{ACAD_REACTORS
330
31
102
}
100
AcDbEntity
  8
BUILDING_ENVELOPE
  6
CONTINUOUS
 62
     7
100
AcDbLine
 10
27.755756
 20
48.055756
 30
0.0
 11
27.755756
 21
27.255756
 31
0.0
  0
LWPOLYLINE
  5
3B
102
{ACAD_REACTORS
330
3C
102
}
100
AcDbEntity
  8
BUILDING_ENVELOPE
  6
CONTINUOUS
 62
     7
100
AcDbPolyline
 90
        4
 70
     1
 10
28.089089
 20
26.922422
 10
1.422422
 20
26.922422
 10
1.755756
 20
27.255756
 10
27.755756
 20
27.255756
  0
HATCH
  5
3C
102
{ACAD_REACTORS
330
31
102
}
100
AcDbEntity
  8
BUILDING_ENVELOPE
 62
   253
100
AcDbHatch
 10
0.0
 20
0.0
 30
0.0
210
0.0
220
0.0
230
1.0
  2
SOLID
 70
     1
 71
     1
 91
        1
 92
        3
 72
     0
 73
     1
 93
        4
 10
28.089088888888966
 20
26.922422222222274
 10
1.4224222222222143
 20
26.922422222222274
 10
1.7557555555555475
 20
27.255755555555609
 10
27.755755555555623
 20
27.255755555555609
 97
        1
330
3B
 75
     0
 76
     1
 98
        0
  0
LINE
  5
3D
102
{ACAD_REACTORS
330
31
102
}
100
AcDbEntity
  8
BUILDING_ENVELOPE
  6
CONTINUOUS
 62
     7
100
AcDbLine
 10
28.089089
 20
26.922422
 30
0.0
 11
1.422422
 21
26.922422
 31
0.0
  0
LINE
  5
3E
102
{ACAD_REACTORS
330
31
102
}
100
AcDbEntity
  8
BUILDING_ENVELOPE
  6
CONTINUOUS
 62
     7
100
AcDbLine
 10
27.755756
 20
27.255756
 30
0.0
 11
1.755756
 21
27.255756
 31
0.0
  0
LWPOLYLINE
  5
3F
102
{ACAD_REACTORS
330
40
102
}
100
AcDbEntity
  8
BUILDING_ENVELOPE
  6
CONTINUOUS
 62
     7
100
AcDbPolyline
 90
        4
 70
     1
 10
1.422422
 20
26.922422
 10
1.422422
 20
48.389089
 10
1.755756
 20
48.055756
 10
1.755756
 20
27.255756
  0
HATCH
  5
40
102
{ACAD_REACTORS
330
31
102
}
100
AcDbEntity
  8
BUILDING_ENVELOPE
 62
   253
100
AcDbHatch
 10
0.0
 20
0.0
 30
0.0
210
0.0
220
0.0
230
1.0
  2
SOLID
 70
     1
 71
     1
 91
        1
 92
        3
 72
     0
 73
     1
 93
        4
 10
1.4224222222222216
 20
26.922422222222409
 10
1.4224222222222216
 20
48.389088888888871
 10
1.7557555555555551
 20
48.055755555555535
 10
1.7557555555555551
 20
27.255755555555741
 97
        1
330
3F
 75
     0
 76
     1
 98
        0
  0
LINE
  5
41
102
{ACAD_REACTORS
330
31
102
}
100
AcDbEntity
  8
BUILDING_ENVELOPE
  6
CONTINUOUS
 62
     7
100
AcDbLine
 10
1.422422
 20
26.922422
 30
0.0
 11
1.422422
 21
48.389089
 31
0.0
  0
LINE
  5
42
102
{ACAD_REACTORS
330
31
102
}
100
AcDbEntity
  8
BUILDING_ENVELOPE
  6
CONTINUOUS
 62
     7
100
AcDbLine
 10
1.755756
 20
27.255756
 30
0.0
 11
1.755756
 21
48.055756
 31
0.0
  0
LWPOLYLINE
  5
44
102
{ACAD_REACTORS
330
45
102
}
100
AcDbEntity
  8
BUILDING_ENVELOPE
  6
CONTINUOUS
 62
     7
100
AcDbPolyline
 90
        4
 70
     1
 10
1.422422
 20
27.049089
 10
38.089089
 20
27.049089
 10
37.755756
 20
26.715756
 10
1.755756
 20
26.715756
  0
HATCH
  5
45
102
{ACAD_REACTORS
330
43
102
}
100
AcDbEntity
  8
BUILDING_ENVELOPE
 62
   253
100
AcDbHatch
 10
0.0
 20
0.0
 30
0.0
210
0.0
220
0.0
230
1.0
  2
SOLID
 70
     1
 71
     1
 91
        1
 92
        3
 72
     0
 73
     1
 93
        4
 10
1.4224222222222551
 20
27.049088888888878
 10
38.089088888888917
 20
27.049088888888878
 10
37.755755555555581
 20
26.715755555555546
 10
1.755755555555583
 20
26.715755555555546
 97
        1
330
44
 75
     0
 76
     1
 98
        0
  0
LINE
  5
46
102
{ACAD_REACTORS
330
43
102
}
100
AcDbEntity
  8
BUILDING_ENVELOPE
  6
CONTINUOUS
 62
     7
100
AcDbLine
 10
1.422422
 20
27.049089
 30
0.0
 11
38.089089
 21
27.049089
 31
0.0
  0
LINE
  5
47
102
{ACAD_REACTORS
330
43
102
}
100
AcDbEntity
  8
BUILDING_ENVELOPE
  6
CONTINUOUS
 62
     7
100
AcDbLine
 10
1.755756
 20
26.715756
 30
0.0
 11
37.755756
 21
26.715756
 31
0.0
  0
LWPOLYLINE
  5
48
102
{ACAD_REACTORS
330
49
102
}
100
AcDbEntity
  8
BUILDING_ENVELOPE
  6
CONTINUOUS
 62
     7
100
AcDbPolyline
 90
        4
 70
     1
 10
38.089089
 20
27.049089
 10
38.089089
 20
4.422422
 10
37.755756
 20
4.755756
 10
37.755756
 20
26.715756
  0
HATCH
  5
49
102
{ACAD_REACTORS
330
43
102
}
100
AcDbEntity
  8
BUILDING_ENVELOPE
 62
   253
100
AcDbHatch
 10
0.0
 20
0.0
 30
0.0
210
0.0
220
0.0
230
1.0
  2
SOLID
 70
     1
 71
     1
 91
        1
 92
        3
 72
     0
 73
     1
 93
        4
 10
38.089088888888917
 20
27.049088888888878
 10
38.089088888888917
 20
4.422422222222214
 10
37.755755555555581
 20
4.7557555555555471
 10
37.755755555555581
 20
26.715755555555546
 97
        1
330
48
 75
     0
 76
     1
 98
        0
  0
LINE
  5
4A
102
{ACAD_REACTORS
330
43
102
}
100
AcDbEntity
  8
BUILDING_ENVELOPE
  6
CONTINUOUS
 62
     7
100
AcDbLine
 10
38.089089
 20
27.049089
 30
0.0
 11
38.089089
 21
4.422422
 31
0.0
  0
LINE
  5
4B
102
{ACAD_REACTORS
330
43
102
}
100
AcDbEntity
  8
BUILDING_ENVELOPE
  6
CONTINUOUS
 62
     7
100
AcDbLine
 10
37.755756
 20
26.715756
 30
0.0
 11
37.755756
 21
4.755756
 31
0.0
  0
LWPOLYLINE
  5
4C
102
{ACAD_REACTORS
330
4D
102
}
100
AcDbEntity
  8
BUILDING_ENVELOPE
  6
CONTINUOUS
 62
     7
100
AcDbPolyline
 90
        4
 70
     1
 10
38.089089
 20
4.422422
 10
9.089089
 20
4.422422
 10
8.755756
 20
4.755756
 10
37.755756
 20
4.755756
  0
HATCH
  5
4D
102
{ACAD_REACTORS
330
43
102
}
100
AcDbEntity
  8
BUILDING_ENVELOPE
 62
   253
100
AcDbHatch
 10
0.0
 20
0.0
 30
0.0
210
0.0
220
0.0
230
1.0
  2
SOLID
 70
     1
 71
     1
 91
        1
 92
        3
 72
     0
 73
     1
 93
        4
 10
38.089088888888924
 20
4.4224222222222167
 10
9.0890888888889183
 20
4.4224222222222167
 10
8.7557555555555844
 20
4.7557555555555497
 10
37.755755555555581
 20
4.7557555555555497
 97
        1
330
4C
 75
     0
 76
     1
 98
        0
  0
LINE
  5
4E
102
{ACAD_REACTORS
330
43
102
}
100
AcDbEntity
  8
BUILDING_ENVELOPE
  6
CONTINUOUS
 62
     7
100
AcDbLine
 10
38.089089
 20
4.422422
 30
0.0
 11
9.089089
 21
4.422422
 31
0.0
  0
LINE
  5
4F
102
{ACAD_REACTORS
330
43
102
}
100
AcDbEntity
  8
BUILDING_ENVELOPE
  6
CONTINUOUS
 62
     7
100
AcDbLine
 10
37.755756
 20
4.755756
 30
0.0
 11
8.755756
 21
4.755756
 31
0.0
  0
LWPOLYLINE
  5
50
102
{ACAD_REACTORS
330
51
102
}
100
AcDbEntity
  8
BUILDING_ENVELOPE
  6
CONTINUOUS
 62
     7
100
AcDbPolyline
 90
        4
 70
     1
 10
9.089089
 20
4.422422
 10
9.089089
 20
1.422422
 10
8.755756
 20
1.755756
 10
8.755756
 20
4.755756
  0
HATCH
  5
51
102
{ACAD_REACTORS
330
43
102
}
100
AcDbEntity
  8
BUILDING_ENVELOPE
 62
   253
100
AcDbHatch
 10
0.0
 20
0.0
 30
0.0
210
0.0
220
0.0
230
1.0
  2
SOLID
 70
     1
 71
     1
 91
        1
 92
        3
 72
     0
 73
     1
 93
        4
 10
9.0890888888889165
 20
4.4224222222222167
 10
9.0890888888889165
 20
1.4224222222222167
 10
8.7557555555555826
 20
1.75575555555555
 10
8.7557555555555826
 20
4.7557555555555497
 97
        1
330
50
 75
     0
 76
     1
 98
        0
  0
LINE
  5
52
102
{ACAD_REACTORS
330
43
102
}
100
AcDbEntity
  8
BUILDING_ENVELOPE
  6
CONTINUOUS
 62
     7
100
AcDbLine
 10
9.089089
 20
4.422422
 30
0.0
 11
9.089089
 21
1.422422
 31
0.0
  0
LINE
  5
53
102
{ACAD_REACTORS
330
43
102
}
100
AcDbEntity
  8
BUILDING_ENVELOPE
  6
CONTINUOUS
 62
     7
100
AcDbLine
 10
8.755756
 20
4.755756
 30
0.0
 11
8.755756
 21
1.755756
 31
0.0
  0
LWPOLYLINE
  5
54
102
{ACAD_REACTORS
330
55
102
}
100
AcDbEntity
  8
BUILDING_ENVELOPE
  6
CONTINUOUS
 62
     7
100
AcDbPolyline
 90
        4
 70
     1
 10
9.089089
 20
1.422422
 10
4.422422
 20
1.422422
 10
4.755756
 20
1.755756
 10
8.755756
 20
1.755756
  0
HATCH
  5
55
102
{ACAD_REACTORS
330
43
102
}
100
AcDbEntity
  8
BUILDING_ENVELOPE
 62
   253
100
AcDbHatch
 10
0.0
 20
0.0
 30
0.0
210
0.0
220
0.0
230
1.0
  2
SOLID
 70
     1
 71
     1
 91
        1
 92
        3
 72
     0
 73
     1
 93
        4
 10
9.0890888888889219
 20
1.4224222222222269
 10
4.4224222222222558
 20
1.4224222222222269
 10
4.7557555555555826
 20
1.7557555555555604
 10
8.7557555555555826
 20
1.7557555555555604
 97
        1
330
54
 75
     0
 76
     1
 98
        0
  0
LINE
  5
56
102
{ACAD_REACTORS
330
43
102
}
100
AcDbEntity
  8
BUILDING_ENVELOPE
  6
CONTINUOUS
 62
     7
100
AcDbLine
 10
9.089089
 20
1.422422
 30
0.0
 11
4.422422
 21
1.422422
 31
0.0
  0
LINE
  5
57
102
{ACAD_REACTORS
330
43
102
}
100
AcDbEntity
  8
BUILDING_ENVELOPE
  6
CONTINUOUS
 62
     7
100
AcDbLine
 10
8.755756
 20
1.755756
 30
0.0
 11
4.755756
 21
1.755756
 31
0.0
  0
LWPOLYLINE
  5
58
102
{ACAD_REACTORS
330
59
102
}
100
AcDbEntity
  8
BUILDING_ENVELOPE
  6
CONTINUOUS
 62
     7
100
AcDbPolyline
 90
        4
 70
     1
 10
4.422422
 20
1.422422
 10
4.422422
 20
6.422422
 10
4.755756
 20
6.755756
 10
4.755756
 20
1.755756
  0
HATCH
  5
59
102
{ACAD_REACTORS
330
43
102
}
100
AcDbEntity
  8
BUILDING_ENVELOPE
 62
   253
100
AcDbHatch
 10
0.0
 20
0.0
 30
0.0
210
0.0
220
0.0
230
1.0
  2
SOLID
 70
     1
 71
     1
 91
        1
 92
        3
 72
     0
 73
     1
 93
        4
 10
4.4224222222222496
 20
1.4224222222222374
 10
4.4224222222222496
 20
6.4224222222222167
 10
4.7557555555555826
 20
6.7557555555555497
 10
4.7557555555555826
 20
1.7557555555555693
 97
        1
330
58
 75
     0
 76
     1
 98
        0
  0
LINE
  5
5A
102
{ACAD_REACTORS
330
43
102
}
100
AcDbEntity
  8
BUILDING_ENVELOPE
  6
CONTINUOUS
 62
     7
100
AcDbLine
 10
4.422422
 20
1.422422
 30
0.0
 11
4.422422
 21
6.422422
 31
0.0
  0
LINE
  5
5B
102
{ACAD_REACTORS
330
43
102
}
100
AcDbEntity
  8
BUILDING_ENVELOPE
  6
CONTINUOUS
 62
     7
100
AcDbLine
 10
4.755756
 20
1.755756
 30
0.0
 11
4.755756
 21
6.755756
 31
0.0
  0
LWPOLYLINE
  5
5C
102
{ACAD_REACTORS
330
5D
102
}
100
AcDbEntity
  8
BUILDING_ENVELOPE
  6
CONTINUOUS
 62
     7
100
AcDbPolyline
 90
        4
 70
     1
 10
4.422422
 20
6.422422
 10
1.422422
 20
6.422422
 10
1.755756
 20
6.755756
 10
4.755756
 20
6.755756
  0
HATCH
  5
5D
102
{ACAD_REACTORS
330
43
102
}
100
AcDbEntity
  8
BUILDING_ENVELOPE
 62
   253
100
AcDbHatch
 10
0.0
 20
0.0
 30
0.0
210
0.0
220
0.0
230
1.0
  2
SOLID
 70
     1
 71
     1
 91
        1
 92
        3
 72
     0
 73
     1
 93
        4
 10
4.4224222222222505
 20
6.4224222222222167
 10
1.4224222222222096
 20
6.4224222222222167
 10
1.7557555555555429
 20
6.7557555555555497
 10
4.7557555555555844
 20
6.7557555555555497
 97
        1
330
5C
 75
     0
 76
     1
 98
        0
  0
LINE
  5
5E
102
{ACAD_REACTORS
330
43
102
}
100
AcDbEntity
  8
BUILDING_ENVELOPE
  6
CONTINUOUS
 62
     7
100
AcDbLine
 10
4.422422
 20
6.422422
 30
0.0
 11
1.422422
 21
6.422422
 31
0.0
  0
LINE
  5
5F
102
{ACAD_REACTORS
330
43
102
}
100
AcDbEntity
  8
BUILDING_ENVELOPE
  6
CONTINUOUS
 62
     7
100
AcDbLine
 10
4.755756
 20
6.755756
 30
0.0
 11
1.755756
 21
6.755756
 31
0.0
  0
LWPOLYLINE
  5
60
102
{ACAD_REACTORS
330
61
102
}
100
AcDbEntity
  8
BUILDING_ENVELOPE
  6
CONTINUOUS
 62
     7
100
AcDbPolyline
 90
        4
 70
     1
 10
1.422422
 20
6.422422
 10
1.422422
 20
27.049089
 10
1.755756
 20
26.715756
 10
1.755756
 20
6.755756
  0
HATCH
  5
61
102
{ACAD_REACTORS
330
43
102
}
100
AcDbEntity
  8
BUILDING_ENVELOPE
 62
   253
100
AcDbHatch
 10
0.0
 20
0.0
 30
0.0
210
0.0
220
0.0
230
1.0
  2
SOLID
 70
     1
 71
     1
 91
        1
 92
        3
 72
     0
 73
     1
 93
        4
 10
1.4224222222222238
 20
6.4224222222222105
 10
1.4224222222222238
 20
27.049088888888882
 10
1.7557555555555571
 20
26.71575555555555
 10
1.7557555555555571
 20
6.7557555555555489
 97
        1
330
60
 75
     0
 76
     1
 98
        0
  0
LINE
  5
62
102
{ACAD_REACTORS
330
43
102
}
100
AcDbEntity
  8
BUILDING_ENVELOPE
  6
CONTINUOUS
 62
     7
100
AcDbLine
 10
1.422422
 20
6.422422
 30
0.0
 11
1.422422
 21
27.049089
 31
0.0
  0
LINE
  5
63
102
{ACAD_REACTORS
330
43
102
}
100
AcDbEntity
  8
BUILDING_ENVELOPE
  6
CONTINUOUS
 62
     7
100
AcDbLine
 10
1.755756
 20
6.755756
 30
0.0
 11
1.755756
 21
26.715756
 31
0.0
  0
LWPOLYLINE
  5
65
102
{ACAD_REACTORS
330
64
102
}
100
AcDbEntity
  8
BUILDING_ENVELOPE
  6
CONTINUOUS
 62
     7
100
AcDbPolyline
 90
        4
 70
     1
 10
38.097089
 20
10.089089
 10
38.097089
 20
18.022422
 10
37.747756
 20
18.022422
 10
37.747756
 20
10.089089
  0
LINE
  5
66
102
{ACAD_REACTORS
330
64
102
}
100
AcDbEntity
  8
BUILDING_ENVELOPE
  6
CONTINUOUS
 62
     7
100
AcDbLine
 10
38.089089
 20
18.022422
 30
0.0
 11
37.755756
 21
18.022422
 31
0.0
  0
LINE
  5
67
102
{ACAD_REACTORS
330
64
102
}
100
AcDbEntity
  8
BUILDING_ENVELOPE
  6
CONTINUOUS
 62
     7
100
AcDbLine
 10
37.755756
 20
18.022422
 30
0.0
 11
37.755756
 21
17.855756
 31
0.0
  0
LINE
  5
68
102
{ACAD_REACTORS
330
64
102
}
100
AcDbEntity
  8
BUILDING_ENVELOPE
  6
CONTINUOUS
 62
     7
100
AcDbLine
 10
37.755756
 20
17.855756
 30
0.0
 11
37.880756
 21
17.855756
 31
0.0
  0
LINE
  5
69
102
{ACAD_REACTORS
330
64
102
}
100
AcDbEntity
  8
BUILDING_ENVELOPE
  6
CONTINUOUS
 62
     7
100
AcDbLine
 10
38.005756
 20
17.855756
 30
0.0
 11
38.089089
 21
17.855756
 31
0.0
  0
LINE
  5
6A
102
{ACAD_REACTORS
330
64
102
}
100
AcDbEntity
  8
BUILDING_ENVELOPE
  6
CONTINUOUS
 62
     7
100
AcDbLine
 10
38.089089
 20
17.855756
 30
0.0
 11
38.089089
 21
18.022422
 31
0.0
  0
LINE
  5
6B
102
{ACAD_REACTORS
330
64
102
}
100
AcDbEntity
  8
BUILDING_ENVELOPE
  6
CONTINUOUS
 62
     7
100
AcDbLine
 10
38.089089
 20
10.089089
 30
0.0
 11
37.755756
 21
10.089089
 31
0.0
  0
LINE
  5
6C
102
{ACAD_REACTORS
330
64
102
}
100
AcDbEntity
  8
BUILDING_ENVELOPE
  6
CONTINUOUS
 62
     7
100
AcDbLine
 10
37.755756
 20
10.089089
 30
0.0
 11
37.755756
 21
10.255756
 31
0.0
  0
LINE
  5
6D
102
{ACAD_REACTORS
330
64
102
}
100
AcDbEntity
  8
BUILDING_ENVELOPE
  6
CONTINUOUS
 62
     7
100
AcDbLine
 10
37.755756
 20
10.255756
 30
0.0
 11
37.839089
 21
10.255756
 31
0.0
  0
LINE
  5
6E
102
{ACAD_REACTORS
330
64
102
}
100
AcDbEntity
  8
BUILDING_ENVELOPE
  6
CONTINUOUS
 62
     7
100
AcDbLine
 10
37.964089
 20
10.255756
 30
0.0
 11
38.089089
 21
10.255756
 31
0.0
  0
LINE
  5
6F
102
{ACAD_REACTORS
330
64
102
}
100
AcDbEntity
  8
BUILDING_ENVELOPE
  6
CONTINUOUS
 62
     7
100
AcDbLine
 10
38.089089
 20
10.255756
 30
0.0
 11
38.089089
 21
10.089089
 31
0.0
  0
LINE
  5
70
102
{ACAD_REACTORS
330
64
102
}
100
AcDbEntity
  8
BUILDING_ENVELOPE
  6
CONTINUOUS
 62
     7
100
AcDbLine
 10
37.880756
 20
17.855756
 30
0.0
 11
37.880756
 21
17.814089
 31
0.0
  0
LINE
  5
71
102
{ACAD_REACTORS
330
64
102
}
100
AcDbEntity
  8
BUILDING_ENVELOPE
  6
CONTINUOUS
 62
     7
100
AcDbLine
 10
37.880756
 20
17.814089
 30
0.0
 11
38.005756
 21
17.814089
 31
0.0
  0
LINE
  5
72
102
{ACAD_REACTORS
330
64
102
}
100
AcDbEntity
  8
BUILDING_ENVELOPE
  6
CONTINUOUS
 62
     7
100
AcDbLine
 10
38.005756
 20
17.814089
 30
0.0
 11
38.005756
 21
17.855756
 31
0.0
  0
LINE
  5
73
102
{ACAD_REACTORS
330
64
102
}
100
AcDbEntity
  8
BUILDING_ENVELOPE
  6
CONTINUOUS
 62
     7
100
AcDbLine
 10
37.839089
 20
10.255756
 30
0.0
 11
37.839089
 21
10.297422
 31
0.0
  0
LINE
  5
74
102
{ACAD_REACTORS
330
64
102
}
100
AcDbEntity
  8
BUILDING_ENVELOPE
  6
CONTINUOUS
 62
     7
100
AcDbLine
 10
37.839089
 20
10.297422
 30
0.0
 11
37.964089
 21
10.297422
 31
0.0
  0
LINE
  5
75
102
{ACAD_REACTORS
330
64
102
}
100
AcDbEntity
  8
BUILDING_ENVELOPE
  6
CONTINUOUS
 62
     7
100
AcDbLine
 10
37.964089
 20
10.297422
 30
0.0
 11
37.964089
 21
10.255756
 31
0.0
  0
LINE
  5
76
102
{ACAD_REACTORS
330
64
102
}
100
AcDbEntity
  8
BUILDING_ENVELOPE
  6
CONTINUOUS
 62
     7
100
AcDbLine
 10
38.089089
 20
18.022422
 30
0.0
 11
37.755756
 21
18.022422
 31
0.0
  0
LINE
  5
77
102
{ACAD_REACTORS
330
64
102
}
100
AcDbEntity
  8
BUILDING_ENVELOPE
  6
CONTINUOUS
 62
     7
100
AcDbLine
 10
38.089089
 20
10.089089
 30
0.0
 11
37.755756
 21
10.089089
 31
0.0
  0
ARC
  5
78
102
{ACAD_REACTORS
330
64
102
}
100
AcDbEntity
  8
BUILDING_ENVELOPE
  6
CONTINUOUS
 62
     7
100
AcDbCircle
 10
37.755756
 20
17.855756
 30
0.0
 40
3.8
100
AcDbArc
 50
180.0
 51
270.0
  0
LWPOLYLINE
  5
79
102
{ACAD_REACTORS
330
64
102
}
100
AcDbEntity
  8
BUILDING_ENVELOPE
  6
CONTINUOUS
 62
     7
100
AcDbPolyline
 90
        4
 70
     1
 10
33.955756
 20
17.730756
 10
37.755756
 20
17.730756
 10
37.755756
 20
17.855756
 10
33.955756
 20
17.855756
  0
LWPOLYLINE
  5
7A
102
{ACAD_REACTORS
330
64
102
}
100
AcDbEntity
  8
BUILDING_ENVELOPE
  6
CONTINUOUS
 62
     7
100
AcDbPolyline
 90
        4
 70
     1
 10
41.889089
 20
10.380756
 10
38.089089
 20
10.380756
 10
38.089089
 20
10.255756
 10
41.889089
 20
10.255756
  0
ARC
  5
7B
102
{ACAD_REACTORS
330
64
102
}
100
AcDbEntity
  8
BUILDING_ENVELOPE
  6
CONTINUOUS
 62
     7
100
AcDbCircle
 10
38.089089
 20
10.255756
 30
0.0
 40
3.8
100
AcDbArc
 50
0.0
 51
90.0
  0
LWPOLYLINE
  5
7D
102
{ACAD_REACTORS
330
7C
102
}
100
AcDbEntity
  8
BUILDING_ENVELOPE
  6
CONTINUOUS
 62
     7
100
AcDbPolyline
 90
        4
 70
     1
 10
13.505756
 20
48.047756
 10
20.755756
 20
48.047756
 10
20.755756
 20
48.397089
 10
13.505756
 20
48.397089
  0
LINE
  5
7E
102
{ACAD_REACTORS
330
7C
102
}
100
AcDbEntity
  8
BUILDING_ENVELOPE
  6
CONTINUOUS
 62
     7
100
AcDbLine
 10
13.505756
 20
48.055756
 30
0.0
 11
13.505756
 21
48.389089
 31
0.0
  0
LINE
  5
7F
102
{ACAD_REACTORS
330
7C
102
}
100
AcDbEntity
  8
BUILDING_ENVELOPE
  6
CONTINUOUS
 62
     7
100
AcDbLine
 10
13.505756
 20
48.389089
 30
0.0
 11
13.672422
 21
48.389089
 31
0.0
  0
LINE
  5
80
102
{ACAD_REACTORS
330
7C
102
}
100
AcDbEntity
  8
BUILDING_ENVELOPE
  6
CONTINUOUS
 62
     7
100
AcDbLine
 10
13.672422
 20
48.389089
 30
0.0
 11
13.672422
 21
48.305756
 31
0.0
  0
LINE
  5
81
102
{ACAD_REACTORS
330
7C
102
}
100
AcDbEntity
  8
BUILDING_ENVELOPE
  6
CONTINUOUS
 62
     7
100
AcDbLine
 10
13.672422
 20
48.139089
 30
0.0
 11
13.672422
 21
48.055756
 31
0.0
  0
LINE
  5
82
102
{ACAD_REACTORS
330
7C
102
}
100
AcDbEntity
  8
BUILDING_ENVELOPE
  6
CONTINUOUS
 62
     7
100
AcDbLine
 10
13.672422
 20
48.055756
 30
0.0
 11
13.505756
 21
48.055756
 31
0.0
  0
LINE
  5
83
102
{ACAD_REACTORS
330
7C
102
}
100
AcDbEntity
  8
BUILDING_ENVELOPE
  6
CONTINUOUS
 62
     7
100
AcDbLine
 10
20.755756
 20
48.055756
 30
0.0
 11
20.755756
 21
48.389089
 31
0.0
  0
LINE
  5
84
102
{ACAD_REACTORS
330
7C
102
}
100
AcDbEntity
  8
BUILDING_ENVELOPE
  6
CONTINUOUS
 62
     7
100
AcDbLine
 10
20.755756
 20
48.389089
 30
0.0
 11
20.589089
 21
48.389089
 31
0.0
  0
LINE
  5
85
102
{ACAD_REACTORS
330
7C
102
}
100
AcDbEntity
  8
BUILDING_ENVELOPE
  6
CONTINUOUS
 62
     7
100
AcDbLine
 10
20.589089
 20
48.389089
 30
0.0
 11
20.589089
 21
48.305756
 31
0.0
  0
LINE
  5
86
102
{ACAD_REACTORS
330
7C
102
}
100
AcDbEntity
  8
BUILDING_ENVELOPE
  6
CONTINUOUS
 62
     7
100
AcDbLine
 10
20.589089
 20
48.139089
 30
0.0
 11
20.589089
 21
48.055756
 31
0.0
  0
LINE
  5
87
102
{ACAD_REACTORS
330
7C
102
}
100
AcDbEntity
  8
BUILDING_ENVELOPE
  6
CONTINUOUS
 62
     7
100
AcDbLine
 10
20.589089
 20
48.055756
 30
0.0
 11
20.755756
 21
48.055756
 31
0.0
  0
LWPOLYLINE
  5
88
102
{ACAD_REACTORS
330
7C
102
}
100
AcDbEntity
  8
BUILDING_ENVELOPE
  6
CONTINUOUS
 62
     7
100
AcDbPolyline
 90
        4
 70
     1
 10
13.672422
 20
48.305756
 10
13.839089
 20
48.305756
 10
13.839089
 20
48.139089
 10
13.672422
 20
48.139089
  0
LWPOLYLINE
  5
89
102
{ACAD_REACTORS
330
7C
102
}
100
AcDbEntity
  8
BUILDING_ENVELOPE
  6
CONTINUOUS
 62
     7
100
AcDbPolyline
 90
        4
 70
     1
 10
20.589089
 20
48.305756
 10
20.422422
 20
48.305756
 10
20.422422
 20
48.139089
 10
20.589089
 20
48.139089
  0
LINE
  5
8A
102
{ACAD_REACTORS
330
7C
102
}
100
AcDbEntity
  8
BUILDING_ENVELOPE
  6
CONTINUOUS
 62
     7
100
AcDbLine
 10
13.839089
 20
48.222422
 30
0.0
 11
20.422422
 21
48.222422
 31
0.0
  0
LINE
  5
8B
102
{ACAD_REACTORS
330
7C
102
}
100
AcDbEntity
  8
BUILDING_ENVELOPE
  6
CONTINUOUS
 62
     7
100
AcDbLine
 10
13.505756
 20
48.055756
 30
0.0
 11
13.505756
 21
48.389089
 31
0.0
  0
LINE
  5
8C
102
{ACAD_REACTORS
330
7C
102
}
100
AcDbEntity
  8
BUILDING_ENVELOPE
  6
CONTINUOUS
 62
     7
100
AcDbLine
 10
20.755756
 20
48.055756
 30
0.0
 11
20.755756
 21
48.389089
 31
0.0
  0
LWPOLYLINE
  5
8E
102
{ACAD_REACTORS
330
8D
102
}
100
AcDbEntity
  8
BUILDING_ENVELOPE
  6
CONTINUOUS
 62
     7
100
AcDbPolyline
 90
        4
 70
     1
 10
28.097089
 20
34.989089
 10
28.097089
 20
40.322422
 10
27.747756
 20
40.322422
 10
27.747756
 20
34.989089
  0
LINE
  5
8F
102
{ACAD_REACTORS
330
8D
102
}
100
AcDbEntity
  8
BUILDING_ENVELOPE
  6
CONTINUOUS
 62
     7
100
AcDbLine
 10
28.089089
 20
40.322422
 30
0.0
 11
27.755756
 21
40.322422
 31
0.0
  0
LINE
  5
90
102
{ACAD_REACTORS
330
8D
102
}
100
AcDbEntity
  8
BUILDING_ENVELOPE
  6
CONTINUOUS
 62
     7
100
AcDbLine
 10
27.755756
 20
40.322422
 30
0.0
 11
27.755756
 21
40.155756
 31
0.0
  0
LINE
  5
91
102
{ACAD_REACTORS
330
8D
102
}
100
AcDbEntity
  8
BUILDING_ENVELOPE
  6
CONTINUOUS
 62
     7
100
AcDbLine
 10
27.755756
 20
40.155756
 30
0.0
 11
27.880756
 21
40.155756
 31
0.0
  0
LINE
  5
92
102
{ACAD_REACTORS
330
8D
102
}
100
AcDbEntity
  8
BUILDING_ENVELOPE
  6
CONTINUOUS
 62
     7
100
AcDbLine
 10
28.005756
 20
40.155756
 30
0.0
 11
28.089089
 21
40.155756
 31
0.0
  0
LINE
  5
93
102
{ACAD_REACTORS
330
8D
102
}
100
AcDbEntity
  8
BUILDING_ENVELOPE
  6
CONTINUOUS
 62
     7
100
AcDbLine
 10
28.089089
 20
40.155756
 30
0.0
 11
28.089089
 21
40.322422
 31
0.0
  0
LINE
  5
94
102
{ACAD_REACTORS
330
8D
102
}
100
AcDbEntity
  8
BUILDING_ENVELOPE
  6
CONTINUOUS
 62
     7
100
AcDbLine
 10
28.089089
 20
34.989089
 30
0.0
 11
27.755756
 21
34.989089
 31
0.0
  0
LINE
  5
95
102
{ACAD_REACTORS
330
8D
102
}
100
AcDbEntity
  8
BUILDING_ENVELOPE
  6
CONTINUOUS
 62
     7
100
AcDbLine
 10
27.755756
 20
34.989089
 30
0.0
 11
27.755756
 21
35.155756
 31
0.0
  0
LINE
  5
96
102
{ACAD_REACTORS
330
8D
102
}
100
AcDbEntity
  8
BUILDING_ENVELOPE
  6
CONTINUOUS
 62
     7
100
AcDbLine
 10
27.755756
 20
35.155756
 30
0.0
 11
27.880756
 21
35.155756
 31
0.0
  0
LINE
  5
97
102
{ACAD_REACTORS
330
8D
102
}
100
AcDbEntity
  8
BUILDING_ENVELOPE
  6
CONTINUOUS
 62
     7
100
AcDbLine
 10
28.005756
 20
35.155756
 30
0.0
 11
28.089089
 21
35.155756
 31
0.0
  0
LINE
  5
98
102
{ACAD_REACTORS
330
8D
102
}
100
AcDbEntity
  8
BUILDING_ENVELOPE
  6
CONTINUOUS
 62
     7
100
AcDbLine
 10
28.089089
 20
35.155756
 30
0.0
 11
28.089089
 21
34.989089
 31
0.0
  0
LINE
  5
99
102
{ACAD_REACTORS
330
8D
102
}
100
AcDbEntity
  8
BUILDING_ENVELOPE
  6
CONTINUOUS
 62
     7
100
AcDbLine
 10
27.880756
 20
40.155756
 30
0.0
 11
27.880756
 21
40.114089
 31
0.0
  0
LINE
  5
9A
102
{ACAD_REACTORS
330
8D
102
}
100
AcDbEntity
  8
BUILDING_ENVELOPE
  6
CONTINUOUS
 62
     7
100
AcDbLine
 10
27.880756
 20
40.114089
 30
0.0
 11
28.005756
 21
40.114089
 31
0.0
  0
LINE
  5
9B
102
{ACAD_REACTORS
330
8D
102
}
100
AcDbEntity
  8
BUILDING_ENVELOPE
  6
CONTINUOUS
 62
     7
100
AcDbLine
 10
28.005756
 20
40.114089
 30
0.0
 11
28.005756
 21
40.155756
 31
0.0
  0
LINE
  5
9C
102
{ACAD_REACTORS
330
8D
102
}
100
AcDbEntity
  8
BUILDING_ENVELOPE
  6
CONTINUOUS
 62
     7
100
AcDbLine
 10
27.880756
 20
35.155756
 30
0.0
 11
27.880756
 21
35.197422
 31
0.0
  0
LINE
  5
9D
102
{ACAD_REACTORS
330
8D
102
}
100
AcDbEntity
  8
BUILDING_ENVELOPE
  6
CONTINUOUS
 62
     7
100
AcDbLine
 10
27.880756
 20
35.197422
 30
0.0
 11
28.005756
 21
35.197422
 31
0.0
  0
LINE
  5
9E
102
{ACAD_REACTORS
330
8D
102
}
100
AcDbEntity
  8
BUILDING_ENVELOPE
  6
CONTINUOUS
 62
     7
100
AcDbLine
 10
28.005756
 20
35.197422
 30
0.0
 11
28.005756
 21
35.155756
 31
0.0
  0
LINE
  5
9F
102
{ACAD_REACTORS
330
8D
102
}
100
AcDbEntity
  8
BUILDING_ENVELOPE
  6
CONTINUOUS
 62
     7
100
AcDbLine
 10
28.089089
 20
40.322422
 30
0.0
 11
27.755756
 21
40.322422
 31
0.0
  0
LINE
  5
A0
102
{ACAD_REACTORS
330
8D
102
}
100
AcDbEntity
  8
BUILDING_ENVELOPE
  6
CONTINUOUS
 62
     7
100
AcDbLine
 10
28.089089
 20
34.989089
 30
0.0
 11
27.755756
 21
34.989089
 31
0.0
  0
ARC
  5
A1
102
{ACAD_REACTORS
330
8D
102
}
100
AcDbEntity
  8
BUILDING_ENVELOPE
  6
CONTINUOUS
 62
     7
100
AcDbCircle
 10
27.755756
 20
35.155756
 30
0.0
 40
3.0
100
AcDbArc
 50
90.0
 51
180.0
  0
ARC
  5
A2
102
{ACAD_REACTORS
330
8D
102
}
100
AcDbEntity
  8
BUILDING_ENVELOPE
  6
CONTINUOUS
 62
     7
100
AcDbCircle
 10
27.755756
 20
40.155756
 30
0.0
 40
2.0
100
AcDbArc
 50
180.0
 51
270.0
  0
LWPOLYLINE
  5
A3
102
{ACAD_REACTORS
330
8D
102
}
100
AcDbEntity
  8
BUILDING_ENVELOPE
  6
CONTINUOUS
 62
     7
100
AcDbPolyline
 90
        4
 70
     1
 10
24.755756
 20
35.155756
 10
27.755756
 20
35.155756
 10
27.755756
 20
35.280756
 10
24.755756
 20
35.280756
  0
LWPOLYLINE
  5
A4
102
{ACAD_REACTORS
330
8D
102
}
100
AcDbEntity
  8
BUILDING_ENVELOPE
  6
CONTINUOUS
 62
     7
100
AcDbPolyline
 90
        4
 70
     1
 10
25.755756
 20
40.030756
 10
27.755756
 20
40.030756
 10
27.755756
 20
40.155756
 10
25.755756
 20
40.155756
  0
LWPOLYLINE
  5
A6
102
{ACAD_REACTORS
330
A5
102
}
100
AcDbEntity
  8
BUILDING_ENVELOPE
  6
CONTINUOUS
 62
     7
100
AcDbPolyline
 90
       12
 70
     1
 10
81.595756
 20
43.895756
 10
53.915756
 20
43.895756
 10
53.915756
 20
42.509089
 10
67.062422
 20
42.509089
 10
67.062422
 20
32.802422
 10
53.915756
 20
32.802422
 10
53.915756
 20
31.415756
 10
81.595756
 20
31.415756
 10
81.595756
 20
32.802422
 10
68.449089
 20
32.802422
 10
68.449089
 20
42.509089
 10
81.595756
 20
42.509089
  0
LWPOLYLINE
  5
A7
102
{ACAD_REACTORS
330
A8
102
}
100
AcDbEntity
  8
BUILDING_ENVELOPE
  6
CONTINUOUS
 62
     7
100
AcDbPolyline
 90
        4
 70
     1
 10
49.755756
 20
27.255756
 10
49.755756
 20
48.055756
 10
85.755756
 20
48.055756
 10
85.755756
 20
27.255756
  0
HATCH
  5
A8
102
{ACAD_REACTORS
330
A5
102
}
100
AcDbEntity
  8
BUILDING_ENVELOPE
 62
   253
100
AcDbHatch
 10
0.0
 20
0.0
 30
0.0
210
0.0
220
0.0
230
1.0
  2
SOLID
 70
     1
 71
     1
 91
        1
 92
        3
 72
     0
 73
     1
 93
        4
 10
49.755755555555595
 20
27.255755555555545
 10
49.755755555555595
 20
48.05575555555555
 10
85.755755555555595
 20
48.05575555555555
 10
85.755755555555595
 20
27.255755555555545
 97
       52
330
65
330
66
330
67
330
68
330
69
330
6A
330
6B
330
6C
330
6D
330
6E
330
6F
330
70
330
71
330
72
330
73
330
74
330
75
330
79
330
7A
330
7D
330
7E
330
7F
330
80
330
81
330
82
330
83
330
84
330
85
330
86
330
87
330
88
330
89
330
8E
330
8F
330
90
330
91
330
92
330
93
330
94
330
95
330
96
330
97
330
98
330
99
330
9A
330
9B
330
9C
330
9D
330
9E
330
A3
330
A4
330
A7
 75
     0
 76
     1
 98
        0
  0
LWPOLYLINE
  5
AA
102
{ACAD_REACTORS
330
AB
102
}
100
AcDbEntity
  8
BUILDING_ENVELOPE
  6
CONTINUOUS
 62
     7
100
AcDbPolyline
 90
        6
 70
     1
 10
55.718766
 20
16.58703
 42
-0.055657
 10
85.792745
 20
16.58703
 10
85.77425
 20
16.421393
 10
85.755756
 20
16.255756
 42
0.055657
 10
55.755756
 20
16.255756
 10
55.737261
 20
16.421393
  0
HATCH
  5
AB
102
{ACAD_REACTORS
330
A9
102
}
100
AcDbEntity
  8
BUILDING_ENVELOPE
 62
   253
100
AcDbHatch
 10
0.0
 20
0.0
 30
0.0
210
0.0
220
0.0
230
1.0
  2
SOLID
 70
     1
 71
     1
 91
        1
 92
        3
 72
     1
 73
     1
 93
        6
 10
55.718765754498691
 20
16.587030163288887
 42
-0.0556565740058885
 10
85.792745356612457
 20
16.587030163288897
 42
0.0
 10
85.774250456084019
 20
16.421392859422223
 42
0.0
 10
85.755755555555581
 20
16.255755555555538
 42
0.055656574005888
 10
55.755755555555552
 20
16.255755555555549
 42
0.0
 10
55.737260655027114
 20
16.421392859422223
 42
0.0
 97
        1
330
AA
 75
     0
 76
     1
 98
        0
  0
LWPOLYLINE
  5
AC
102
{ACAD_REACTORS
330
A9
102
}
100
AcDbEntity
  8
BUILDING_ENVELOPE
  6
CONTINUOUS
 62
     7
100
AcDbPolyline
 90
        4
 70
     0
 10
55.737261
 20
16.421393
 10
55.718766
 20
16.58703
 42
-0.055657
 10
85.792745
 20
16.58703
 10
85.77425
 20
16.421393
  0
LWPOLYLINE
  5
AD
102
{ACAD_REACTORS
330
A9
102
}
100
AcDbEntity
  8
BUILDING_ENVELOPE
  6
CONTINUOUS
 62
     7
100
AcDbPolyline
 90
        4
 70
     0
 10
55.737261
 20
16.421393
 10
55.755756
 20
16.255756
 42
-0.055657
 10
85.755756
 20
16.255756
 10
85.77425
 20
16.421393
  0
LWPOLYLINE
  5
AF
102
{ACAD_REACTORS
330
AE
102
}
100
AcDbEntity
  8
BUILDING_ENVELOPE
  6
CONTINUOUS
 62
     7
100
AcDbPolyline
 90
        4
 70
     1
 10
58.505756
 20
47.881089
 10
65.755756
 20
47.881089
 10
65.755756
 20
48.397089
 10
58.505756
 20
48.397089
  0
LINE
  5
B0
102
{ACAD_REACTORS
330
AE
102
}
100
AcDbEntity
  8
BUILDING_ENVELOPE
  6
CONTINUOUS
 62
     7
100
AcDbLine
 10
58.505756
 20
47.889089
 30
0.0
 11
58.505756
 21
48.389089
 31
0.0
  0
LINE
  5
B1
102
{ACAD_REACTORS
330
AE
102
}
100
AcDbEntity
  8
BUILDING_ENVELOPE
  6
CONTINUOUS
 62
     7
100
AcDbLine
 10
58.505756
 20
48.389089
 30
0.0
 11
58.672422
 21
48.389089
 31
0.0
  0
LINE
  5
B2
102
{ACAD_REACTORS
330
AE
102
}
100
AcDbEntity
  8
BUILDING_ENVELOPE
  6
CONTINUOUS
 62
     7
100
AcDbLine
 10
58.672422
 20
48.389089
 30
0.0
 11
58.672422
 21
48.222422
 31
0.0
  0
LINE
  5
B3
102
{ACAD_REACTORS
330
AE
102
}
100
AcDbEntity
  8
BUILDING_ENVELOPE
  6
CONTINUOUS
 62
     7
100
AcDbLine
 10
58.672422
 20
48.055756
 30
0.0
 11
58.672422
 21
47.889089
 31
0.0
  0
LINE
  5
B4
102
{ACAD_REACTORS
330
AE
102
}
100
AcDbEntity
  8
BUILDING_ENVELOPE
  6
CONTINUOUS
 62
     7
100
AcDbLine
 10
58.672422
 20
47.889089
 30
0.0
 11
58.505756
 21
47.889089
 31
0.0
  0
LINE
  5
B5
102
{ACAD_REACTORS
330
AE
102
}
100
AcDbEntity
  8
BUILDING_ENVELOPE
  6
CONTINUOUS
 62
     7
100
AcDbLine
 10
65.755756
 20
47.889089
 30
0.0
 11
65.755756
 21
48.389089
 31
0.0
  0
LINE
  5
B6
102
{ACAD_REACTORS
330
AE
102
}
100
AcDbEntity
  8
BUILDING_ENVELOPE
  6
CONTINUOUS
 62
     7
100
AcDbLine
 10
65.755756
 20
48.389089
 30
0.0
 11
65.589089
 21
48.389089
 31
0.0
  0
LINE
  5
B7
102
{ACAD_REACTORS
330
AE
102
}
100
AcDbEntity
  8
BUILDING_ENVELOPE
  6
CONTINUOUS
 62
     7
100
AcDbLine
 10
65.589089
 20
48.389089
 30
0.0
 11
65.589089
 21
48.222422
 31
0.0
  0
LINE
  5
B8
102
{ACAD_REACTORS
330
AE
102
}
100
AcDbEntity
  8
BUILDING_ENVELOPE
  6
CONTINUOUS
 62
     7
100
AcDbLine
 10
65.589089
 20
48.055756
 30
0.0
 11
65.589089
 21
47.889089
 31
0.0
  0
LINE
  5
B9
102
{ACAD_REACTORS
330
AE
102
}
100
AcDbEntity
  8
BUILDING_ENVELOPE
  6
CONTINUOUS
 62
     7
100
AcDbLine
 10
65.589089
 20
47.889089
 30
0.0
 11
65.755756
 21
47.889089
 31
0.0
  0
LWPOLYLINE
  5
BA
102
{ACAD_REACTORS
330
AE
102
}
100
AcDbEntity
  8
BUILDING_ENVELOPE
  6
CONTINUOUS
 62
     7
100
AcDbPolyline
 90
        4
 70
     1
 10
58.672422
 20
48.222422
 10
58.839089
 20
48.222422
 10
58.839089
 20
48.055756
 10
58.672422
 20
48.055756
  0
LWPOLYLINE
  5
BB
102
{ACAD_REACTORS
330
AE
102
}
100
AcDbEntity
  8
BUILDING_ENVELOPE
  6
CONTINUOUS
 62
     7
100
AcDbPolyline
 90
        4
 70
     1
 10
65.589089
 20
48.222422
 10
65.422422
 20
48.222422
 10
65.422422
 20
48.055756
 10
65.589089
 20
48.055756
  0
LINE
  5
BC
102
{ACAD_REACTORS
330
AE
102
}
100
AcDbEntity
  8
BUILDING_ENVELOPE
  6
CONTINUOUS
 62
     7
100
AcDbLine
 10
58.839089
 20
48.139089
 30
0.0
 11
65.422422
 21
48.139089
 31
0.0
  0
LINE
  5
BD
102
{ACAD_REACTORS
330
AE
102
}
100
AcDbEntity
  8
BUILDING_ENVELOPE
  6
CONTINUOUS
 62
     7
100
AcDbLine
 10
58.505756
 20
47.889089
 30
0.0
 11
58.505756
 21
48.389089
 31
0.0
  0
LINE
  5
BE
102
{ACAD_REACTORS
330
AE
102
}
100
AcDbEntity
  8
BUILDING_ENVELOPE
  6
CONTINUOUS
 62
     7
100
AcDbLine
 10
65.755756
 20
47.889089
 30
0.0
 11
65.755756
 21
48.389089
 31
0.0
  0
ENDSEC
  0
SECTION
  2
OBJECTS
  0
DICTIONARY
  5
C
100
AcDbDictionary
  3
ACAD_GROUP
350
D
  3
ACAD_MLINESTYLE
350
1B
  0
DICTIONARY
  5
D
102
{ACAD_REACTORS
330
C
102
}
100
AcDbDictionary
  3
VISIOGROUP_0
350
31
  3
VISIOGROUP_1
350
43
  3
VISIOGROUP_2
350
64
  3
VISIOGROUP_3
350
7C
  3
VISIOGROUP_4
350
8D
  3
VISIOGROUP_5
350
A5
  3
VISIOGROUP_6
350
A9
  3
VISIOGROUP_7
350
AE
  0
DICTIONARY
  5
1B
102
{ACAD_REACTORS
330
C
102
}
100
AcDbDictionary
  3
STANDARD
350
1C
  0
MLINESTYLE
  5
1C
102
{ACAD_REACTORS
330
1B
102
}
100
AcDbMlineStyle
  2
STANDARD
 70
     0
  3

 62
   256
 51
90.0
 52
90.0
 71
     2
 49
0.5
 62
   256
  6
BYLAYER
 49
-0.5
 62
   256
  6
BYLAYER
  0
DICTIONARY
  5
29
102
{ACAD_REACTORS
330
C
102
}
100
AcDbDictionary
  3
MODEL
350
2A
  3
LAYOUT1
350
2B
  0
DICTIONARY
  5
2C
102
{ACAD_REACTORS
330
C
102
}
100
AcDbDictionary
  0
GROUP
  5
31
102
{ACAD_REACTORS
330
D
102
}
100
AcDbGroup
300
Group created by Visio.
 70
     0
 71
     1
340
33
340
34
340
35
340
36
340
37
340
38
340
39
340
3A
340
3B
340
3C
340
3D
340
3E
340
3F
340
40
340
41
340
42
  0
GROUP
  5
43
102
{ACAD_REACTORS
330
D
102
}
100
AcDbGroup
300
Group created by Visio.
 70
     0
 71
     1
340
44
340
45
340
46
340
47
340
48
340
49
340
4A
340
4B
340
4C
340
4D
340
4E
340
4F
340
50
340
51
340
52
340
53
340
54
340
55
340
56
340
57
340
58
340
59
340
5A
340
5B
340
5C
340
5D
340
5E
340
5F
340
60
340
61
340
62
340
63
  0
GROUP
  5
64
102
{ACAD_REACTORS
330
D
102
}
100
AcDbGroup
300
Group created by Visio.
 70
     0
 71
     1
340
65
340
66
340
67
340
68
340
69
340
6A
340
6B
340
6C
340
6D
340
6E
340
6F
340
70
340
71
340
72
340
73
340
74
340
75
340
76
340
77
340
78
340
79
340
7A
340
7B
  0
GROUP
  5
7C
102
{ACAD_REACTORS
330
D
102
}
100
AcDbGroup
300
Group created by Visio.
 70
     0
 71
     1
340
7D
340
7E
340
7F
340
80
340
81
340
82
340
83
340
84
340
85
340
86
340
87
340
88
340
89
340
8A
340
8B
340
8C
  0
GROUP
  5
8D
102
{ACAD_REACTORS
330
D
102
}
100
AcDbGroup
300
Group created by Visio.
 70
     0
 71
     1
340
8E
340
8F
340
90
340
91
340
92
340
93
340
94
340
95
340
96
340
97
340
98
340
99
340
9A
340
9B
340
9C
340
9D
340
9E
340
9F
340
A0
340
A1
340
A2
340
A3
340
A4
  0
GROUP
  5
A5
102
{ACAD_REACTORS
330
D
102
}
100
AcDbGroup
300
Group created by Visio.
 70
     0
 71
     1
340
A6
340
A7
340
A8
  0
GROUP
  5
A9
102
{ACAD_REACTORS
330
D
102
}
100
AcDbGroup
300
Group created by Visio.
 70
     0
 71
     1
340
AA
340
AB
340
AC
340
AD
  0
GROUP
  5
AE
102
{ACAD_REACTORS
330
D
102
}
100
AcDbGroup
300
Group created by Visio.
 70
     0
 71
     1
340
AF
340
B0
340
B1
340
B2
340
B3
340
B4
340
B5
340
B6
340
B7
340
B8
340
B9
340
BA
340
BB
340
BC
340
BD
340
BE
  0
ENDSEC
  0
EOF
